<svg xmlns="http://www.w3.org/2000/svg" width="1057" height="430" fill="none"><path fill="#000" d="M549.3 1.8c1.2.8 1.8.9 2.6 0 1.2-.9 1.2-.9-.1-.8h-2.6c-1.2-.3-1.2-.3.1.8Zm4.7-.3c.4.4 2.6.6 5 .5 2.5-.2 3.6-.5 3-.8-.8-.4-3-.5-5-.5-2 .1-3.6.4-3 .8ZM504.6 16c-.4.9 2.7 1.8 3.2 1s-.8-2-2-1.9c-.4 0-1 .4-1.2.9Zm-58.8 11c-1.1.4-2.2 1-2.4 1.2-.5.7 3.6 1.3 6.8 1 1.5-.2 4-.2 5.4 0 1.6 0 2.5-.2 2.2-.5-.3-.4-1-.6-1.7-.6-.6 0-1.3-.3-1.5-.7-.3-.5-1.9-.8-3.6-1-1.8 0-3.9.2-5.2.6Zm164.5-12.4c3.3.8 4 .8 3.4.2-.2-.4-1.5-.7-2.8-.7-2.3 0-2.3 0-.6.5ZM488.1 34.3c-.9.4-1 .6-.3 1.6 1.2 2 .7 2.8-1.5 2.8-2.4 0-4.2 1.6-2.7 2.4.6.3.7 1 .4 2-.5 1.7.9 2.1 1.7.4.2-.5.2-.7-.2-.3-.4.4-.7.2-.6-.4 0-1.3 3.8-3.4 4.3-2.5.2.4 1.7.6 3.2.6 1.7 0 3 .5 3.3 1.1.3 1 .5 1 1-.2.5-1 1.2-1.3 3.6-1.2 2.7 0 3-.1 2.8-1.3-.2-1 0-1.3 1-1.4.6 0 2.2-.5 3.5-.9 1.5-.5 2.3-.4 2.2.2 0 .6.1.8.4.6.2-.2 2-.3 4.1-.2a32.5 32.5 0 0 0 8.5-1c3.2-1 5.2-1.1 5.9-.6.5.4 2.9.6 5.3.5 2.4 0 4.7.1 5.1.4.5.3 2.6.5 4.8.5 2.5 0 4.3.4 4.9 1.1.7 1 1 1 1.7.2.4-.7 2.2-1.1 4-1.2 2-.1 4.2.1 5.6.7 1.3.5 3.4.5 6-.1 3.2-.8 4.3-.8 6 .3 2.2 1.3 4.5.7 4-1.1-.1-.6-.9-1-1.6-.9-1 .2-1.3 0-1-1.4.3-1.4 0-1.7-1.4-1.8H570l-5.5.5c-2.4.3-4.6 0-5-.4-.7-1-4-.7-4.1.5 0 .5-.3.7-.6.5-.3-.3-1.4-.4-2.4-.2-1 .1-1.8-.1-1.8-.5 0-.5-.5-.5-1-.2-.7.4-1.2.3-1.1-.2 0-.4-.6-.8-1.2-.6a81.3 81.3 0 0 1-11.6-.1c-1.6 0-3-.2-4.2-.3l-5.3.1-7 .7-4.9.6-4 .5-5.6.5c-2.9 0-4.2-.2-5-.7-1.6-1-5.6-1-5.3 0 .1.3-.4 1-1.2 1.6-1.2 1-1.6.8-2.2-.4-.7-1.5-1-1.6-2.8-.8Zm127.5-18.5c0 .4.3 1 .5 1.2.4.2.6 0 .6-.4 0-.5-.3-1-.5-1.2-.3-.2-.6 0-.6.4Zm-139 20.6c-1.2.5-3.3.7-4.7.5-1.7-.1-2.5 0-2.6.7 0 .5.4.8.9.8.8 0 .8 0 0 .8-1.2 1.3-2.2 1.1-2-.2 0-.7-.2-1.2-.5-1.2s-.6.6-.6 1.2c-.1.7-.6 1.3-1 1.4-.9 0-.9.2 0 .6.5.4 3 .3 5.7 0 3.8-.7 4.6-1 4.7-2 0-1 .6-1.6 1.7-2 .9-.3 1.4-.7 1.1-1-.3-.2-1.5 0-2.7.4Zm3.5-.4c0 .4.4.8 1 1 .5.2 1 0 1-.3 0-.4 1.2-1 2.4-1.2 1.8-.4 1.6-.5-1-.4-1.9 0-3.4.5-3.4.9Zm-68.9 6.3c.4.4 1.3.8 2 .8 1.8 0 1.4-.5-.9-1-1.2-.4-1.6-.3-1 .2Zm35-.5c-.6 1.8-.3 2.1.7.8.5-.8.5-1.3.3-1.6-.3-.3-.8.1-1 .8Zm12.7-1.1c0 1 1.4 1.7 1.8.8.2-.4 0-.9-.5-1.1-1-.6-1.2-.6-1.3.3Zm3.2-.2c.3.4.4.8.1 1-.2.2-.1.3.3.1l1.5-.3c.4 0 .7-.4.5-.9-.1-.4-.9-.7-1.7-.7-1 .1-1.2.3-.7.8Zm101.6-9.6c.4.6.8.7 1 .5.1-.3-.1-.7-.7-1-.7-.3-.8-.2-.3.5ZM446.5 44.6c-1 1.6-1 1.7 0 1.6.8 0 1.2-.5 1.4-1.6V43c-.2 0-.8.7-1.4 1.6Zm-68 .5c-.6.3-.9.7-.6 1 .2.3.8.2 1.2-.1.5-.4 1.2-.4 1.6-.2.5.3.6.2.5-.4-.3-1.1-1-1.2-2.7-.3Zm50 .5c-.1.6-.6 1.8-1.2 2.6-1 1.4-1 1.4 0 .8.7-.4 2-.9 3-1a225.4 225.4 0 0 0 6.6-1.4c.7 0 .7-.2.2-.7-.4-.4-1.7-.5-3-.2-1.6.3-2.4.2-2.4-.4.1-.5-.6-.9-1.5-.9-1 0-1.6.4-1.7 1.2Zm37.6-2.2c-1.4.3-1.6.6-1 1 1.3.6 4.2-.2 4-1.1-.2-.4-.4-.7-.7-.6l-2.3.7Zm-9.5 1.5c-.2.5.2.8.8.8.6 0 1-.5.9-.9-.2-.4-.5-.7-.8-.7-.2 0-.6.4-.9.8Zm13.2-.8c0 .4.2.8.5.8s.5-.2.6-.4c0-.2-.2-.6-.5-.8-.3-.3-.5-.1-.6.4ZM360 45.8c-1 0-1.9.5-2 1 0 .4-1 .6-2 .4-3.8-.5-5.8-.3-5.2.7.2.5 1.6.9 3.4 1 1.7.3 3.8.3 5.1 0 .8-.2 2.9-.3 4.6-.3 1.9 0 3-.2 2.9-.7-.2-.5-.8-.9-1.5-.9-.8 0-1.3-.4-1.2-.8.1-.8-.7-.9-4.1-.4Zm31.4.8.4.8c.3.3.5.1.6-.3 0-.5-.1-.8-.4-.9-.3 0-.6.2-.6.4Zm120.7-4.4c.8.6 2.2 1 3.2 1 2.7-.4 1.4-1.6-1.8-1.8-2.5-.3-2.5-.2-1.4.8Zm-221.2.6c-1.4.4-3 1.5-3.6 2.4-1.2 1.5-1.2 1.6-.2 2.4 1.4 1 3.6.7 3.9-.6.1-.5-.3-1.3-.9-1.7-.9-.5-.9-.7 0-1.2.6-.3 1.4-.4 1.9 0 1.2.6 2.4-.2 1.8-1.4-.3-.5-1.2-.5-3 0Zm3.9-.6c.1.3.6.4 1 .2.5-.2.4-.4-.2-.5-.6 0-1 0-.8.3ZM437.6 49c-.3.6-.5 1.3-.3 1.5.4.7 1-.4.9-1.5-.1-.8-.2-.8-.6 0Zm-57.2.7c.1.3.6.4 1 .1.5-.2.4-.4-.3-.5-.5 0-.9.2-.7.4Zm34.5 1.3c-2.2.7-1 1.7 1.7 1.4 1.7-.2 3 0 3.1.6.1.5.4.7.6.5 1.3-1.7-2.4-3.5-5.4-2.5Zm20.3-.2c.2.8 0 1-.5.5-.5-.2-1 0-1 .4 0 1 1.4 1 1.9 0 .2-.5.1-1-.2-1.4-.4-.4-.5-.2-.2.5Zm22.5-1.2c-1.6.2-3 .8-3 1.3s-.6.7-1.4.5c-2.3-.5-1.4 2 1.1 3 2.8 1 5.2 1.5 5 .8-.1-.4-.5-.7-.9-.6-.3 0-1.1-.6-1.8-1.4-1.5-2-.4-2.8 2-1.4 1 .6 1.7.8 1.7.3 0-.4.4-1.3 1.1-2 1.2-1.4 1.2-1.4.1-1.2l-4 .7Zm121-13.7c0 .4-.4.8-.9.9-1.3.2-1 3.3.5 3.6 1.8.4 2.6-.6 1.9-2.5-.5-1.5-.2-1.9 1.9-1.9.5 0 .8-.3.7-.7-.4-1-4.1-.4-4.1.6Zm5.7.1c-.4 2.8 1.9 4.9 3.4 3.2.6-.6 1.5-1 2.2-1 3 .4 7.4 0 7.1-.7-.1-.4-1.8-.8-3.7-1A13 13 0 0 1 588 35c-2.4-1.7-3.2-1.5-3.6 1ZM378.1 51.5c-.2.4 0 .8.4.8 1 0 1.1-.5.5-1.2-.3-.2-.7 0-1 .4Zm26.3.4c-.3.5 0 .8.4.8 1 0 1.1-.4.5-1.1-.3-.3-.7-.1-1 .3Zm45.7-1.3c-.4.3-.7.8-.5 1.2.2.8 1.8 0 2-1 0-.8-.4-.9-1.5-.2Zm30.5-1.6c-.7.7-.6.8.4.7.7 0 1.1-.4 1-.8-.3-1-.3-1-1.4 0ZM373 51.9c-.7.1-1.3.6-1.3 1 0 .5.4.7 1.1.5.7-.3 1.7-.4 2.2-.4.6 0 1-.3 1-.6.2-.7-1-1-3-.5Zm89.6.3c0 .7.3 1.2.8 1.2.7 0 .8-.3.3-1.2L463 51l-.4 1.2Zm-75.5 2.6c-1 .8.2 1.7 2.5 1.8 1.4 0 1.5-.1 1-1.2-.8-1.4-2.2-1.6-3.5-.6Zm44.8.8a7 7 0 0 1-2.6.8c-.8 0-1.5.4-1.6.9 0 .4 1.1.5 2.8.3 3.6-.7 4.3-1 4.4-2 .1-1-1.4-1-3 0Zm-119.8-3.3c-.8.6-2.4 1.3-3.7 1.5-1.2.2-2.6.6-3 1-.5.4-1.4.5-2.1.2-.7-.3-1.5-.3-1.7 0-.2.4-1.4.6-2.7.4-1.3-.1-2.8.3-3.8 1-1.4 1.1-1.5 1.4-.7 1.5.6 0 .8.5.5.8-.2.4 0 1 .4 1.5 1 1 3.7 1.4 3.8.7 0-.4 1.4-.4 3-.2 2.1.4 2.8.2 3.1-.8.4-1 .1-1.4-1-1.5-2.2-.3-.5-1.7 2.3-1.8 1.2-.1 2.3-.5 2.4-.9 0-.3.4-.4.7-.1.4.3 1 0 1.3-.7.3-.7.9-1 1.4-.7.7.4 3.7-1.4 3.8-2.4.2-.9-2.8-.5-4 .5Zm299-16c-.2.5.1.8.7.7.6-.2 1.1-.6 1.1-1 0-.5-.3-.8-.7-.7-.5 0-1 .5-1.1 1ZM440.7 58.6c.5.5 1.1.6 1.4.1.4-.4 0-.8-.9-.8-1.2 0-1.3 0-.5.7Zm-111.5-2c-.6.6-1 1.2-.9 1.4.1.2-.5.1-1.3-.1-.9-.3-1.6-.2-1.8.1-.8 3-1 4.1-.4 4.2.3 0 .1.4-.3.7-.6.4-1.1.4-1.4-.1-.4-1-2.6-1.3-3.2-.4-.2.4-1.3.8-2.4 1-1 .1-2 .5-2 .9-.1.3-.7.8-1.3.9-.8.2-1.1.7-1.1 1.8s.4 1.5 1.9 1.6c2.4.2 1.8 1.6-1.1 2.2-1.7.4-2.3.9-2.4 1.9 0 1.5-.3 1.6-1.6.3-.6-.6-1.2-.7-1.7-.3-.4.3-1.4.4-2 .3-.8-.3-3 .1-5 .7-1.9.7-4 1.1-4.4 1.2-.5 0-1.8.8-2.7 1.8-1.5 1.6-3.5 2-5.2 1.4-.3 0-1.4.2-2.6.8-1.1.5-2.6.7-3.4.4-.7-.4-1.4-.4-1.7 0-.7 1-2 .4-1.7-.8.1-.6.7-1 1.3-1 .6.2 1.2 0 1.5-.5.4-.6-1-1-2.7-1-1.8-.2-4 0-5.2.6-1.1.6-2.4.8-2.7.5-.4-.3-.8-.2-.8.2-.3 1.2-5.3 1.7-6.3.7-1-1.2-2.7-1.5-2.4-.5 0 .4-.4.8-1 1-1.1.2-1.5 1.2-1.2 3 .1.4-.5 1.5-1.4 2.4-.9.9-1.7 1.4-3 1.7-1.2.3-3 .3-5.7.2-.7 0-.7.1-.3.7 1 1.2-2.6 1.9-3.6.7-.6-.6-1.6-.6-3.5.2-1.6.5-3.3.8-4 .7-.7-.1-1.6 0-2 .3-.3.2-3 .9-5.8 1.4-2.9.5-5.8 1.3-6.5 1.8-.6.6-1.7.7-2.4.4a4 4 0 0 0-2.7 0c-.8.4-1.7.4-2.2 0-1.3-1.1-4-.7-4.5.7-.2 1-.5 1.1-1 .6-.6-.4-.8-.3-.7.2.2 1-.9 1.3-4.5 1-1.8-.1-3.6.3-4.9 1-2 1.3-2 1.3-3.3-.3-1.2-1.6-1.4-1.6-3.5-1-1.2.4-2.5.6-2.9.5-.4-.1-1.6 0-2.6.4-1.4.4-2.3.3-3.1-.5-1.4-1.2-.8-3.4.9-3.4.6 0 1.4-.1 1.7-.4 1-.7 3.2 0 3 .9-.1.4-.6.6-1.2.5-.8-.2-.9-.1 0 .4 1 .7 3.3-.1 3.6-1.4.2-.6.8-.9 1.4-.7.5.1 1.2 0 1.5-.4.4-.4 1.4-.2 2.7.4 1.4.7 3.3 1 5.2.7 1.6-.2 3.1-.1 3.3.2.2.3.1 0 0-.8-.6-1.8-.5-1.8 2-1.9 1.3 0 1.8.1 1.4.6-.3.3-.2.8.2 1.2.4.3.9.3 1.1 0 .3-.3.2-.8-.1-1-.9-.8 3.2-3.4 5.4-3.4 1 0 2-.4 2-.7.1-.4.8-.5 1.5-.3.8.2 1.5 0 1.6-.4.2-.8 3.7-.6 4 .3 0 .4 1.6.1 3.8-.8 4.6-2 4.8-2.2 2.7-2.2-2.8 0-4.3.5-4.5 1.1 0 .4-1.2.4-2.6.1-1.3-.3-3-.4-3.5-.1-1.7.6-4.9.5-4.3-.2.3-.3 0-.7-.6-.9a1 1 0 0 0-1.4.8c-.1.6-.5 1-1 1-.3-.1-1 0-1.6.3-.8.4-.9.6-.3 1.3.4.7 0 .8-1.8.3-1.6-.5-3.2-.6-5-.4-1.8.1-4 .6-6.7 1.5-2.6.7-5.5 1.4-6.5 1.4s-2 .2-2 .5c-.1.4-.9.6-1.7.7-.8 0-1.5.4-1.6.7-.1.4-1.4.4-2.8 0-1.5-.5-3-.5-3.2-.2-.3.3-1.2.4-2 .2-1.3-.4-1.3-.4 0-1 .7-.5 1.1-1 1-1a5 5 0 0 1-1.5-1c0-.2-.7-.6-1.4-1-1-.5-1.6-.4-2.4.6-.5.6-1.3 1-1.6.9-1.3-.7-2.6-.6-2.4 0 0 .4-.3.8-.7.9-.4 0-.3.3.4.5.6.2 1.9.1 2.9-.2 1.3-.4 1.9-.3 2.3.5.4.8.3 1-.7 1.6-.6.3-1 1-1 1.4.2.6.4.7 1.1.3.5-.3 1.4-.3 1.9-.1.5.2 1.8.5 2.8.4 3.5 0 3.2 2.7-.5 4-1 .4-2.4.7-2.9.5-.4-.1-2 0-3.4.2-3.1.5-5.4-.7-4.4-2.3.5-.7.5-1-.3-.8-1.2.2-1.5-.7-.4-1.6.6-.6.6-.8-.3-1-.6-.2-1.3 0-1.4.3 0 .4-.4.4-.6.1-.4-.5-.4-.2-.3 1 0 .9 0 1.9-.4 2.2-.3.3-.2 1.1.2 1.8 1 1.7-.8 3-3.7 2.6-1.3-.1-2.1 0-1.8.3 1 .9.1 2.2-2.4 3.2-1.5.6-3.4 1-5 1-1.8 0-3.3-.2-3.8-.7-.4-.3-.8-.4-.9-.2-.2.9-3.5 1.2-5.1.6l-1.6-.6 2-.4c3-.5 2.4-1.9-1.2-2.5-1.7-.3-3.4-1-3.8-1.6-.6-.7-1-.8-1.2-.4-.3.5-.8.3-1.7-.6-1-.9-1.6-1-2.1-.7-1 .6-1.7.3-1.4-.5.1-.4.6-.5 1-.4.4.2 1.3-.2 2-.8 1.8-1.6 4.7-2.6 6.4-2 .7.2 2.5.1 4-.2 1.4-.3 3-.4 3.6-.3.6.2 1.3.1 1.6-.2.3-.3.9-.4 1.4-.3 1.3.5-.8 1.8-2.8 1.7-1 0-1.8.2-1.8.5-.4 1 1.2 1.8 3 1.3 3.5-1 6-1.3 6.8-1 1 .2 3.2-.7 3.4-1.5 0-.2-.4-.6-1-.8-.7-.3-1-.5-.5-.5 1.5-.3.6-1.6-1.5-2.3-1.3-.3-2.6-.3-3.4.3-1 .7-2.8.4-4.3-.4-1.5-.7-2.8-2-3-3.2 0-1.5 0-1.5 1.7-.5 1 .6 1.8.8 2 .3 0-.3.8-.7 1.5-.7l1.3-.1-1-1.1c-.7-.8-1.2-1-1.7-.3-.5.4-1.1.4-1.8 0-.6-.5-2.2-1-3.5-1.2-2-.3-2.5-.1-2.9 1.1-.7 2.4-.5 3.7.5 4.1.6.2 1 .6.8 1-.1.4.2.8.7 1 .4 0 .6.5.3 1-.3.4-1.5.3-3.1-.1-4.3-1.4-5.4-1.6-4.8-.7.6.9-1.3 2-3.4 2.1-.7 0-1.8.3-2.3.7l-5.5 2.2c-2.5.9-4.4 1.9-4.2 2.2.3.4.7.6 1 .5.2 0 .7.5 1 1.3.4 1.3.2 1.4-2.8.7a11 11 0 0 0-4.5-.2c-1.2.5-1.2.6 0 1.5.7.5 1.6 1 2 1 .5 0 1.2.5 1.6 1 .5.5 1.7.8 2.7.8 1.3 0 1.6 0 1.4.7-.5 1.4-5.4 3-6.2 2-.2-.4-.4-.4-.3 0 .2 1-3 1.4-4 .5-1.2-1-.6-2.4 1.2-3l1.5-.6-1.1-.4c-.7-.2-1.3-1.1-1.4-1.9-.2-1.4-.4-1.4-2.5-1.2-5 .4-5.6.6-6.3 1.7-1.2 2-.3 2.8 2.9 2.7 4-.1 4.2 0 3.2 2.8a7.3 7.3 0 0 0-.1 5l.7 2.7-1.8.1c-1 .1-2.2 0-2.7-.1-1.2-.4-6.9.6-8 1.3a4 4 0 0 1-2.1.6c-1.5 0-2 .7-1.7 2.5.2 1.5-1.1 1.8-2.6.6-.9-.7-1.5-.7-2.6.1-1.5 1-2.9.1-1.8-1.2.5-.5.2-.6-1-.6-1 0-3.3-.6-5.2-1.3-2.6-1-3.3-1.4-2.8-2 1-1-.8-1.3-5.8-.9-2.6.3-5.4.2-6.1 0-1.7-.6-2-.2-1 1 .6.7.1.8-1.7.4-2.9-.7-3.3-.6-3.1.5.1 1.2 2.6 2 4.3 1.3.8-.4 1.7-.5 1.9-.2.5.8 3.4.5 3.8-.3.4-1.2 1.8-1 3.4.3 1.6 1.3 1.1 3.3-.9 3.4-2.1.3-1.7 1.7 1 3 1.4.7 2 1 1.2 1-.7-.2-1.5 0-1.6.5-.3.6.4 1.1 2.3 2 1.5.7 2.8 1 3 .6 0-.2.7-.5 1.4-.4.8 0 1.9-.2 2.4-.5 1-.4.9-.5-.1-1l-1.2-.5 1.7-1c1-.4 2.6-.9 3.7-.9 1 0 2.7 0 3.7-.2a6 6 0 0 1 2.5 0c.4.2 1.6.3 2.7 0 2.5-.3 4 .4 4.6 2.4.5 1.6.5 1.6-1.5.8-1.5-.6-2-.6-2 0 0 1.2-1.4 2-2.5 1.6-1.2-.5-5.9 1.2-7.2 2.7-1.2 1.4-4.5 2.1-6.1 1.4-.5-.2-1.7-.2-2.7-.1-1 0-2.4 0-3-.3-.5-.2-1-.2-1.1.1-.2.4 1.1 1.2 2.7 1.9 1.7.6 3.1 1 3.2.7 0-.3.5-.3.9-.2.3.2 1.8.2 3.2 0 1.4-.1 3 0 3.7.2.7.3 2.3.5 3.6.4 1.4 0 3.4 0 4.4.3 2.7.6 3.6-.7 1.2-1.7l-1.8-.8 1.7-.5 3.1-1.2c.7-.3 1.5-.6 1.7-.5h3.7c2.7-.2 3.4 0 3.8.9.3.6.4 1.3.1 1.5-.6.6 1.4 2.3 3.4 2.8 2 .6 3.6 0 2-.7-.7-.3-.4-.5 1-.6 2.3-.2 3.1.3 2.6 1.8-.2.7.1.8 2.3.8 2.7 0 4.6.4 4.4 1.2 0 .3.9 1.7 2 3.1 1.6 2 2 2.7 1.2 2.6-1.2-.2-2.8.4-1.9.8.3.1.5.8.4 1.6 0 .9.4 1.6 1.2 2 .7.3.9.5.4.6-.4 0-.9.4-1 1-.4 1.1-4.9 1.8-5.1.7-.3-1-5-2.9-6.1-2.3-1.2.6-2.8-.8-2.4-2.1.2-.6.3-1.4.2-1.6-.2-.6-2.6-.4-3.4.2l-1.8.6c-1.1.2-1.2.3-.4.7 1.9.8.5 1.5-3.1 1.6-2 0-3.7.3-3.6.6 0 .4.5.7 1 .7.7 0 0 .5-1.3 1.2-2 1-2.2 1.2-1.4 1.6.5.2 1.2 1 1.3 1.6.3 1 0 1-1.4.8-2.1-.3-3.3.4-1.8 1 .6.3 1.1 1 1.1 1.4 0 .6.1.7.3.2.2-.4.7-.3 1.3.1.5.5 1 .5 1.2.1.1-.3.7-.3 1.4.1.6.5 1.3 1 1.5 1 .3.2.2.5-.1.8-.3.2 0 .7.5 1 .6.2 1.2.7 1.2 1.2.1.4-.5.5-1.3.1-.7-.3-1.4-.3-1.6 0 0 .4-.5.5-.8.4-.4-.2-3 0-6 .3-4.5.4-5.4.3-6.5-.8-.6-.7-1-1.6-.8-2 .3-.4.3-.5.1-.3-.8.7-2.3-.6-2.6-2.3-.3-1.4-.6-1.6-1.4-1.3-.6.2-1.5 0-2.1-.6-.8-.6-1-.6-1 .2-.1.7-.8.9-2.8.6-2.1-.4-2.7-.2-2.8.8-.2 1.6-.8 1.7-3.7.6-1.3-.5-2.4-.8-2.4-.6-.1.2-.8.4-1.6.4-1.5.1-1.5.1 0 .9 1.6.8 2.2 2.5.6 1.7-.6-.3-1.4-.2-1.7.2-.4.4-1 .6-1.5.3-.6-.3-1 0-1 .9 0 1-.4 1.2-1.4 1-.7-.3-1.6-1-2-1.5-.4-.6-1.1-.8-2.1-.6l-1.5.3.7 1.6c.5 1.2.8 1.5 1.4 1.1.8-.6 3.3 0 3 .7-.1.3-.6.4-1.2.2-.8-.4-.8-.3 0 .5.8 1 .8 1-.5 1.1-1.9.1-1 1.4 1 1.6 2 .1 2.3.8.5 1.4-1 .3-1.3.7-.7.9.2 0 .8.7 1.3 1.4l1 1.4-1.7.6c-1.3.5-1.5.8-1 1.3.4.3 1 1.5 1.5 2.5.7 1.8.8 1.9 1.9 1.3.5-.4 1.7-.4 2.6 0 1.4.6 1.4.6.7-.3-.5-.5-1.2-1-1.6-1-.3 0 .3-.3 1.5-.8 1.7-.6 2.2-.5 2.7.4.3.5.2 1.5-.2 2-.3.5-.4 1.3-.2 1.6.2.3-.2.8-1 1-1 .3-.9.4 1.7 1.3 3 1.1 4.3 2.8 2 2.5-1.9-.3-2 1-.5 3.3 1.3 2 1.3 2 0 1.9-.8-.1-1.9.3-2.5 1-.5.6-1.7 1.1-2.6 1.2-1.6 0-1.7.2-1.1 1.2.5 1.1.5 1.2-.6 1.2-.7-.1-2-.5-3-.9-.9-.4-2.6-.6-3.8-.4-1.2.3-2.5.2-3 0-1.5-.8-2.7-.7-2.7.3s-.6 1-3-.6c-1.5-1-2.3-.3-1.2 1 .5.5.7.5.6 0 0-.6.2-.5 1 .2.8.8 3.1 1.3 6.7 1.3.6 0 1.9.2 3 .5 1 .2 1.8.2 1.8-.2-.1-.3.4-.5 1-.5 2 0 6 1.6 6.2 2.3 0 .3.5.9 1 1.2.6.3 1 1 1 1.6 0 .7.4 1.2 1 1.2.5 0 1.5.9 2 1.8 1 1.6 1.2 1.7 4.3 1.9 1.9 0 4.2.3 5.3.6 1.7.5 1.8.7 1.3 2.2-.3 1-.8 1.4-1.4 1.1-.4-.2-.9-.1-1 .2-.1.4-.9.3-1.8-.1-.8-.4-2-.7-2.5-.6-.9.1-1 .2-.2.6.5.2-.4.8-2.1 1.4-1.6.6-3.4.7-4 .5-.9-.5-1.8.3-1 1 1.9 1.2 3.5 3.2 2 2.4-.2-.2-.6.3-.6 1-.1 1-.5 1.3-1.5.8-3.4-1.5-4.3-1.4-4 .7.1 1.9-.3 2-2.8 1-1-.5-2.5-.7-3.1-.5-1.4.6-1.7 1-.5 1.2.5 0 1 .7 1 1.6.2 1.2-.2 1.6-2.1 2.3-1.3.5-2.6.4-4.6-.2a94.7 94.7 0 0 1-8.7-4 51 51 0 0 0-5.8-2.7c-1.5-.5-2.5-.7-2.6-.4-.2.3-.7.1-1.2-.4-.5-.6-1-.8-1.2-.5-.3.9 1 2 5.2 4.5 4 2.3 4.8 3.3 3.2 3.4-.8 0-.2.5 1.7 1.6 3 1.8 7.1 3.2 7.9 2.7.2-.2 1-.4 1.8-.4 1.2-.1.9-.4-1.8-1.5-1.7-.7-2.9-1.4-2.6-1.5.4-.2 2.3.3 4.3.9 2 .6 4 1.4 4.8 2l1.6 1.1-2-.5c-2.2-.6-3.3.3-2.3 1.9.6.9.6 1-.1.7-1.6-.6-2-.8-3.4-1-.8-.2-1.5-.1-1.5.1-.3 1.5-1 1.7-2.5.9-1.3-.8-3.5-1.6-5.6-2.1-2.1-.6-4.1-.9-5-.8-1 .2-2.6 0-3.7-.4-1-.4-2.4-.6-2.9-.4-.7.3-.4.7 1.3 2.2 1.2 1 2.2 2.1 2.3 2.6 0 .6 2.9 2.6 5.9 4.4 3 1.8 6 3.4 6.7 3.2.5-.2 2.2.6 3.9 1.6 1.7 1 2.5 1.7 1.9 1.5-1-.3-1-.2-.4 1.9.4 1.1 1.3 2.4 2 2.8 1 .7 2 2.5 1.7 3.3 0 .3-1 0-2-.5-1.3-.9-1.5-1.1-.7-1.2.6 0 .8-.2.4-.5-1.3-.7-1.7.4-.7 2.2.7 1.2 1.6 2 2.9 2.4 1.4.4 1.8.7 1.4 1.2-.3.3-1 .4-1.5.2s-1.5-.3-2.1-.3c-1.2 0-1.2 0 0 1l1.7 1c.3 0 .7 1 1 1.9.6 2 2.2 3.2 3 2.3.4-.5.7-.3 1.6 1 1.2 1.7 6.3 3.8 6.5 2.6 0-.4 1.2-.5 2.4-.2 2.8.7 4.4 1.5 4 2-.4.5 0 1 1.4 1.8.8.4.9.3.4-.4-.4-.8-.3-1 .4-.9 1.1.2 1.4 2.2.3 2.3-.4 0-.5.7-.2 1.8.4 1 .4 1.6.2 1.5-.2-.2-.3.1-.2.6 0 .7.3.8.9.4.5-.4.8-.3 1 .3a6 6 0 0 0 1.1 2c.8 1 .6 1-1.4.4-1.5-.5-2.5-1.2-2.6-1.6 0-.5-.8-1-1.6-1.2-1.4-.4-1.4-.4-.2-.7 1.4-.3 1.4-.4.7-2.2-.9-2.3-2.3-3.2-6-3.9-1.4-.2-3-.8-3.3-1.3-.4-.4-.9-.6-1-.3-.1.4-.8.5-1.6.3-1.3-.3-1.3-.2 0 1.3.9.8 2 1.6 2.6 1.8.6.2 1 .6.9.9-.1.3-.6.3-1 0-.7-.3-1 0-1.3 1-.2 1 .2 1.8 1.3 2.7l1.5 1.3-2 .4c-3 .6-3 1.7.2 3.8 2 1.3 2.8 1.5 2.7.7 0-1 .5-1.2 2.8-.5 1.4.4 1.6.7 1 1.3-.6.7.1 1.5 2.5 2.5.5.3.9.8.8 1.1-.2.4-.7.5-1.2.2-.6-.4-1-.1-1 .8-.1 1-.4 1.3-1 1-.4-.3-.7-.2-.7.3.1.4-.4.5-1 0-1-.5-1.2-.4-1 .6.3.9.2 1.2-.6 1-.9-.1-.9.2-.2 2.3.6 2 1.2 2.6 2.6 3 1.1.4.8.5-1.2.4-2.3-.3-2.8 0-2.6.8.4.8 1 1 2.5 1 2 0 2 0 1.7 1.8-.2 1-.6 2-.9 2-.9 0-1.3 2.1-.4 2.6.4.3.7.1.6-.3 0-.4.2-.8.6-.8.4 0 .6.3.5.8-.7 2 .8 4.4 3.9 6.3 2 1.1 3 2.2 3 2.7s.6 1.3 1.2 1.7c1 .5 1.1.4.7-.8-.3-1.2-.2-1.5 1-1.5 1 0 3.3-.8 5.2-1.7 1.9-.9 3.4-1.9 3.2-2.3-.4-.6 1-.8 2-.3.5.3-.7 2.5-2 3.3-1.1.7-1.3 1.1-.9 1.8.8 1.2-.6 1.3-1.7.1-.4-.5-.8-.6-1-.1-.1.4 0 .7.4.7s.5 1.1.2 2.6c-.3 2-.1 3 .5 3.4 1.4.7 2.6 3.4 2 4-.4.2-1.6 0-2.7-.4-1.5-.4-2.1-.3-2.1.4 0 .6.6 1.4 1.3 1.7 2 .7 1 3-1 2.5-2.2-.7-2.6 1-.7 2.5 1 .7 1.6.8 1.8.3.2-.7 1.2-.3 3.8 1.2 3.1 1.8 3.7 2.4 4 4.2 1.2 5.4 1.3 5.5 4.3 6.2 2 .4 2.8.8 3.2 1.7.3.8 0 1.2-1 1.4-.8.1-1.4.4-1.2.6a22 22 0 0 0 4.7 5.6c2 1.1 2.6 2.6 1.9 4.2-.6 1.2-.4 1.6.9 2.5.8.7 1.6.9 1.7.5.2-.4 1-.4 1.8.1s1.4 1.1 1.3 1.5c-.2.4-.6.5-1 .3-.3-.3-.3.4 0 1.5.4 1 1.2 2.2 1.9 2.5.6.4 2 1.8 3 3.2 3.7 4.9 4.3 4.2 2.3-2.8-.7-2.6-1.2-5.1-1.1-5.6.1-.4 0-1-.2-1-1.4-.8-1.7-2.3-.6-3.3.8-.8.9-1.2.4-1.4-.4-.2-.4-.6 0-.8.2-.3.2-.6 0-.8-.8-.4 0-2.5 1.1-3 2-.9 7 3.5 5.5 4.8-.3.3-.3 1 .1 1.7.3.7.8 1 1 .8.9-.7 1.8-4.7 1-4.6-.3.1-1.4-1-2.6-2.5-2.2-3-2.6-3.3-2.4-2.1.1.5-.5.5-1.4 0-1.2-.6-1.6-.5-1.6.3 0 .9-.3 1-1.2.6-.7-.4-1.7-.4-2.4 0-1 .7-1 .6-.5-.8.3-1 1-1.8 1.7-1.9 1-.2 3.7-6.3 2.7-6.1-.3 0-.8-.4-1.2-1-.5-.9-.2-1 1.5-.9l2 .2-.9-1.9c-.9-1.8-.8-1.8.8-.3.8.8 1.4 1.8 1.2 2.1-.2.4 0 1 .5 1.2.8.3.6.6-.7 1.3-2 1-2.5 2.3-1.3 3 .5.2.8.8.7 1.2-.1.3.2.7.8.8.5 0 1 .4 1.1 1 .3 1.5 1.5.5 2.3-2 .8-2.8 2.4-3.7 3.8-2.2.8 1 .8 1-.5 1.3-1.2.3-1 .5 1.1 1.6 2.2 1 2.5 1.5 2.4 3-.1 2.2 1.2 5.3 2.2 5.1.4 0 .8.3 1 .8 0 .5-.5.6-1.3.2-.8-.3-1.1-.3-.7.1.5.6.3.9-.8 1-2 .6-3.2 2.6-1.6 3 1 .1 1 .4.5 1.4-.8 1.2 0 2.3 1 1.4 1.2-1 1.6 0 .7 2l-1 2.1 2.4-1c1.3-.5 2.6-.8 3-.6 1.1.6 1.8-.5 1.5-2.3-.2-1.3 0-1.6.5-1.3.6.3.6 0 .1-.7-.4-.7-.4-1 0-.9.3.2.8.8 1 1.4.4.9 1.1 1 3.1.8 3.3-.5 3.4-.5 3.7 2.2.3 2.5-.5 3-3 1.9-.7-.4-1.4-.4-1.5 0-.1.4.2.9.8 1.2.5.2.7.6.4.9-.7.6 1.8 3.5 3 3.6.8 0 1.4-.8 2-3.1.7-2.5 1-3 1.8-2.5.8.6 1.5 2.6 1.6 4.3 0 .2 1 .2 2 0 1.2 0 2.3.2 2.6.7.4.7 3 3.1 4.2 3.9.2.1.7 1 1.1 2 .5 1 1.2 1.8 1.7 1.8s1.1 1.5 1.5 3.7c.4 2.1 1 4 1.5 4.2.4.1.6.6.6.9-.1.3.8 3 2 5.8s2 5.5 2 6c-.1.4.4 1.5 1.3 2.3 1 1.3 1.2 1.7.5 1.9-.8.1-.8.5.2 1.6.8 1 1 1.8.4 2.7-.8 1.3.6 6.5 2 7 .4.3 1.4 2 2.2 3.8.8 2.2 1.6 3.3 2.1 3 1-.5 1-2.8-.3-5.9a266.2 266.2 0 0 1-5-14.2 16 16 0 0 1-.7-5.3c0-1.8-.2-3.3-.6-3.5-2-.6-2.9-1.5-3.7-4.2-1-3.3-1.3-8.6-.2-6.4.8 2 2.8 2.5 3.6 1 .4-.8 1.2-1 2.2-.6.9.4 1.4.3 1.3-.2 0-.5-.7-1.1-1.4-1.4-.6-.3-1.1-1-1.2-1.8 0-.8-.6-1.3-1.3-1.4-.7-.1-1.6-.7-2.1-1.3-.6-.8-1-.8-1.1 0-.4 1.5-1.4 1-1.5-.8 0-.8 0-1.8-.2-2.3-.1-1.3 2.6-.8 3.9.7 1.1 1.4 1.1 1.4 2.3-.5.6-1 .6-1.5-.1-1.8-2-.8-1.2-1.7.8-1 1.3.4 2.5 1.4 3.1 2.7 1.2 2 3.3 3.5 3.6 2.3 0-.3-.1-1-.5-1.3-1.3-1.2.5-1.4 3.3-.4 1.8.7 2.8 1.4 2.9 2.1 0 .6.5 1.3 1 1.5 1.3.5 1 1.7-.3 1.7-.8 0-1 .4-.7 2.2.3 2.5.6 2.7 2.6 1.3 1.1-.7 1.4-1.2.9-1.6-.4-.4-.6-1.2-.5-1.7.2-.7.6-.8 1-.4a27 27 0 0 0 1.7 1.6c1 1 .9 3-.3 2.6-1.3-.4 1.2 2 2.8 2.6 1.9.8 2.2-1 .5-2.9-.7-.8-1.3-1.9-1.2-2.2 0-.3-.4-.8-1-1-.6-.2-1.4-1.3-1.8-2.3-.4-1-1.1-2-1.5-2.2-.5-.2-.7-1-.5-1.8.5-1.8 1-1.6 2.3 1.2.7 1.4 1.7 2.3 2.8 2.6 1.3.3 1.8.9 1.8 2.3 0 1 0 2-.2 2.4-.3.6.6 2.3 1.5 2.6.3.1.6-.2.7-.8.2-.5 1.5-1 3-1.2 3-.2 3.8-1.3 2.8-3.6-.4-.6-.6-2-.6-3 0-1.4.3-1.7 1.2-1.3.7.3 1.3 1 1.3 1.7.1 1 .4 1 2.2.4 1.2-.5 2.4-.8 2.8-.6.3.1.9-.2 1.2-.8a1 1 0 0 1 1.5-.1c.6.5.6 1 0 1.8-.7.8-.8 1.4-.3 1.8.4.4.3.5-.4.3-.6-.2-1-.7-1-1.2s-1-.3-2.1.5c-1.1.7-2.4 1.2-2.9 1-.5-.2-.8.2-.7 1v1.8c-.2.5 4.2 7.2 4.8 7.4.8.3.5-1.4-.4-2-1-.6-1-.7.3-.8.8-.1 1.7.3 2.3 1 .5.8 1.7 1.6 2.6 2 2.3.7 2.1-1.3-.2-2.4-1-.5-2-1.3-2-1.9-.2-.5-1.2-1.2-2.4-1.5-1.8-.7-1.9-.8-.6-1.3 1.1-.5 1.2-.7.5-1-.6-.3-.2-.6.9-.9 1-.2 2.4 0 3.2.5 1.2.8 1.3.7 1.1-1.3-.2-2.2-.1-2.2 1.3-1.2 1 .7 1.5.7 1.7-.2.2-.5.7-1 1.3-.7.5.2.7.6.4 1-.3.3-.3.6 0 .7.2.1 1-.3 1.6-1 .8-1 .9-1.3.1-2-.7-.6-.6-.8.8-1.6 2-1.1 2.4-2.5 1-3-.9-.2-.9-.4-.2-.9.6-.4 1.3-.2 2.4 1 2 2 5.7 2.1 6.7.3.3-.7 1.1-1 1.7-.9.6.2 1.6 0 2.1-.3.8-.5 1.2-.4 2 .6.6.7 1.3 1 1.5.7.3-.3 1-.2 1.7.2 1 .7 1.3 2.5.5 4.6-.1.3 0 .5.3.5s.6.3.7.8c0 .5-1 .6-2.6.3-2.5-.6-2.8-.4-3.1 1.2-.4 1.3-.1 1.9 1 2.2 1 .3 1 .7.5 1.6-1.3 2-2.6 6.5-1.9 6.8.4.1 1.1-1 1.7-2.5 1.7-5 2.6-6.2 4-5.5.6.3 1.4 1.4 1.7 2.3.3 1 1 1.8 1.3 2 1 .3 3.8 5 3.2 5.4-1 .6 1 3.7 2.6 4.2.8.2 1.4.8 1.3 1.2 0 .4.5 1 1.2 1.2 1.3.3 1.4.2.8-1.7-1.5-4.8.2-8 2.9-5.5.7.6.9 1.1.4 1-1.3-.2-1.2 1.2 0 2.5 1.5 1.5 3.9 1.3 4.3-.3.3-1.1.3-1.1.3.1 0 1.8 1.9 2.4 2.2.8 0-.6.5-1 1-1 1.2.4.1-1-1.4-1.7-2.3-1-2.9-1.7-2.3-2.7.4-.6 0-1.6-.7-2.3a8.2 8.2 0 0 1-1.7-2.4c-.4-1.2-2 .6-2 2 .2.8 0 .8-1 0-.5-.7-1-1.5-.9-1.9V377c-.2-1.1 0-1.3.8-.6 1.5 1.2 6.4.8 6.6-.5.2-.6.9-1.3 1.7-1.6 1.2-.4 1.4-.2 1.2 1-.2.9-.2 2.1-.2 2.8.2 1-.2 1.2-1.2 1-2-.6-2.4.8-.3 1.7 1 .4 2.1.5 2.4.2.3-.3.6 0 .9.6.3.9.4.9.6-.1.1-.7-.1-2-.5-2.8-.6-1-.6-1.7.2-2.8.6-.8 1.4-1.1 1.8-.8 1.3 1 2-1 1.3-4.2-.4-2.4-.9-3-2-3-2 .1-2.4-1.6-.5-1.8.8-.1 2.1-.7 3-1.3.8-.6 2-1 2.8-.9.6.2 1.3 0 1.4-.6.1-.5.3-.6.5-.3.2.4 1 .4 1.8.1 1.1-.4 1.5-.3 1.8 1 .3 1.3.5 1.2 1.4-.2.6-1 1.8-1.9 2.6-2.1 1.2-.4 1.4-.8 1-2.6-.5-2-.5-2-.8-.4-.4 1.9-.7 1.9-2.5.5-1.1-.9-1.1-.9.4-1.1 1.6-.3 2.1-1.2 1.2-2.2-.9-1-.4-2 1.1-2.1 1.7-.3 2-1.6.4-2-2-.4-2.5-2.9-1-4.8.4-.5.7-1.6.7-2.5-.1-1 .1-1.5.8-1.3 1.1.2 2.2-1.7 1.3-2.4-.4-.3.4-.4 1.7-.1 1.3.2 2.9.3 3.5.1 1-.2 1 0 .6 1-.5.9-.3 1.2 1 1.5.8.2 2 1 2.3 1.7 1 1.5 2 1.3 2.3-.5.2-1 .9-1 4.4 0 2.4.8 4.4 1.7 4.7 2.2.2.4 3.4 1.1 7.2 1.6 5.7.7 6.7 1 6.6 2-.3 1.6.8 2.7 1.9 1.8.4-.5 1.3-.7 2-.6.5 0 1.6-.7 2.4-1.7.7-1 1.8-1.7 2.3-1.6.5 0 1-.2 1-.6.3-1.5-2.6-4.3-5.4-5.3-4-1.4-3-2.9 1.4-2.3 6 .8 6.3.7 3.8-1-1.4-.8-3-1.6-3.5-1.7-1.7-.2-1.2-1.7.6-1.9a58.4 58.4 0 0 1 14.2 1c.3.9 4.8.7 5.5-.3.3-.4-.3-1-1.3-1.4-3.1-1.3-2.9-1.5 1.1-.8 4.9.9 5.8-.5 1.3-2-.8-.2-1.6-.6-1.8-1-.6-1.1 6.4 1.1 7.2 2.3.6.7 1 .7 1.2 0 .3-.5 1-1 1.5-.9 1.6.2-2-2.7-4.5-3.8-1.2-.4.6-.2 3.5.2a138.3 138.3 0 0 1 10.3 1.8c2.4.6 4 .6 4.4 0 .6-.9 6.4-.6 7 .4l3.4.7 7.5.7a295.8 295.8 0 0 1 14.6 1.3c4 .5 6.7 1 7.2 1.6.4.2 1.3.4 2.2.3a3 3 0 0 1 2.5 1.1c.7.8 3.5 1.6 6.5 2 3 .3 6.2.4 7.3-.3.8-.5 2-1 2.5-1.2.5-.1-.9-.8-3.2-1.5l-4-1.1 5.2-.1a727.3 727.3 0 0 0 15.6-.1 329.8 329.8 0 0 1 10.5.1 136.5 136.5 0 0 0 10.6-.3c0-.3-.5-.7-1-.9-1-.2-.9-.3.2-.4.8-.1 1.6.2 1.8.6.5 1.2 2.2.9 2.3-.4 0-.9 1-1.2 3-1.3 3 0 3 0 1.5 1.1s-1.3 1.2 2.2.7c2.6-.3 4.5-.1 5.7.6 1 .5 3.7 1.2 6.1 1.5 2.5.2 5.2.7 6.3 1 1 .4 3.5.6 5.5.5 3.8-.3 9.2 1.4 6 1.8-3.4.5-.8 1 4.2.8 2.8 0 5 .1 6.5.5 1.4.4 2.2 1 2.5 1.8.4 1.4 3.9.9 3.9-.6 0-.7-.5-1.2-1.2-1.3-.7 0-1.4-.3-1.6-.7-.2-.4-2-1-4-1.3a732.2 732.2 0 0 1-9-1.5 7.4 7.4 0 0 1-2.8-.9 6 6 0 0 0-2.8-.4c-1 0-1.5-.2-1.2-.8.2-.4 0-1-.7-1.3-.6-.2-1.2 0-1.4.6-.4 1.2-7.1 1.8-7.7.7-.2-.4-1.5-.7-3-.6-1.5.1-2.4 0-2.2-.4.3-.4 4-1 8.1-1.3 5.6-.5 7.9-.4 8.5.3.6.8 1.2.8 2.2 0 1-.7 2.8-.9 6.5-.6 2.9.2 5.5.1 5.8-.1.3-.3 1.4 0 2.5.5 1 .6 2.4.8 3 .4.7-.4 1-.3.7.2-.6 1.3 1.6 1.7 4.7.8 1.6-.5 2.7-1.2 2.7-1.9 0-.6.4-1.2.7-1.2.4 0 .6.6.4 1.6-.4 1.7.5 2.3 1 .6.4-1.6 2.5-.1 2.3 1.7-.3 1.7 0 1.8 3.4 1.1 2-.4 5-.3 6.5.1 1.6.5 4 .8 5.3.9 1.3 0 3 .3 3.7.7 1.6.8 1.7.4.7-1.7-.7-1.8.2-2.2 1.4-.6.4.6 1 1 1.4 1 .8-.1.7-2.9-.2-3.8-.6-.7-.5-1 .7-1.1 1.1-.2 1.4-.6 1-1.8-.4-1.5.9-3.3 1.6-2.2 1 1.5 3.8 2.3 5 1.3 2-1.8 8 .4 6 2.2-.5.6 0 .8 1.3.6 2.7-.3 2.8-.3 4.6.6.8.5 1.7.5 2 .2.4-.3.9-.2 1 .3.4.4 1.3.4 2.3 0 1.3-.6 2.3-.4 3.7.9 2.8 2.3 4.3 2.6 5.3.6.7-1.3 1-1.4 1.9-.8.5.5 1.6.6 2.3.2.6-.3 1.6-.2 2 .4.4.5 1.6.7 2.5.4 1-.2 2.4-.1 3.2.2.8.4 1.7.6 2 .5 1.3-.6 2-.2 2.4 1.2.2.9.9 1.5 1.4 1.4 1.3-.3 7.8 3 7.8 4 0 .4.9.6 1.8.3 1-.2 1.4-.5 1-.7-.5 0-.9-.7-.9-1.4 0-1 .4-1.2 1.5-1l2.3.2c.5 0 1.8.8 3 1.7 1.1 1 2.3 1.7 2.6 1.6.2 0 1 .7 2 1.6.8 1 1.8 1.7 2.1 1.6h2.7c.4 0 .7.5.7 1.2s.5 1 .9.8c.4-.3 1.4 0 2.1.6 1.5 1.3 2.9 1.2 3.4-.1.4-1 2.3-.8 2.4.3 0 .3-1.8 1.1-4 1.6-2.2.6-3.8 1.2-3.6 1.5.1.3 3 0 6.3-.9 3.2-.9 5.8-1.3 5.7-1-.1.3.7 1 1.8 1.5a7 7 0 0 0 4 .3 67 67 0 0 0 8.7-2.3c2.1-.6 4.2-1 4.7-.7a7 7 0 0 0 2.8.6c1.1 0 3 .8 4.2 1.8l5.5 4c1.9 1.4 3.7 3.1 4 3.9.2.7.9 1.2 1.4 1 .5 0 1 .1 1 .5s.7.8 1.5.9c.7 0 1.2.5 1 1-.1.4.3.9 1 1 .7 0 1.6.6 2.2 1.2.5.6 1.6 1 2.6 1l1.7-.2-1.9-1.8a8 8 0 0 1-2-2.4c0-.4-1-1-2.4-1.6-1.4-.5-2.5-1.5-2.6-2.1 0-.7-.5-1.1-1-1-.6.2-2.2-.5-3.6-1.5-1.9-1.3-2.4-2-2-2.9.6-.8 1.3-.5 3 1 1.7 1.6 2.3 1.8 2.7.9.2-.7 0-1.6-.4-2.1-.8-.8-.7-1 .3-.8.7.1 1.4.2 1.5.1.2 0 .3.4.4 1 0 .7.8 1.1 1.6 1 .8 0 1.6.3 1.6 1 0 .6 1 1 2.4 1 1.7 0 2.5-.6 3.3-2 1.4-2.3 1.7-2.4 2-.6.1 2 3.4 5.2 5.1 5.2 2.1 0 3.1-1.7 2-3.1-1.2-1.7.1-2.9 2.7-2.6 1.4.2 2 0 2.3-1 .4-.9.6-1 1-.3.6 1.3 2.3.6 2.2-.9v-2c0-.5.1-1.2 0-1.6.1-2 2.7-1.4 6.6 1.5 2.3 1.6 5.3 3 6.6 3 1.3.1 2.5.6 2.5 1.2 0 .5 1.6 1.1 3.3 1.3.9 0 2.3.5 3.9 1.1 1.5.6 3.3 1.5 4.8 2.3a57.5 57.5 0 0 0 8.5 3.7c1.6.3 3.6 1.2 4.3 2 1.3 1.2 1.7 1.2 2.9 0 .8-.8 1.2-1.7 1-2.1-.2-.4 0-1 .6-1.1.5-.2 1.3.1 1.6.9.3.6 1.2 1 1.9.7.7-.3 2.2-.3 3.3 0 1.1.2 2.5 0 3-.5 1-.8.9-1-.4-1.7-.7-.5-1.8-.9-2.4-1-.7 0-.8 0-.1-.4.4-.2.5-.6.3-1-1.2-1.4 2.8-1.7 4.6-.3 2 1.6 3.7 2.3 6 2.5.9.1 2 .6 2.6 1 1.2 1 2.6.7 3-.8.2-.6.1-.7-.2-.3-.3.4-1.9 0-3.5-.8s-3.2-1.3-3.5-1.2c-.3.2-.8-.1-1-.6-.3-.6-.2-.8.3-.7.5.2.8 0 .7-.5-.2-1.2 2.2-2.4 3.7-1.8.8.3 2 .1 2.5-.3.5-.5 1.4-.7 1.9-.4.5.2 1.7.3 2.5.1.8-.2 1.8 0 2.2.5.5.6.8.6.6 0-.2-1.5 1.4-1.8 3-.6 1 .9 1.5.8 2.1-.2.5-.6.9-.9 1-.5 0 .3 1.3.8 2.7 1.1 1.5.2 4.2 1 6 1.6 2 .7 4 1 4.6.7.5-.2 1-.1 1.1.2.1.6 1.7 1.3 3.6 1.7 2 .5 4.1.7 5.4.4 1.4-.3 3.2-.1 4 .3.7.5 2.1.8 3 .7.9-.1 2.2.1 3 .5.7.3 2 .7 3 .8.8 0 1.5.6 1.5 1.2 0 .5 1.6 2 3.7 3.1 3 1.8 3.6 1.9 3.1.7-.6-1.8.8-2.8 2.8-1.7.7.4 1.8.3 2.6-.4 1-.8 1-1.3.4-2.9-.7-1.4-.6-1.8.3-1.8.6 0 1 .3.9.7-.3 1 5.2.3 5.6-.6.2-.4-.3-1-1.2-1.3-1.4-.7-2-1.5-2.7-4-.2-.7-1-1.6-1.6-2l-.9-.5c.2 0 .6-.5 1-1.1.5-.8 1.1-1 2.2-1 1 .2 1.6 0 1.8-.7.2-.6.7-.8 1.4-.7 1.7.4 2.1-.1 1.1-1.3-2.2-2.4-1-2.7 4-.8 2.3.7 4.9 1.3 5.8 1 1-.1 3.2.4 5 1.3 3 1.3 3.4 1.3 4.7-.1.8-.9 1.4-1.8 1.3-2 0-.3-1.5-1.2-3.3-2a16.4 16.4 0 0 1-6.2-5c-.1-.2-.4-.2-.6 0-.2.3-.5 0-.7-.6-.2-1.2-1.2-2-4.5-3.7-1.3-.7-1.9-1.4-1.4-1.6.7-.4.6-.5-.2-.6-.6-.2-1.3 0-1.5.3-.6.8-6.2-.9-6.5-2 0-.5.1-1 .5-1.2.3-.1.6.2.6.7 0 .6.9.7 2 .3 1-.3 2.6-.6 3.5-.5.8 0 2-.3 2.5-1 .6-.5 1.5-1.3 2.1-1.6 1.3-.8 1.3-.8 1.5-3.8 0-2 .5-2.7 2.8-4.3 3.6-2.6 7.5-4.3 8-3.5.2.3.7.4 1.2.2s1-.1 1 .3c.1.4.5.5.8.4.4-.2.5-.8.4-1.4-.1-.5 0-1.1.2-1.2 1-.5 7.8.4 7.6 1-.1.4-.6.7-1.2.8-.7 0-.8.3-.3 1 .3.5 1 .6 1.4.2.4-.5.8-.5.9-.2.3 1 2.2.5 3.5-1 1-1.2 1.6-1.4 2.7-1.1 1.4.4 2.7 2 1.4 1.9-1-.2-.6 1 .5 1.4.5.2 1.8 0 2.8-.1 1.5-.4 1.8-.6 1-1-1-.7-1.5-2.9-.7-3.3.3-.1.2-.8-.2-1.5-.9-1.7 1.2-2.2 2.5-.6.6.7 1.5 1 2 .7 1.5-.7 1.5-3 0-3.8a4.2 4.2 0 0 1-1.6-2.4c-.6-2.3 1.7-4 5-3.8 1.5.1 3 0 3.4-.2 1-.6.8 1.7-.4 2.6-1.1 1-.3 1 4 .1 2.3-.5 2.7-.3 2.7 1 0 1 .3 1.3 1 .8 1.5-.6 3.6-.5 6.8.6 3.1 1.1 5.8 1.4 6.1.7.1-.3.8-.5 1.5-.5 1.8 0 1.4-1.1-.6-2.1-2.2-1-2.3-1.8 0-2.7 1-.4 2-1 1.9-1.3 0-.3-1.3-1.1-2.8-1.8-2-1-2.3-1.3-1.2-1.3.8 0 1.7.3 2 .5.3.2 1.6 0 3-.4 1.5-.5 2.7-.5 3 .1.2.5 1.7 1 3.2 1 1.7 0 3.3.7 4.2 1.7.8.8 1.8 1.4 2.2 1.2.4-.2 1.5-.2 2.5 0s2.3.2 3 0c2.2-.7 2.3.8.2 2-1.2.7 0 .5 3-.5 3-1.1 5.4-1.8 7-2.2 1.5-.4 2.4-.4 2.5 0 .1.3.8.4 1.4.3.7-.2 1.8.2 2.4.8 1.3 1.4 3.2.6 2.4-1-.3-.6-.8-1.2-1-1.3-.4 0-.5-.5-.4-1 0-.3 1.5-.6 3.2-.6 3.3 0 5-.6 4.7-1.8-.1-.4.3-.3 1 .3 1 .9 3.9.6 6.3-.2 2.4-.7 4.3-2 3.5-3-.2-.3-.5-1.4-.5-2.4 0-2.1-.2-2.1-5-.2-1.5.6-3.8 1.2-5.1 1.4l-2.4.3 2.2-1.8a13 13 0 0 1 2.9-2 105.2 105.2 0 0 1 5.6-2.3c1.2-.3 2.1-1.1 1.6-1.5-.2-.2 1-1.5 2.9-2.8 3-2.3 3.3-2.6 3-4.2-.3-1.6-.2-1.7 5-5.2 3-1.9 5.6-3.4 5.8-3.3.2.2 1.2 0 2.3-.4 1.6-.7 2-.5 2 .7.1 1 .6 1.5 1.4 1.6 1 .2 1 .3-.6 1-1 .3-2.3.4-2.8.2-1-.5-7.7 1.8-8.4 2.9a5 5 0 0 0-.3 2.2c0 1.3.7 1.9 2.5 2.5 1.7.6 2.3 1.1 2 2-.4 1-3.1 2.4-4 1.9-.2-.2-1 0-1.7.4-1.2.7-1.2.8.2 1.3.9.3 2.2 0 3.2-.5 1.9-1.1 5.3-1.2 5-.1 0 .3.8.6 1.8.4 1-.2 2.7-.1 3.8.1 2 .4 2.3.4 4.6-1.3a9 9 0 0 1 3.5-1.3c1-.1 2.6-.4 3.5-.7l1.6-.5-1.6-.1c-.9 0-1.6-.5-1.6-1 0-1.8-1.6-1.8-5.3.3-2.1 1.1-4.2 2-4.6 1.8-.5-.2-.6-.3-.1-.3.4 0 .9-.6 1.2-1.3.3-1 .2-1.3-1-1.3-.8 0-1.6-.4-1.8-1-.3-.9-1.8-1-5.3-.2-3 .7-1.3-1.2 4-4.4 3.2-2 4.6-2.5 4.8-2 .2.5.3.5.3-.3 0-1.2 3.4-3.1 3.7-2.1.4 1 2.3.4 6-1.8 2.9-1.8 3.4-3 .7-2.2-2 .7-2.5-1.3-.5-2.2.7-.3 1.3-.9 1.1-1.2 0-.4-.7-.3-1.3 0-.8.5-1.2.4-1.1-.3 0-.6.4-1.3.8-1.6.5-.2 1.4-1.2 2-2.2.8-1.4 1.5-1.8 3.7-2.5 2.3-.8 2.7-1 2.9-2 .1-1 .5-1.3 1.5-1.4 2-.1 3.9-1.5 3.2-2.2a1 1 0 0 1 0-1.3c.3-.4-1.7.7-4.4 2.3a29.1 29.1 0 0 1-6 3c-1.6.6-3 .6-4.8.4-3.4-.4-5 .2-5.8 2-.6 1.5-.5 1.6 1 1.5 1.4 0 1.2.1-1.9 1.8-1.9 1-3.8 1.7-4.3 1.5-.4-.1-1.3 0-1.8.3s-1.6.3-2.4 0c-.8-.3-1.8-.3-2.1-.1-.9.5-6.3-1.2-6.3-1.9 0-.2-.4-.3-.9 0-2 1-2.4 1-2.6.5-.1-.4.3-1 1-1.3 1.8-1 1.5-2.2-.7-2.1a6 6 0 0 0-3.7 1.4c-1 .8-1.7 1.1-1.8.7-.1-.4-1-.2-2 .3-1 .6-1.8.7-2 .4 0-.3.3-.6.9-.7 1.4-.2.8-1.4-1-1.6-1-.2-1.2-.4-.7-1 1.3-1.5-2.2-1.5-4.6 0-3.3 1.9-4 2.2-3.7 1.2 0-.5.6-1 1.2-1.1a3 3 0 0 0 1.8-1.3c.4-.6.4-1 0-.8-.3.2 0-.2.5-.9.6-.6 1.5-1 2.2-1 .9 0 1.1-.3 1-.9-.5-1.4.5-2.9 2-3.1 3.3-.5 4.6-1 4.3-2-.1-.5-.4-.6-.6-.3-.2.3-.8 0-1.2-.7a2.1 2.1 0 0 0-2.4-1c-.9.3-1.5.1-1.4-.3 0-.4.6-.8 1-.8 1.4-.2 3.1-2.8 2.5-3.5-.4-.5.2-1 2.2-2l3.2-1.4c.3-.1 1.4.1 2.5.5 1.3.4 3 .2 5-.5 1.6-.7 3-1 3-.8 0 .2.6 0 1.3-.3.6-.3 1-.8 1-1-.1-.3-.4-.4-.7-.3-.3.2-1.4-.3-2.4-1-1-.9-2.8-1.4-4-1.3-1.3.1-2.6 0-3-.3-.4-.3-.4-.5 0-.4.3 0 .9-.4 1.2-.9.4-.6 0-.8-1.6-.5-1.6.3-2.3 0-2.3-.6 0-1.3 2.7-2.1 4.9-1.4.8.2 2 .2 2.5-.1.5-.3 1-.4 2.4-.6l8.2-.6c3.6-.3 6.8-1 6.6-1.5-.6-1.9-5.3-2.4-8-.9-1.3.7-1.5.6-2-1.2-.2-1.4 0-2.2.5-2.3 1.3-.4 7.5-.4 8 0 .5.2 1.7-.1 3.2-1 1.6-1.1 0-2-3-1.6-1.8.2-2.8 0-2.8-.7 0-1-2.8-3.2-3.1-2.4-.1.2-.9.5-1.7.4-.8 0-1.7 0-2 .2l-3.4.8-3.6.8c-.5.1-.8-.3-.8-1 0-1 2.2-2 4-1.8.4 0 1.9-.5 3.3-1.2l5.5-2.5 6-2.6a63 63 0 0 1 7.9-3c.8 0 2.6-.7 4-1.4 1.4-.8 2.8-1.2 3.1-1 .4.3.4.5 0 .4-.3 0-1 .6-1.4 1.3-.6 1.2-.6 1.2.9.7 1-.3 1.6-.8 1.6-1.6 0-1.7.7-2.5 2.2-2.5 1 0 1.4-.4 1.8-1.4.6-1.2.5-1.4-.8-2.2-.8-.5-1.7-.7-2.1-.5-2 1.1-2.8 1.2-3.4.4-.7-.9-2.1-1-4-.5-1.9.6-4.3 1.9-7 3.8a69 69 0 0 1-6.4 4.1c-1.2.7-1.8.7-1.9.3l-.5-1.3c-.3-.6-3.7-1-4.7-.5-1.3.7-3.9-.2-4.9-1.5-.6-.9-.6-1.2 0-1.2.4 0 .6-.3.4-.8-.3-.8.1-1 2.3-.9 2.4.1 4 1 4.2 2 .1.8 2.5 1.3 4.2 1 1.4-.3 1.4-.4.4-.9-.6-.3-.9-.6-.6-.8.2 0-.1-.4-.7-.8-.9-.4-1-.7-.5-1.2 1.1-1 .3-1.6-2-1.2-1.1.2-2.2 0-2.3-.3-.1-.3-.5-.2-.7.2-.4.5-.6.3-.6-.8-.1-1-.7-1.7-2-2.2-1.5-.6-1.6-.8-.8-1.5 1.4-1.2 5.4-1.5 7.8-.6 2 .8 7-.3 5.8-1.3-.3-.2-.3-.5 0-.6.6-.3 4.1.5 3.5.9-1.1.6 1.7 1.2 2.9.6 2.2-1.2 3.4-1.1 3 .2-.4.9 0 1 1.3.9.9-.1 2.2-.6 3-1l1.3-.9-1.7-.6c-1-.4-2-.5-2.5-.3-.6.3-.6.2-.4-.8.5-1.5-.5-2.8-1.7-2.2-.5.3-2 .4-3.6.3-2.3-.1-2.7-.4-2.9-2-.2-1.5-.4-1.6-1.5-1-.7.3-1.8.5-2.4.5-.8-.1-.8-.3.1-.9l1.9-1.2 1.8-1.1c1.7-1 .2-1.4-2.8-.7-1.5.3-2.8.4-2.9.1 0-.2-1.6-.4-3.5-.4-3.1-.1-3.3-.2-1.9-1 .8-.6 1.8-.9 2-.6.8.5 8.3-3.1 8-3.9 0-.3.2-.6.7-.6.5 0 .8-.5.7-.9l-.7-2.8c-.3-1.6-.8-2.1-1.8-2.2-1.2 0-1.2-.2.4-2.2 1-1 3.1-2.9 4.7-4 2.2-1.4 3.2-2.4 3.7-3.8.4-1.1 1-2.2 1.5-2.4.7-.3.6-.5 0-.8-1.1-.5-1-2.1.2-2.7 1.2-.6 1.6-2 .7-2.4-1-.4-3 1.4-2.3 2.2.4.4.2.9-.6 1.2-.6.3-1.3.3-1.4-.1-.2-.5-.3-.5-.5.3-.1.8-.5 1-1.6.9-.7 0-2 .2-2.8.6-1 .4-2.3.3-3.6-.3-2.4-1.2-3.4-1-7.1 1.5-2.7 1.8-2.9 1.8-5.5.7-1.6-.7-2.5-1.5-2.2-1.9.6-.8-.4-4.3-1.2-4-.3.1-.6.6-.6 1-.1.4-1 1.2-2.1 1.7-1 .4-2 1.2-2 1.7-.2.6-.4.7-.8.3-.3-.2-1.9 0-3.4.6-1.7.6-4 1-6 1.2-2 .2-3.7.1-4-.3-.3-.4 1.8-1.6 4.1-2.6s4.8-1.8 5.2-1.4c.5.4.9.2 1.4-.8.7-1.2 1-1.3 2.5-.8 2.2.7 3.2.2 3.4-1.6.3-1.7-.7-1.8-3.6-.5-1.5.7-1.8.7-2-.5 0-.7-.3-1.3-.8-1.4-.4 0-.8-.4-.9-.8-.1-.4 1-1 3.3-1.8 2.5-.7 3.4-1.2 3-1.6-.3-.2-.2-.6.3-.8 1.2-.6.9-1.2-1.9-3-1.5-1-3-1.3-4.4-1-1.8.4-2.1.3-2.2-1-.1-1.5-.3-1.5-3 0-1.5.9-2.8 2-2.9 2.3 0 .4-.6.7-1.1.7-.7 0-1 .4-.9 1.2.1.7-.4 1.5-1.4 2-2.2 1.4-2.9 1-2-1 .8-1.4.7-1.7-.3-3s-1.4-1.3-4.2 0c-2.8 1.5-5 2.4-6.6 3-1.5.5-2.3.6-2.2.2 0-.4.5-.7 1-.7 1.3 0 .8-1.3-.6-1.7-1-.2-.8-.3.6-.6 1-.2 2.4-.5 3.1-.5 1.6-.2 1.6-1.6 0-1.7-1.1 0-1.6-1.4-.8-2.3.3-.3 0-.4-.8 0l-1.3.5 1-1.7c.6-1 1.8-2 2.7-2.2 1.3-.4 1.5-.7 1-1.4-.4-.5-.7-1.2-.8-1.5-.1-.4-.7-.4-1.4-.1-.9.3-1 .3-.7-.3.6-1-.6-3.6-2-4-.5-.3-.9-.7-.7-1.1.1-.4-.3-.3-1 .2-.8.7-1 .6-1.2-.2-.1-1.2 2.1-3 2.4-2 .2.8 6-.7 7.4-1.9.5-.5.9-1.3.7-1.8-.3-1.2-5.3-1.7-7.4-.9-1 .5-1.8.5-2 .1 0-.3-.5-.5-1-.3-.8.3-.7.1.1-.8 1-1 1-1.2.2-1.8-.8-.6-.7-.8.7-1.4 1.1-.4 2.1-.3 2.9.4.7.6 1.9.8 2.8.5 1.6-.5 4.2-1 7.8-1.4 2.2-.2 3.4.7 1.8 1.4-1 .4-.9 1 .2 2 .6.5 1.3.2 3.2-1 3-2.1 3.4-3.7 1.4-5.4-1.5-1.2-1.8-1.2-4.3.3-2 1.1-3.3 1.5-4.7 1.2a9 9 0 0 0-2.6 0c-.8.3-2.7-1-2.5-1.9 0-.5.4-.8.6-.7.3.1.8-.2 1.1-.7.4-.6.3-.8-.7-.8-1.5 0-2-.9-1-1.9.5-.4.6-.9.3-1.1-.2-.3-.2-.6.1-.7.4-.1.7 0 .8.4.2.6 3.3-1.1 3.8-2.2.3-.8-5.3-1.7-5.8-1a15 15 0 0 1-4.9 1.6c-2.3.5-4.7.9-5.2.6-1.4-.7-1.3-1.1.4-2l3.5-1.8c2.1-1 2.2-1.5.1-2-1.6-.3-3.7 1-3.4 2.1.2.9-5.8 3-7 2.5-.4-.2-1.3 0-1.8.4-.6.5-1.3.6-1.5.2-.4-.3-.3-.4.2-.3.4.2.7 0 .6-.1-.2-.7-4.5-.8-6.1-.2-.9.3-2.2.5-2.8.3-1-.1-1.2 0-1 .6 0 .5-1.5 1.3-6 2.8-3.5 1-7 2-7.8 2l-3.2 1a137 137 0 0 1-13.4 4.2c-.3-.2-.7-1-1-2-.2-1.3 0-1.6 1-1.7 1-.1 1-.2.2-.6-.6-.2-1.6-.2-2.4.1-2.5 1-4.6-2-2.2-3 1-.4.8-.5-.8-.5-1 0-2-.4-2-.7-.1-.3-.5-.3-.8.1-.4.4-1 .4-1.2.2-.2-.3.4-.9 1.3-1.3 1-.4 2-1.4 2.3-2.5.5-1.2.8-1.5 1.1-1 .4.6.6.5 1.4-.6.6-.7 2-1.6 3.4-2 1.2-.4 2.5-1 2.8-1.5.3-.4 1.7-.7 3-.7 3.3-.2 5.7-.6 5.4-1.3l-.4-1.7c-.2-1.3 0-1.5 5.3-2.3.7 0 1.5-.6 1.7-1.2.5-1.6-2.6-4-3.8-3-.5.4-2.2.7-4 .6-1.9 0-3.9.4-5.9 1.4-1.6.8-3.6 1.4-4.5 1.2h-2.3l-4.6.6c-3.6.5-5.6 0-4.4-1.2.3-.3.3-.9 0-1.3-.1-.4.1-1.3.7-2 .9-1 .3-1-3.5.4-4.4 1.5-4.8 1.5-7.8.1-1.7-.9-3.5-1.3-4-1.2-1.7.6-4-.2-4.3-1.5-.2-.9-1.3-1.2-3.8-1.4-3.6-.1-5-.8-3.3-1.5 1.9-.8 3-.9 4-.2.6.4 1.7.5 2.5.2 1-.3 2 0 2.4.5.5.8.8.8 1 .1.2-.5.8-1 1.4-1 4.7-.7 7-1.4 6.6-2-.3-.4-.7-.4-1-.1-.2.4-.3 0-.3-.6 0-.7-.1-1.1-.5-1-.4.1-.6-.3-.6-1 .1-.6-.2-1-.5-.7-.3.2-1-.2-1.4-1-.5-.8-1.4-1.4-2-1.5-.5 0-.9-.4-.8-.8.1-.4-.4-1-1.2-1.1-1.7-.4-3.6-2.5-2.6-2.9.5-.2.5-.3 0-.5-.3-.2-1-1-1.3-2l-.7-1.7 1.1 1.4c.7.6 1.6 1.1 2 1 .4-.2 2.8.6 5 1.5 2.1.8 4.2 1.8 4.1 2.1 0 .3 1.2.8 2.8 1.3 1.6.5 3.7 1 5.3 1.2 2.2.2 2.2.2 1.8 2.4-.2 1-.1 1.4 0 1.1.5-.6 1.3-.6 7.3 0 3.9.2 4.5.1 4.3-.8 0-.4-.5-.6-1-.5-.3.2-.9-.1-1.2-.7-.3-.5-1-.7-1.4-.6-1.2.5-6.1-.7-6.2-1.4 0-.3-.3-1-.6-1.6l-1-1.9c-.2-.4-1.4-1-2.7-1.4-1.3-.4-4.6-1.7-7.5-3a21 21 0 0 0-5.9-1.8c-1 .3-3-.3-4.8-1.4-.7-.5-2.7-1-4.3-1.2-1.7-.2-3.1-.7-3.2-1.2 0-.5-1.5-1.2-3.2-1.6l-5.4-1.4a7 7 0 0 0-3.5-.2c-.7.2-1.4 0-1.5-.4 0-.5-.2-.6-.4-.3-.1.3-.7.2-1.3-.2-.5-.4-1.4-.6-2.7-.6-1.4-.1-3 0-5 .1h-2.3c-1.6 0-5.2 2.3-4.9 3.3.5 1.3-1.5 1.6-4 .6-1.1-.5-4-.6-6.3-.3a19 19 0 0 1-4.8.2c-1-.5 1.7-2.1 4-2.5l2.3-.4-2-.5c-1.1-.3-2.5-.4-3.2-.2-.7.2-2.6 0-4.4-.4a22 22 0 0 0-7.5-1h-4.7a41.6 41.6 0 0 0-10 .9 96.2 96.2 0 0 0-11.6 2.8l-5.3 1.4a160.5 160.5 0 0 1-15.7 4c-3 .5-4 .4-3.8-.4.1-.5-.2-.3-.8.3-.8 1-1.4 1.1-2.7.6-.9-.4-3-.4-4.6 0-1.6.3-3.4.2-4-.3-1.2-1-1.6-3.4-.6-4.1.4-.4.2-.7-.5-.8l-2.1-.7c-.8-.4-1-.2-1 .6.1.6.5 1.2.9 1.3.3.2 0 .4-.7.7-1.7.5-2.8-.5-2.5-2.2.1-1 0-1-.4-.6-.3.4-.6.3-.7-.2 0-.5.3-.8.7-.7.9.2 2.5-1.5 2.4-2.5 0-.5-.7-1-1.4-1.2-1-.3-1-.4-.3-.7.6-.2.8-.6.6-1-.6-1-4.8-1.3-5.7-.3a7 7 0 0 1-1.9 1.2c-.5.3-1 1-1.1 1.4-.2 1.4-2.8 4.1-4.3 4.5-.8.2-1.5.7-1.7 1.1-.2.4-.9.9-1.5 1.1l-1.9.7c-.3.2-.6 1.1-.5 2.2.1 1.5-.3 2.4-1.9 3.9-1.6 1.5-1.9 2.1-1.4 2.8 1 1.2.4 2.3-1.4 3.2-1 .6-1.8.4-2.2-.4-.4-.6-1.7-1-3-1-1.7 0-2.2-.3-2.2-1.4 0-2.5-.3-3.3-1.1-3-.5 0-1-.4-1.3-1-.3-.8-.8-.9-1.8-.2-1 .5-1.8.5-2.4-.2-1.5-1.6-3.2-.7-3 1.5.1 2.5 1 3 1.8 1.2.7-1.1 1-1.2 2-.4 1 .8 1.1 1 .5 2.2a7 7 0 0 1-2.5 2.3c-1 .6-2 1.4-2.3 1.9-.6 1-2.5-.6-2.6-2 0-.4-.6-.6-1.3-.4-.6.2-1.5 0-1.9-.4-.5-.6-.8-.5-1 .6-.1.8-.9 1.6-1.7 1.9-.7.2-1.9.8-2.5 1.3-.5.5-1.3.7-1.7.3-.4-.3-1-.2-1.6.5-.6.6-1.7 1-2.6 1.1-1.3.1-1.4.2-.5.4 2.3.5.7 2.3-3.2 3.7-2.2.7-3.9 1.6-4 2.2-.2 1.4-2 1.7-2.8.5-.4-.6-1.2-1-1.8-.8-.6.1-1-.2-1-.6 0-.4-.5-.7-1-.6-.6.2-.7-.1-.3-1.5.3-1 .7-1.7 1.7-2.4s2.8-1.4 5.8-2.6c3.5-1.3 4.7-1.5 5.3-.8.7.8.8.7.8-.6-.1-1.3.4-1.8 2.6-2.8 1.7-.8 3.1-1 4-.6.7.4 1 .9.6 1.2-1 .7-.2 1.8 1.2 1.5 1.7-.5 1.4-3.6-.4-5.8-1.3-1.6-1.3-1.7-.5-3.3.9-1.6.9-1.7-.6-.9-1.4.8-4.6.6-5.3-.3-.3-.5-2.7-1.5-4-1.8-.7-.2-1.2.2-1.3 1-.2.7-.6 1.4-1 1.4-1.1.3-.9 1.7.3 1.8.7 0 .6.3-.5 1.3-1 .9-2.1 1.1-4.4 1-1.8-.2-3-.1-2.9.2.5 1-1.2 2-2.3 1.4-1.1-.6-2.6.8-2 2 .2.4.8.4 1.2 0 .4-.3.8-.2.8.3 0 1-1.2 1.5-2 .7-.2-.4-1.2-.7-2-.8-1.3-.1-1.6.2-1.8 1.5-.4 2.7-4.4 5.6-4.5 3.1 0-1-.9-.9-4.8.2-2.9.8-4.9 1-5 .5 0-.4.4-1 1.1-1 .7-.2 1.4-.7 1.5-1l2-3.1c2-2.6 1-3-1-.5-.8 1-2.8 2-6.7 3.1-5.8 1.7-6.3 1.5-6.5-2 0-2.2.2-2.2-4.1 0-2.2 1-3.3 1.9-3.2 2.4.4 1.4-2 3.9-2.5 2.7-.3-.7-.4-.6-.7.3-.2.9-.3.8-.3-.1 0-.7.2-1.7.6-2.3 1-1.7.1-2.1-1.6-1-1.8 1.4-2.3 3.3-.8 2.9 1-.2 1.2 0 .6 1.7-1.3 4.2-2.8 4.6-3.6 1-.4-1.8-.5-2.9 0-3.6.4-.7 0-.9-1.4-.7l-1.8.4 2.2-1.5c3.3-2 3.2-2.4-.1-1.8-1.6.3-3.2.3-3.4 0-.2-.2-1-.2-1.9 0-1.2.2-1.5.6-1.5 1.9 0 .9-.3 1.7-.7 1.8l-7 2.5c-1.2.5-2.3.6-2.4.2-.2-.5-.9-.7-1.4-.6-.6.1-1.1-.2-1.1-.6 0-.4.5-1 1-1 1.4-.3 1.5-1.7.2-1.9-.6-.1-.4-.5.8-1.1 1.5-.8 1.6-1.2 1-2-.4-.5-.8-1.3-.9-1.7-.3-1.2-3.7.7-3.7 2 0 .6.2 1 .5 1 .4 0 .4.3.3.8-.2.5-1.3 1-2.4 1.3A9 9 0 0 0 599 72c-.8.7 0 .8 2.5.4 2-.3 3.2-.3 2.8 0-.4.3-.5.8-.4 1.1.6 1.4-1.4 2.3-5.9 2.8-3.6.4-4.7.2-4.3-.6.3-.8.9-1 2.3-.6 1 .2 2.4.3 3 .2 2.2-.5-1.2-2-3.7-1.7-1.5.2-1.2-2.3.4-2.5 1.3-.3 3.4-4.3 2.6-5-.4-.2-1.6.2-3.4 1-1.7.9-3.9 2.2-6 3.6-2 1.3-3.9 2.3-5.4 2.8-1.6.5-2.8.5-3.3 0-.4-.4-.9-.4-1 0-.2.3-.1.5.2.5.4-.1.7.4.7 1 0 1.2-1 1.8-2.7 1.8-.4 0-.7.3-.7.8s.4.8 1 .7c.7 0 .6.2-.5 1.1-.7.7-1.5 1-1.5.7-.1-.3-1-.5-1.8-.4-1.1.2-1.5.6-1.3 1.4.2.7-.2 1.1-1.2 1.3-.7.1-1.5 0-1.6-.4-.2-.4-1.7-1-3.3-1.4-1.6-.5-3-1.2-3-1.7s-.5-1.5-1.1-2.3c-.9-1-1-1.4-.3-1.2.5.2 1 0 1.2-.4.4-.9-2.3-3.3-2.7-2.5-.2.3-.2.5 0 .4.3 0 0 .8-.8 1.8-1.5 2.1-2.8 2.5-2.8.9 0-.7-.7-1.2-2-1.3a32.3 32.3 0 0 1-8.4-1.8c-1-.8-2 0-1.2 1 .3.3 1.6.8 3 1.3 1.3.4 2.7 1.2 3 1.8.3.6 1.1.8 1.8.5.7-.4 1-.2 1 .6 0 .9-.4 1.2-1.4 1-.7 0-1.3.2-1.3.6 0 .7.8 1 2 .4.5-.1.6.2.4.7-.5 1.2-3.6.6-4.8-1-1-1.2-2.9-.7-5.6 1.9-.9.8-1.3.7-1.7-.3-.5-1-.7-1-1-.2-.2.8-.3.7-.3-.2 0-.8-.4-1.2-1-1l-1.5.6c-.3 0 0 .6.8 1.1 1.2 1 1.2 1-.9.9-3-.2-3.5-.5-3.5-1.5 0-.5.3-.7.6-.4.3.2.5 0 .6-.4 0-.5.5-1.1 1-1.5.8-.4 1-1.1.9-2.2-.1-.8-.3-1.6-.6-1.6l-1.8-.1a10 10 0 0 1-3.9-1.9c-2-1.4-2.4-1.5-2.2-.5.3 1 0 1.3-1 1.1-1-.1-1.4.2-1.7 1.5-.4 1.7-2 2-4.4.6-.8-.4-1-.2-.8.7.2 1-.2 1.3-1.5 1.6a12 12 0 0 1-4.1-.6c-1.7-.4-3.4-1-4.3-1.6-.4-.3-1.6-.7-2.6-1-1-.2-1.5-.7-1.3-1.2.3-.6.2-.7-.3-.3-2 2-4 2.3-5 1-.7-1-1.6-1.2-3.6-.7-1.4.4-2.8.8-2.9 1-.8 1 1.1 1.7 4.6 1.8 5 .2 6.3.7 5.3 2.4-.4.7-1.1 1.3-1.6 1.4-1.2.1-1.6 3-.5 4.2.8.9 1 .9 3.3-.5 1.1-.6 1-.6 0-1.2-1.6-.8-1.5-2.2 0-2.4 1-.1 1.1-.3.7-1-1-1.4-.7-2.3.7-2.4 1.3-.1 6 1.7 4.8 1.9-.4 0-.7.5-.7 1-.1.4.1.6.4.3.4-.3.3.5 0 2-.6 2.1-.5 2.7.5 3.4 1.6 1.2 2.1 1.2 3-.2.6-1 .6-1.3-.1-1.8-.5-.3-.7-1.3-.6-2.2.5-2.4 3.7-2 5.5.8 1.3 2 2.9 2.5 5.1 1.8.4-.1.7.1.7.6s-.3.9-.7 1c-.3 0-1 .6-1.5 1.4-.7 1-.7 1.6-.3 2.4.4.7.4 1.2 0 1.6-.4.4-.6.3-.6-.1 0-.7-.7-.9-2.9-.7-.5 0-.8-.4-.5-.9.3-.6 0-.7-.5-.3-1.2.7-2.7-1.4-2.2-3 .2-.7.1-1-.2-.6-.3.3-.5 1.2-.4 2 .4 2.6-1.8 2.7-4.7.2-2-1.8-2.5-2.5-1.7-3 1.3-.9.6-2-.9-1.5-1.2.5-2.1 3-1 2.8.2 0 .4.3.4.7-.1 1.3-5.2 1.5-7 .3-1-.6-2.6-.9-3.6-.7-1.4.3-2.2 0-2.7-1-.5-1.2-1.4-1.5-4.7-1.3-2.7.2-4.5 0-5.3-.9a9 9 0 0 0-2.9-1.7c-.9-.2-1.3-.7-.9-.9.6-.3.6-.7-.1-1.4-.9-1-.9-1 0-1.7 1.1-.6 1-2 0-2-.3 0-.4.4-.2.8.3 1-2 2.2-2.7 1.3-.7-.8-5.2-2-7-2a51 51 0 0 1-8.9-.8c-.1-.2-.6-.4-1.1-.3-.8 0-.8.1-.1.9.5.6.2.7-1.3.5-1.2-.2-2 0-2 .5-.1.5-1.7.7-4.5.6-2.7-.1-4.5 0-4.7.6-.3.5-1.4.7-3 .5-1.6-.2-3.6-.7-5.6-1.5-4.1-1.4-6.1-1.8-6.2-1 0 .7.7 1 4.9 2 2 .4 2.4 1.3 1 2-.4.3-2.3.6-4.3.6s-4.2.6-5 1.2c-.9.6-3.6 1-6.8 1.2-4.9.1-5.4.2-5.3 1.5 0 .8-.2 1.4-.4 1.4-.3 0-.5-.4-.4-1 0-.7-.1-.7-.7.1-.6.8-.7 1.2 0 1.7.4.5.4.8 0 .8s-.8.5-.9 1.1c0 .7-.5 1.4-1 1.6-.6.4-.8 0-.6-1.5.2-1.8 0-2-2.3-2-1.3 0-2.3-.2-2.3-.6.5-2 .3-3.4-.4-3.4-1 0-1.4 2.5-.7 3.9.4.7.3 1-.4 1-.6 0-1.3-.7-1.6-1.5-.4-1-1.2-1.4-3-1.4-2 .1-2.5-.2-2.2-1 .2-.5.2-1.2 0-1.5-.8-.8.2-1.9 1.8-2 1.4 0 1.4 0-.2-1.1-1.2-.9-2.5-1-5-.6-2.8.5-3.6.4-4.8-1-1-1-1.7-1.2-2.2-.7-.5.5-1 .3-1.3-.4-.5-1 0-1.1 3.3-1 2 0 3.8.4 4 .8.1.5.5.8.9.8s.4-.2 0-.7c-.9-.9 0-1.3 4.8-2a49.6 49.6 0 0 0 5.3-1c.6-.1 1.1-.5 1.2-.9 0-.4-2.8-.6-6.2-.5-5.2.1-6.4 0-6.6-1.1-.2-1-.8-1.1-3.6-.6-4 .8-5.2.6-5-1 .2-1-.1-1.2-1.3-.8-.9.3-2.8.6-4.2.8-1.5.2-3.3.5-4 1-.8.3-1.5.5-1.6.2-.2-.3-3-.5-5.9-.6a23 23 0 0 0-6.3.4c-.6.4-2.4.8-4 1a42 42 0 0 0-3.9.6l-2.4.7c-.8.1-2.3.6-3.4 1-1 .4-2.6.5-3.4.1-.8-.3-2.5-.3-3.7.2a12 12 0 0 1-4.9.2l-2.7-.5 3.6-1.8c5-2.7 5.5-3 5.5-4.3 0-.6.8-1.4 1.7-1.9l1.6-.7-1.3-.2c-.8 0-1.8.5-2.4 1.4-1.5 2.1-5 3-7 1.8-1-.5-3.5-1.3-5.8-1.7-3.7-.6-4.2-.5-4.7.7-.5 1.5-3.8 2-7 1l-1.6-.4 1.7-1c1-.4 2.5-.8 3.4-.7 1.4.1 1.8-.1 2-1.2 0-.7 0-1.6-.3-1.9-.2-.3.6-.9 1.8-1.3 1.6-.6 2.2-1.3 2.4-2.6.4-2 .4-2-1-.8Zm3.2 13.3c1 .2-.2 1.6-1.4 1.8l-1.7.5c-3.4 1.4-3.6 1-1.2-1.6 1-1 2-1.5 2.6-1.2.5.3 1.3.5 1.7.5Zm37.2 5.9c.2.5.5.5 1.1 0 1.3-1.3 5.7 0 5.5 1.4 0 .8.4 1.2 1.5 1.2.9 0 1.7-.2 1.7-.7.1-.4.6-.7 1.3-.7.7 0 1-.3.8-1-.1-.6.3-.7 1.5-.3 1 .4 2.2.6 2.9.7 1 0 1 .1 0 .8-.6.5-1 1.2-.8 1.6.1.5.8.3 1.7-.4 1.6-1.4 4.6-1.5 5-.3.3 1.3-.2 1.6-3 1.8-1.6 0-2.6.4-2.7 1 0 .5-.7 1.3-1.4 1.8-.6.4-1 1.2-1 1.7.2.6 0 .7-.6.4-.4-.4-1.4-.6-2.2-.7-.8 0-1.2-.5-1.1-1.3.1-.7-.2-1-.6-1-.4.3-.8 1.4-1 2.5-.2 2-.3 2-3.3 1.9-2.7-.2-3.2-.5-3.2-1.7s-.4-1.4-1.4-1c-.9.4-1.8.3-2.6-.5-1.9-1.5-4.8-2.6-4.6-1.5.2.4 1 1.1 2 1.5 1.3.4 1.7 1 1.5 1.9-.5 2-7.2 1.6-7.3-.4 0-.8-.3-1.5-.6-1.5s-.4.6-.4 1.3c.3 2-1.6.8-2-1.2-.1-1.6-.5-1.8-3.3-1.8-2 0-3.3.3-3.6.9-.4.8-.7.8-1.4 0-1.4-1.2-.4-3 1.3-2.3l1.5.4-1.3-1.8c-1.5-2.3-1-3 1.4-2.5 1 .3 1.7.7 1.5 1-.1.2.8.5 2 .5 3.6 0 4.6 0 3.9-.6-1.7-1.2.1-1.8 4.2-1.4 2.6.2 4.8.1 5-.2.7-.7 1.8-.5 2.1.5Zm2 1.7c.3.5.8.8 1 .6.2-.3 0-.7-.6-1-.7-.5-.7-.4-.3.4Zm-8.8 1.4c0 .7.2 1.2.7 1.2.7 0 .8-.1.4-1.1-.3-.7-.6-1.3-.7-1.2-.1 0-.3.5-.4 1.1Zm-37-5.4c-.1.8-1.8 1-2 .3 0-.4.3-.7 1-.7.6.1 1 .3 1 .4Zm19.4 3.6a6 6 0 0 0-1.4 2.5c-.9 2.3-3 3.5-4.7 2.7-1.2-.6-1.2-.6.6-1 1.6-.3 1.9-.7 1.5-1.6-.4-1-.2-1.4.8-2.3.6-.5 1.8-1 2.5-.9.8 0 1 .4.7.6Zm51.7 2.8c-.2.4-.6.5-.9.2-.6-.6-.5-.8.4-.8.5 0 .7.3.5.6ZM467 81c.2.2 1 .5 2 .7 2.8.5 4.4 1.6 4.3 3-.2 1.5-.7 1.6-1.4 0-.4-.9-2.2-1.5-5.3-2-5.3-1-7.5-2.6-2.8-2.2 1.5 0 3 .3 3.2.5Zm-155-4c-.5.1-1 0-1-.2-.2-.3.2-.4.7-.3.6 0 .7.3.3.5Zm76.6 6.3c.5.3.8.8.8 1-.2 1.2-2.5 1.5-3.9.7-1.2-.9-1.2-1-.1-1.5 1.4-.8 2.2-.8 3.2-.2Zm56.2.9c0 .4-.3.6-.6.4-.3-.3-.5-.7-.5-.9 0-.2.3-.4.6-.4s.5.4.5.9Zm12.9-.3 1.3 1-1.6.5c-1.2.3-1.5 0-1.4-1.1.1-1.8 0-1.7 1.7-.4Zm-24.9 1.9c.4.7.6 1.4.5 1.7-.6.7-2.5-.7-2.4-1.8.2-1.6 1-1.5 2 .1Zm14.3-1.2c-.4.2-1 .2-1.4 0-.3-.2 0-.4.7-.4.8 0 1.1.1.7.4Zm5 .6c0 .7-.1 1.7-.5 2.2-.4.6-.7.6-.5.1.4-2 .1-2.7-1-2.2-.9.4-1.1.2-.8-.4.8-1.4 2.5-1.2 2.7.3Zm-96.4-.3c0 .2-.5.3-1.1.2-.6 0-1-.4-1-.8 0-.3.6-.5 1.1-.2.6.3 1 .6 1 .8Zm13.3 1.2c-.2.4-.8.6-1.2.6-.5 0-.7-.3-.5-.7.2-.3.8-.6 1.2-.6.5 0 .7.4.5.7Zm99.6 1.2c-.4.5-.8.5-1.2-.1-.5-.8-.4-1.1.3-1.8 1-.9 1.8.7.9 2Zm60.3-7.6c0 .5-.3.8-.6.9-.4 0-.5-.3-.2-.8.2-.5.5-.9.6-.9.1 0 .2.3.2.8Zm4-.1c-.2.7-.7 1.3-1.2 1.4-.7 0-.7-.2.2-1.3 1.5-1.7 1.5-1.7 1-.1Zm-107.3 9c0 .5-.8.8-1.7.9-.9 0-1.6-.4-1.5-.8 0-.5.8-.8 1.7-.8.9 0 1.6.3 1.5.8Zm52.7-1.7c-.6.9-3.7 1.1-3.6.3 0-.4.2-.6.4-.3.3.1.8 0 1.3-.4.8-.8 2.5-.4 2 .4ZM277 78.7c.2-.2.4 0 .3.3-.2 1-2.5 2-5.2 2.2-1.3 0-2-.1-1.8-.7.1-.7 1.4-1 2.5-.5.2.1.7-.4 1-1.2.5-1.2.8-1.2 1.7-.6.6.5 1.3.7 1.5.5Zm280.7.7c.1 1 0 2-.1 2-.6.1-1.6-2.8-1.2-3.4.7-1 1.1-.6 1.3 1.4Zm30.8-5c-.4.4-.9.4-1 .2-.2-.3 0-.5.7-.6.6 0 .7.1.3.5ZM538.2 84c-.4.3-1 .1-1.3-.3-.4-.6-.2-.7.7-.5.8.2 1 .6.6.8Zm7.2-.5c.2.6.4.5.4-.2 0-.8.3-.9 1.3-.2 1.7 1 1.7 1 .6 2.7-1 1.4-1 1.4-2 0-.6-1-1.5-1.6-2-1.5a5 5 0 0 1-2.1-.3c-.9-.4-.8-.5.4-1.2 1.6-.8 2.8-.5 3.4.7Zm36-5c-.3.6-2.5.4-2.5-.2 0-.2.6-.3 1.4-.4.7 0 1.2.3 1 .6ZM487 90.8c0 .7-2.3 1.3-2.5.6-.2-.4.4-.7 1.1-.8.8 0 1.5 0 1.4.2Zm66.4-6.5c0 .4.5 1.4 1 2.3l1.1 1.6-2 .3c-1 .2-2 0-2.2-.5-.1-.4-.8-.7-1.5-.6l-1.2.1 1.3-1c.7-.6 1.3-1.4 1.3-1.8 0-.4.5-.8 1-.9.7 0 1.2.1 1.2.5Zm83.8-13.9c.5.6-2.1 3.2-3.3 3.4-.8 0-.8 0-.1-.5l1.5-1.9c.8-1.4 1.3-1.7 1.9-1Zm-75.2 18.1c.1.2-.3.4-1 .5-.6.1-1.4.4-1.8.7-1.2.8-2.3-.5-1.9-2 .4-1.3.6-1.4 2.4-.5 1.1.5 2.2 1 2.3 1.3Zm35-7.7c1.3-.2 2.1 0 2.1.7 0 .5-.2 1-.4 1.2a34 34 0 0 1-8.3 2.2c-2 .3-3.9 1-4.3 1.6-.8 1.2-2.3.7-2.7-1-.3-1 0-1.1 2-1 2 0 2.3-.3 2.6-1.8.2-1.6.5-1.7 3.6-1.6a42 42 0 0 0 5.4-.3Zm-53.8 9.6c0 .7-.5 1.3-1 1.4-.6 0-1.4-.4-1.7-1-.5-1-.4-1.2 1-1.4 1.2-.1 1.8.2 1.7 1Zm62-10.3c.7 1.2.6 1.4-.8 1-.5-.3-.9-.8-.9-1.2 0-1.1 1-1 1.7.2Zm19.7-1.3c0 1.3-.6 2.5-1.4 3-1.1.9-1.2.8-1-.7.4-1.5.2-1.6-1.2-.8-3.2 1.5-2.5-1.9.8-3.9 1.9-1.2 3-.2 2.8 2.4Zm-78.6 11.6c.2.4 0 .8-.5.9-.5 0-1-.3-1.2-.7-.1-.4 0-.8.5-.9.5 0 1 .3 1.2.7Zm194-40.7c.2.8 0 1.6-.2 1.6-.2.1-.8-.4-1.2-1.2-.7-1.2-.7-1.4.3-1.7.7-.2 1.1.2 1.2 1.3Zm-190 41.7c0 .3-.4.6-1 .4-.6-.1-1.1-.4-1.1-.6 0-.1.5-.4 1.1-.4.6-.1 1.1.1 1 .6Zm185.8-39.7c0 .4-.3.9-.7 1-.5.1-.7-.2-.6-.7.1-.5.5-1 .8-1 .3 0 .5.2.5.7ZM564.3 91c0 .4-.4.8-.9 1-.5 0-.7-.3-.5-.8.2-.5.6-1 .9-1 .3 0 .5.3.5.8Zm84.5-16.4c0 .5.5.7 1.1.6 1.7-.4 1.3.9-.8 2.3-1.6 1.1-2.1 1.2-2.8.3-.7-.9-.7-1.1.4-2.3 1.6-1.7 2-1.9 2-.9Zm-7 5.1c-.9 1.1-1.3.7-.9-1.1.2-1.1.5-1.2 1-.6.6.7.7 1 0 1.7Zm90.8-24.9c0 .3-.5 1.5-1.1 2.7l-1.3 2h1.4c.8 0 1.5-.3 1.7-.7.1-.4.6-.9 1-1 1.5-.4.9 1.2-1.3 3.5l-2.2 2.3-.5-2.4c-.7-3 0-6.3 1.3-6.7.5-.1 1 0 1 .3ZM244.8 92.5c-.5.3-1 .5-1.4.4-.3-.1-.2-.3.3-.4.4-.1 1-1 1-1.8.5-1.5.5-1.5.8-.1.2 1.1 0 1.6-.7 2Zm-5.6-1.1c0 1.8-1.2 2.8-2.6 2-.5-.2-1.2 0-1.8.8-1 1.5-2.7 1.4-1.8-.1.3-.6.7-.8 1-.5.1.3.5-.1.7-.9a2 2 0 0 1 1.8-1.6c.8 0 1.5-.4 1.6-.8.3-1.4 1.2-.5 1.2 1Zm499.2-30c-.1.5-.5 1-.8 1-.2.1-.5-.2-.5-.6 0-.4.3-.9.7-1 .5-.1.8.1.6.6Zm-514 49c-1.3 1-5.4 1.7-6 1-.4-.6-.2-.8 1-1.1 3-.7 5.8-.6 5 0Zm-8 2c-1 1.1-3.6 1.6-4.3.7-.2-.2-.2-.8 0-1.4.2-1 1.4-1.3 3.8-.8 1.3.2 1.4.4.5 1.5Zm-22.2-3.3c.4.3.8.6 1 .6 0 .1-.2.3-.6.5-.5.3-2.3 0-4-.3-1.7-.4-4-.5-5.2-.3-2.8.6-4.1.3-2.9-.8.5-.4 2.1-.6 3.6-.4 1.4.1 3.4 0 4.3-.3.9-.4 2-.4 2.3 0 .4.3 1 .8 1.5 1Zm29.3 7.9c-.4.1-.9 0-1-.3-.1-.3.2-.4.8-.2.6.2.7.4.2.5Zm609-53.7a37.1 37.1 0 0 1 9.8.9l3.6.7c1.7.2 3.4.3 4 .2.5 0 1.3.3 1.9.8.6.4 2.3 1 3.8 1.4 1.5.3 3 .9 3.2 1.3.7.8-1 2.4-1.6 1.5-.2-.3-.9-.2-1.4.3-1 .8-.8 1 1 1.5 1 .3 2.6.3 3.6 0 1.6-.6 1.7-.7.7-1.3-1.7-1-1.5-1.4.8-1.8 5.5-.8 7.3 1.4 3.1 4a9.1 9.1 0 0 1-4.1 1.5c-1.6.1-3.6-.1-6.9-.6-3.4-.6-5.4-1.3-5.5-2 0-.6 0-1.2.3-1.2.3-.1.1-.7-.4-1.2-.6-.7-.7-.9-.2-.7.4.2.7 0 .7-.4-.2-1.1-3.6-1-7.3 0a11 11 0 0 1-4.5.8c-.6-.2-1.9-.2-2.7.1-1.2.4-1.8.1-2.1-.9-.3-.7-1-1.2-1.4-1-.6.1-1.6-.4-2.3-1.3-.9-1-1.8-1.3-2.3-.9-.5.3-1.3.5-1.7.2-.5-.2.3-.6 1.9-1a44 44 0 0 1 6-.9Zm26.7-6.8c1 .3 2.4.4 3 .2.6-.2 1.1 0 1.2.4 0 .4 1.4 1 3 1.5 1.5.4 4 1.4 5.5 2.3 2.4 1.3 2.6 1.5 1.7 2.3-.5.4-2.3.3-4.2-.2-2-.4-4.1-1.1-5.3-2-.5-.3-2.8-1.2-5.2-1.9l-5.3-2c-1.1-.6-1-.7 1.2-1a12 12 0 0 1 4.4.4Zm-668.6 54.8c-.4 1.2-1.5 1.8-4.3 2-1.6 0-3.6.4-4.3 1-1.6 1.1-4.1.6-3.7-.9.4-1.3 4.6-2.1 6.1-1.3.7.4 1.4.4 1.8 0 1.3-1.4 4.8-2 4.4-.8Zm11.9 5.2c-1.1 2-1.5 2.2-4.8 2.2-5.2-.1-5.7 0-5.5.7 0 .4-.8.5-2 .2-1.1-.4-2.4-.5-2.7-.2-.4.2-1.5.4-2.5.4-1.5 0-1.6-.1-.5-.5 1.3-.5 1.3-.5.4-1.4-.8-.7-.7-.8.6-.4.8.2 1.6 0 1.7-.3.1-.4.6-.6 1-.5 1.4.4 3-1.3 2.9-3-.2-1.2 0-1.3 1-1 .7.1 1 .6.6 1-.3.6 0 1 1.1 1.4 1 .3 1.4.3 1-.3-.4-.5 0-.6 1.3-.2 2.2.7 4 .7 5.7 0 1.8-.6 2-.4.7 2Zm14.9 2c-.5 0-1 0-1.4-.4-.3-.3 0-.4.8-.1.8.1 1 .4.6.5Zm-40.2-9c-.4.1-.9 0-1-.3-.1-.3.3-.4.8-.2.6.2.7.4.2.5Zm-3.6 0c0 .3-.4.5-.7.4-.4 0-.4-.4 0-.8.2-.3.5-.5.7-.4v.7ZM817.2 73c.6.3.4.5-.6.8-.8.3-1.6.2-1.8 0-.5-.8 1.3-1.4 2.4-.8ZM138 100.9l-1.5.7c-1 .4-1.2.3-.9-.5.3-.7.8-1 1.5-.7.7.2 1 .5 1 .5Zm65.6 21c-.1.4-.4.5-.6.1-.3-.3-.4-.7-.4-.9 0-.1.4-.2.6-.1.3 0 .5.5.4.9Zm632.6-51.2c.5 1.2-.6 1.3-1.2.1-.3-.7-.3-1 .2-1 .3 0 .8.5 1 .9ZM179 116.2c0 .4.5.7 1 .6.8-.1.7 0-.2 1.3-2 2.4-4 3.4-5.7 2.9-1.2-.4-1.8-.2-2 .6-.1.8-.5 1-1 .5-.4-.4-.6-.3-.5.3.1.5-.2.8-.6.7l-2.5-.5c-1.3-.1-1.7-.5-1.4-.8.6-.6-.8-1-2.7-1.1-1.9-.2-4.3 0-6 .4-1.8.5-3.3.8-4.6.9-1.4 0-2.5-.1-3.6-.4-1.4-.5-2.8.9-1.3 1.3.7.3.7.4-.3 1-.6.5-1.3.7-1.6.6-.7-.3-1.8 1.3-1.8 2.6 0 .7.5 1.3 1.2 1.6 1 .4.9.5-.8.9-1.1.3-2.2.7-2.5 1-.7.6-4.7.2-7.5-.8-2-.7-2.2-1-1.4-1.6 1-.6.9-.7-.7-.6-1.4.1-1.9 0-2-1-.2-.6-.7-1.6-1.3-2.3-1.2-1.6-1-2.3 1-2.2h3c1.6-.2 1.6-.3 1.1-1.7-.4-1.4-.4-1.5.7-2 1.1-.6 2.5-1 4-1.4a29.6 29.6 0 0 1 12.8 0c1.2.4 2.3.5 2.3.1.2-.3 1.2-.5 2.4-.4 1.5.1 3.1-.5 5.1-1.8l3-2 6.4 2.1c6.4 2.1 8.6 2.4 6.9.8-.8-.7-.8-.8 0-.6.5.1 1 .6 1 1Zm-36.2 5.7c0 .4.6.9 1.2 1 1.8.2 2-.3.3-1-1-.5-1.6-.5-1.5 0Zm-5.3 2.9c-1.5.6-2.8 2.9-1.8 3.3.3 0 .6 0 .8-.4 0-.4.7-1 1.3-1.4 1.8-1 1.5-2.2-.3-1.5Zm2.8-19.3c-1.5.6-4 .2-2.7-.5.6-.4 2.1-.5 3.5-.2.3 0 0 .3-.8.7Zm676.2-25.9c0 .4-.1.9-.4 1-.3 0-.6-.2-.6-.6 0-.4 0-.8.4-1 .3 0 .6.2.6.6Zm31-8-.5 1c-.1 0-.3-.2-.4-.6 0-.5.2-.8.5-1 .3 0 .5.2.3.7ZM151 112.4c-2 1.2-4 1.7-5.2 1.3-.9-.4-.9-.4.4-1 .9-.4 1-.7.6-1-.3-.4-.1-.3.5 0 .6.4 1.2.4 1.3.1.2-.5 1.2-.6 3.3-.3.3 0 0 .5-.9 1Zm22.3 11c-.3.4-.7.6-.8.5-.2 0-.2-.3 0-.7 0-.4.4-.6.7-.5.3.1.3.4 0 .8Zm-59-19.6c-.2.3-.5.5-.7.4l-2.4-.5-2-.3 2.2-.2c2.8-.2 3.1-.2 2.9.6Zm14 6.4c-.5 0-1.4.4-2 .8-.5.5-.8.5-.7.1.3-1 1.9-1.8 2.8-1.3.7.2.7.3-.1.4Zm37.9 14c-.5.1-.8.5-.5.6.8.3-2.3.5-3.6.2-1.3-.4-.4-1 2-1.3 2.5-.3 3.5 0 2.1.5Zm679-41.2c0 .7.2.8.7.3.4-.3.8-.2.8.2.2 1-4.6 2.4-5.9 1.8-1.2-.5-1-1.8.2-1.7.7 0 1.1-.2 1-.5-.4-1.3 0-1.5 1.6-1.3 1 .1 1.7.7 1.7 1.2Zm30.3-12c0 .2-.2.4-.5.5-.3.1-.6-.1-.7-.6 0-.4.1-.6.5-.5l.7.6Zm-49.1 17.5c.9-.6 1.5-.6 1.8 0 .2.6 1 1 1.7 1 .6 0 1-.2.8-.5-.7-.8 1.4-1.4 6-1.5 5.5-.1 6.2.6 1.8 2-2 .5-3.8 1.2-4 1.4-.3.3-1.2.2-1.9 0a6 6 0 0 0-2.8-.2c-.7.2-1.4 0-1.5-.2 0-.3-1.2-.3-2.6-.1-3.2.4-4.2.2-4.3-.6-.1-.3.7-.6 1.7-.5 1 0 2.5-.3 3.3-.8Zm-665.9 36.7c0 .4-.8.8-1.6 1-.8 0-1 .2-.7.4 1.4.6-.4 1.3-3.5 1.4-1.7 0-3.6.2-4.3.4-.6.2-1 .1-1-.1.3-.9 2.7-2.3 3.4-2 .4.1.9 0 1-.4.2-.6 5.2-2 6.3-1.6.3.2.5.6.4 1Zm717.1-51.9c4.3-.5 4.7 1 .6 2.3-1.4.5-3.4.6-5.1.4-1.7 0-3-.4-3.2-1a32 32 0 0 1 7.7-1.7Zm-27.7 11c.4.6.5.5.8-.4.3-1 .4-1 .9-.1.3.7 1.2.8 2.6.3 1-.3 3-.5 4-.2 1.7.2 1.9.4.8.6-.8.2-1.4.7-1.4 1 0 .5.4.7.8.5.4-.2.7 0 .5.5 0 .5.2.6.8 0 1-.6 1-.4.8 1.3-.3 2-1.1 3-1 1 0-.5-.6-1.3-1.5-1.7-.9-.4-1.5-.5-1.5-.2s-.2.2-.5-.2c-.4-.4-1.7-.6-3-.4-3.1.5-4.6.1-4.9-1.3-.2-1.3 1.2-2 1.8-.8Zm-14.3 8.6c.2.7-.5 1-1.8.9-1.5-.3-1.3-1.3.3-1.5.8 0 1.5.2 1.5.6Zm28.7-4.4c.5-.6.6-.5.3.3-.5 1.2-2.3 1.2-2.6 0 0-.6.1-.6.7-.2.4.3 1.1.3 1.6-.1Zm-739.2 35c-.2.3.3 1 1 1.5 1.3 1 1.2 2.4-.3 3-4 1.7-6.5 3.2-7 4.4-.6 1.6-3.3 1.4-4.6-.2-1-1.3-.8-2.4.4-2 .5.2.8 0 .8-.4-.1-.4.2-.6.6-.5 1.1.5 2.3-1.7 1.6-3-.3-.7-.7-1.2-.8-1.1-.1 0-.1-.1 0-.4.2-.2 1.3 0 2.4.5 1.5.6 2 .6 2.3-.4.3-.6.7-1 1-1 .3.2.7-.2.8-.7.2-.5.7-.8 1.2-.6.4.1.7.5.6.9Zm-19.1-4c.1.3-1.2.7-2.8 1-3.6.4-4.1-.2-1.2-1.4 2-.8 3.6-.7 4 .4Zm4.9 5.9c-.7.8-1.5 1.3-1.7 1.2-.3 0-.4.4-.2 1 .3 1 0 1-1.7.8-2.3-.4-4.5-2.7-2.9-3 .7-.2.6-.4-.3-.8-.7-.3-1-.7-.7-1 .3-.3 1.4-.1 2.4.3s2.8.5 4 .2c1.2-.4 2.2-.5 2.2-.4 0 .2-.4 1-1.1 1.7Zm709.6-13.6c-.1.4.9.2 2.2-.4 2-1 2.4-1 2.2.2-.1 1.2.8 1.4 2.6.4.4-.2.6.3.6 1.3 0 1.7-.8 2.3-1.3 1.2-.2-.4-1.4-.5-2.8-.2-4.2.7-6.5 1.2-7.8 1.6-.7.2-1.3 0-1.4-.4 0-.5.4-1.3 1-1.9 1.5-1.3 5-2.7 4.7-1.8Zm-698 20.1c-.2.3-.8.4-1.1.2-.4-.1-.3-.3.4-.5 1.2-.4 1.4-.3.7.3Zm712.7-22.6c1.6-.6 2.2.3 1.4 1.8-.8 1.4-2.4 1.3-4.5-.1l-1.5-1.1h1.7c1-.1 2.3-.3 3-.6Zm-695.2 31-2.2-.2-2-.3 1.7-.8c1.3-.6 1.8-.6 2.2.2.3.6.4 1 .3 1.1Zm703.2-30.4c-.3.7-1 1.3-1.5 1.2-.8-.1-.8-.3 0-1.1 1.5-1.5 2-1.5 1.5 0ZM83.7 121.2h-1.2c-.7 0-1-.3-.7-.5.5-.4 2.1 0 2 .5Zm30.7 12.8c-.5 0-1-.2-1-.4-.2-.3.2-.3.8 0 .6.2.7.4.2.4Zm808-49.2c0 .1-.6.5-1.5.7-1 .2-1.6.2-1.5 0 0-.6 2.9-1.2 3-.7Zm-787.1 59.5c0 .2-.7 0-1.5-.3s-1.2-.7-.9-1c.5-.4 2.6.7 2.4 1.3Zm709.8-28c-.4.4-.9.6-1.1.4-.2-.2 0-.5.6-.7.7-.2.9 0 .5.3ZM898 98.8c-.3 1.2 0 1.4 1.3 1.2 1-.2.5.1-1 .8-2.2.9-2.7.8-2.9-.2-.4-1.7.4-3.2 1.7-3.3.9 0 1 .3.9 1.5Zm-820 25c-.5 0-1-.3-1-.6-.2-.2.2-.3.8 0 .6.3.7.5.2.5ZM895 101c0 .2-.3.4-.6.6-.3 0-.6-.2-.7-.6 0-.3.2-.6.5-.5.4.1.7.4.7.5Zm-36.6 14.4a2 2 0 0 1-1.4.5c-.4-.1 0-.4.7-.6.7-.3 1-.3.7 0Zm7.6-1c.6-.2 1-.2.9 0-.3.7-3 2.2-3.4 1.8h-2c-2 .4-2.4 0-.6-.7.8-.3 1.4-.9 1.3-1.3 0-.4.5-.5 1.3 0 .8.3 2 .4 2.5.2Zm4.5.2c0 .1-.4.6-1 1-.5.4-.9.4-.8 0 .2-.7 1.7-1.6 1.8-1Zm-746.7 38c.8.8 1.3 1.8 1.3 2.2-.1.3.2 1 .6 1.5.5.4.5.7.1.5a.7.7 0 0 0-1 .5c0 .4.2.6.5.5.4-.1.6.1.5.5-.2.4-.6.4-1.1 0-5.5-4.4-5.5-4.3-4.4-5.4.6-.6 1-1.2 1-1.3v-.5c.3-.5 1 0 2.5 1.5Zm-11.6-1.7c.1.6 0 1.4-.3 1.7-.4.4-.4 1-.1 1.5.4.6 0 .6-1 .1-1.2-.4-1.4-.7-.8-.9.7-.1.7-.4.3-1.3-.5-1-.8-1.1-1.7-.8-.6.3-1.4.1-1.8-.3-.7-.7-.6-.8.6-1.2 1.1-.4 2.4-.4 4 0 .2 0 .6.5.8 1.2Zm3.2 7.3c-.4 0-1-.3-1.3-.6-.3-.3 0-.3.8 0 .7.3 1 .6.5.6Zm7.2 3.2c-.3.3-.7.4-.8.4-.1 0-.2-.4 0-.8 0-.3.4-.5.7-.4.4.2.4.5 0 .8Zm-12.4-3.8c-.3.3-.7.5-.8.4-.1 0-.2-.4 0-.7 0-.4.4-.5.7-.4.4.1.4.5 0 .7Zm835.7-56.8c0 .1-.4.4-.8.5-.5.2-.9 0-1-.3 0-.3.3-.6.8-.6s1 .2 1 .4ZM922 111.2c.5.4.7.4.4 0-.3-.4-.1-.8.6-1.1.6-.3 1.2-.2 1.3.2 0 .3 1 .3 2-.1.9-.4 2.3-.8 3-.8 1.1 0 1.3-.2.9-.7-.4-.5-.3-.5.6-.4 1.3.3 2.6-.6 1.9-1.4-.6-.7 6.8-3.3 7.5-2.7.3.3 1.5.2 2.8 0 4.5-1 2.6.4-3.5 2.7a62.7 62.7 0 0 0-8.9 4c-2 1.4-3.6 2-6.2 2.4-5 .7-6.7.4-6.1-1.1.5-1.5 2.4-2 3.7-1Zm9.9.3c-.4.4-.8.5-1 .4-.3-.2 0-.5.5-.7.7-.2.9 0 .5.3Zm9.2-1.9a6 6 0 0 1-2.9 1.3c-3 .5-2.5-.3.8-1.4 2.5-.7 3-.7 2 .1Zm1.8.7c.1.4-.1.6-.5.5-.3 0-.7-.3-.7-.5l.5-.5c.3 0 .6.1.7.5Zm-845 58.5c-.2.3-.5.3-.7 0-.2-.4-.4-.8-.3-1h.6c.3.2.5.6.3 1ZM80.4 162c1.1.6 1.2.8.4 1-.6 0-.8.2-.6.3.2.2 0 .5-.7.8-1.3.6-2.7 0-2.9-1.1 0-.5-.5-.7-1.2-.4-1.2.4-3.6-.9-4.2-2.2-.1-.5.5-.4 1.6.1 1 .5 2.3.8 2.9.7.7-.1.8-.3.4-.5s-.6-.6-.5-1c.2-.5.8-.3 1.8.5a19 19 0 0 0 3 1.8Zm-1.2 4.4c-.7 0-1.8-.2-2.4-.5-.8-.4-.6-.5.9-.6 1 0 2 .3 2.3.6.2.3-.2.6-.8.5Zm875-44c-.1.3.3.5 1 .3.5-.3 1.3-.2 1.6.1.4.4.3.6-.4.6s-1.1.3-1.1 1c0 .8-.4 1-1.5.7-3-.5-3.2-.7-2.6-1.6.8-1.2 3.2-2.1 3-1.2ZM80.9 174.2c0 .5-.3.6-.8.4-.4-.3-.8-.1-.7.3 0 .5-1 .2-2.8-.7-1.7-1-2.1-1.3-1-1 .8.3 2.2.4 3 .2 1.7-.4 2.2-.2 2.3.8Zm6.1 4.4c0 .4-.5.5-1.3.1-.7-.4-1.3-1-1.2-1.3.2-.3.7-.4 1.3-.1.6.3 1.1.9 1.2 1.3Zm-4.8-.9c-1.7 0-2.6-.4-1.4-.6.6-.2 1.4 0 1.9.2.5.3.4.4-.5.4Zm-13-5.2c-.5 0-1-.5-1.2-1-.3-.6 0-.6.8.1.6.6.8 1 .3 1Zm17.7 8.2c.2 1-.6.6-1.4-.7-.5-.8-.5-1 .4-.5.5.2 1 .8 1 1.2Zm-6.4-1.7c0 .4-.6.4-1.6 0-1-.6-1.5-1-1.2-1.3.3-.3 1-.2 1.6 0 .6.3 1.1.9 1.2 1.3Zm883.8-49.6c0 .3-.5.4-1 .3-.5-.1-.6-.4-.1-1 .5-.9 1.5-.2 1.1.7Zm-3.6 6.4-.8 3.3c-.5 1.3-.5 1.4.3.7.5-.5.9-.5 1-.1.2.6-.5 1.3-1.6 1.5-.2 0-.3.4-.2.8 0 .3-.1.8-.4.9-.3.1-.7-.5-.8-1.5-.1-.9-.4-1.7-.6-1.9-1.4-.8-1-1.8.8-2.3 1.5-.4 1.9-.8 1.7-1.6-.2-.6 0-1.2.2-1.3.4-.1.5.4.4 1.5Zm3.4-.1c-.2.8-1.3.7-1.6-.2 0-.3.3-.6.8-.6s.8.4.8.8ZM97.2 205.2c.6 1 .5 1-.4 1.2-.6.1-1.2.2-1.4 0-.6-.2-.7-1.7-.1-2.2.7-.5 1.1-.3 2 1Zm-17-4.8c-.3.9-3.9-1.3-4.3-2.5-.2-1 0-1.1 1.6-.5 1.9.7 3 2 2.7 3Zm11.1 4a6 6 0 0 1-2-.3c-.6-.3-.4-.5.4-.4.7 0 1.6.2 2.1.4s.4.4-.5.4Zm7.5 8.2c-.8.6-2-.3-1.8-1.3.2-.5.7-.5 1.3 0 .6.5.8 1 .5 1.3Zm-12.4-.5c-.3.8-.9.5-1.7-.8-.5-.8-.3-1 .7-.4.7.3 1 .9 1 1.2Zm895.4-59.8c0 .3 0 .7-.4.8-.3.1-.7 0-1-.1-.2-.3 0-.6.4-.8.5-.2 1-.1 1 .1ZM85 217c-1.9.4-5.8-1-6.3-2.5-.7-1.9 0-1.8 4 .3 2.7 1.6 3.2 2 2.3 2.2Zm6.3 3.6c-.3.9-2.3-.5-2.3-1.5 0-.7.3-.7 1.2 0 .7.5 1.2 1.2 1 1.5Zm6 2.6c-.4 1-1.3.4-1.3-.9 0-.5.4-.7.8-.5.5.3.7.9.5 1.4Zm871.1-57c-.1.3-.6.3-1.1 0-.8-.3-.7-.4.2-.4.6 0 1 .1.9.4ZM73.6 217.7c0 .4-.3.6-.7.3-.5-.3-.8-.7-.7-1 .2-.4.5-.5.8-.4l.6 1Zm911.6-50.5c1 .3 1 .4-.6 1-2.6 1.1-2.6 1.1-1.9 0 .9-1.3 1-1.4 2.5-1Zm-911.4 57c.1.7-1.8.5-3.3-.3-1-.6-.4-1.5.8-1.2 1.8.4 2.4.8 2.5 1.5Zm941.1-69c.2-.3.4-.2.5.2.2.4-.3.8-1.4 1-2.1.4-2.3.4-2-.7 0-.6.5-.7 1.4-.4.7.3 1.4.3 1.5 0ZM69.1 223.8c-.2.4-.8.3-1.5 0-1.1-.8-1.1-.8.1-.7l1.4.1v.6Zm948.7-69s-.3.4-.8.6c-.4.2-.9.1-1-.2-.1-.3.2-.6.8-.6l1 .1Zm-22.5 16c.3 1.2.4 1.3.6.3.2-.8.4-.9.5-.4.2.4.8.5 1.5.2 1.3-.6 1.3-.5.4.5-.6.5-1.2.8-1.4.6-.2-.3-.7 0-1.1.6-.5.5-1 1-1.5.8-1-.2-1.8-2.2-1.1-3.2.9-1.3 1.8-1.1 2.1.6ZM474.7 329.3c-.4 1-2.9 1.2-2.9.3 0-.4.8-.7 1.7-.8.9-.1 1.5.1 1.2.5Zm-10.4 3.4a3 3 0 0 1-2 0c-.3-.2.2-.4 1.3-.4 1 0 1.4.2.7.4Zm-40.7 1c-.4.3-1 .3-1.2 0-.2-.2.2-.5.9-.4.8 0 .9.3.3.5Zm588.7-168.6c-.4.3-.9.5-1.1.4-.3 0 0-.4.6-.6.7-.3.8-.2.5.2ZM341.9 332.3c-.5.2-1 0-1.3-.2-.1-.3.3-.4 1-.3.7.1.8.3.3.5Zm200.9 1.4c.2.5-.5.8-1.9.9-1.2 0-2.1-.3-2-.6.5-1 3.5-1.2 3.9-.3Zm35.7-5.2c-.6.8-1 .9-1.6.2-.6-.7-.4-1 .8-1 1.2-.3 1.4-.1.8.8ZM1015 170c0 .3-.3.7-.7 1-.5.2-.9.1-1-.1-.1-.3.2-.7.7-1 .4-.2.9-.1 1 .1ZM555.8 333.5c.6 1-.3 1-1.6.3-.8-.6-.8-.7.1-.9.6 0 1.4.2 1.5.6ZM51.7 233c.1 1.3-.2 1.3-3.3 0-2.6-1-3.4-1.5-3.4-2.1 0-1.5 2-1.4 5.6.3.5.3 1 1 1 1.8Zm934.6-42.6c1.7.3 1.8.5 1.4 1.8-.5 1.2-.9 1.5-2.4 1.6-1.9.1-3-.7-2.8-2 .2-1 1.7-1.6 3.8-1.4ZM43.2 231c.4.8.1.8-1.3 0-1.4-1-1.7-1.2-.9-1.3l1.3.1.9 1.2Zm275.1 110.2c-.2.3 1.5.7 3.9.8 3 .1 4.2.5 4.1 1.1-.1.6-1.4.7-3.5.3-1.9-.4-4.3-.5-5.6-.3-3 .6-4.6-.4-4-2.2.5-1 1.2-1.2 3-.8 1.4.3 2.3.8 2.1 1Zm678.5-152.8c.1.4.5.4 1 .3.9-.6 2.7.4 2.3 1.1-.2.3-2 .9-3.8 1.4-6.3 1.5-7.3.8-2.5-1.9 1.6-1 2.8-1.3 3-1ZM299.3 342.6c0 .2-.5.3-1 .1-.6 0-.9-.5-.8-.9 0-.4.5-.5 1 0 .5.2.8.7.8.8ZM65.8 252.2c-1.8-.2-2.3-.5-1.7-1 .3-.2 1.1 0 1.8.4 1.1.7 1.1.7-.1.6Zm44 25.6c0 .4-.4.6-1.1.4-1.2-.2-1.4-1-.4-1.4.7-.3 1.4.1 1.5 1ZM88.7 268c-.3.8-1.6 1-1.9.3-.2-.7.9-1.5 1.5-1.1.4.1.5.5.4.8Zm897-65.6c0 .4-.4 1-.8 1.1-.4.2-.4 0 0-.7.8-1.3 1-1.4.8-.4Zm-875.3 79.8c-.8.3-1.1.6-.7.8.3.2.5.8.4 1.3-.2.5-1.1.6-2.4 0-1.4-.4-2-1-1.8-1.5.1-.5.5-.7.7-.6.3.1 1.3 0 2.3-.3 1-.4 2-.5 2.3-.3.3.2 0 .5-.8.6Zm893.7-86.5c0 .3-.6.3-1.1.1-.8-.3-.8-.4.2-.5.6 0 1 .1 1 .4Zm-3 1.8c0 .3-.2.6-.6.5-.3 0-.5.2-.4.6.1.4 0 1.2-.3 1.9-.4 1-.8 1-2.2.7-1-.2-1.5-.5-1.1-.7.4-.2 1-.2 1.2 0 .9.7 1.8 0 1.2-.9-.6-.7-.2-1.6 1.2-2.4.4-.2.8 0 1 .3ZM274 348.7c-.7 2-3 1.6-2.8-.5.1-2.2.7-2.6 2.1-1.8.8.5 1 1.2.7 2.3Zm720.1-146c1.2-.1 2.7 0 3.3.4.6.3 1.4.3 1.9.1.4-.2.7 0 .6.3-.2 1 2.1 1 4 .1 1.6-.8 2.6-.3 3.2 1.6.5 1.2.3 1.4-2.8 3-1.9.8-3.5 1.3-3.5 1-.1-.2-.4-.2-.6.2-.3.3-.7.4-1 .2-.3-.2-1-.2-1.7.1-.6.4-1.2.4-1.2.1-.2-.6-6.7-.2-8 .5-.6.3-1.2.3-1.5 0-.3-.1-1.3-.1-2.3.2-2 .5-2.6-.1-1.3-1.5 1.7-1.8 3.2-2.7 4.9-2.9 1 0 1.5-.4 1.5-.7-.1-.3.3-1 1-1.5l1.2-1s1-.2 2.3-.2ZM284.6 350.5c-.2.6-.7 1-1.2 1-1-.3-1.6-1.6-.8-2.1.9-.8 2.2 0 2 1.1Zm-214.7-86c-.5 0-1-.3-1-.6-.2-.3.2-.3.8 0 .6.5.7.7.2.6ZM645 344c.7.5 1.1 1.1 1 1.4-.3.4-1.2 0-2-.6-1.9-1.4-1-2 1-.8ZM276 353c-.2.9-.7 1.4-1.3 1.3-.5-.1-.9-.6-.8-1 .1-.4.5-.7.8-.6.4 0 .6-.2.5-.7-.2-.5 0-.8.4-.7.4.1.6.9.4 1.7Zm712.8-141.7c-.3.4-.8.6-1 .5-.3 0 0-.4.6-.7.6-.3.8-.2.4.2ZM78 273.6c-.6-.2-1.4-.6-1.7-1-.3-.4.2-.3 1 .2 1 .6 1.3 1 .7.8Zm7.7 4.6c1.3.7.6 1.4-1.2 1.3-2-.1-3.7-2-3.1-3.5.2-.8.6-.7 2 .4l2.3 1.8Zm-3.4-1.2c0 .4.2.9.7 1.1.5.3.8.2.7-.3 0-.4-.3-1-.6-1-.3-.2-.6-.1-.8.2Zm8.2 3.9c-.1.3-.8.2-1.5-.2-1.2-.7-1.2-.7 0-.6l1.5.1v.7Zm3.4 1.8c-1.4.2-2-.1-1.7-1 .1-.2.8-.2 1.5.2 1 .6 1 .7.2.8Zm572.1 62.7c-.2.3-1 .5-1.6.4-1-.2-1-.4-.3-1.2 1-1 2.6-.4 2 .8Zm-551-48.7c-.3 1-.8 1.3-1 1-.3-.5-.6-.3-.8.2-.2.6-.7.8-1.2.6-.5-.3-1.2-.1-1.5.3-.4.4-1.3.4-2 0-.9-.4-1.3-1-1-1.2.4-.2-.1-.8-1.2-1.4-3.3-1.8-1-2.4 2.5-.8 3 1.4 3.4 1.4 4.2.2 1.2-1.9 2.7-1 2 1Zm167.4 62.5c-.1.4-.5.7-.9.6-.3 0-.5-.5-.4-1 0-.4.4-.6.7-.5.4 0 .6.5.6.9Zm-32.7-6.3c-.2.3-1 .5-1.8.6-1 0-1.3-.3-.8-1a7 7 0 0 0 .7-1.8c.1-.4.6-.2 1.3.5.6.7.9 1.4.6 1.7ZM972 223.8c.1.3-.1.6-.5.6l-.8-.4c0-.2.2-.5.5-.6.3-.2.7 0 .8.4Zm-871.2 67c.1.3-.4 1-1.1 1.3-.7.3-1 .8-.7 1 .3.1.3.8-.1 1.4-.4.6-1 1-1.4.7-.4-.2-.4.2 0 .7.9 1.5-.1 1.7-2.2.6-2-1-2-2.7 0-2.2.7.1 1.2 0 1.1-.5 0-.4-.4-.7-.7-.7-.4 0-1.9-.4-3.4-1.1-3.5-1.6-2.8-2.7 1.5-2 1.7.3 2.9.3 2.6.1-.3-.2.3-.3 1.5-.3 2.3 0 2.5.2 2.9 1Zm27.2 14.3c.1.4-.3.7-.8.7-1.7 0-2.2-.5-1.9-1.6.3-1 2.5-.3 2.7.9Zm-44.3-22.5c-.2.6-.8.7-1.5.3-1.1-.6-1.2-1.5-.2-1.8.9-.4 2 .6 1.7 1.5Zm166.8 73.8c0 .3-.6.7-1.1.8-.7 0-1-.4-.7-1.3.1-1 .5-1.2 1.1-.8.5.4.8 1 .7 1.3Zm13.7 2.8c-.5.1-1-.1-1.2-.4-.1-.3.3-.4 1-.2.7.3.8.5.2.6Zm8.4 4.1c-1.2.5-2-1-1.2-2 .5-.5.8-.4 1.4.5.6.9.5 1.2-.2 1.5ZM87.8 287.2c-.3.4-1 .3-1.3-.2-.6-.6-.6-.8.2-.9 1.4-.1 1.8.3 1.1 1Zm34.2 18c-.4.3-.8.3-1.2.2-.3-.2-.3-.5 0-.8.3-.3.8-.3 1.2-.2.3.2.3.5 0 .8Zm-41-18.7a8.7 8.7 0 0 1-3-2.4c-.7-1.1-.7-1.1.2-.3.7.5 1.7.8 2.5.7 1.1-.2 1.4 0 2 1.5.7 1.7.7 1.7-1.6.5Zm29.6 15.5c-.9 1.6-2.7 1-3.6-1.2-.5-1.3-.4-1.4.8-.7a5 5 0 0 0 2.4.5l1.1-.1-.7 1.5Zm128.2 52.5c0 .4-.4.6-.8.5-.4 0-.4-.4-.1-.8.3-.3.7-.6.8-.5.2 0 .2.4.1.8Zm3.6 2.3c-.2.6-.7 1-1.2.8-1-.3-1-2 0-2.6.7-.6 1.4.6 1.2 1.8Zm-122.2-49.2c0 .2-.5.2-1 .2-.6 0-1-.4-.9-.7.1-.4.6-.4 1.1-.2.5.2.8.6.8.7Zm6.4 3.7c-.7 0-.9.5-.7 1.8.2 1.2 0 1.7-.9 2-.7.2-1.1 1-1.3 2.4-.2 1.6-.5 2.1-1.4 2-.7 0-1.2-.5-1.4-1.1-.3-1.7-1.4-.3-1.2 1.5.3 2 .2 2.4-.6 2-.3-.1-.4-.5-.1-.7.7-.5-.9-2.2-2-2.1-.4 0 0-.3.8-.7 1.3-.8 1.4-1 1-2.7-.4-1.7-.3-2 1-3 1-.9 1.2-1.2.6-1.5-.4-.2.3-.7 1.7-1 1.4-.3 3.2-.3 4 .1 1 .6 1.2.8.5 1Zm-3.4 2c-.2.4 0 .9.3 1 .4.2.7 0 .8-.3.1-.4 0-.8-.3-1a.6.6 0 0 0-.8.4Zm144.2 52.1c2 .6 3 2.2 2.8 3.8-.2 1.2-3.6-.4-5.3-2.6-2-2.4-2.2-4.2-.6-2.7.6.5 2 1.2 3.1 1.5Zm-161.1-63.1c-.1.3.2.8.7 1.1.9.5.8.6-.5 1.3-1.4.7-1.6.6-1.9-.7-.2-.8 0-1.8.2-2.2.8-.8 1.8-.5 1.5.5Zm30.2 15.4c0 .4-.2.8-.6.9-.4 0-1 .8-1.3 1.7-.2 1-.7 1.5-1 1.4-.7-.3-.3-2 .9-4 .8-1.4 1.6-1.4 2 0Zm-33-16.2c-.3.3-.9.3-1.3 0-.4-.2-.2-.4.4-.5 1.4-.2 1.6 0 .9.5Zm78.3 37.2c.1.1-.6.3-1.8.5-1 .2-2.1.2-2.3-.1 0-.3.2-.4.6-.2.4.2.6-.1.5-.6 0-.5-.5-.8-.9-.7-.3.1-.5-.1-.4-.5.1-.5 1.7 0 4.3 1.6Zm28.6 11.3c.6-.1.6 0-.1.4-.5.3-1.3.2-1.8-.3-.8-.7-.8-.9 0-1.2.5-.1 1 0 1 .5s.4.7.9.6ZM92.8 297.8c-.3.8-.8 1-1.5.7-1.6-1-1.9-.5-1.9 2.5 0 2.1-.3 2.8-1 3l-3 1.3c-2.4 1.2-3.3.2-1.4-1.4 1-.9 1-1-.5-1.4-1.1-.3-1.6-.8-1.4-1.3.2-.5 0-.6-.7-.2-.7.4-.9.3-.9-.4 0-.5-1-1.4-2-2.1-1.7-1-1.9-1.4-1.3-2.4.5-1 1-1 2.8-.2 1.3.6 2.5 1.7 3.1 2.7 1.1 2 3.5 3.5 3.8 2.5.1-.4 0-1.5-.3-2.5-.4-1.3-.4-1.7.3-1.8.5 0 .8-.6.9-1.2 0-1.3 1-1.3 3.8.2 1.2.6 1.5 1 1.2 2ZM247 364c-.5 0-1-.1-1.2-.4-.2-.3.2-.4.9-.2.7.3.8.5.3.6Zm5.4 2.5c0 .4-.8.3-1.7-.2-.8-.4-1.4-.9-1.4-1 0-.2.8-.1 1.6.1 1 .3 1.6.8 1.5 1.1Zm-151.2-61.2c-.3.9-.8 1.4-1.1 1.3-.4-.2-.4-1 0-2 .2-.8.7-1.4 1-1.2.3.1.4 1 0 1.9Zm85.3 39c.4.8-1.3 3.7-2 3.7-.5 0-.6-1-.5-2 .1-1 0-2.2-.4-2.6-.3-.5.2-.6 1-.2 1 .3 1.8.9 1.9 1.2Zm24.9 10.2c1 1.5 1 1.5-.4 1-.8-.2-1.4-1-1.5-1.6 0-1.5.6-1.3 1.9.6Zm23.6 7.7c-.2.8-3.4.9-3.9 0-.4-.9 1.5-1.6 3-1.1.6.2 1 .7 1 1Zm756.2-134.5c.1.5 0 1.1-.4 1.4-.5.2-1.3.8-2 1.3-1.3 1-2.3-.2-1.1-1.4 1.3-1.5 3.2-2.2 3.5-1.3ZM104 306.8c-.1.5-.3.9-.5.8l-1.4-.4c-1.1-.2-1.1-.2.1-.3 1-.2 1.2-.4.8-1.2-.5-.8-.5-.8.4-.4.5.3.8 1 .6 1.5Zm104.4 49c-.2.2-.7 0-1-.4-.5-.6-.4-1 .4-1.1 1-.3 1.5 1 .6 1.6Zm26.2 9.9c-.2.2-.3-.3 0-1 .1-1 .3-1 .4-.4 0 .6 0 1.2-.4 1.4Zm-61-23c.2.5-.1.5-.7 0-.5-.5-1-.6-1-.2-.3.8-2.5-.1-2.8-1.1 0-.4 0-.9.3-1 .8-.4 4 1.3 4.2 2.3Zm-68.3-31.5c-.5.2-.9 0-1-.6-.4-.6 0-.8.7-.4s.9.8.3 1Zm29.8 15.1c.2.5-.2.7-.7.4-.5-.2-.8-.7-.8-1.1.2-.4.5-.5.8-.4.3.2.6.7.7 1.1Zm-28.8-12.7c-.6.5.8 2 2 2.2.7 0 1.3.8 1.5 1.8.3 1 1.1 2.3 2 3 1.1 1 1.4 1.7 1 2.8l-.5 3.5c0 1.5-.3 2-1 1.7-.5-.4-.5-.2 0 .6.6 1 .5 1-.4.6-.5-.3-1.1-.1-1.3.4-.2.5 0 1.1.3 1.3.3.2.4.8.3 1.3-.2.5-.1 1.1.2 1.3.3.1 1 0 1.5-.3 1.6-.9 2.2-.3 1.6 1.6-.3.9-.8 1.5-1.2 1.3-.4-.3-.5 0-.2.8.2.8.3 1.6.1 1.9l-.3.8c0 .3 0 1.3-.3 2.5l-.3 2-1.3-3c-.7-1.7-2.4-4.2-3.8-5.7-3-3.4-3.6-5-1.9-5.7 1.7-.6 1.7-.8.1-1.3-1.4-.3-2.6-2.4-2.2-3.8.2-.5 0-1.5-.2-2.3-.8-1.9 0-2.7 2.7-2.6 3.2 0 3.7-1.3 1-2.2-2-.6-2.2-.8-1.5-1.9.8-1 .6-1.3-1.4-2-2.3-1-2.5-1.5-1-2.9.7-.6 1.4-.4 3 .6 1 .8 1.7 1.6 1.5 1.7Zm2.5 12.7c-.1.3 0 1 .3 1.5.3.4.5.4.4-.1-.1-.6.4-.8 1.2-.5 1.2.4 1.2.3-.2-.6-.8-.5-1.6-.6-1.7-.3Zm67 22.6c-.7.4-1 .3-.8-.2.2-.9 1.2-1.4 1.4-.8.2.3-.2.7-.7 1Zm10.4 4c.1.2-.1.5-.5.6-1.1.4-1.7 2-1 2.9.3.5.1.8-.6.8s-1.2-.6-1.4-1.7c-.2-1.2-.5-1.5-1.5-1.4a4 4 0 0 1-2.4-.5c-.7-.4-.9-.4-.5 0 .4.3.6.9.5 1.2 0 .4.6 1 1.4 1.3 1.2.5 1.4 1 1 1.8-.7 1.4-2.2 4-2.4 4a26 26 0 0 1-4.5-6c.5.3.8-.1.8-1.1s.7-2 2-2.7c1.6-1 2.3-1 3.5 0 1.1.8 1.5.9 1.4.2-.4-1.7.8-2.2 2.4-1 .8.6 1.7 1.3 1.8 1.6Zm-7.4 4c-.8.4-1 1.4-.3 1.6.3.1.8-.2 1.2-.7.6-.9 0-1.5-1-1Zm44.2 11.4c.1.4-.6.4-1.7 0-1.2-.4-1.5-.7-1-1 1.3-.3 2.5 0 2.7 1Zm-55-20c-.3.1-.1.9.3 1.7.7 1.2.7 1.3-.9.6-1-.4-1.5-1-1.4-1.6.3-1.1 1-1.6 2-1.3.3.2.3.4 0 .6Zm-33-13.2c-.1.2-.8 0-1.6-.5-.9-.4-1.5-1-1.3-1.3 0-.3.7 0 1.5.5.8.6 1.4 1.2 1.3 1.3Zm11.8 7c-1.4.7-1.9.6-2.3-.3-.2-.6-1-1.4-1.5-1.7-.6-.2-1.1-.9-1.2-1.3-.2-.6 1.1-.2 3.3.8l3.4 1.7-1.7.8Zm44.6 20.1c-.1.4-.5.6-.9.5-.4-.2-.4-.5 0-.8.2-.4.6-.5.8-.5 0 0 .2.4 0 .8Zm573.7-13.7c1 1 1.2 1.5.5 1.7-1 .4-2.6-.6-2.8-1.9-.2-1.5.7-1.4 2.3.2Zm-603.4 3.4c.4.5.4 1.3 0 1.6-.3.3-.3.7.1.9.5.2.6.4.3.6-.2.1-1.2-.3-2.2-1.1-1.5-1.2-1.6-1.4-.6-2.3 1.2-1.1 1.4-1 2.4.3Zm-24.3-10.3c-.3.4-.2 1.1.4 1.7.7.5.5.6-.5 0-1.6-1-1.8-3.8-.2-3 .6.3.7.8.3 1.3Zm616.3 13.2a18 18 0 0 1 3.3 1.8c1 .7 1 .7.4-.2-.3-.5-.4-.8 0-.5.3.1.8 1 1 1.7.2 1.5.2 1.5-1.7.6-2.8-1.3-4-2-5.2-3-1.4-1.5-.6-1.6 2.2-.4Zm24.4-9.3c0 .3 1 .5 2.1.3 1.1-.1 2.1.2 2.2.8 0 .6-.3 1.2-1 1.3-.7 0-1.5.3-1.8.3-.9.3-3-2.9-2.2-3.2.3-.1.7 0 .7.5Zm-607.7 12.7c0 .3-.5.3-1-.2-.4-.4-.8-.9-.7-1 0-.2.5-.2 1 0 .5.3.8.8.7 1.2Zm35.6 14.4c0 .4-.8.8-1.4 1-.7.1-1.2.6-1.1.9 0 .4-.2.7-.7.7-.6 0-.7-.8-.3-2.3.4-1.9.7-2.1 2-1.6 1 .3 1.6.9 1.5 1.3Zm-63.8-25.9c-.3.3-.8.4-1.1.2-.3-.1-.5-.6-.4-1 .1-.3.6-.4 1.2-.1.5.2.7.6.3.9Zm30.8 14.7c-.6 0-1.4.4-1.8.8-1 1-2 .4-1.5-1.2.3-1.1.7-1.2 2.3-.5 1.1.5 1.5 1 1 1Zm-9-2.6c-.4 1.6-1.5 2.9-2.2 2.6-.3-.2-.3-.7 0-1.2.4-.5.4-1.3 0-1.7-1.2-1-.2-1.9 1.3-1.2.7.3 1 1 1 1.5Zm605-5.4c.6.4.9.8.7 1-.2 0-.8-.3-1.3-.8-.6-.5-.8-.9-.7-1 .2 0 .8.3 1.3.8Zm7.2-1.2a3 3 0 0 1 1.8.4c1.6 1.1-1.5 1.6-3.5.6-1.5-.8-1.6-1-.5-.9l2.2-.1Zm-617.9 6.7c.7.8 1 2 .9 2.5-.4 1.5-2.2.3-2.2-1.5 0-1-.2-1.4-.9-1.2-.6.3-1.5-.4-3-2.1l-2-2.5 3 1.7c1.7.8 3.6 2.2 4.2 3Zm-17.8-7.2c0 .1-.6 0-1-.2-.6-.3-.8-.7-.4-1 .5-.4 1.6.4 1.4 1.2Zm836.1-89.2c.7.5 1.6 2.5 1.3 2.7-.6.4-3.7-.3-4.2-1-.8-.8 2-2.5 3-1.7ZM166 367.6c.5 1.4.4 1.4-.8.3-2.6-2.2-3.1-3.3-1.4-2.5 1 .4 1.9 1.4 2.2 2.2Zm8.6 5.9c-.2.4-1 .6-1.7.5-1-.2-1-.4-.1-1 1.3-1 2.5-.6 1.8.5Zm809-105.3c0 .2-.2.5-.6.6-.3.2-.6 0-.7-.3-.2-.3 0-.6.5-.6.4 0 .7.2.7.3Zm-4.7 3c.8 0 1 .3.5 1.4-.7 2-1.4 2.2-2 .5-.5-1.7-.2-2 1.5-2Zm-137.8 72c1.3.8 1.9 1.5 1.4 1.8-.5.2-1.6-.3-2.6-1.2-1-.8-1.6-1.6-1.4-1.7.2-.1 1.4.4 2.6 1.1ZM963 284.7c.1.6-1.6 2-2 1.5-.3-.2 0-.7.7-1 .6-.4 1.2-.6 1.3-.5Zm15.4 1.9c.4.1 0 .6-.6 1s-1.4.5-1.7.3c-.3-.2 0-.7.6-1 .7-.5 1.4-.6 1.7-.3ZM664.6 28c1.8 2.2 2.4 3.4 2.2 3.8-.4.8 4 .5 5-.3.8-.7.8-.6.3.6s-.5 1.5.5 1.6c.8.1 1-.1.8-.8-.2-.6.2-1.4.9-1.9 1-.8 1.1-.8-.2-1.1l-1.4-.3 1.4-.5c.8-.2 1.7 0 2 .6.4.6 1.3 1 1.9 1 .7 0 1.2.4 1.2.9.1 1.6.8 1.9 2.5 1 2.2-1.4 1.7-2.6-1.8-3.8a11 11 0 0 0-7.1-.2c-3.7.8-4.1.8-4.2-.6 0-1-.6-1.5-1.7-1.6-3-.2-3.5.1-2.3 1.6ZM367.8 60c.4.6.8.6 1.8 0 1.3-.7 1.3-.8-.4-.9-1.4-.1-1.8.1-1.4.8Zm56.3 1.5c0 .3.2.7.5.7h2.4c2.5-.1 2.2-.6-.7-1-1.3-.3-2.2-.2-2.2.3Zm5.6-.2c-.3.4 0 .8.4.8 1 0 1.1-.5.5-1.2-.3-.3-.7 0-1 .4Zm45-1.7c.4.2 1.2.2 1.7 0 .5-.3.3-.5-.6-.4-1 0-1.4.2-1 .4Zm131.5-17.5c-.2.5-.1.8.2.8.3 0 .6-.5.6-1 0-.4-.1-.7-.3-.7l-.5 1ZM656.4 32c0 .8.1 1.3.3 1 .2-.3.2-1 0-1.5-.2-.7-.3-.4-.3.5ZM352 61.7l-1.5 1h1.5c.8 0 1.5-.4 1.6-.7 0-.3.5-.6 1-.8.9-.3.9-.3 0-.4-.6-.1-1.8.3-2.6.9Zm40.6 2.8c0 .5-.5 1-1.3 1.3-1.6.5-1.7 1-1.2 2.7.3 1 .4 1 .6-.3.2-1.2.5-1.4 1.8-1 1 .2 1.6 0 1.7-.7 0-.7.5-.9 1-.6.6.4.6.7 0 1.2-.7.5-.7.7-.1.7.8 0 3.6-2.6 3.7-3.5 0-.2-1.4-.5-3.2-.5-2 0-3.2.3-3 .7Zm213.4-20.3c0 .8 1 1 1.4.2.1-.5 0-.9-.5-.8-.5.1-.9.4-.9.6Zm56.4-11.6-1.3.9 1.2.3c1.2.3 2.3-.4 2.2-1.7 0-.9-.2-.8-2.1.5Zm-224.6 32c0 .2.6.4 1.3.6.7.2 1.3 0 1.4-.3 0-.4-.6-.7-1.3-.7-.7 0-1.4.2-1.4.4Zm-151-5.8c-1 .5-1.6.9-1.3 1 .7.1-1.2 1.3-2 1.2-.5 0-.6-.4-.3-.8s-.2-.8-1.1-1c-.9 0-1.8.2-2.1.5-.3.4 0 .8.8 1 .8 0 1.4.4 1.5.8 0 .4 1.2.7 2.6.7 1.5 0 2.5.3 2.6.8.3 1.3 1.8 1.3 3.2.2 1.2-.8 1.2-1 .6-2.3-.3-.7-.4-1.6-.2-1.8.6-1-2.4-1-4.3-.3Zm5 .7c-.1.6 0 1.2.3 1.2.2 0 .8-.4 1.3-1 .8-.8.7-1-.2-1.1-.7-.2-1.2.2-1.4.9ZM415 68l-2 1 1.5.2c1.8.4 3.2-.2 3.3-1.4.1-1-.1-1-2.8.2Zm67.2-1.5c2.2.7 4.1.6 3.8-.1 0-.4-1.4-.6-2.8-.6-2.2.2-2.4.3-1 .7Zm-55.4 3.6c.4.4 1.2.7 1.8.7.9 0 1-.1.4-.8a3 3 0 0 0-1.9-.7c-.9 0-1 .1-.3.8ZM602 51.4c0 .7.1 1.2.2 1.2s.4-.6.5-1.3c.2-.7.1-1.2-.2-1.2-.3 0-.5.6-.5 1.3ZM422.4 70.8c-.1.6-.7 1-1.3 1-.6 0-1 .4-1.1.9 0 .4.2.8.5.8 1.2-.1 2.4-1.4 2.2-2.6 0-.8-.2-.8-.3 0Zm-144.6-7.7c-.9.4-2.2.5-3 .1-.7-.2-1.8-.3-3.6-.1a92.6 92.6 0 0 0-13.2 2.3c-1.5.5-2.7 1-3.3 1.5-1.3 1-1.2 1 1.4 2 1.6.5 3.1.7 3.5.4l2.3-1c1.1-.3 1.4-.2 1.1.4-.2.5-.3 1.3-.2 2 .2.8.6.9 1.6.4.7-.4 1.4-1 1.5-1.4 0-.3 1.2-.9 2.4-1.2 1.3-.3 2.7-.9 3.2-1.4.4-.5 1.2-.8 1.7-.7.5 0 1.2-.2 1.5-.5.4-.3 1.8-.5 3-.5 1.9 0 2.7-.3 3.2-1.3.6-1.2.5-1.4-.5-1.6-.6-.1-1.8.2-2.6.6Zm248.6 2.3c.5.4 1.2.6 1.6.5.6 0 .5-.3-.2-.7-1.5-.8-2.3-.7-1.4.2Zm109.8-18.5c0 .7 2.2.6 2.4-.1.2-.4-.3-.7-1.1-.5-.7.1-1.3.4-1.3.6ZM411.5 74c-1.4.2-2.2.7-2.3 1.5 0 .7-.7 1.1-1.8 1.1-1 0-1.6.3-1.6 1 .2 1.2 3.8 1 4.2-.1.2-.5 1-.9 1.7-.9.9 0 2-.5 2.6-1.1 1-1 1-1.1.3-1.6l-1-.4-2.1.5Zm5-.2c0 .2.2.5.5.8.3.3.5 0 .6-.4 0-.4-.2-.8-.5-.8s-.5.2-.6.4Zm53.9-1.8c-.8 1.1-.4 1.5 1.6 1.2 1.1-.1 2.2 0 2.3.4.3.8 2.7-.1 2.8-1 0-.7-.4-.8-3.8-1-1.4 0-2.7.1-3 .4Zm58.7-5.6c0 1 1.9 2.3 3.2 2.2 1.5-.1 3.9 1.9 2.5 2.2-.4 0-.3.3.3.6 1.4.7 4.9 0 5-1 .3-1-1.4-1.7-2.4-1-.5.3-.6.1-.3-.6.4-.9.1-1-1-.6-.8.4-1.4.4-1.4 0 0-.3-.5-.8-1.2-1-2.7-.9-4.7-1.3-4.7-.8Zm72.1-11c-.2.6-.2.8 0 .4.2-.3 1-.4 1.7-.1.8.3 1.4.2 1.3-.2 0-.7-1.2-1.5-2.1-1.3-.3 0-.7.6-.9 1.2ZM305.8 70.7c.4.3 1 .4 1.4.2.4-.2.1-.4-.6-.4-.8-.1-1.1 0-.8.2Zm184.1 5c0 1 1.8 2.4 2.3 1.7.5-.8-.6-2.7-1.5-2.6a1 1 0 0 0-.8.9Zm-63.8 3.8c.4.3 1 .2 1.4 0 .4-.2 0-.4-.7-.4s-1 .3-.7.4Zm115.6-8.9c-.4.9 1 2.7 2.1 2.8 1.2 0 1-2.1-.2-3-1.2-.8-1.5-.8-1.9.2ZM413.5 82c.2.3.6.3 1 0 .5-.2.4-.4-.2-.4-.6 0-1 .1-.8.4Zm2 .7c-.7 1-.7 1.2 0 1.2 1 0 1.8-1.3 1.2-2-.2-.2-.8.2-1.2.8Zm76.7-1.5c1 1 2.9.8 2.5-.3-.1-.4-1-.7-1.7-.6-1.2.1-1.4.3-.8.9Zm47-5.3c-.5 1.3 0 1.8 1.2 1.4.8-.4.9-.5.1-1.4-.6-.7-1-.7-1.2 0Zm155.6-30.5c-6.7 2.9-6.5 3 1.8.8 3.7-1 6.7-1.5 7.4-1.1.8.4 1.4.2 1.8-.4.3-.5 1.3-1.3 2.2-1.8l2-1c1.2-.7-4.4-.4-7 .4a51.7 51.7 0 0 0-8.2 3.1Zm17.7-4.2c0 .5.7.7 1.4.5.8-.2 1.2-.7 1-1.1-.2-.4-.8-.6-1.4-.4-.6.1-1 .6-1 1Zm-46 12.3c-.2.5 0 .8.5.7 1-.2 1.1-.7.3-1.2-.3-.2-.6 0-.8.5Zm17.8-4.3c-.4 1.2 3 .3 4-1 .6-.7.2-.8-1.4-.4-1.3.3-2.4 1-2.6 1.4Zm-447.1 20c-2.5.6-3.6 1.6-3.4 2.8.2.7.4.7.8.2.6-.7 3-.6 4.6.2.4.3.8.1.9-.3 0-.4-.3-.7-.7-.6-1 0-.5-1.3.8-2 1-.4 1-.5 0-.6-.6-.1-2 0-3 .3Zm483.6-28c.1.8 1 1.5 2.1 1.7 2.5.4 6 3.9 5.8 5.6-.2.7-.1 1.3 0 1.2.3 0 2.2-3.7 2.1-4.2 0-.5-1.3-1.8-2.8-3a14.1 14.1 0 0 0-4-2.5c-2.8-.6-3.6-.3-3.2 1.3Zm-63 16c-.8.7-.8.9 0 .7.4 0 1-.5 1.2-1 .3-1 .3-1-1.1.3ZM643 61.3l-2.5 1h2.7c1.5.1 2.9-.2 3.1-.7.8-1.3-.5-1.4-3.3-.3ZM567.6 77c.2.4.1 1-.2 1.6-.4.7.1.8 1.8.3 2.1-.7 2.2-.8.8-1.1a9 9 0 0 1-2.1-.9c-.4-.2-.6-.2-.3.1ZM710 46.7c0 .5.6 1 1.3 1.2.7.3 1 .5.5.7-.5.1-.1.6.8 1 .9.5 1.8.5 2 .2.3-.3.5-.2.6.2 0 .4.5.5 1 .1 1.3-.8 1.8-3.7.9-4.8-.9-.9-7.2.4-7 1.4ZM246.6 74.3c-.7.1-1.4.4-1.5.8-.2 1 1 1 2.6.1 1.3-.9 1.1-1-1.1-.9ZM682 54.6c0 .4.3.7.6.7s.5-.5.5-1c0-.4-.3-.7-.6-.6-.3 0-.5.5-.5 1Zm8.2-1c0 .3.4.5.8.7.5.1.8-.1.8-.5 0-.5-.4-.7-.8-.6-.5 0-.8.3-.8.5ZM221.5 71.5c-.7 0-1.3.3-1.4.7-.2.6 2 .6 2.7 0 .6-.4 0-.7-1.3-.7Zm33.2 8c-.5.5-1.5 1-2 1.2-1 .2-1.1.5-.8 1.5.6 1.8 2.8 2 3.6.3.4-.8.8-1.4 1-1.3.3 0 .6-.5.7-1 .3-1.4-1.3-1.8-2.5-.7Zm411-16.4c-.2.8-1 1.5-2.1 1.7-1 .3-2 .9-2.2 1.4-.4 1.2 3.2-.5 5.6-2.7 2-2 2.2-2.4.3-2-.7.2-1.5 1-1.6 1.6Zm42-10.4c-.9 2-.2 2.2 1.7.5.8-.8 1.4-1.7 1.2-2-.7-.8-2.2 0-2.9 1.5ZM224.8 77c-1 .5-1.5.5-1.2 0 .4-.4 0-.3-1 .2-.8.5-2.2.8-3 .6-1.6-.4-5 .2-5.2.9-.2.8 3 1.6 4 1 .5-.3 1.4-.6 2.7-.7 1.3-.2 3.1-.3 5.4-.3 2.6 0 3.8-1.5 1.6-2-.9-.2-2.3 0-3.3.3Zm24.1 4.6c-1.3.8-1.6 2.9-.5 3.1.8.2 1.2-.2 1.5-1.6.5-1.8.2-2.3-1-1.5Zm500-36c1.1 0 4-.2 6.6-.7 3.6-.6 4.3-1 3.5-1.4-.6-.4-3.6 0-6.6.6-3.9 1-4.9 1.4-3.5 1.5Zm-53.7 15.8c.2.2.7.1 1-.2.5-.4.4-.5-.3-.4-.6 0-.9.4-.7.6Zm73.5-19c2.4-.2 3.9-.7 4.2-1.3.3-.6-1-.5-3.8.4L765 43l3.8-.3Zm-570.8 32-1.7.1c-2.9-.1-6.9.4-7 1-.4 1.1 1.1 1.5 2.8.7 1-.5 2.3-.6 3-.3.7.3 1.5.3 1.8 0 .2-.3.9-.5 1.4-.3.6.1 1.2 0 1.5-.4.5-.6-1.1-1.4-1.8-.9Zm27.1 6.9c0 .3 0 .7.3.8.3 0 .8-.2 1-.5.4-.4.2-.8-.3-.9-.4 0-.9.2-1 .6Zm552-41.1c0 .7 2.2.4 2.8-.4.4-.6 0-.8-1.1-.4-1 .3-1.7.6-1.7.8Zm23.9-5c1.5 0 4-.3 5.4-.6l6-.6c4-.3 6.2-1 3.1-1H812a94 94 0 0 0-11.9 1.7c-1.6.6-1.6.7.9.5ZM757.8 51c.3 1.6 2.7 2.7 3.7 1.8 1.8-1.6-.4-4-2.9-3.4-.8.2-1 .7-.8 1.6Zm71-17.8c.4.3 1 .2 1.6 0 .7-.5.5-.7-.6-.6-1 0-1.4.2-1 .6ZM185.2 84.7c-.6.8.6 1.1 1.9.6.8-.4.8-.5-.2-.8-.6-.2-1.4 0-1.7.2ZM123 68c-1.2.4-2.7.5-3.4.3-.6-.2-3.1 0-5.5.2-2.4.3-5.4.4-6.6.2-2-.3-3.5.6-1.8 1.1 1.5.5.4 1-1.6 1.2-2 .2-5 0-7.3-.4-2.8-.5-2.9-.1 0 .9a8 8 0 0 1 3.3 2.3c.9 1.3 1.1 1.4 3.6.7 1.4-.3 2.7-1 2.9-1.3.2-.6 6-1 7.5-.4.8.2 3.7-.5 5.3-1.5.5-.3 1.3-.3 1.6 0 .7.7 5.4-1.3 5.8-2.5.4-1.2-1.2-1.4-3.8-.8Zm36 16.2c-.1.6.1 1.1.6 1.3.4 0 .8 0 1-.4 0-.3-.2-.9-.6-1.2-.4-.4-.8-.2-1 .3Zm703.8-46.7c.2.7 5.6 1.3 7 .8 1.1-.4-2.2-1.5-3.5-1.1-.6.2-1.3 0-1.6-.3-.5-.8-2-.3-1.9.6ZM132.4 78.7c-.6-.1-1.2.2-1.2.7 0 .4-1.2 1-2.7 1.3a23 23 0 0 0-3.7 1c-.6.3-3.2.5-5.7.5-2.6 0-5.6.2-6.5.5-1 .4-1.9.4-2 0-.2-.3-.3-.2-.2.3 0 .4-.3.9-.8.9s-1 .4-1.1 1c-.1.7-1.4.5-2.9-.7-.5-.3-.8-.1-1 .6-.2 1.3-1.1 1.2-1.3 0 0-.4-.5-.6-1.4-.4-.7.1-2.2-.3-3.4-1-2-1.1-2.2-1.5-1.7-2.8.3-.8.8-1.3 1-1.2.4.1.6 0 .5-.3-.2-.5-2.9 0-3.8.7-1 .9-1.2 1.9-.4 3.7.5 1.4 1.1 1.8 2.8 2.1 3.4.6 3.5.6 4.1.1.4-.2.5-.1.3.4 0 .4-1.3.9-2.7 1-2 .1-2.4.3-2.3 1.5 0 .7.5 1.5 1 1.7 1.2.4 1.9 1.9 2.3 4.4.2 1 1 2.5 1.7 3.3 1.2 1.3 1.5 1.3 2.8.7 1-.5 1.6-1.2 1.7-2.2.2-1.6 1.8-2.4 3.7-1.7 1.4.4 5.1-1.3 4.5-2.2-.2-.3-1.2-.6-2-.5-4.1.2-4.9-.1-5-2.3-.2-2-.1-2.2 1.5-2.8 1-.4 1.7-1 1.8-1.5 0-.9 1.4-1 3.2-.8 2 .3 4.3 1 6.3 2.2.8.5 1.3.6 1 .3-1-1 .3-1.6 1.9-1 1.2.4 1.5.2 1.6-.8.2-1 .6-1.4 1.8-1.3 1 0 2.2-.2 2.9-.5a5 5 0 0 1 2.4-.5c.8.1 1.6-.1 1.8-.4.2-.4.8-.5 1.4-.3 1.2.4 1.6-.4 1-1.6-.8-1.3-1.8-2-3.2-2.1ZM102.2 89c-.5 0-1-.2-1-.4-.1-.3.3-.4.8 0 .6.2.7.3.2.4Zm1.5 7.2c0 .3-.4.4-.7.3-.3-.1-.5-.5-.5-.8 0-.3.2-.5.6-.3.4.1.7.5.6.8Zm69.8-4c-.6.3-.8.7-.5 1 .2.3.7.2 1-.3.7-1 .7-1.1-.5-.6Zm-9 .1c-.7.5-1 1.5-.4 1.6.3.1.8-.2 1.1-.7.6-1 .2-1.5-.7-.9Zm-74-24.2c.2.3.8.5 1.2.4.5 0 .2-.2-.5-.5s-1-.2-.8 0Zm45.8 18.7c-1.4.7-1.4.7 0 .4.8-.2 1.5-.5 1.5-.6.2-.5-.1-.5-1.5.2Zm-11-.4c-1 1.7-.8 2 1.3 2.1 1.5.1 1.7 0 1.6-1.3-.2-2-1.9-2.4-2.9-.8Zm-39.5-7.7c-.8.9-.2 2.1 1.2 2.7.9.3 2.2-1 2-2 0-1.1-2.4-1.7-3.2-.7Zm1.2 1c-.5.1-1 0-1-.3-.1-.3.2-.3.8 0 .6.2.7.4.2.4Zm34.8 12.5c-.9.5-1.5 1.1-1.4 1.3.3.7 2.5.4 3.1-.4 1-1.4 0-2-1.7-1ZM87.5 84c-2.2.5-2.5 1-.6 1.2.8 0 1.5.5 1.5.9.2 1.1 1.5 1.3 2.2.3.7-.8.3-2.1-.8-2.5a7 7 0 0 0-2.3.1Zm817-34.2c0 .4.3.6.6.5.4-.1.5-.5.4-.9 0-.3-.4-.6-.6-.5-.4.1-.5.5-.4.9Zm-819.2 41c-1.4 0-2.6.2-2.7.4-.4 1 .3 2.1 1.8 3.2 1.4.8 2.4 1 4.4.5 2.4-.6 2.6-.8 1.8-1.5l-1.7-1.7-.8-1-2.8.1Zm-9.6 7.4c-.8.7-1 1.3-.8 2.7.2 1 .6 2 .9 2 .3.2.2.5-.1.8-.5.4-.3.5.5.5 4.7-.1 6.5.1 6.9 1 .7 1.4 1.4.6 1-1-.1-1-.6-1.5-1.5-1.5-.7 0-1.5-.5-1.7-1-.3-.6-.9-1.1-1.3-1.2-1.2-.2-2.9-2-2.3-2.4.3-.3.3-.6 0-.7-.3-.1-1 .2-1.6.8Zm814.1-25.6c.3.2.7 0 1-.3.5-.4.3-.5-.3-.3s-.9.5-.7.6Zm2.9-.7c1.5.3 2.9 0 2.3-.6-.3-.2-1.2-.2-2 0-1.3.3-1.3.4-.3.6Zm27-6c.4.4 3.3-.2 6-.9 2.6-.8 5.1-1.7 5-2.2 0-.4-.6-.7-1-.5l-5.5 1.6-3.1 1c-1.5.6-1.8.8-1.5 1Zm11.6-3.4c0 .4.2.7.3.6.2 0 .3-.4.5-.9 0-.4-.1-.7-.5-.6-.3.1-.4.5-.3.9ZM86.7 107.3l-2 .2 2.2.5c1.2.2 2.4 1 2.8 1.6.5.6 1.3 1.1 1.8 1 1.7 0 1.5-1-.3-1.4-1-.2-1.6-.6-1.4-1 .3-1-.8-1.2-3-1Zm-16-2.4c-.5 0-1.3.2-1.9.5-.8.3-.8.5.1.9.6.3 1.2.2 1.3-.1.2-.3.4-.5.6-.4 1 .6 1.8.7 2 .1.2-.6-.6-1-2-1Zm14 6c-.8 0-1.6.2-1.7.5-1.4 2.6-1.5 3-.3 3.3a40.5 40.5 0 0 0 10.4-.5c0-.3-1.8-1.1-3.8-1.9-2-.7-4.1-1.5-4.7-1.4ZM899 81.6c0 .3.5.9 1 1.2.6.5.6.7-.2 1-.5.1-.7.5-.5.8.8 1 2.5-.3 2.2-1.5-.4-1.2-2.7-2.6-2.5-1.5Zm8.9.7c.2 1 4.8.7 5.3-.4.6-1.3.2-1.4-2.8-.8-1.6.3-2.6.8-2.5 1.2Zm-852 26.4c-.4.3.4.9 1.8 1.5s2.6.9 2.7.6c.1-.4-.7-1-1.9-1.5-1.1-.6-2.3-.8-2.6-.6Zm871.5-25.2c.7.4 5.1-.8 4.6-1.4-.2-.2-1.4-.1-2.6.4-1.2.4-2.1.9-2 1Zm6.2-1c0 .3.7.6 1.3.6.7 0 1.3.2 1.3.6.1.3.4.3.6 0 .3-.4.7-.2 1 .3.4.5 1 .8 1.5.6.6-.3.6-.5 0-.9-1-.7-.8-2.5.5-3 1-.5 1-.6-.3-.6-2.3 0-6.1 1.4-6 2.3Zm-4.4 2.6c1.4.6 2 .3 1-.7-.2-.4-.9-.4-1.4-.2-.8.3-.7.4.4 1Zm-815.9 54.1c-.4.5-1.4.4-3.4-.4-1.3-.6-3.1-.8-5.4-.8-2.2 0-4.8.1-7.6.6a11 11 0 0 1-4.2-.9c-3.3-1.2-4.2-1.1-2.7.2 1.6 1.5-.5 2.3-3.1 1.1-2-.8-2.2-.8-1.5.5.5 1 1.5 1.5 3.6 2.1 1.5.5 3.1.7 3.4.6.4-.2 1.6.4 2.9 1.3 2.3 1.8 4.1 2.2 4 .9-.2-.7 1-.6 2.2.1.2.2 1-.5 2-1.5 2-2.2 2.6-2.4 3-1 .3 1.2.9 1.3 4.7 1.3.5 0 1-.5 1.1-1.3 0-.6.6-1.7 1.2-2.3.6-.6 1-1.1.8-1.2-.2 0-.6.3-1 .7Zm-46.4-19c.1.2.5.5 1 .5s.4-.2-.2-.5c-.5-.3-1-.3-.8 0Zm18.5 8.4c0 1 .8 1.5 1.4.7.2-.3 0-.8-.4-1-.5-.2-1 0-1 .3ZM906 99.2c.2.2.7 0 1-.3.4-.4.2-.5-.4-.3-.6.2-.9.5-.6.6Zm9-3.3c.3 0 1-.2 1.3-.5.3-.4 0-.4-.8-.1-.7.2-1 .5-.6.6Zm-847 28.5c-.2.2-.2.6.2.7 1 .5-2.3.9-5.8.5-1.8-.1-3.3 0-3.4.2 0 .3.9 1 2.2 1.6 1.3.6 2.5.8 2.6.5.2-.3.8-.3 1.3 0 .6.2 1.2.2 1.3-.1.1-.3 1.6-.7 3.4-.7 1.7-.1 3-.4 3-.8-.1-.8-4.1-2.5-4.8-2ZM950.5 83c.3.4 4.1-1.4 4-1.9 0-.1-1 .1-2.3.6-1.2.5-2 1-1.7 1.3Zm-42.3 19.3c.5.2 1.3.2 1.8 0 .7-.3.7-.3-.2-.6-.5-.2-1.3-.3-1.8 0-.7.2-.7.3.2.6Zm61.7-22.5c-.1.3.4.3 1 0 .8-.2 1.1-.6 1-.8-.3-.2-.8-.3-1.2-.1-.4.1-.8.5-.8.9Zm-28.6 15.7-2 1.2 2.8-.9c3-.9 5.3-1.8 6.9-2.5 1.6-.7 2.4-1.2 2.3-1.6 0-.3-2 .2-4.1 1-2.2.8-4.6 2-6 2.8Zm-884 32.7c-.1.3-1 .3-2 0-1.8-.7-1.8-.7-1 .6.7 1 1.3 1.2 2.5 1.2s2 .3 3 1.4c1.9 1.8 4 2.9 4.3 2 .1-.3-.1-.7-.6-.9-.4-.2-.6-.6-.4-1 .2-.4-.7-1.2-2.6-2.2-1.8-1-3-1.5-3.2-1.2ZM38.8 120c.4.3 1 .6 1.4.6.4 0 .2-.2-.6-.6-.7-.3-1-.3-.8 0Zm39.4 19c.3.3 1 .6 1.6.7.5.1.3-.2-.6-.5-.8-.5-1.3-.5-1-.2Zm848.7-36c.6 0 1.4-.3 2-.7.4-.4 0-.4-1.1 0-1 .5-1.5.8-.9.7ZM83.1 142.3c-.3.2 0 .7.9 1 .8.4 1.4.4 1.3 0 0-.5-.5-1-.9-1.2-.4-.1-1 0-1.3.2ZM952.7 96c.4.3 1.5.4 2.5.3 1.1-.1 1.5-.3 1-.6a5 5 0 0 0-2.5-.3c-1.1.1-1.5.4-1 .6ZM74.3 141.6c-1 .2-2.2.7-2.8 1-.6.4-1.4.4-1.8 0-.3-.3-.7-.4-.8 0-.3.7-3.9-.2-4.2-1.1-.2-.5.2-.8 1-.9.8 0 1.6-.5 1.8-1 .4-1 0-1.3-1.2-.8a57.2 57.2 0 0 1-19.3-.1c-2-.6-2-.6-.5-2.3.8-.9 1-1.3.4-1.8-.6-.7-6-.3-6.3.5-.3.8-6 .5-7.6-.3-1.3-.7-1.7-.7-1.7.1 0 .7-.5 1-1.6.9-.8-.1-1.6 0-1.7.3-.3.8 1 2 2.3 2.3.7.1 1.3.8 1.7 1.9.3 1 .8 1.5 1.1 1.3.3-.2.2-.7-.1-1-.9-1-.4-2.3.9-2.6 1.5-.4 3.4.4 6.1 2.7 1.8 1.5 2.8 2 3.2 1.7.3-.2.3-.7 0-1.2-.3-.4-.3-1 0-1 .3-.1 1.2.8 2 2 .9 1.4 2.5 3 3.6 3.8 1.4 1 1.9 1.7 1.6 2.3-.2.6-.2 1.3 0 1.7.1.4.2.4.1-.2 0-.6.3-.7 1-.3.6.3 1 .9.8 1.3-.1.5 0 1.1.3 1.5.3.3 0 .5-1 .5l-1.6-.2 1.4 1.6 2 2.3c.6.9 3.2 1.4 3.5.8 0-.2-.2-.3-.5-.3-.4 0-.6-.3-.4-.7.2-.5-.3-1-1.8-1.5L52 154l1.5-.7c.8-.4 1.3-.8 1-1-.2 0 .3-.5 1-.9 1.5-.6 1.5-.7.7-2.3-.4-1-1.2-1.7-1.6-1.8-.5 0-1.3-.6-1.8-1.3-.9-1.1-.8-1.2.5-1.8.7-.4 1.7-.5 2-.3.5.2.9.1 1-.2.3-.7 5.6-1.6 6-1 .2.4.7.4 1 .2.5-.4 4.9.5 6 1.4 2 1.4 4 4.5 3.9 5.8-.2 1.7 0 2 2.5 2 1.5.1 1.6 0 1-1.2-.4-.7-1.1-1.2-1.5-1.3a1 1 0 0 1-.8-.7c-.1-.4 1.5 0 3.5.7 5.2 1.8 5.9 1 1.1-1.2-2-1-3.6-2-3.4-2.3 1.4-1.4 2.5-1.9 3.4-1.5 1.3.6 3.2.3 2.9-.4-.1-.3-1.5-.8-3.1-1.2-1.6-.4-3-1-3-1.2 0-.3-.7-.4-1.6-.2ZM94 152.4c0 1.3.6 1.6 3.1 1.4h2l-2.6-1.2c-2-.9-2.5-1-2.5-.2Zm-55-24.2c-2 0-2.2 0-1.2.8 1.1.8 4.2.6 3.7-.3-.2-.3-1.4-.5-2.6-.5Zm51 24-2.3-.1 2 .5 2.6.8c.5.2.9.1 1-.2.2-.7-1-1-3.4-1Zm-5.5-1.6c-1 0-.9.2.8 1 1.2.6 2 .7 1.9.2-.2-.9-1-1.2-2.7-1.2Zm19 8.5c-1.2 0-1.1 0 .1.7 1.5.7 2 .6 1.4-.3-.2-.3-.9-.5-1.6-.4Zm-10-3.8c-.3.3 0 1 .7 1.5.6.5 1 1.2.7 1.4-.5.5 1.9 1.7 2.6 1.3.3 0 .2-1-.3-1.9-.8-1.7-2.8-3-3.7-2.3Zm882-60.4c1 .5 2 .6 2.4.5.4-.1.7 0 .8.4.1.3.5.5 1 .3.8-.3 3.4 1.3 4.3 2.7 1 1.3 2.6 1.3 3 0 .4-.8 0-1.2-2-2l-3.5-1.7c-1.2-.5-4.4-1-6.5-1-1 .1-1 .2.5.8Zm-904 54c0 .3 0 .6.4.8.3.1.6 0 .7-.4.2-.3 0-.7-.3-.8a.6.6 0 0 0-.7.3ZM14 121.2c.2.6.6.8 1.5.8 1 0 1-.2-.3-1-1-.5-1-.2-1.2.2ZM68.3 148c-.2.2-.5.6-.4.8.3.7 2.7.9 3 .2.2-.7-1.8-1.6-2.6-1ZM993.4 103c-.5 1.3.4 2.3 1.5 1.6 1.4-1 1.3-3.2-.2-2.6-.6.2-1.2.7-1.3 1ZM26.6 140.6c-.6.2-.5 1.3.2 1.6.3.2.7 0 .8-.5.4-.9-.2-1.4-1-1.1Zm24.5 15.6c-.2.2 0 .6.7 1 .6.2 1.2.3 1.3 0 0-.3-.2-.7-.7-.9-.4-.2-1-.3-1.3 0Zm932.4-40c.2.6.4 1 .6.7 0-.3 0-.9-.4-1.2-.3-.5-.4-.3-.2.4ZM59 164.6c.3.3 1 .7 1.4.7.4 0 .1-.3-.6-.7-.7-.3-1-.3-.8 0Zm918.6-43.2c.2.6 2.5-.1 2.6-.8.1-.3-.5-.4-1.2 0-.8.3-1.4.7-1.4.8Zm-3.8 2.8c0 .4.4.5 1 .3 1.3-.6 1.3-1 0-1-.4 0-.9.3-1 .7ZM46 164.5c.6.8 1 1 1.6.8.7-.2.4-.5-.7-1.1-1.4-.7-1.6-.7-.9.3Zm967.4-54c.2.8 3.2.7 3.6-.1 0-.2-.3-.7-.9-1-1.2-.9-3.1-.1-2.7 1Zm-31.9 15c-.6 1.5-.4 1.8 1.2 1.3 1.6-.6 1.6-1.4.2-2-.7-.2-1 0-1.4.7Zm-13.3 7.8c0 .3.5.4 1 .2.4-.2.7-.4.7-.6l-1-.2c-.5 0-.8.2-.7.6Zm14-4.8c.2.4.7.5 1.1.3.5-.2.7-.6.7-1-.1-.3-.6-.5-1-.2-.5.1-.8.6-.7 1ZM63.5 179c-.2.8.3 1.5 1.2 1.5 1.2.1 1.3-.6 0-1.3-.5-.3-1.1-.4-1.2-.2Zm914-47.7c.6.2 1.3.2 1.6 0 .3 0 0-.3-.5-.4a3 3 0 0 0-1.5 0c-.3 0-.1.3.4.4Zm-7.6 3.6c0 .2.5.3 1 .3s.8-.3.7-.6c0-.3-.5-.5-1-.3-.4.2-.8.5-.7.6ZM67.2 183.7c-.3.3-.3.6 0 .8.3.1.7 0 .8-.3.1-.4 0-.7 0-.8l-.8.3Zm910.5-45.2c0 .3.8.2 1.5-.1.7-.3 1.4-.7 1.3-.9l-1.5.1c-.8.2-1.4.6-1.3.9ZM64.7 191c-.8.8-.9 1-.2 1l2 .1c1.5.2 1.7-.8.4-1.4-.6-.3-1.6-.2-2.2.3Zm955.6-66c-1.2.7-1.9 1.5-1.6 1.7.2.3-.3 1-1.3 1.5-1 .6-1.6 1.4-1.4 1.8.3 1 1.5.9 4.7-.5 1.2-.6 3.2-1 4.3-.8 1.2 0 2.3 0 2.5-.3.8-.7-3.3-2.4-4.3-1.7l-1.4 1c-2.4 1.9-2.7.2-.3-2 1-.9 1.9-1.9 1.8-2.1-.1-.3-.3-.5-.6-.3l-2.4 1.6ZM60.8 190.7c.3.3 1 .6 1.4.7.4 0 .2-.3-.6-.7-.7-.4-1-.4-.8 0Zm-47.3-23.9c-1-.3-2.1-.1-2.3.3-.2.6 0 .8.9.8.6 0 2.4.4 4 .8 3 .7 3 .7 1.2-.3-1-.6-2.7-1.3-3.8-1.6Zm6 3.1c.1.3.6.6 1 .6.5 0 .4-.1-.2-.5-.5-.3-1-.4-.8 0ZM997 140.2c.2.9 1.8 1.4 2.9.9 1.3-.6 1-1.6-.7-1.8-1.5-.2-2.5.2-2.2.9Zm-920.3 65c-.3.1-.4.8-.2 1.4.2.7.5.6.8-.4.6-1.4.3-1.8-.6-1Zm938.6-70.1c-1.3 1.5-2 2.6-1.7 2.5.3-.1.3.2-.1.7-.7 1-2.4 1.6-4.1 1.6-.6 0-1.3.2-1.4.6-.1.2.2.3.6 0 1.5-.6 3 .6 2.5 2-.3 1-.1 1.3 1.3 1.2.9 0 2.6-.3 3.8-.7 1.8-.5 2.3-1 3-2.7.7-1.9.7-2.2-.3-2.8-1-.6-1-.8-.1-2 1-1.6.6-4-.5-3.4a21 21 0 0 0-3 3Zm-966 58.5c-1.1 0-1.3.2-.7.6.4.3 1.3.3 1.8 0 1.3-.6 1-.7-1-.6Zm-15-6.8c-.3.7 1.1 1.5 2.9 1.7 1 .1.9 0-.7-1-1.2-.7-2.2-1-2.3-.7Zm967.8-42.2c.2.5 0 1-.3 1.2-.5.3-.5.4.2.8 1 .4 3.4-2.2 2.8-3.2-.7-.9-3 0-2.7 1.2ZM31.5 185.9c-.6 0-1.2-.2-1.4-.5-.1-.3-.4-.3-.5 0 0 .2-1.3.4-2.7.3-1.4-.2-2.6 0-2.6.4-.1 1.3.8 1.5 3.7.9 1.6-.4 3.2-.6 3.6-.3.4.2.8 0 1-.2.2-.7 0-.7-1.1-.6Zm38.4 23.3c-.8-.2-1.7 0-2 .3-.6.7.2 1.1 2.4 1 2 0 1.8-.8-.4-1.3Zm920.5-56.5c-.1.5 0 .6.4 0 .2-.3 1-.5 1.5-.3 1.1.4 2.2-.8 1.4-1.4-.7-.6-3 .6-3.3 1.7ZM65.1 210.3c-.6.5.5 1 2.2 1.2 1.2 0 1.2 0-.1-.8-.8-.5-1.7-.7-2-.4ZM20 185c.7.6 2 1.4 2.7 1.6.7.3 0-.2-1.4-1-1.5-1-2-1.2-1.3-.6Zm42.3 25c-1 .1-1 .2-.1.7.5.3 1 .3 1.2 0 .2-.8.2-.8-1.1-.7Zm-2.4 2.9c-.2.3 0 .8.3 1h.6c0-.2 0-.6-.3-1-.2-.3-.5-.3-.6 0Zm-8-2.4-2.4-.8 1.6 1.4c.9.8 2 1.5 2.7 1.4 1.6 0 .7-.9-2-2Zm-13.4-6.3a12 12 0 0 1-4.1-1c-2-.7-4.7-1.4-5.9-1.5a14 14 0 0 1-4.4-1.4 36.8 36.8 0 0 0-9.8-3.8c-3.3-.9-6-1.2-6.3-.5-.2.6.3 1 2.8 2.3 1.7.9 3.5 1.5 4 1.5.4 0 2 .2 3.4.6 2 .5 2.6.9 3 1.7.1.5 1 1.4 1.7 1.8 1.2.7 1.2.6.5-.3-.7-.8-.5-1 1.4-.7 1.3 0 3.1.6 4.1 1.2 1 .6 3 1.3 4.3 1.6 1.4.2 3.6 1 5 2 1.5.8 2.7 1.2 2.8 1 .1-.3 1-.4 2-.3 1.5.3 1.5.2.5-.5-.7-.4-1.2-1-1.3-1.5-.2-.9-3-2.7-3.7-2.2ZM391 333.4c-.2 1.2 1 2 1.8 1.4.6-.4.6-.8 0-1.3-1-1-1.7-1-1.8 0ZM0 192.6c-.1.2 0 .6.3.8.3.2.6.1.8-.2 0-.3 0-.6-.4-.9a.5.5 0 0 0-.7.3Zm1022.4-31c.8 0 1.8.4 2.2 1 1 1.4 2.5.6 1.9-1.1-.5-1.6-1.7-1.7-4-.5-1.4.7-1.4.7-.1.7ZM366.9 338.9c0 .4 0 .8.2.8s.5-.3.8-.7c.3-.4.2-.8-.2-.9-.3 0-.7.3-.8.8Zm-342.6-124c-2.9-.9-7.2-1.3-7.4-.7-.3.7 1 1.3 2.7 1.2.8 0 1.7 0 1.9.2.2.3.6.5.8.5 1 .3 1.7.6 2.8 1.2.6.3 1.1.2 1-.2 0-.4.6-.3 1.6.3.9.5 1.7.7 1.9.4.2-.6-2-1.8-5.3-2.9Zm334.3 124.7c.2.5.6.9 1 1 .4 0 .5-.4.4-.9-.2-.4-.7-.8-1-.9-.4 0-.5.3-.4.8Zm90.4 5.3c.2.4 1.2.7 2.4.7 1.9 0 2 0 .9 1-.9.8-2.2 1-4 .7-1.5-.3-3.5-.3-4.5 0-1.5.5-1.4.6 1 1a34.3 34.3 0 0 0 13.4-.8c.8-.6.6-.9-.9-1.5-3-1-8.6-1.8-8.3-1Zm39.4-.4-4.5 1a123.5 123.5 0 0 0-12 2.4l-2.3.7 2 .4c1 .2 3.5 0 5.5-.4 2-.5 3.8-.6 4-.2a2.3 2.3 0 0 0 3.3.7c.8-.6.8-.7-.2-.7-.7 0-1-.3-.8-.8.3-.4 2-.8 3.7-.8 2.7-.1 3 0 2.2.9-1 .8-.4 1 3 1.3 3.3.1 4.4 0 5.2-1.1 1-1.2.9-1.3-.4-1.2-.8 0-1.4-.2-1.2-.6.3-.6-7-2.1-7.5-1.6ZM1024 170.8c.7 1.1.6 1.3-.7 1.4-2 .2-1.8.6 1.2 1.7a10.3 10.3 0 0 0 8.5-.5c1.6-.7 1.6-.9.5-1.3-1.2-.4-1.2-.6-.5-2.2.9-2.1.2-2.4-4.2-1.9-4.7.6-5.7 1.2-4.8 2.8ZM439.8 348.4c0 .7.3 1 1 .7.5-.2.8-.8.6-1.2-.4-1.1-1.5-.8-1.6.5Zm60.8-1.6c-.4 1.2 2.7 1.9 3.3.7.2-.4.7-.5 1.1-.2 1.2.9 3 .9 3.4 0 .4-.9-1-1.3-5-1.4-1.5 0-2.6.3-2.8.9Zm28.6-3c0 .7.4 1.3 1 1.2.7 0 .9-.4.6-.6l-1-1.3c-.3-.5-.6-.2-.6.6Zm4.5.8c1.2.8 6 .1 6-.8 0-.4-1.6-.5-3.4-.3-2.4.3-3.2.6-2.6 1Zm16.2-1c-1.1 4-.9 4.3 2.2 3.6 3.4-.8 5.4-2.5 2.4-2.1-2.2.3-4.5-.8-4-1.9.3-.5.2-.8 0-.8s-.5.6-.6 1.1Zm492-178.4c-.4.7-.3 1 .3.7l6.9-3c4.5-1.9 6-2.8 6-3.2-.3-.7-3.8.7-7.8 3-1.2.7-2.1 1-2.2.6-.4-.8-2.9.6-3.3 1.9ZM26.3 222.7c-1-.2-1.5.2-1.8 1.2-.3 1.2-.1 1.5 1.6 2.5 1.2.7 2.7 1 3.4.8 1.2-.4 1.2-.5.6-1.8-.9-1.6-1.8-2.3-3.8-2.7Zm504 124.8c0 .4.7.7 1.5.6 1.2-.2 1.3-.4.5-.9-1.3-.9-2-.8-2 .3Zm-38.4 6c0 .4.7.8 1.7.7 1 0 1.5-.5 1.3-1-.2-.3-1-.7-1.7-.7-.7.1-1.3.5-1.3 1Zm67.5-6.2c.6.7 2.7 1 5.2 1 4-.2 4.2-.3 3.3-1.5-.6-.9-1.5-1-2.5-.5-.9.4-1.5.4-1.3 0 .2-.5-1-.7-2.7-.5-2.8.3-3 .4-2 1.5ZM52.7 243c-.2.6 1.6 2.8 2.1 2.6.2 0-.1-.8-.7-1.6-.7-.8-1.3-1.3-1.4-1Zm-3.6 0c-.8.5 1 2.2 2 1.8.9-.3.8-.5-.2-1.3-.7-.5-1.5-.7-1.8-.6Zm450.2 113.7c.2.2.8.2 1.3 0 .5-.4.4-.5-.4-.5-.7 0-1 .3-.9.5Zm21.1-1c-.5.6-2 1.3-3.3 1.5-1.3.1-2 .4-1.3.5.6.2 1.1.7 1 1.1 0 .5.9.5 2 .1 1.2-.4 2.1-.3 2.4.2.4.8 4.3.1 8.2-1.5 2.7-1.1 1.2-2.4-3.6-2.7-3.6-.3-4.8-.1-5.4.8Zm-486-121c-.8 0-1.3.4-1.3 1.3-.2 1.2-.1 1.3 1.1 1 1.5-.3 2.4-1.7 1.6-2.1l-1.5-.3Zm12 7.4c-.2.3.1.8.6 1 .4.3.9.3 1 0 .1-.3-.1-.8-.6-1-.5-.4-.9-.3-1 0Zm485.1 113.7c0 .6 2.7.8 3 .2.1-.3-.5-.5-1.4-.5-.8 0-1.6.1-1.6.3Zm-478-104.6c-1 .3-1 1.3 0 1 .6 0 1.1.1 1.3.5 0 .3.3.3.4-.1.3-.8-.8-1.7-1.7-1.4Zm246.6 100.5c-2.5 0-2.4 1 .3 2.2 3.5 1.4 3.7 1.4 4.4-.2.6-1.6-.1-2-4.7-2Zm279.4 2.3c1.5 1.8 2.4 1.9 2.4.2 0-.7-.3-1.2-.6-1.1l-1.9-.3c-1.1-.3-1-.2.1 1.2Zm25.5-4.6c0 .4.4.7.7.6.4 0 .7-.4.7-.9 0-.4-.4-.7-.7-.7-.4.1-.7.5-.7 1Zm407.8-156.6c-.6.8-.3 1 1.5 1.6 2.5.6 3 .5 3.2-.6 0-.4-.6-.7-1.5-.7-1 0-1.9-.3-2.1-.6-.3-.5-.7-.4-1.1.3ZM55.4 254c-.3.7.3 1 1.6 1 .9-.1.8-.2-.2-.8-.6-.5-1.3-.5-1.4-.2Zm984.2-74.2c.2.4 1 1 1.7 1.2 1.2.5 1.3.4 1.2-.6-.2-1-1.8-2.1-2.7-1.7-.2.2-.3.6-.2 1ZM574 357.2c0 .7.4 1 .7.7.4-.4.7-1 .7-1.4 0-.4-.3-.7-.7-.7-.3 0-.6.7-.7 1.4Zm8.7-2c0 .4.5 1 1.1 1.6.8.6 1 .6.7 0-.4-.6-.1-1 .6-1.2.7 0 1.7-.6 2.2-1.2.7-.7.3-.8-1.8-.4-1.6.2-2.8.8-2.8 1.2ZM565 359c-.5 1.2 1 .9 2.3-.4.8-.7.8-.9-.5-.7-.7.1-1.6.6-1.8 1.1Zm58.6-10.6c0 .6.6 1 1.3.8.7-.1 1.4.2 1.6.7.2.6 2 .7 4.6.2 2.3-.4 4.5-.5 4.9-.3.4.2.2-.2-.3-.9-.8-.9-.8-1.1 0-1.4.4-.1.2-.4-.5-.6-.8-.2-2.4 0-3.6.6-1.2.5-2.4.6-2.6.2-.3-.4-1.6-.6-3-.6-1.9 0-2.4.4-2.4 1.3Zm-332.7 6c-.3.6-.3 1.1 0 1.2.4 0 .8-.4.9-1v-1.2c-.2 0-.6.4-.9 1Zm722-157.2c1 .5 2-.2 1.6-1.2 0-.3-.7-.3-1.4 0-1 .6-1 .8-.2 1.2ZM312.1 360.7c-.1.4.1.8.5 1 .3 0 .7-.3.8-.8 0-.4-.2-.8-.6-.8-.3-.1-.7.2-.7.6Zm301-6.8-1.6 1.5 2.4-.7c1.2-.4 2.2-1 2-1.5-.2-1.2-1-1-2.7.7Zm-26.6 6.1c.4.1 1.3 0 2-.3.6-.3.2-.5-.9-.3-1 .2-1.6.5-1.1.6Zm-551-110c-1.4 1-1.3 1 1 1.2.9.1 1.5-.1 1.4-.4-.4-1.1-1.4-1.4-2.5-.7Zm369.3 125.8c-.2.9.7.8 2 0 .8-.6.7-.7-.5-.7-.8 0-1.5.4-1.5.7Zm627.7-185.1c-.3 1.3 3.4 2.6 7.1 2.5 2.8-.1 3.5 0 3.3 1-.4.8 1 .9 3 .3 2-.6 4.8-1.8 7-3.2 4.1-2.7 4.3-4.2 3.6-4.2-1.5 0-4.6 1.7-5.6 3.2-.8 1.2-1.2 1.2-3.5.2-1.4-.6-2.9-.9-3.3-.7-.3.2-1.1 0-1.6-.4-.6-.4-2.2-.5-3.7-.1-1.4.3-3.4.6-4.4.6-1.2 0-1.9.3-2 .8Zm-972 75.6c-2.4.2-2.1 1.1.5 2.5 2 1 2.5 1 3 .1s.3-1.3-.7-2c-.7-.4-2-.7-2.8-.6Zm-22.2-13.6c0 .3.2.8.6 1 .5.4 1 .4 1.1 0 .1-.3-.2-.8-.6-1-.5-.4-1-.3-1 0ZM298 364c-.3.2-1.4.2-2.5 0-1-.3-1.8-.2-1.6.3 0 .4 1.3 1 2.7 1.3 1.8.4 2.6.2 2.8-.6.2-1.2-.5-1.7-1.4-1Zm321.2-1.6c1 .5 3.7.8 6.5.8 2.8.1 5.7 0 7.4-.4 1-.2 3.1.2 4.8.8 1.2.5 2.4.7 4 .7 1.5 0 3.4-.1 6-.6 3.9-.6 7.6-1 8.3-.7 1.3.5 5.1-1.2 5-2.1 0-.3-.8-.4-1.8-.2a37.8 37.8 0 0 1-11.3.1c-.4-.2-3.7-.1-7.4.2-3.7.4-7 .4-7.4.2-.4-.3-2.1-.5-4.4-.5-2.2 0-5 .1-7.7.4l-4 .4 2 .9ZM286.8 369c-.3.4-1.5.2-2.7-.3-1.7-.8-2.2-.7-2.4.2-.1.8-.9 1.1-2.3 1-2.5-.4-4 2-1.8 2.6 1 .2 1.2.6.8 1.4-1 1.5 1 2.6 2.7 1.5.7-.5 2.7-.7 4.4-.5 1.6.2 3.4.2 3.8 0 1.6-.7 1.1-1.8-.8-2.2-2.4-.6-3-2.2-1.1-3.2.8-.4 1-.9.7-1-.5 0-1 .2-1.3.5ZM1028 205.7c.4 1.3.7 1.3 2.6.3 2-1.2 2-1.2.7-1.5-3.3-.6-3.8-.4-3.3 1.2Zm-4.4 6.9c.1.3.5.4.8.2.3-.2.5-.6.3-.8 0-.4-.4-.5-.7-.3-.3.2-.5.6-.4.9ZM698.6 356.3c0 .2.7.5 1.4.7.8.3 1.4.2 1.4-.2s-.7-.8-1.4-.8c-.8 0-1.4.1-1.4.3ZM1038 205.4l.4 1.2c.4.5-1.7 2.1-5.5 4.5-2.3 1.3-3.4 2.2-3.2 2.7.3.8 4-.3 4.7-1.4.3-.4.5-.5.7-.2 0 .2 1 .4 2.3.3 1 0 3-1 4.8-2a11 11 0 0 0 3.8-3c.4-1-1-2.7-2.8-3.5-1.7-.8-5.5.2-5.2 1.4ZM29.7 264.7c-.1.3 0 .8.3 1 .3.2.6.3.7.1l-.3-1c-.3-.4-.6-.4-.7 0Zm36 24c.6 1.7 1.5 2.1 2 .9.1-.4-.4-1.2-1.2-1.7-1.3-1-1.4-1-.8.7Zm210.6 89.8c-.4.3-.3.9 0 1.2.3.4.7.2.8-.5.3-1.4-.1-1.6-.8-.7ZM1021 215c.3.8 2.6 1.8 2.4 1-.2-.3-.8-.8-1.4-1-.7-.3-1.1-.2-1 0Zm3-.9c.2.4.6.5.9.4.3-.2.5-.5.4-.6 0-.1-.4-.3-.7-.3-.4 0-.6.2-.5.5Zm-26.6 15.1c.3.1.8-.1 1.1-.5.4-.5.2-.5-.4-.2-.7.3-1 .6-.7.7ZM284.4 383c-1.4.5-2 1.8-1 2.1.4.1 1.1-.4 1.7-1.2 1-1.6 1-1.6-.7-.9Zm-4 2.2c.2.5 0 .8-.4.7-.4 0-.8.3-1 1 0 .6.4 1.2 1.2 1.4 1 .3 1.4 0 1.2-1v-2c0-.3-.2-.7-.6-.8-.3-.1-.5.2-.4.7ZM1018 222.6c.5.2 1.3.2 1.7 0 .5 0 1.5-.3 2.4-.6 1-.2.5-.4-1.2-.4-2.9.1-4.3.6-2.8 1Zm11-6.2c.1.3.6.4 1 0 .5-.2.9-.5.8-.6 0-.1-.5-.2-1 0-.5 0-.9.3-.8.6Zm-2.7 2.2c.1.3.6.1 1-.3s.7-1 .6-1c0-.2-.4 0-.9.2-.5.3-.8.8-.7 1Zm-35.5 20.2c.1.3 1.3 1 2.7 1.5 2.3.9 2.4 1 1.6 2.3-.4.8-1.4 1.6-2.2 1.8-1 .3-1.3.7-1.3 1.9 0 .8-.2 1.5-.6 1.4-.4 0-.7.3-.5.7.1.3-.3.8-.8.8-1.2.2-1.5 1.6-.3 1.6.5 0 1.5.5 2 1 .8.6 1.4.6 2.1 0 1.2-1 5.2-1.3 5.5-.4 0 .3.7.2 1.4-.1 1-.6 1-.8.2-1.2-.8-.4-.9-.6-.2-1 .4-.2-.6-.3-2.2-.2-4.5.4-5 .4-5.6-.6-.7-1.2.9-2 2.5-1.2 1.7.7 4.4 0 5-1.3.7-1.2 2.5-1.2 2.3 0-.2.7.3.6 1.3-.1 2.2-1.6 1.9-2.4-1.1-2.9-1.7-.3-2.3-.7-1.7-1 .5-.3 1.1-1.2 1.3-2.1.2-.9 1-2 1.7-2.4 1.2-.7 1.2-.7 0-1.2-.9-.3-2.3.1-4.2 1.2-2.4 1.3-3.3 1.5-5.1.8-2.2-.7-4.1-.4-3.8.7ZM58.7 292c-.5.2-.7.5-.5.7.3.2 1 .2 1.6-.1 1.3-.6.3-1.2-1-.6ZM701 366c0 .7 1 1.4 2 1.7 2.6.8 4.8 2.8 4.4 4-.2.5 0 .9.2.8 3.2-.6 4-1 3.7-1.6-1-1.5-3.6-3.3-4.3-3-.5 0-1.4-.4-2.2-1-2.1-2-4-2.4-3.8-1ZM87.6 311.3c-.2.7-.1 1.4.2 1.6.3.2.7 0 .8-.5.2-.5.2-1.3-.1-1.7-.3-.4-.7-.1-.9.6Zm-59.2-35.7c-1.1.4-.8.7 1.3 1.5.7.2 1.3.1 1.2-.3-.2-1-1.4-1.7-2.5-1.2Zm982.8-42c2.7.7 2.8.8 1.5 1.6-1.2.7-1 .8 1.2.6 1.7-.1 3.3-.7 4.9-1.8 2.4-1.8 8.7-3 8.5-1.6-.2 1 2 .7 3.6-.3 1.1-.8 1.1-.8 0-1a4 4 0 0 0-2 .3c-.5.3-.8.2-.7-.1 0-.4-3.9-.4-8.2-.2a126 126 0 0 0-10 1l-1.8.7 3 .8Zm-940.9 70c-.5.2-1.3.3-1.8 0-.4-.3-.9-.2-1 .1-.1.4.2.8.6.8l2 .3c1 .2 2.5-1 1.7-1.4-.2-.2-1 0-1.5.2Zm19.3 11c-.7 0-1.7-.5-2-1-.5-.4-.7-.3-.6.3.3 1.4 3.5 3.1 4 2v-1l-1.4-.2Zm129.7 62.5c0 .7.3 1.2.6 1.3.3 0 1 .5 1.4 1 .6.5 1 .4 1.2-.3.1-.7-.5-1.5-1.6-2-1.2-.8-1.7-.8-1.6 0ZM80 312.1c-.9 0-1 0-.5.4.5.3 1.4.5 2 .5 1.2-.1.3-.7-1.5-.9Zm958.4-92c3-.5 4.4-1.3 2.2-1.3-1 0-2.3.5-3 .9-1.3.7-1.3.8.8.4ZM131.2 342.2c-.8.3-1.4.6-1.2 1 .4 1 2.4.8 2.7-.2.4-1.1.2-1.2-1.5-.8Zm912.2-124c-.5.5-.5.7.3 1 1.2.5 2 0 1.6-1-.3-1-1-1-1.9 0Zm-774 179c-1 .8-.2 1.8 1.2 1.8.8 0 1.3-.4 1.2-.9-.3-.9-1.7-1.3-2.4-.8ZM65 308c-1 1-.6 1.6 1.7 2 2.2.3 2.3-.2.3-1.8-.8-.6-1.6-.7-2-.2Zm178.5 83c.2.6.8 1.1 1.6 1.4.7.2 1.2 0 1-.5-.1-.5-.8-1-1.5-1.3-.7-.2-1.2 0-1 .5Zm-59.4-19c-.2 1 0 1.6 1 2 1.4.5 1.4.4.6-.7-.5-.6-.7-1.4-.4-1.7.2-.3.2-.6-.2-.8-.3-.1-.8.4-1 1.1Zm37.7 14c0 .7.1 1.4 0 1.6 0 .7 2.5 1.1 3 .5.8-.8.7-1-1.4-2.3-1.5-1-1.7-1-1.6.1Zm798-150c0 .3.4.5.8.6.4 0 .4-.3 0-.7-.7-.8-1.1-.8-.9 0ZM264.6 399.4c-3-.2-3.5.2-1.7 1.4 1 .7 2.1 1 2.6.6 1-.8.6-2-1-2ZM1005 245.8c-.1.4.3.5 1 .1.6-.4 1-1 1-1.3-.1-.3-.6-.3-1 0-.5.2-1 .8-1 1.2ZM212.4 384.4c-.7.2-.6.5.5 1.3.9.6 1.5 1.4 1.5 1.8-.2.4.2 1 .7 1 1.6.6 1.6-1.4 0-3-1.7-1.7-1.5-1.6-2.7-1.1ZM1037.2 228c-.7.7-1 1.4-.7 1.5.8.2 4.6-1.9 4.4-2.4 0-.3.2-.8.7-1 .5-.3.7-.7.4-1-.7-.4-3.2 1.1-4.8 3ZM77.9 319.7c-.1.3 0 .8.3 1 .4.2.7.2.7 0 0 0 0-.5-.3-1-.3-.3-.6-.4-.7 0Zm6.2 3.5c-.7.3-1 1.2-.4 1.6.3.1.8 0 1.2-.5.7-.7.1-1.4-.8-1Zm161 75.8c-.8 1.4-1.3 2.6-1.2 2.7l1.5 1.7c1.5 1.5 2.4 1.5 2 0-.2-.6-.7-.9-1-.8-.4.2-.7 0-.6-.5.1-.4.6-.7 1.1-.5 1.3.4 2.5-3 1.4-4-1.5-1.2-2-1-3.3 1.4Zm759.6-151.2c-1 1.3-.3 1.8 2.6 1.6h4c2.6.6 6-1.9 4-2.8-.4-.2-.8-.6-.9-1 0-.7-2-.6-4.3-.2-2.2.5-4.5 1.4-5.4 2.4ZM264.5 404.5c-1.2 2.6-1.2 3.5.1 3.8 1.8.5 2.3-.3 1.8-3-.5-2.7-1-3-2-.8ZM56.7 309c-.3.7 0 1 1 1 .8 0 1.4 0 1.5-.2 0-.2-.4-.6-1-1-.7-.4-1.3-.3-1.5.2Zm97.8 57c-.6.2-1.2.7-1.2 1.2 0 1.4 2.6 1.5 3 0 .4-1.4 0-1.8-1.8-1.2Zm-57.7-29c-.3.2-.3.6 0 .8.4.2.8 0 .9-.3.1-.4 0-.7 0-.8-.2 0-.6 0-.9.3Zm58 33.2c-.1.5 0 1.1.4 1.3.3.1.7-.2.9-.8.1-.5 0-1.1-.4-1.3-.3-.2-.7.2-.9.8Zm112.4 41.2c-.3.4-.2.8.2.9.4.1.7-.2.8-.6l-.1-.8c-.2 0-.6.2-.9.5ZM94 338.6c-.2.7-.2 1.1 0 1 .3 0 .5-.6.5-1.1 0-.7-.2-.6-.5.1Zm915.2-85.5c.1.3.6.5 1.2.4 1.5-.3 1.6-.4.9-1.2-.7-.7-2.4 0-2.1.8Zm-906 91.9c-.8.6-1 1.1-.5 1.4.3.2 1.2 1.4 1.9 2.7.7 1.3 1.6 2.3 1.8 2.2.3 0-.1-1.2-1-2.4-.7-1.2-1.3-2.8-1.2-3.6.2-1.3.2-1.3-1-.3Zm56 29.4c-2 .6-1.9 1.3.2 2 1 .3 1.9 0 2.3-.6.6-1.3-.6-2-2.5-1.4Zm32.6 14.3c.6 1 1.5 1.6 1.9 1.5 1.2-.3.5-1.7-1.4-2.5l-1.7-.7 1.2 1.7Zm12 4.4c-.3.3-.3.6 0 .8.4 0 1 0 1.3-.4.3-.3.3-.7-.1-.8-.3-.1-.9 0-1.2.4Zm671-66.1c-.3 1.2 2.9 1 6.2-.7 3.4-1.6 2.8-2.5-1-1.4l-3.8 1c-.6 0-1.2.5-1.4 1Zm133.3-71c0 .3.9.1 1.7-.4 1.3-.7 1.4-1 .6-1-1.4 0-2.6.6-2.3 1.4ZM83.3 334.6c0 .2.1.6.4 1 .2.4.6.5.7 0a1 1 0 0 0-.4-1c-.3-.1-.6-.2-.7 0Zm10.4 6.7c-.3 1 .5 5.5 1 5.9.3.1.5-1 .4-2.6v-3.1l-.6-.6c-.3-.2-.7 0-.8.4ZM903 313.5l.8.4c.4 0 .6-.2.5-.6 0-.4-.4-.6-.8-.4-.3.2-.6.4-.5.6ZM137.5 367c-.1.6 0 1.2.4 1.3.3.2.7-.1.9-.7.1-.5 0-1.1-.4-1.3-.3-.1-.7.2-.9.7Zm127.7 49.2c-1.4 0-1.5 3-.2 3.4.5.1.9.8.7 1.3-.3 1.7 1.2 6.4 2.1 6.7.5.1.8.6.7 1 0 .4.3.9.9 1 .6 0 1.1-.4 1.3-1.6.2-1 .7-2 1.1-2.1 1.1-.5 1.2-1.8.1-2-.4-.2-1-1.8-1.3-3.6-.4-2.9-.8-3.4-2.4-3.8-1-.2-2.4-.4-3-.3Zm623-92.8c.1.9 2 .6 3-.5.9-.8.8-1-.3-.9-1.9.1-3 .7-2.8 1.4Zm155-86 .9.2c.4 0 .6-.3.4-.6 0-.3-.4-.4-.7-.3-.3.2-.6.5-.5.6ZM916.9 310c.2.4.1 1.6-.3 2.6-1 2.5-.4 3.3 1.6 2 3-2 5.6-.4 3.7 2.3-.7 1.1-1 1.3-1.6.6-.3-.4-.7-.5-1-.2-.2.3-1 0-1.8-.6s-1.7-1-2.1-.7c-.6.2-.5.4.2.8.5.2 1 .9 1.2 1.5.3 1 1.5 1.3 3.4.8l2.4-.5c1.5-.4 1.8-.7 1.6-1.6-.3-.8 0-1.1 1.2-1.3a4 4 0 0 1 2.3.3c.5.3 3.3.3 6.3-.1s5.7-.5 6-.2c.3.3 1.6 0 2.8-.8 1.3-.8 2.2-1 2.3-.5.2.5.4.4.8-.5.4-1-.2-1.4-2.8-2.2-3.3-1.1-4.3-2-2.5-2.2 1.6-.2 1-1.2-.9-1.6-1 0-1.3-.4-1-.6.5-.2.7-.8.6-1.4-.3-1-1.5-.6-4.6 1.4-.9.5-1.9.7-2.2.4-.4-.2-1 0-1.6.5-.7.6-1.5.7-2.3.1-.8-.6-2.2-.4-4.6.5a11 11 0 0 1-4.5 1c-2.2-.7-3.2-.6-2.6.2Zm-808.3 44c-.2 1.1.3 2.7 1.7 4.2 1.2 1.4 1.4 1.4 2.1 0 .7-1 .5-1.5-.6-2.1-.7-.4-1.7-1.2-2.2-1.7-.4-.5-.9-.7-1-.3ZM908 316.7c.2.7 1.9 1.4 2.5 1 .3 0 .4-.8.2-1.5-.2-.9-.8-1.1-1.6-.7-.6.3-1.1.9-1 1.2Zm-715 80.9c-.3.3 0 .8.7 1 .7.3 1.4.3 1.5-.2.1-.3-.2-.8-.7-1-.5-.2-1.2-.2-1.5.2Zm-108.7-55c0 .2.3.8.7 1.3.4.5.7.5.6 0-.1-.7-1.1-1.7-1.3-1.2Zm694 34.8c.1.4.6.6 1.2.3.6-.2.8-.6.5-1-.3-.3-.8-.4-1.1-.3-.4.1-.6.6-.5 1Zm-662.4-14.8c-.2.6 0 1.3.6 1.5.5.3 1 0 1.2-.5.2-.5-.1-1.2-.6-1.4-.5-.3-1 0-1.2.4Zm761.8-27.1c-.9.6-.4 1 1.9 2 3 1.2 5.4.9 4.4-.6-.4-.5-1.2-.8-1.9-.7-.6.1-1.5-.4-1.8-1-.7-1.2-.9-1.2-2.6.3Zm-745.4 37c-.3.3-.1.8.3 1.3.5.5 1 .5 1-.1.4-1.1-.5-1.8-1.3-1.2Zm759.8-42c.8.5 1.5.5 1.7.2.1-.4-.5-.7-1.4-.7-1.6-.1-1.6 0-.3.6Zm19-9.7c.2.6 2.1 0 2.3-.8.1-.4-.4-.5-1-.1-.7.3-1.3.7-1.2.9Zm-777.6 56c.3.7.8 1.5 1.1 1.7.4.1.4-.4.2-1.1-.3-.8-.8-1.6-1.1-1.8-.4-.2-.4.3-.2 1.1Zm764-45.5c.6.3 1.1.2 1.3 0 .1-.4-.3-.6-1-.5-1 0-1 .2-.2.5Zm45.6-24c.2.9 1.7.3 5-2 2.9-1.9 3-2 1.3-1.6-2.9.9-6.5 2.8-6.3 3.5ZM86.2 351.3l.4 1c.3.5.6.5.7.1.1-.3 0-.8-.4-1-.3-.2-.6-.2-.7 0Zm820.4-23.6c.1.6 3 1 3.4.5 0-.2-.7-.6-1.7-.7-1-.2-1.8-.1-1.7.2Zm120-67c0 .4.4.4 1.1 0 1.4-.9 1.4-1.3 0-1-.5.1-1 .5-1 1ZM88.8 356c-.5.6-.4 1 .4 1.2.6.3 1.1.2 1.2-.2 0-1.3-.9-1.8-1.6-1Zm48.1 27.7-2.2.6 1 2.2a7.3 7.3 0 0 0 2.7 3.1c2.2 1.1 2.8 4.8.9 5.6-1.3.6-1.4 2 0 2.6.5.3.8 0 .9-1 0-1.9 1-1.6 1.8.5.4 1.3 2.7 3 2.9 2.2 0-.3-.2-1.6-.6-3-.5-1.5-.6-2.9-.4-3.1.8-.7-.5-3.6-2.1-5-1-1-1.5-2-1.3-2.8.6-1.9-1-2.7-3.6-2Zm24.7 12.8-.4 6.7c-.2 2.3 0 4.2.4 4.1.5 0 .9-.7 1-1.5 0-.8.6-3.2 1-5.4 1-3.8.7-5.1-1-6-.7-.3-1 .3-1 2.1Zm724.4-55.8c0 .4.9.7 1.7.7 1 .1 2.8.5 4.1 1l4.7 1.3c1.3.3 2.5 1.1 2.6 1.8.2.8 1.1 1.1 2.5 1 1.2-.2 3.2.2 5 .9 1.8.6 3.3 1.4 3.5 2 0 .5.5.7 1 .5.4-.3 1.6-.3 2.6-.1h2.8c.5-.3 1.4-.1 2 .2.7.5 1 .5 1-.3s.7-1 2.4-.6c2.4.4 5-.5 4.7-1.6 0-.3-1.2-.8-2.6-1.2a167.6 167.6 0 0 0-13.9-2.8c-.8 0-1.6-.1-1.7-.5 0-.3-1.4-.4-2.8-.1-1.5.2-3.9 0-5.3-.7-1.5-.7-2.8-1.1-3-1-.4.1-2.8-.2-5.7-.6-5.3-1-5.9-1-5.6.1Zm17.4-7c.5 1 1.7 1.2 3.1.4 1.2-.6 1.1-.7-.5-1.2-2.1-.7-3.1-.3-2.6.8ZM880 345.6c.2 1 3 3.4 3.6 3.1 1-.5.3-2-1.5-3-1.6-.8-2.3-.8-2-.1Zm-803.7 6c-.1.3.1 1.2.5 2 .3.6.5 1.6.3 2-.2.5.2 1.6.7 2.4 1 1.3 1 1.3 1-.3.2-2.8-1.9-7.8-2.5-6Zm915.8-65c0 .2.6.2 1.1.1.6 0 .9-.3.5-.5-.5-.4-1.7 0-1.6.5Zm-82.2 47c-.6 1.2.3 2.8 1.8 3.3 1.4.4 1.5.4 1.8-1 .2-1.3-.1-1.8-1.5-2.3-1-.4-2-.4-2.1 0Zm6.4-3.3c.2.5 2 .9 5.6 1 1.1.1 2.5.7 3 1.5.4.7.7 1 .6.5-.2-1.2 3.3-1.7 5.2-.8 1.5.7 4.4-.4 4.1-1.6 0-.3-1.4-.6-3-.5-1.4.1-4-.3-5.6-1-2.1-1-3-1-3.4-.1-.7 1.2-4.1 1.8-4.4.8 0-.3-.6-.4-1.2-.4-.5 0-1 .4-.9.6Zm-762.8 68.4v.9c.2 0 .6-.1 1-.4.2-.3.2-.6-.2-.8-.3-.2-.7 0-.8.3Zm870.9-126.4c0 .4.3.6 1 .5 1.2-.3 1.6-1 .7-1.4-.6-.5-1.5 0-1.7 1Zm-36 22.6c.3.8 2.9 1.3 3.7.7.4-.2.6-.7.3-1-.3-.3-1-.2-1.5.2-.5.5-.9.5-.8 0 .1-.4-.3-.6-.8-.5-.6 0-1 .4-.9.6ZM964.2 310c0 .4-.5.8-1.3 1-1.4.4-1.3.5.7 1.1 1.2.3 2.4.3 2.6 0 .3-.4 1.2-.8 2-.8h1.6l-1.7-.6c-1-.3-1.7-1-1.6-1.7 0-.8-.4-.9-1.3-.4-.7.4-1.1 1-1 1.4ZM79.3 363.6c-.2 2.2 1 4.3 2.2 4.1.7-.1.6-.8-.3-2.7-1.5-3.2-1.7-3.4-1.9-1.4ZM959.5 315c0 .8-.2 1.5-.5 1.7-.3.2-.5.6-.4 1 .2.5.5.3 1-.6.3-.8 1.3-1.4 2.4-1.8l1.8-.5-2-.8c-2.3-1-2.4-.8-2.3 1Zm-63.8 34.5c.2.7 2.1 1.5 4.5 2.2 2.3.7 5.1 1.2 7 1 1.4 0 3.8.7 5.4 1.5 1.6 1 3.8 1.4 5 1.1 1.3-.2 2.2-.6 2.2-.8-.2-.8-6.5-2.8-7.4-2.3-.5.3-1 0-1.2-.5-.1-.5-1.3-.9-2.6-.9s-3.1-.2-4-.5c-1-.4-2-.5-2.2-.4-.8.5-4.1-1.3-3.9-2 .2-.2-.4-.1-1.3.3-.9.5-1.5 1-1.5 1.3Zm42.1-13.4a21 21 0 0 0 5.4 1.4c.3-.2-1.6-1-4.3-2a19 19 0 0 0-5.4-1.5c-.4.2 1.6 1.1 4.3 2ZM75 372.9c-1 1-1 1 .3.6.7-.2 1.3-.7 1.1-1 0-.3-.7-.1-1.4.4Zm880.5-44.3c0 .1.7.8 1.5 1.3 1.2.8 1.3 1 .5 1.4-.4.3-1.5.4-2.3.3-.7-.1-1.7 0-2 .1-.8.5 2.5 1.2 5.2 1 1.9 0 2 0 1.4-.8-.4-.4-.6-1.9-.4-3.1.5-2.6.3-4.1-.2-2.1-.2 1-.6 1.2-2 1.4-1 0-1.8.3-1.7.5Zm6.3-.1c.5 1.3 6.8 2 7.3.8.4-1-2.3-1.2-3.7-.4-.5.4-1.3.1-1.8-.4-.6-.9-2-1-1.8 0Zm4.8 4.6a3 3 0 0 0 1.5-1c.4-.4 0-.3-.8.2-.9.5-1.2.8-.7.8Zm72.4-45.6c.8.5 6-.2 8.1-1 1.7-.7 1.7-.8.7-1.3-.7-.4-2.3-.5-3.8-.3-2.6.3-6 2.1-5 2.6ZM997 321c.3.2 1.2 0 1.9-.5 1-.6 1-.8.2-.8-1.4 0-2.8.9-2 1.3Zm-51.3 34.7c.3.3 1.2.7 2 .6 1.2 0 1.3-.2.9-1-.3-.5-1.2-.8-2-.7-1.2.2-1.4.5-1 1Zm1.6 12.5c.1.5 4.9.8 5.6.4 1-.6-.4-1.4-2.5-1.4-2.7 0-3.4.1-3.1 1Zm29.3-14.4c.1.3 1.4.5 2.9.4 1.5-.2 3.4 0 4.2.2.8.3 3.2.1 5.2-.4a84.1 84.1 0 0 1 10.5-1.2 41 41 0 0 0 7.4-.8c1.1-.8.3-1.6-1.4-1.3a79.2 79.2 0 0 1-12.6 0c.3-.1-.1-.4-1-.4-1.3-.1-1.3-.1-.1-1 1.4-1-3.7.3-5.4 1.4-.6.3-1 .3-.9-.2.2-.7-1.6 0-3 1.2-.3.2-1.5.5-2.9.8-2.8.5-3.1.7-2.9 1.3Zm20 11.9c1 .4 4 .3 6.6 0 2.7-.2 5-.7 4.8-1.2-.1-.4-2.8-.4-7.8 0l-4 .3h-1.8l2.1.9Zm-5.3 3.1c-.1.5.2.6.7.2 1-.7 1.1-1.2.1-1-.4 0-.7.3-.8.8Zm-24.2 29.2c.2.7 6.2.4 7.5-.2 1.1-.7-.8-1.6-3-1.5-3.6.3-4.8.7-4.5 1.7Z"/></svg>