<svg width="86" height="73" viewBox="0 0 86 73" fill="none" xmlns="http://www.w3.org/2000/svg">
<path d="M46.5585 22.5161C56.0345 22.8494 62.2012 31.7547 60.2758 40.4494C59.1745 45.4214 56.2372 48.0721 52.1425 50.0107C50.2132 50.9254 49.3278 52.0201 50.1318 54.1161C50.1652 54.2054 50.1692 54.3094 50.1732 54.4081C50.2358 56.0241 50.9092 58.4427 48.7865 58.5947C46.5718 58.752 46.8078 56.2587 47.0345 54.7081C47.3238 52.7321 46.6038 52.2907 44.7812 51.9081C35.5545 49.9707 29.4745 40.5254 32.4385 31.732C34.0238 27.0294 38.4998 24.408 43.3398 23.0214C44.5572 22.6734 45.8585 22.6201 46.5585 22.5161Z" fill="#10171F"/>
<path d="M34.5102 66.644C31.1756 65.04 28.7849 62.9027 26.2729 60.948C25.4196 60.2854 24.5676 59.6187 23.7516 58.9094C22.4956 57.8134 21.7556 57.4054 20.9023 59.536C19.6263 62.7174 13.1329 63.6947 10.8836 61.14C9.14228 59.164 10.4103 57.1667 11.6809 55.5747C12.7636 54.2187 14.3116 53.2414 15.6303 52.068C16.2769 51.492 16.8969 51.6014 17.4863 52.068C23.0943 56.5174 28.6956 60.976 34.2863 65.448C34.3969 65.536 34.3622 65.8054 34.5102 66.644Z" fill="#10171F"/>
<path d="M79.5488 33.8025C77.2435 33.5825 74.9369 33.3558 72.6302 33.1412C71.2942 33.0172 69.9249 32.8012 70.0035 31.0638C70.0955 29.0012 69.1302 25.9878 71.5222 25.2878C74.1262 24.5265 76.1729 21.9505 79.3182 22.7918C80.0235 22.9811 81.2129 22.0158 81.3529 23.4332C81.4822 24.7732 80.3702 26.0545 79.2395 25.6038C77.2395 24.8052 77.4316 26.0211 77.6609 26.9931C78.1822 29.2011 76.7942 32.0372 79.5488 33.8025Z" fill="#10171F"/>
<path d="M10.5089 36.036C11.5503 36.8614 13.1223 37.508 12.2463 39.2427C11.4383 40.84 9.88894 40.2774 8.57161 40.0841C7.07561 39.8641 5.81826 39.0947 4.72359 38.08C4.15026 37.5494 3.49561 36.9374 3.94761 36.068C4.33695 35.3214 5.09161 35.004 5.94094 35.124C7.39161 35.3294 8.83561 35.5814 10.2809 35.8134C10.3583 35.888 10.4329 35.9627 10.5089 36.036Z" fill="#10171F"/>
<path d="M68.3531 38.884C67.7424 38.0054 67.0944 37.1587 66.8397 36.072C66.5597 34.8814 66.8677 33.9187 67.8784 33.272C69.0184 32.544 69.5811 33.4387 70.2784 34.1694C73.4944 37.536 72.989 39.1254 67.677 42.0054C67.157 40.7867 67.3357 39.748 68.3584 38.88L68.3531 38.884Z" fill="#10171F"/>
<path d="M30.3652 51.152C28.6172 50.7 28.2932 49.46 28.7678 47.964C29.2078 46.5813 30.0945 45.4933 31.7038 45.512C32.8998 45.5253 33.7611 46.2253 34.0518 47.3973C34.4438 48.9826 33.5891 50.032 32.3158 50.7853C31.8171 51.0813 31.2345 51.232 30.6892 51.448C30.5785 51.3533 30.4718 51.2533 30.3652 51.152Z" fill="#10171F"/>
<path d="M35.5356 72.6226C35.2196 72.6733 34.6396 72.864 34.0689 72.8373C32.9276 72.7826 32.3182 72.0346 32.1089 70.9733C31.9182 70.0093 32.2475 69.2013 33.1315 68.7386C34.1062 68.228 34.8222 68.7613 35.4195 69.4853C35.9382 70.112 36.1396 71.1973 37.4022 70.4986C38.3102 69.996 39.5755 69.7693 39.7848 71.0826C40.0035 72.46 38.6675 72.7333 37.5488 72.8053C36.9715 72.8426 36.3822 72.7066 35.5356 72.6226Z" fill="#10171F"/>
<path d="M32.5425 14.1733C30.7492 13.7773 29.6372 12.6227 29.4065 10.816C29.2572 9.64268 30.0905 8.97866 31.2332 9.064C33.1585 9.20666 34.2638 10.3707 34.3865 12.2653C34.4585 13.3787 33.7385 14.0493 32.5425 14.1733Z" fill="#10171F"/>
<path d="M76.2555 10.9174C76.1369 12.2347 75.7649 13.292 74.4342 13.2787C73.3822 13.268 73.0102 12.34 73.0635 11.4013C73.1262 10.2947 73.4515 9.15599 74.8222 9.18933C75.8622 9.21466 76.1062 10.188 76.2555 10.9174Z" fill="#10171F"/>
<path d="M74.709 21.2812C74.9663 19.6226 74.7036 18.2999 75.529 17.2332C75.9916 16.6332 76.6116 15.8932 77.4743 16.4746C78.1583 16.9359 77.9343 17.7439 77.5983 18.3426C76.989 19.4292 76.3637 20.5399 74.709 21.2812Z" fill="#10171F"/>
<path d="M67.1744 44.2372C68.1131 44.2598 68.6384 44.6505 68.7877 45.3812C68.9464 46.1585 68.5717 46.7052 67.7571 46.7798C66.9784 46.8518 66.4851 46.4012 66.3171 45.6652C66.1304 44.8438 66.6411 44.4612 67.1744 44.2372Z" fill="#10171F"/>
<path d="M38.3076 54.8959C37.9303 56.9625 36.3783 57.1999 34.2383 57.4866C35.2196 55.6359 36.621 55.1412 37.985 54.6012C38.089 54.7012 38.197 54.7999 38.3076 54.8959Z" fill="#10171F"/>
<path d="M72.3094 44.3839C72.2348 45.0373 71.9441 45.5066 71.2241 45.5093C70.5148 45.5133 70.1534 45.0519 70.1107 44.4106C70.0587 43.6279 70.3868 43.0413 71.2841 43.1466C71.9535 43.2253 72.2334 43.7479 72.3094 44.3839Z" fill="#10171F"/>
<path d="M1.21197 59.2906C1.64264 59.3653 1.9733 59.6039 1.94397 60.0479C1.89597 60.7653 1.36262 61.0519 0.725284 61.0626C0.305284 61.0706 -0.0333721 60.7679 0.00262786 60.3199C0.0586279 59.6159 0.546637 59.3266 1.21197 59.2906Z" fill="#10171F"/>
<path d="M65.8983 9.16115C65.9197 9.63581 65.809 10.0465 65.3277 10.0505C64.413 10.0558 63.893 9.47449 63.7304 8.63849C63.609 8.02116 64.045 7.72382 64.6076 7.79848C65.393 7.90382 65.7197 8.51048 65.8983 9.16115Z" fill="#10171F"/>
<path d="M70.5156 2.35998C70.433 2.84398 70.289 3.35732 69.7383 3.39732C68.9783 3.45465 68.829 2.85465 68.8383 2.25998C68.8463 1.77598 68.989 1.24933 69.5677 1.216C70.313 1.17333 70.433 1.77998 70.5156 2.35998Z" fill="#10171F"/>
<path d="M79.9837 16.2159C80.4357 16.2039 80.7356 16.4372 80.7623 16.8639C80.7956 17.3905 80.5276 17.8199 79.9876 17.9132C79.5596 17.9865 79.2303 17.6879 79.2036 17.2732C79.1716 16.7545 79.4517 16.3666 79.9837 16.2159Z" fill="#10171F"/>
<path d="M10.7116 52.9719C10.3302 52.9386 9.88087 52.8813 9.92487 52.3999C9.96887 51.9413 10.4342 51.8906 10.7995 51.9546C11.0409 51.9972 11.4196 52.1813 11.4502 52.3506C11.5369 52.8586 11.0996 52.9239 10.7116 52.9719Z" fill="#10171F"/>
<path d="M19.8454 41.3879C19.5894 41.9265 19.1148 41.9919 18.6161 41.8999C18.1961 41.8225 17.8468 41.5212 18.1441 41.1092C18.3321 40.8519 18.7961 40.7052 19.1481 40.6772C19.5548 40.6439 19.9134 40.8545 19.8454 41.3879Z" fill="#10171F"/>
<path d="M45.8784 7.15193C45.5864 7.40527 45.3957 7.69593 45.1851 7.71193C45.0237 7.72259 44.6771 7.36126 44.6998 7.20659C44.7318 6.98526 44.9971 6.69059 45.2144 6.63992C45.3638 6.60392 45.5998 6.92393 45.8784 7.15193Z" fill="#10171F"/>
<path d="M81.148 13.2266C80.6973 13.2052 80.4666 12.9839 80.5546 12.6652C80.62 12.4279 80.8653 12.1346 81.0893 12.0732C81.4187 11.9799 81.6693 12.2692 81.5893 12.5959C81.5307 12.8439 81.2813 13.0466 81.148 13.2266Z" fill="#10171F"/>
<path d="M71.8238 16.8559C71.5732 16.9759 71.3599 17.1266 71.1279 17.1626C71.0519 17.1746 70.8225 16.7839 70.8465 16.7612C71.0171 16.5906 71.2238 16.4426 71.4452 16.3519C71.4852 16.3346 71.6465 16.6159 71.8238 16.8559Z" fill="#10171F"/>
<path d="M43.1877 10.2386C43.3437 10.3133 43.5623 10.3466 43.621 10.4613C43.7717 10.7586 43.6251 10.9933 43.2997 11C43.1824 11.0026 42.9864 10.7986 42.9624 10.6626C42.9384 10.5426 43.101 10.388 43.1877 10.2386Z" fill="#10171F"/>
<path d="M15.9771 21.9214C16.0704 22.0667 16.2504 22.2214 16.2277 22.3361C16.1637 22.6601 15.8984 22.7347 15.6438 22.5574C15.5451 22.4881 15.4904 22.2214 15.5451 22.1068C15.5958 22.0028 15.8211 21.9827 15.9771 21.9214Z" fill="#10171F"/>
<path d="M8.3757 63.3652C8.26237 63.2306 8.05836 63.0932 8.06769 62.9746C8.09436 62.6332 8.3677 62.5372 8.64504 62.6706C8.75704 62.7252 8.86768 63.0039 8.82101 63.1066C8.76235 63.2319 8.53703 63.2799 8.3757 63.3652Z" fill="#10171F"/>
<path d="M31.9676 60.248C31.829 60.2307 31.693 60.212 31.5557 60.1934C31.5757 60.1147 31.5917 59.9694 31.6117 59.968C31.749 59.9654 31.885 59.9934 32.0236 60.0107C32.0036 60.0894 31.985 60.168 31.9676 60.248Z" fill="#10171F"/>
<path d="M20.0146 64.2839C19.9826 64.3546 19.9693 64.4532 19.9146 64.4852C19.8639 64.5159 19.7706 64.4745 19.6973 64.4639C19.7479 64.3545 19.7986 64.2452 19.8493 64.1372C19.904 64.1865 19.9599 64.2346 20.0146 64.2839Z" fill="#10171F"/>
<path d="M31.8253 21.132C31.7907 21.2094 31.776 21.32 31.716 21.3573C31.6613 21.3907 31.5573 21.344 31.4746 21.332C31.5306 21.2107 31.5866 21.0894 31.6426 20.9667C31.7026 21.0214 31.764 21.076 31.8253 21.132Z" fill="#10171F"/>
<path d="M84.9954 23.1467C84.9021 23.0214 84.8088 22.8961 84.7168 22.7707C84.7928 22.7214 84.9235 22.6174 84.9355 22.6294C85.0435 22.74 85.1328 22.872 85.2261 22.9974C85.1488 23.0467 85.0728 23.0961 84.9954 23.1467Z" fill="#10171F"/>
<path d="M10.2812 35.8132C10.4586 35.5359 10.5426 34.8812 10.9719 35.2452C11.3599 35.5759 10.8066 35.8386 10.5079 36.0359C10.4332 35.9626 10.3586 35.8879 10.2812 35.8132Z" fill="#10171F"/>
<path d="M15.4585 41.7425C15.5132 41.6732 15.5665 41.6025 15.6199 41.5332C15.7359 41.6318 15.8598 41.7265 15.9612 41.8398C15.9732 41.8532 15.8638 41.9732 15.8105 42.0452C15.6932 41.9438 15.5758 41.8438 15.4585 41.7425Z" fill="#10171F"/>
<path d="M24.4053 41.7747C24.4573 41.7067 24.5093 41.64 24.5613 41.572C24.6733 41.668 24.792 41.7587 24.8867 41.8693C24.8987 41.884 24.7946 42 24.7439 42.0693C24.6306 41.972 24.5173 41.8733 24.4053 41.7747Z" fill="#10171F"/>
<path d="M44.4758 1.05327C44.4278 1.1066 44.3811 1.15993 44.3344 1.2146C44.2771 1.11193 44.2185 1.01059 44.1611 0.909261C44.2331 0.890594 44.3197 0.838581 44.3717 0.862581C44.4251 0.886581 44.4424 0.986605 44.4758 1.05327Z" fill="#10171F"/>
<path d="M50.1104 10.9906C50.1717 10.9679 50.2517 10.9092 50.3104 10.9252C50.365 10.9386 50.3997 11.0332 50.4424 11.0932C50.3317 11.1319 50.221 11.1719 50.1104 11.2119C50.1104 11.1399 50.1104 11.0666 50.1104 10.9906Z" fill="#10171F"/>
<path d="M48.4212 16.7773C48.4892 16.8267 48.5585 16.8773 48.6265 16.9267C48.5305 17.0387 48.4426 17.1573 48.3332 17.2546C48.3212 17.2666 48.2039 17.164 48.1372 17.1133C48.2319 17.0013 48.3252 16.8893 48.4212 16.7773Z" fill="#10171F"/>
<path d="M59.0079 16.0079C59.0212 16.1599 59.0413 16.3105 59.0333 16.4625C59.0319 16.4785 58.8719 16.4892 58.7866 16.5012C58.7732 16.3492 58.7519 16.1959 58.7586 16.0439C58.7599 16.0279 58.9199 16.0199 59.0079 16.0079Z" fill="#10171F"/>
<path d="M62.0293 19.3212C62.0986 19.1598 62.1679 19.0012 62.2386 18.8425C62.3973 18.9132 62.644 18.9479 62.6906 19.0639C62.736 19.1772 62.5773 19.3719 62.5079 19.5305C62.3493 19.4612 62.1893 19.3905 62.0293 19.3212Z" fill="#10171F"/>
<path d="M27.3783 2.23066C27.3289 2.34399 27.3143 2.44933 27.2636 2.472C27.2169 2.49333 27.1302 2.42532 27.0596 2.39732C27.1556 2.34799 27.2516 2.29732 27.3783 2.23066Z" fill="#10171F"/>
</svg>
