<svg width="75" height="98" viewBox="0 0 75 98" fill="none" xmlns="http://www.w3.org/2000/svg">
<path d="M49.4542 82.191C49.2582 82.3857 49.0649 82.5804 48.8702 82.7764C48.6769 82.9724 48.4809 83.1684 48.2875 83.3631C48.2502 83.4431 48.2155 83.5244 48.1795 83.6044C48.2049 83.5137 48.2329 83.4244 48.2595 83.3337C48.4569 83.1404 48.6529 82.947 48.8502 82.7537C49.0476 82.563 49.2462 82.3724 49.4435 82.1817C49.5262 80.1204 48.8769 78.5057 47.3409 76.947C45.9689 75.5537 44.6075 74.1364 43.0929 72.9257C41.4182 71.5857 41.0249 69.971 40.6089 67.9257C39.7849 63.8804 38.9089 59.7044 36.0769 56.3857C35.6169 55.847 35.5769 54.531 34.5582 54.9884C33.4729 55.4724 34.6862 56.563 34.3942 57.3537C33.7009 57.447 33.4382 56.1831 32.4235 56.9631C34.0795 59.1751 32.4822 59.623 30.6836 60.3804C28.6996 61.2137 25.6876 60.843 25.4476 64.2564C25.4089 64.8244 24.4769 65.3324 23.4982 65.0724C21.0502 64.4257 20.7756 64.895 21.2942 67.5244C22.3889 73.0777 25.8249 77.1031 29.5875 81.0097C32.5449 84.0804 37.1662 86.6124 41.1422 87.0377C42.0462 87.1351 40.8876 88.4311 42.0222 88.6084C42.6342 87.9271 43.2822 87.2044 43.9289 86.4817C44.0475 86.3897 44.1635 86.2964 44.2795 86.2004C45.7009 84.8057 47.0569 84.291 48.3116 86.4164C48.8062 87.255 49.5809 87.6604 50.5649 87.3444C51.3982 87.0751 52.0249 86.4084 51.8076 85.5804C51.4476 84.2137 51.2355 82.619 49.4542 82.191Z" fill="#10171F"/>
<path d="M25.1276 57.1204C25.6343 56.8991 25.5263 56.2204 25.2196 55.8258C22.701 52.5898 22.7116 47.3218 16.9956 46.1338C19.2316 49.7405 21.205 52.9604 23.225 56.1538C23.6396 56.8124 24.2343 57.5111 25.1276 57.1204Z" fill="#10171F"/>
<path d="M57.3237 86.4377C55.921 86.2697 54.5063 86.1844 53.093 86.1777C52.8997 86.1764 52.5024 86.7911 52.5424 87.0711C52.729 88.3884 53.3477 89.7711 54.7437 89.7084C55.9903 89.6524 57.073 88.6044 57.9277 87.4537C57.6944 87.043 57.5423 86.4644 57.3237 86.4377Z" fill="#10171F"/>
<path d="M16.8383 15.1164C16.0463 11.4897 14.249 8.27372 12.813 4.90972C12.473 5.04838 12.133 5.18707 11.793 5.32573C13.1596 8.71773 14.525 12.1097 15.893 15.5017C16.2076 15.3737 16.5236 15.2444 16.8383 15.1164Z" fill="#10171F"/>
<path d="M33.7996 16.6178C35.3849 16.2698 35.4969 14.6271 35.7395 13.3098C35.8835 12.5258 35.6742 11.4857 34.6462 11.6364C32.7688 11.9124 33.3515 13.7617 32.8568 14.8911C32.8622 15.6911 32.6782 16.8631 33.7996 16.6178Z" fill="#10171F"/>
<path d="M17.0598 37.3457C16.3252 34.139 14.0745 32.6937 13.6145 30.3284C13.5052 29.7657 12.5172 29.5204 11.8092 29.9057C11.3945 30.1337 11.3599 30.6564 11.6812 30.9124C13.6772 32.503 14.0718 35.3924 17.0598 37.3457Z" fill="#10171F"/>
<path d="M29.5732 57.6218C30.1039 57.2898 31.6959 59.2938 31.5426 56.9858C31.4932 56.2484 31.7666 54.4885 30.4693 54.7685C29.2946 55.0218 27.7812 56.1564 27.4625 57.2178C27.1572 58.2364 28.5986 58.0031 29.5732 57.6218Z" fill="#10171F"/>
<path d="M34.6277 38.5778C33.6477 38.4498 33.2624 39.2524 33.2277 40.0871C33.1837 41.1111 33.4064 42.1858 34.6477 42.2698C35.6411 42.3378 35.7784 41.3858 35.9557 40.4684C35.7997 39.7218 35.7157 38.7191 34.6277 38.5778Z" fill="#10171F"/>
<path d="M66.2731 63.5712C67.0744 63.5032 67.7984 63.2018 67.8704 62.1765C67.5358 61.2032 66.7464 60.8791 65.8158 60.9818C65.1051 61.0605 64.4678 61.4645 64.5904 62.3165C64.7224 63.2245 65.4051 63.6445 66.2731 63.5712Z" fill="#10171F"/>
<path d="M25.2676 92.3257C26.0502 95.123 27.5743 96.495 29.4356 97.5977C28.7956 95.5243 27.5569 93.9243 25.2676 92.3257Z" fill="#10171F"/>
<path d="M22.689 16.0511C22.9063 17.6658 22.845 19.3711 24.1716 21.0991C24.969 18.7565 23.465 17.4845 22.689 16.0511Z" fill="#10171F"/>
<path d="M26.5913 51.1084C26.9407 51.3204 27.446 51.019 27.3486 50.575C27.0326 49.139 26.386 47.9324 24.5273 47.6257C24.582 49.2244 25.3273 50.335 26.5913 51.1084Z" fill="#10171F"/>
<path d="M19.3784 31.7792C20.1064 31.6125 20.9091 31.4138 21.1398 30.4898C20.8678 29.5685 20.0744 29.8165 19.4517 29.7725C18.7037 29.7178 18.0371 29.9232 18.1491 30.8685C18.2291 31.5365 18.7318 31.9285 19.3784 31.7792Z" fill="#10171F"/>
<path d="M3.49805 0.115185C3.65671 2.01252 4.40073 3.14847 5.61406 4.06714C5.59406 2.54847 5.28738 1.16185 3.49805 0.115185Z" fill="#10171F"/>
<path d="M18.8941 36.151C19.2567 36.335 19.746 36.1123 19.7154 35.6563C19.6327 34.3923 18.7314 33.691 17.3447 32.7417C17.5261 34.439 17.7167 35.5563 18.8941 36.151Z" fill="#10171F"/>
<path d="M63.1477 64.1256C62.2144 64.8629 61.189 65.3363 60.7037 66.1376C59.953 67.3776 60.821 67.3229 61.6997 66.9696C61.8157 66.8336 61.925 66.6936 62.0304 66.5483C62.4824 65.8976 63.3717 65.4816 63.1477 64.1256Z" fill="#10171F"/>
<path d="M54.3853 80.883C54.4933 80.2563 53.9346 80.1416 53.4386 80.2136C52.784 80.307 52.0559 80.415 52.0239 81.2843C52.0066 81.751 52.4506 81.8336 52.8426 81.8723C53.5146 81.7803 54.2493 81.6656 54.3853 80.883Z" fill="#10171F"/>
<path d="M44.1289 70.3137C44.2622 70.8844 44.4969 71.4938 45.1489 71.5631C45.7955 71.6324 45.9369 71.0618 45.8515 70.5698C45.7355 69.9004 45.5103 69.2418 44.6716 69.1711C44.0143 69.3458 44.0142 69.8297 44.1289 70.3137Z" fill="#10171F"/>
<path d="M20.5624 93.6604C19.9904 93.6431 19.5944 93.9217 19.5051 94.4631C19.4064 95.0577 19.8117 95.3751 20.3504 95.4404C20.9104 95.5084 21.3117 95.2097 21.4064 94.6551C21.5091 94.0417 21.0704 93.8017 20.5624 93.6604Z" fill="#10171F"/>
<path d="M41.3571 41.3419C41.9584 41.2992 42.0411 40.7538 42.0758 40.2512C41.9918 39.7298 41.7664 39.2712 41.1878 39.2965C40.5384 39.3245 40.4918 39.8925 40.5104 40.3792C40.5278 40.9005 40.7744 41.3845 41.3571 41.3419Z" fill="#10171F"/>
<path d="M68.276 83.8576C67.7067 83.7803 67.3707 84.1189 67.312 84.6563C67.252 85.2043 67.5653 85.5843 68.0907 85.6629C68.6573 85.7483 68.9454 85.3723 69.0667 84.8549C69.084 84.2976 68.8173 83.9336 68.276 83.8576Z" fill="#10171F"/>
<path d="M64.8091 68.0297C64.2318 68.115 63.6331 68.3657 63.5104 68.9444C63.3824 69.551 63.8851 69.7377 64.4131 69.5737C64.9344 69.411 65.5318 69.2804 65.6038 68.5644C65.5611 68.0564 65.1998 67.9724 64.8091 68.0297Z" fill="#10171F"/>
<path d="M43.4023 48.615C43.8757 48.6136 44.057 48.2603 44.0743 47.8216C44.0357 47.387 43.833 47.0137 43.3903 47.0057C42.9223 46.9963 42.741 47.3976 42.7383 47.8216C42.7343 48.2523 42.9277 48.6176 43.4023 48.615Z" fill="#10171F"/>
<path d="M73.3998 88.3685C72.9652 88.3631 72.6878 88.7005 72.6771 89.1405C72.6664 89.5791 72.9051 89.8738 73.3571 89.9565C73.7998 89.9658 74.1518 89.7725 74.2145 89.3378C74.2985 88.7645 73.9758 88.3751 73.3998 88.3685Z" fill="#10171F"/>
<path d="M22.8089 90.1524C22.9689 90.5511 23.2955 90.9884 23.6649 91.1657C24.0569 91.3537 24.3155 90.9951 24.2488 90.0191C24.1982 89.9884 23.8275 89.6657 23.3982 89.5271C22.9289 89.3751 22.6595 89.7764 22.8089 90.1524Z" fill="#10171F"/>
<path d="M11.2594 48.1138C10.7887 47.9125 10.4687 47.6952 10.1354 47.6672C9.96206 47.6525 9.57939 47.9965 9.59939 48.1272C9.69139 48.6792 10.1554 48.8565 10.6474 48.7712C10.8341 48.7392 10.9727 48.4351 11.2594 48.1138Z" fill="#10171F"/>
<path d="M22.576 20.4912C23 20.0592 22.636 19.1912 21.684 18.9298C21.6226 19.2365 21.4693 19.5298 21.536 19.7578C21.6853 20.2618 21.8426 21.2365 22.576 20.4912Z" fill="#10171F"/>
<path d="M45.952 87.5538L45.9507 87.5524C46.1773 87.4111 46.404 87.2684 46.632 87.1271C46.536 87.0244 46.4413 86.9244 46.3466 86.8231C46.1839 87.0351 46.0213 87.2471 45.8573 87.4591C45.8573 87.4591 45.892 87.4938 45.9186 87.5204L45.8573 87.4591C45.332 87.0391 44.8053 86.6204 44.2799 86.2004C44.1639 86.2964 44.048 86.3898 43.9307 86.4804C44.2107 87.5791 44.124 89.3684 45.952 87.5538Z" fill="#10171F"/>
<path d="M66.3423 78.7444C66.189 78.8591 65.897 78.9684 65.8183 79.1631C65.657 79.5684 65.8677 79.9191 66.297 79.9657C66.4957 79.9884 66.8423 79.7924 66.9143 79.6111C67.0783 79.2097 66.8303 78.9231 66.3423 78.7444Z" fill="#10171F"/>
<path d="M49.1914 74.6231C49.3941 74.5511 49.5141 74.2457 49.7381 73.9591C49.4328 73.7857 49.1901 73.5324 49.0074 73.5711C48.7861 73.6177 48.4741 73.8977 48.4567 74.1004C48.4127 74.5697 48.7794 74.7711 49.1914 74.6231Z" fill="#10171F"/>
<path d="M41.4408 69.3884C41.5288 69.7404 41.7648 70.0538 41.8862 70.2858C42.4102 70.4164 42.6648 70.2351 42.5608 69.8978C42.4528 69.5511 42.2275 69.1658 41.9368 68.9684C41.6381 68.7658 41.3568 69.0524 41.4408 69.3884Z" fill="#10171F"/>
<path d="M30.3238 52.911C30.5092 52.927 30.7198 52.6456 30.8771 52.531C30.7718 51.911 30.5478 51.4896 30.0105 51.4523C29.8451 51.4403 29.5025 51.7736 29.5079 51.9403C29.5239 52.4296 29.7865 52.8643 30.3238 52.911Z" fill="#10171F"/>
<path d="M63.6318 66.6658C63.1918 66.4405 62.5732 66.5725 62.0305 66.5485C61.9252 66.6938 61.8158 66.8338 61.7012 66.9698C62.1238 67.5325 62.5905 67.9912 63.3559 67.5458C63.7119 67.3365 63.9918 66.8512 63.6318 66.6658Z" fill="#10171F"/>
<path d="M7.20117 30.399C7.38117 30.5817 7.53852 30.871 7.74785 30.915C7.90785 30.9483 8.13319 30.6723 8.41852 30.471C8.11986 30.2203 7.9305 29.9416 7.72783 29.9283C7.5625 29.919 7.37717 30.2297 7.20117 30.399Z" fill="#10171F"/>
<path d="M40.8504 56.6377C41.0277 56.4457 41.3357 56.2644 41.3504 56.0617C41.365 55.859 41.0863 55.635 40.8543 55.303C40.6157 55.6257 40.325 55.8484 40.3463 56.0364C40.3703 56.2524 40.6704 56.439 40.8504 56.6377Z" fill="#10171F"/>
<path d="M51.6675 71.9804C51.8635 71.8991 51.9622 71.5777 52.1582 71.2817C51.8662 71.1177 51.6181 70.8658 51.4395 70.9084C51.2315 70.9578 50.9488 71.2551 50.9368 71.4591C50.9128 71.9071 51.2368 72.1604 51.6675 71.9804Z" fill="#10171F"/>
<path d="M14.8065 68.3391C14.9132 68.6644 15.2185 68.9951 15.5239 69.1617C15.7985 69.3097 16.1572 69.0724 16.0652 68.7244C15.9759 68.3871 15.6932 68.1017 15.5572 67.8857C15.0305 67.8537 14.7052 68.0337 14.8065 68.3391Z" fill="#10171F"/>
<path d="M67.6743 66.8977C67.665 67.131 67.7876 67.367 67.8569 67.603C68.0916 67.5084 68.3249 67.415 68.7103 67.2604C68.4503 66.9817 68.3156 66.7564 68.1183 66.6604C68.0223 66.6137 67.677 66.8057 67.6743 66.8977Z" fill="#10171F"/>
<path d="M22.5021 27.5191C22.4928 27.2937 22.2474 27.0778 22.1314 26.8991C21.6887 26.8738 21.5047 27.1004 21.5767 27.3978C21.6327 27.6298 21.8714 27.8177 22.0287 28.0244C22.1981 27.8564 22.5088 27.6817 22.5021 27.5191Z" fill="#10171F"/>
<path d="M54.2691 71.0325C54.4091 70.9965 54.4931 70.7524 54.5945 70.6151C54.5451 70.2538 54.3558 70.0298 54.0091 70.1178C53.8731 70.1525 53.7118 70.4045 53.7078 70.5618C53.6985 70.9005 53.9225 71.1245 54.2691 71.0325Z" fill="#10171F"/>
<path d="M30.3808 42.1444C30.6008 42.0844 30.9075 41.9604 30.9621 41.7911C31.0088 41.6444 30.7568 41.4031 30.5568 41.0698C30.3355 41.3804 30.1475 41.5524 30.0928 41.7591C30.0661 41.8617 30.3181 42.1631 30.3808 42.1444Z" fill="#10171F"/>
<path d="M10.5732 77.1896C10.7786 77.3376 10.9732 77.5122 11.1999 77.6096C11.2466 77.6296 11.4172 77.3522 11.6079 77.1162C11.3532 76.9909 11.1372 76.8309 10.9066 76.7962C10.8159 76.7816 10.6852 77.0509 10.5732 77.1896Z" fill="#10171F"/>
<path d="M57.52 78.7377C57.3693 78.723 57.0693 78.879 57.0693 78.9577C57.0693 79.1897 57.1853 79.4217 57.2546 79.655C57.492 79.5804 57.728 79.5057 57.9066 79.4497C58.016 78.9844 57.8427 78.7697 57.52 78.7377Z" fill="#10171F"/>
<path d="M22.3078 44.499C22.5798 44.651 22.8024 44.5524 22.9184 44.1364C22.7997 43.995 22.6757 43.715 22.4757 43.6444C22.1704 43.535 21.9664 43.771 22.0078 44.087C22.0278 44.239 22.1704 44.423 22.3078 44.499Z" fill="#10171F"/>
<path d="M70.5876 47.2403C70.541 47.2217 70.2637 47.563 70.2944 47.611C70.4184 47.807 70.621 47.9537 70.8103 48.135C70.9836 47.907 71.089 47.7683 71.1944 47.6283C70.9957 47.4923 70.8063 47.327 70.5876 47.2403Z" fill="#10171F"/>
<path d="M53.1066 52.8564C53.2879 52.6164 53.3973 52.4711 53.508 52.3258C53.3 52.1818 53.1013 52.0084 52.872 51.9164C52.824 51.8978 52.532 52.2565 52.564 52.3085C52.6933 52.5138 52.9066 52.6671 53.1066 52.8564Z" fill="#10171F"/>
<path d="M0.334668 8.72321C0.196001 8.76188 0.110667 8.99386 0 9.13786C0.202667 9.29386 0.397355 9.46853 0.622689 9.58187C0.652022 9.59787 0.836005 9.31517 0.938672 9.1805C0.884005 8.81383 0.661335 8.63521 0.334668 8.72321Z" fill="#10171F"/>
<path d="M50.2024 26.4897C50.1824 26.2243 50.0371 25.9683 49.9144 25.627C49.4944 26.1763 49.3837 26.3203 49.2744 26.4643C49.4784 26.6163 49.6744 26.7883 49.901 26.8963C49.9357 26.9123 50.2131 26.623 50.2024 26.4897Z" fill="#10171F"/>
<path d="M49.4385 92.2403C49.4398 92.2416 49.4411 92.2416 49.4424 92.2429L49.4611 92.2282C49.4531 92.2309 49.4465 92.2363 49.4385 92.2403Z" fill="#10171F"/>
<path d="M48.2889 91.9604C48.2036 92.0351 48.1916 92.3538 48.2716 92.4311C48.7276 92.8725 49.0649 92.4151 49.4383 92.2405C49.0929 91.9791 48.7783 91.5364 48.2889 91.9604Z" fill="#10171F"/>
<path d="M15.0066 43.795C15.0359 43.9324 15.2226 44.1377 15.3413 44.1377C15.6786 44.135 15.7893 43.8817 15.652 43.599C15.5973 43.4857 15.3786 43.4524 15.224 43.3777C15.14 43.5244 14.9813 43.679 15.0066 43.795Z" fill="#10171F"/>
<path d="M5.98535 40.8896C6.13868 40.9136 6.29201 40.9363 6.44535 40.959C6.46535 40.8697 6.48534 40.7817 6.50534 40.695C6.35067 40.6723 6.19601 40.6403 6.04134 40.639C6.02401 40.6377 6.00402 40.8016 5.98535 40.8896Z" fill="#10171F"/>
<path d="M40.0982 53.3245C40.1262 53.2725 40.0502 53.1645 40.0209 53.0818C39.9369 53.1138 39.8102 53.1258 39.7836 53.1845C39.7569 53.2405 39.8302 53.3445 39.8595 53.4285C39.9435 53.3951 40.0676 53.3845 40.0982 53.3245Z" fill="#10171F"/>
<path d="M57.6157 63.1244C57.6624 63.2511 57.7077 63.3791 57.7544 63.5071C57.8224 63.4564 57.9304 63.4164 57.9464 63.3537C57.9651 63.2844 57.8971 63.1924 57.8664 63.1111C57.7838 63.1151 57.6984 63.1191 57.6157 63.1244Z" fill="#10171F"/>
<path d="M61.0567 70.9137C61.1447 71.015 61.2554 71.099 61.3581 71.1897C61.4061 71.1257 61.454 71.063 61.5007 71.0004C61.3967 70.9097 61.2927 70.8204 61.1887 70.7297C61.1407 70.7937 61.0447 70.9004 61.0567 70.9137Z" fill="#10171F"/>
<path d="M13.4928 76.531C13.3702 76.6003 13.2675 76.7056 13.1582 76.7976C13.2715 76.8843 13.3848 76.971 13.4995 77.0576C13.5622 76.9256 13.6355 76.7963 13.6742 76.6576C13.6822 76.6323 13.5235 76.5136 13.4928 76.531Z" fill="#10171F"/>
<path d="M59.7236 81.807C59.8756 81.871 60.0517 82.0096 60.1743 81.9736C60.2757 81.943 60.3156 81.7056 60.3823 81.5576C60.2316 81.4909 60.0476 81.3389 59.9396 81.3803C59.829 81.4229 59.793 81.6576 59.7236 81.807Z" fill="#10171F"/>
<path d="M11.809 16.4883C11.817 16.4577 11.6343 16.327 11.5996 16.3457C11.4623 16.427 11.3476 16.5484 11.2236 16.6537C11.357 16.7497 11.489 16.847 11.6223 16.9443C11.6903 16.7937 11.769 16.6457 11.809 16.4883Z" fill="#10171F"/>
<path d="M32.7691 87.7098C32.8371 87.7271 32.9251 87.6605 32.9945 87.6351C32.9945 87.5498 32.9945 87.4685 32.9945 87.3858C32.8691 87.4311 32.7464 87.4765 32.6211 87.5218C32.6704 87.5871 32.7078 87.6938 32.7691 87.7098Z" fill="#10171F"/>
<path d="M47.5489 89.9298C47.5649 89.9764 47.6649 89.9951 47.7276 90.0244C47.7569 89.9617 47.8236 89.8858 47.8062 89.8378C47.7929 89.7911 47.6902 89.7738 47.6289 89.7444C47.5982 89.8071 47.5329 89.8831 47.5489 89.9298Z" fill="#10171F"/>
<path d="M54.6357 92.9364C54.7171 92.9737 54.7984 93.0124 54.8784 93.051C54.9131 92.9697 54.9957 92.8737 54.973 92.815C54.9517 92.755 54.8264 92.735 54.7464 92.6977C54.709 92.7764 54.6731 92.8564 54.6357 92.9364Z" fill="#10171F"/>
<path d="M38.6887 90.4485C38.6314 90.4325 38.5527 90.4872 38.4834 90.5112C38.4874 90.5818 38.4914 90.6538 38.4954 90.7258C38.6034 90.6872 38.71 90.6485 38.818 90.6098C38.7754 90.5538 38.7434 90.4632 38.6887 90.4485Z" fill="#10171F"/>
<path d="M71.1182 50.287C71.1782 50.3857 71.2382 50.4857 71.2982 50.5857C71.3462 50.535 71.3929 50.483 71.4409 50.4324C71.4049 50.367 71.3835 50.271 71.3288 50.247C71.2755 50.2217 71.1902 50.271 71.1182 50.287Z" fill="#10171F"/>
<path d="M56.2434 60.8271C56.2167 60.7484 56.2087 60.6298 56.1581 60.6071C56.1034 60.5818 56.0074 60.6471 55.9287 60.6738C55.958 60.7511 55.9661 60.8658 56.0194 60.8938C56.0687 60.9191 56.166 60.8524 56.2434 60.8271Z" fill="#10171F"/>
<path d="M49.5049 92.4483C49.5263 92.5003 49.5796 92.539 49.6209 92.583C49.5729 92.491 49.5236 92.399 49.4756 92.307C49.4823 92.3564 49.4863 92.4057 49.5049 92.4483Z" fill="#10171F"/>
<path d="M49.4424 92.2431C49.4544 92.2645 49.465 92.2858 49.4757 92.3071C49.4717 92.2805 49.4651 92.2551 49.4611 92.2285L49.4424 92.2431Z" fill="#10171F"/>
</svg>
