<svg width="70" height="61" viewBox="0 0 70 61" fill="none" xmlns="http://www.w3.org/2000/svg">
<path d="M42.8966 23.0174C42.4592 21.2721 42.4774 19.8614 43.6128 18.3454C44.9253 16.5894 44.2305 15.0761 42.267 14.4414C39.7565 13.6281 38.1045 12.0028 36.8289 9.79209C35.907 8.19476 34.6414 7.7361 32.8722 8.73477C31.0133 9.78277 29.3446 11.1188 27.2201 11.7961C25.6665 12.2934 26.2764 13.4134 27.3909 14.1348C25.9764 16.6548 24.8488 19.4121 21.7061 20.3961C20.7993 20.6801 20.2993 21.5068 20.218 22.4361C19.9029 26.0628 20.5174 29.4841 22.6722 32.5134C23.4409 33.5948 24.5352 34.1494 25.7337 33.4641C27.6728 32.3561 29.7285 31.9068 31.9128 31.8041C32.5165 31.7748 33.1097 31.5614 33.3242 30.9228C34.3628 27.8321 36.881 27.3721 39.6561 27.2374C42.5461 27.0948 43.5966 25.8147 42.8966 23.0174Z" fill="#002A59"/>
<path d="M46.3556 -0.626676C46.2518 -0.374676 46.0456 -0.166698 45.7056 0.317302C45.2857 -0.676031 45.3174 -1.48802 46.0446 -1.63468C46.7466 -1.77468 46.5289 -1.04534 46.3556 -0.626676ZM56.517 9.70399C56.6368 9.12132 56.2008 8.76531 55.7508 8.59198C53.1289 7.58531 54.1904 6.00666 55.2816 4.70666C56.717 2.99866 57.4878 1.01466 58.1972 -1.02C59.7128 -5.364 55.1368 -6.4227 53.6988 -9.18136C52.928 -10.66 51.4061 -10.848 49.8185 -10.4933C46.7452 -9.80534 45.5389 -7.99869 46.5602 -4.94403C45.5122 -4.52803 43.7764 -6.272 43.816 -4.088C43.8332 -3.14 44.9925 -1.94134 43.428 -1.59067C42.4122 -1.36134 41.0717 -1.88403 41.3477 -3.64536C41.4597 -4.36403 40.7993 -4.62134 40.1337 -4.52401C39.1618 -4.38134 39.204 -3.67467 39.3368 -2.95601C39.5477 -1.81334 40.3545 -0.810681 40.1398 0.434652C40.2674 0.571985 40.4008 0.705319 40.5394 0.834652C41.4925 3.57199 43.716 5.75599 43.381 9.10399C43.1826 11.0947 44.8352 13.0133 47.042 11.964C49.7712 10.668 52.5248 10.4853 55.3758 10.3586C55.9018 10.336 56.3952 10.2987 56.517 9.70399Z" fill="#002A59"/>
<path d="M62.6228 42.8414C62.718 40.7828 60.577 38.3508 58.7212 38.3321C56.9462 38.3148 56.7431 39.6014 56.5952 40.7921C56.5223 43.3027 58.0915 45.2134 60.1363 45.1694C61.6232 45.1361 62.5514 44.3694 62.6228 42.8414Z" fill="#002A59"/>
<path d="M61.0312 26.716C62.9129 26.688 64.4484 25.944 65.0864 24.0413C64.8224 22.7133 64.4176 21.628 62.8624 21.688C60.8385 21.7666 59.4531 22.8933 59.0047 24.7453C58.6968 26.0173 59.8473 26.7333 61.0312 26.716Z" fill="#002A59"/>
<path d="M21.5646 15.0494C21.5187 14.2948 21.7312 12.3827 19.5714 12.8241C18.6667 13.1174 16.7547 12.3454 16.9448 14.3774C17.051 15.5174 17.8135 17.0868 19.1728 17.0828C20.0952 17.0801 21.6406 16.2948 21.5646 15.0494Z" fill="#002A59"/>
<path d="M36.6287 2.896C36.7167 2.98533 36.8052 3.07467 36.8943 3.164C37.8787 3.56667 37.6282 5.76132 39.6328 4.81999C41.3427 4.01732 40.723 2.87333 40.5578 1.69466C40.5176 1.41333 40.5443 1.12267 40.5397 0.83467C40.401 0.705337 40.2676 0.572003 40.1411 0.43467C38.3386 0.352003 36.251 -0.134669 36.6287 2.896Z" fill="#002A59"/>
<path d="M51.0097 35.6561C49.5633 35.7201 47.705 36.0588 47.6649 37.7895C47.628 39.4081 48.831 38.2441 49.7441 37.9401C50.6586 37.9415 52.1332 41.5721 52.8836 37.7681C53.1144 36.6001 52.2545 35.6015 51.0097 35.6561Z" fill="#002A59"/>
<path d="M46.4771 51.8454C45.3067 52.3494 44.1733 53.0547 44.0557 54.492C43.9932 55.2574 44.5249 55.7294 45.4301 55.66C46.7948 55.224 47.2214 54.0427 47.4484 52.7694C47.5708 52.0854 47.2266 51.5214 46.4771 51.8454Z" fill="#002A59"/>
<path d="M32.0208 -0.217285C31.9703 0.978715 32.7635 1.46803 34.002 1.7627C34.626 1.66003 35.3416 1.36936 35.4662 0.460026C35.6495 -0.877307 34.6656 -1.11465 33.6578 -1.27998C32.7854 -1.42265 32.0656 -1.28528 32.0208 -0.217285Z" fill="#002A59"/>
<path d="M62.7224 45.8293C62.6838 45.9627 63.077 46.4027 63.2224 46.38C64.6489 46.1653 65.126 45.06 65.7978 43.5667C64.1833 44.0027 63.112 44.472 62.7224 45.8293Z" fill="#002A59"/>
<path d="M52.6952 31.1547C51.7775 30 50.9623 29.4507 49.4248 29.904C50.3051 31.128 51.1811 31.5213 52.6952 31.1547Z" fill="#002A59"/>
<path d="M68.4871 3.43207C68.0653 3.36007 67.6825 3.55073 67.6787 4.02406C67.6751 4.68406 68.0767 5.11072 68.7022 5.25072C69.1345 5.34806 69.4423 5.13339 69.5038 4.65473C69.4621 4.00006 69.1465 3.54407 68.4871 3.43207Z" fill="#002A59"/>
<path d="M15.204 12.784C14.6483 12.6507 14.218 12.8854 14.115 13.4574C14.0171 13.9987 14.277 14.3961 14.8311 14.5601C15.4128 14.5467 15.7447 14.2294 15.8035 13.6747C15.8499 13.2427 15.6399 12.8867 15.204 12.784Z" fill="#002A59"/>
<path d="M8.07811 25.7573C8.90931 24.7 8.97238 23.9347 8.33171 22.644C7.82078 23.752 7.24265 24.3947 8.07811 25.7573Z" fill="#002A59"/>
<path d="M31.4731 52.5895C30.9621 52.8615 30.9012 53.3375 31.0184 53.8309C31.1153 54.2402 31.4544 54.5815 31.8419 54.3082C32.0851 54.1362 32.1893 53.6442 32.196 53.2935C32.2033 52.9069 32.0356 52.5095 31.4731 52.5895Z" fill="#002A59"/>
<path d="M23.8775 38.5174C23.4452 38.6187 23.1717 38.9054 23.2332 39.3321C23.318 39.9121 23.7592 40.1388 24.2999 40.0081C24.7379 39.9014 24.9113 39.5281 24.7623 39.1014C24.6264 38.7067 24.3311 38.4667 23.8775 38.5174Z" fill="#002A59"/>
<path d="M17.4317 19.2281C16.8181 19.2841 16.6666 19.7361 16.7853 20.2614C16.8885 20.7174 17.2661 20.8468 17.6749 20.7388C18.0869 20.6295 18.2812 20.3121 18.2394 19.8761C18.127 19.4615 17.8495 19.1894 17.4317 19.2281Z" fill="#002A59"/>
<path d="M63.0472 5.99614C63.556 5.43347 64.0087 4.81082 63.3571 3.81082C62.4327 4.39082 62.1754 5.0508 62.367 5.85346C62.3915 5.9588 62.9634 6.08947 63.0472 5.99614Z" fill="#002A59"/>
<path d="M61.7832 58.204C61.7248 59.3094 62.104 59.8933 62.9275 60.1107C63.0743 60.1493 63.4931 59.816 63.4909 59.6587C63.4789 58.7373 62.8441 58.396 61.7832 58.204Z" fill="#002A59"/>
<path d="M12.3107 9.44007C11.9247 9.39074 11.4701 9.49605 11.417 9.95205C11.355 10.4747 11.7946 10.5174 12.2003 10.5067C12.5914 10.4147 13.0118 10.2894 12.9742 9.81341C12.9622 9.66674 12.555 9.4694 12.3107 9.44007Z" fill="#002A59"/>
<path d="M43.1597 29.6707C43.0133 29.7947 42.718 29.9214 42.6551 30.1227C42.5264 30.5307 42.7316 30.8974 43.1789 30.9174C43.3841 30.928 43.7232 30.708 43.7909 30.5174C43.9389 30.1 43.6723 29.824 43.1597 29.6707Z" fill="#002A59"/>
<path d="M14.8631 37.6841C14.6527 37.9827 14.3741 38.2081 14.3893 38.4094C14.4049 38.6188 14.6877 38.9441 14.8882 38.9721C15.3371 39.0361 15.6059 38.7148 15.4877 38.2761C15.4309 38.0681 15.1293 37.9241 14.8631 37.6841Z" fill="#002A59"/>
<path d="M63.2871 47.9614C63.2396 48.1308 63.4491 48.5308 63.6095 48.5708C64.0475 48.6814 64.271 48.3654 64.3778 47.8308C64.2278 47.7134 64.009 47.4188 63.845 47.4481C63.6256 47.4841 63.3464 47.7428 63.2871 47.9614Z" fill="#002A59"/>
<path d="M19.2743 3.70413C19.342 3.90413 19.6395 4.0228 19.7852 4.14014C20.3061 4.0308 20.5535 3.75348 20.4218 3.34814C20.3623 3.16681 20.0228 2.96413 19.8119 2.9668C19.3858 2.9708 19.129 3.2828 19.2743 3.70413Z" fill="#002A59"/>
<path d="M13.566 7.48403C13.5019 7.4667 13.2504 7.84006 13.2786 7.87472C13.4275 8.05472 13.628 8.20672 13.839 8.31072C13.8732 8.32806 14.0494 8.06005 14.2322 7.83338C13.9952 7.69871 13.7931 7.54136 13.566 7.48403Z" fill="#002A59"/>
<path d="M60.4232 35.9268C60.2895 35.9642 60.204 36.1802 60.0967 36.3135C60.2909 36.4535 60.4748 36.6202 60.6904 36.7108C60.7347 36.7308 60.8988 36.4668 60.9863 36.3588C60.9513 35.9868 60.7254 35.8442 60.4232 35.9268Z" fill="#002A59"/>
<path d="M55.9654 33.3428C55.8226 33.4175 55.6909 33.6401 55.6794 33.8055C55.6555 34.1415 55.8903 34.3895 56.205 34.2828C56.4097 34.2121 56.5335 33.9028 56.6555 33.7468C56.5023 33.3161 56.2613 33.1841 55.9654 33.3428Z" fill="#002A59"/>
<path d="M53.9148 12.4894L53.9044 12.5C53.9205 13.024 53.6528 13.6747 54.4544 13.8574C54.5741 13.8854 54.844 13.7254 54.8711 13.6094C55.056 12.8294 54.3951 12.7294 53.9148 12.4894Z" fill="#002A59"/>
<path d="M39.6717 55.5549C39.7561 55.7922 39.9232 55.9989 40.0608 56.2175C40.2065 56.1109 40.4857 55.9829 40.4732 55.9002C40.4373 55.6562 40.2846 55.4295 40.168 55.1749C39.9373 55.3469 39.654 55.5055 39.6717 55.5549Z" fill="#002A59"/>
<path d="M28.949 2.15863C28.9168 1.89329 28.7589 1.64131 28.6225 1.31198C28.2444 1.83198 28.022 2.08131 28.048 2.11064C28.2168 2.29998 28.4386 2.4413 28.6433 2.59863C28.7526 2.45197 28.9657 2.29196 28.949 2.15863Z" fill="#002A59"/>
<path d="M35.2979 32.0988C35.2943 32.2268 35.5427 32.4882 35.5952 32.4682C35.8058 32.3922 35.9843 32.2281 36.1734 32.0961C36.0708 31.9615 35.9671 31.8255 35.8843 31.7175C35.5266 31.6335 35.3083 31.7841 35.2979 32.0988Z" fill="#002A59"/>
<path d="M51.1097 48.3307C51.0633 48.4587 51.1753 48.6427 51.2174 48.8027C51.407 48.6894 51.5966 48.5761 51.7862 48.4627C51.6961 48.3334 51.6065 48.2027 51.5102 48.0627C51.3633 48.1534 51.1534 48.2121 51.1097 48.3307Z" fill="#002A59"/>
<path d="M27.0811 49.5854C27.0784 49.6214 27.2717 49.7228 27.2988 49.7001C27.4169 49.6028 27.5076 49.4721 27.6076 49.3534C27.4685 49.2721 27.329 49.1894 27.189 49.1081C27.1488 49.2668 27.0936 49.4241 27.0811 49.5854Z" fill="#002A59"/>
<path d="M25.5029 49.7282C25.5764 49.7388 25.668 49.7789 25.7185 49.7469C25.7723 49.7149 25.7868 49.6175 25.8185 49.5482C25.7628 49.5002 25.7071 49.4509 25.6519 49.4029C25.6024 49.5122 25.5524 49.6202 25.5029 49.7282Z" fill="#002A59"/>
<path d="M14.5134 17.652C14.4333 17.6147 14.3525 17.5774 14.2724 17.54C14.2333 17.6227 14.1953 17.704 14.1562 17.7854C14.2374 17.8214 14.3364 17.904 14.3948 17.8814C14.4547 17.8574 14.4754 17.7334 14.5134 17.652Z" fill="#002A59"/>
<path d="M43.2627 49.812C43.3335 49.808 43.4044 49.8027 43.4758 49.7987C43.5002 49.7293 43.558 49.6467 43.5392 49.592C43.5206 49.5387 43.4222 49.5133 43.3591 49.4747C43.3263 49.588 43.2946 49.7 43.2627 49.812Z" fill="#002A59"/>
<path d="M45.2468 47.1879C45.1719 47.3319 45.0958 47.4746 45.0156 47.6293C45.1578 47.7106 45.3 47.792 45.4416 47.8733C45.5146 47.7266 45.6667 47.5613 45.637 47.44C45.6104 47.3306 45.3848 47.2706 45.2468 47.1879Z" fill="#002A59"/>
<path d="M20.6875 53.8147C20.7474 53.8667 20.8062 53.9187 20.8656 53.9707C20.94 53.9347 21.051 53.9147 21.0782 53.856C21.1047 53.7974 21.0458 53.7014 21.0255 53.6214C20.9124 53.6854 20.8 53.7494 20.6875 53.8147Z" fill="#002A59"/>
<path d="M53.2891 11.9813C53.4943 12.1547 53.6989 12.3267 53.9041 12.5L53.9145 12.4893C53.7249 12.296 53.9249 11.6253 53.2891 11.9813Z" fill="#002A59"/>
<path d="M41.3837 40.6839C41.4727 40.7853 41.5827 40.8679 41.6853 40.9573C41.7317 40.8946 41.7781 40.8306 41.8238 40.768C41.7213 40.68 41.6175 40.5906 41.5139 40.5026C41.4686 40.5666 41.3727 40.6719 41.3837 40.6839Z" fill="#002A59"/>
<path d="M36.1104 3.64669C36.4661 4.02136 36.6953 3.45335 36.8942 3.16401C36.8052 3.07468 36.7166 2.98535 36.629 2.89735C36.3468 3.08935 35.7405 3.25736 36.1104 3.64669Z" fill="#002A59"/>
<path d="M51.1992 34.4827C51.2506 34.412 51.3022 34.3427 51.3544 34.2707C51.2402 34.1747 51.1262 34.0773 51.0121 33.9827C50.9612 34.0547 50.8544 34.1746 50.8673 34.188C50.9648 34.2986 51.085 34.388 51.1992 34.4827Z" fill="#002A59"/>
<path d="M52.915 16.2627C52.7838 16.344 52.6733 16.46 52.5557 16.5627C52.6775 16.6573 52.7994 16.7507 52.9218 16.8467C52.9874 16.6987 53.0655 16.556 53.1057 16.404C53.1134 16.3733 52.9426 16.2453 52.915 16.2627Z" fill="#002A59"/>
<path d="M16.1494 40.2828L16.3494 40.3801L16.3442 40.1455L16.1494 40.2828Z" fill="#002A59"/>
<path d="M55.801 11.6708L55.6621 11.8441L55.8865 11.8748L55.801 11.6708Z" fill="#002A59"/>
</svg>
