<svg width="96" height="68" viewBox="0 0 96 68" fill="none" xmlns="http://www.w3.org/2000/svg">
<path d="M1.62921 18.5793C1.55988 18.3304 1.16123 18.1741 0.817233 17.8996C0.5679 18.258 0.219896 18.5424 0.246563 18.7834C0.274563 19.0434 0.638539 19.4381 0.889206 19.4632C1.43587 19.521 1.78121 19.122 1.62921 18.5793Z" fill="#10171F"/>
<path d="M67.7531 44.6699C65.7331 45.0101 65.1397 42.8366 63.5864 42.3085C63.1384 42.1569 63.4091 41.4235 63.7984 41.0725C64.3611 40.5689 65.1411 40.2418 65.5144 41.0699C66.0957 42.3605 67.0064 41.8407 67.9317 41.9314C68.6091 41.9981 69.9864 40.8407 70.0637 42.7689C70.1344 44.5287 68.8851 44.4995 67.7531 44.6699ZM59.0851 43.7235C59.2051 43.7194 59.3251 43.7167 59.4451 43.7126L59.4624 43.7355C59.3357 43.7314 59.2104 43.7271 59.0851 43.7235ZM75.6491 44.4995C74.7784 42.5782 73.4557 44.3142 72.0064 44.1058C72.7931 43.2689 71.8771 42.3262 72.3624 41.5407C73.8077 41.5058 75.1731 42.9647 76.3171 41.6314C77.0251 40.8085 76.4517 39.7662 75.5304 39.1262C75.4584 39.0449 75.3824 38.9631 75.3064 38.8861C74.3037 39.4381 73.6704 39.0543 73.3611 38.0543C73.1264 37.2981 72.8931 36.5965 71.9451 36.5246L71.7677 36.7058C70.0077 38.4631 68.4171 36.4033 66.7317 36.4834C66.6157 36.5834 66.5051 36.6861 66.3971 36.7929C65.9944 37.5329 65.5824 38.3631 64.9691 36.9511C64.7051 36.3434 64.5451 35.6886 64.3384 35.0553C64.2211 34.9298 64.0984 34.8074 63.9744 34.6902C61.6997 33.9938 60.5517 33.1834 62.5384 30.6714C64.9024 27.6809 63.8837 24.3699 62.4144 21.2486C62.0611 20.4995 61.4677 19.9475 60.5464 20.1074C59.7544 20.2434 59.4611 20.8902 59.2931 21.5861C59.1317 22.2569 59.0037 22.9355 58.8624 23.6101L58.8531 23.6194C58.3624 23.2142 58.0584 22.2271 57.2464 22.7153C56.5144 23.1553 57.2064 23.7142 57.4771 24.1757C58.0984 25.2339 58.1931 26.3834 58.1437 27.2861C54.8397 28.4913 51.4064 28.6142 48.1717 29.5782C46.8797 29.9631 46.2797 31.421 45.7144 32.7219C44.4077 35.7271 45.6571 38.2366 47.0344 40.7595L47.0224 40.7725C44.7677 39.2569 43.8051 41.3834 42.4464 42.3938C42.3464 42.4938 42.2491 42.5954 42.1504 42.6965C41.6118 43.5298 40.2437 44.4782 41.8064 45.3058C43.1264 46.0074 43.3131 44.5886 43.5851 43.6714C43.7571 43.0877 43.9877 42.4511 44.6317 42.3767C45.4957 42.2767 45.1611 43.3938 45.5838 43.6058C48.2584 44.9511 48.5184 47.4262 48.7717 49.9689C48.8477 50.7287 49.2304 51.4579 49.4851 52.1965C49.7824 53.0543 50.6651 53.7965 51.2117 53.1699C52.4157 51.7845 54.2837 51.3355 55.3717 50.0391C56.7211 48.4366 57.0744 45.1271 60.1904 48.1142C60.2931 48.2115 60.7757 48.0475 60.9811 47.8809C63.0611 46.2074 64.4784 46.7459 65.3051 49.9579C66.5251 46.3339 69.3331 47.1767 71.5064 46.3767C71.7384 47.1699 70.7144 48.5861 71.8277 48.6793C73.3344 48.8047 74.8531 47.9167 76.0157 46.9287C76.7957 46.2673 76.0024 45.2751 75.6491 44.4995Z" fill="#10171F"/>
<path d="M26.8994 44.7355C25.4901 43.8595 24.0154 43.0751 22.3261 42.8262C20.3074 42.5271 19.5861 43.5178 19.8607 45.3662C20.1474 47.2929 21.2874 48.7631 22.6488 50.0793C22.7288 50.1725 22.8087 50.2647 22.8914 50.3553C23.6741 50.3569 24.4581 50.3725 25.2407 50.3553C26.8234 50.3219 28.2154 49.8662 28.6381 48.1543C29.0194 46.6006 28.1207 45.4938 26.8994 44.7355Z" fill="#10171F"/>
<path d="M11.273 34.6033C9.99035 34.7981 9.65702 35.6605 10.345 36.2689C12.169 37.8809 13.8023 39.8022 16.1917 40.6632C16.7637 40.8689 17.405 40.846 17.809 40.2996C18.1264 39.8689 18.0463 39.3501 17.725 38.9246C16.045 36.6872 13.253 36.17 11.273 34.6033Z" fill="#10171F"/>
<path d="M88.7157 37.7511C88.0184 36.7298 86.9624 36.1022 85.741 36.3553C83.1717 36.8886 83.225 38.5845 84.1157 40.5381C84.2477 40.6757 84.3824 40.8058 84.5264 40.9329C85.5624 41.6631 86.581 41.2167 87.601 40.8902C87.7384 40.7877 87.8717 40.6793 88.0024 40.5673C88.6117 39.721 89.5064 38.9074 88.7157 37.7511Z" fill="#10171F"/>
<path d="M92.9373 30.7553C91.096 31.0981 90.4973 32.8236 89.8213 34.2544C89.4426 35.058 90.1253 35.8877 91.0653 35.6621C92.8119 35.2418 93.7106 33.8528 94.2813 32.3648C94.3346 31.2834 93.796 30.5965 92.9373 30.7553Z" fill="#10171F"/>
<path d="M83.2731 40.6124C83.1624 40.7208 83.0544 40.8312 82.9477 40.9432C81.0664 41.9484 82.0504 43.49 82.3584 44.7818C82.5357 45.5327 83.3944 45.563 84.0757 45.1594C85.6131 44.2474 84.8584 42.9952 84.5637 41.8046C84.4944 41.527 84.5357 41.2244 84.5264 40.9327C84.3824 40.8056 84.2477 40.6755 84.1171 40.539C83.8357 40.5646 83.5544 40.5875 83.2731 40.6124Z" fill="#10171F"/>
<path d="M12.6475 52.221C11.8221 52.35 11.4728 52.8459 11.6901 53.4751C12.1795 54.8886 12.9395 56.1928 14.5341 56.5194C15.2981 56.6767 15.4355 55.9355 15.3301 55.3126C15.0581 53.7058 13.9368 52.8448 12.6475 52.221Z" fill="#10171F"/>
<path d="M38.8037 44.3699C37.7343 44.1297 37.9543 45.3912 37.9383 46.0631C37.9143 47.1084 37.8877 48.4167 39.2036 48.6219C40.037 48.75 39.9663 47.7261 39.9943 46.9876C39.725 46.0844 39.9823 44.6328 38.8037 44.3699Z" fill="#10171F"/>
<path d="M42.601 3.79271C43.617 3.74871 43.6304 2.80871 43.5784 2.03804C43.5264 1.26604 43.3757 0.492717 42.3863 0.347383C41.377 0.583383 41.349 1.39804 41.3744 2.15404C41.401 2.94604 41.6397 3.83538 42.601 3.79271Z" fill="#10171F"/>
<path d="M91.0213 42.263C90.9773 40.9073 89.5586 41.3209 88.8253 40.8218C88.5986 40.6672 88.2787 40.6474 88.0027 40.5672C87.872 40.6792 87.7386 40.7876 87.6013 40.8901C87.5346 41.1661 87.3373 41.4964 87.424 41.71C87.836 42.7073 88.3813 43.6792 89.664 43.5578C90.3573 43.4912 91.044 42.9818 91.0213 42.263Z" fill="#10171F"/>
<path d="M10.1784 13.563C9.59573 12.527 8.63971 11.927 7.39571 11.8713C6.87571 11.8474 6.37571 12.1979 6.58904 12.7885C7.04637 14.051 8.19439 14.4166 9.37573 14.5603C9.88506 14.6234 10.2931 14.2901 10.1784 13.563Z" fill="#10171F"/>
<path d="M70.5489 61.9859C68.8329 63.0671 68.0956 64.6417 67.9836 66.187C67.8769 67.6551 68.7982 66.9447 69.3582 66.3365C69.4529 66.2406 69.5476 66.1447 69.6423 66.0499C70.0396 64.8177 70.9996 63.7099 70.5489 61.9859Z" fill="#10171F"/>
<path d="M59.4787 19.2458C60.1507 17.4406 59.492 16.2912 58.3787 15.2475C58.0987 16.638 57.992 18.0021 59.4787 19.2458Z" fill="#10171F"/>
<path d="M81.381 36.5153C82.1584 36.3648 82.5384 35.8673 82.5597 35.0996C82.5757 34.5205 82.2464 34.1512 81.6824 34.209C80.7997 34.2981 80.2317 34.834 80.317 35.7501C80.3637 36.2544 80.8117 36.5501 81.381 36.5153Z" fill="#10171F"/>
<path d="M34.8237 55.2434C34.3171 55.421 33.8064 55.7741 33.9224 56.446C34.0331 57.0834 34.5544 57.4126 35.2304 57.2648C35.7571 57.1486 36.0624 56.7662 36.0691 56.2272C36.0784 55.4768 35.5957 55.2381 34.8237 55.2434Z" fill="#10171F"/>
<path d="M56.9904 17.7501C57.589 16.8366 57.489 15.9845 56.6144 15.2006C55.573 15.9486 55.717 16.821 56.269 17.7006C56.349 17.8288 56.9197 17.8553 56.9904 17.7501Z" fill="#10171F"/>
<path d="M65.8478 30.5313C66.3825 30.5204 66.7064 30.1901 66.8024 29.6568C66.8078 29.0792 66.5131 28.7568 65.9451 28.7594C65.3878 28.762 65.0651 29.1261 65.0078 29.6458C64.9424 30.2218 65.2945 30.5406 65.8478 30.5313Z" fill="#10171F"/>
<path d="M29.4436 26.5167C28.8583 26.5365 28.1356 26.6328 28.2516 27.374C28.3596 28.0595 29.153 27.9391 29.6996 27.9995C30.189 28.0543 30.6716 27.9938 30.7516 27.3486C30.5956 26.6178 30.0516 26.4964 29.4436 26.5167Z" fill="#10171F"/>
<path d="M80.942 47.4662C81.0354 46.8845 80.6407 46.5877 80.0967 46.4809C79.526 46.446 79.0701 46.6486 79.1807 47.2768C79.2367 47.5996 79.5594 48.0116 79.8607 48.1246C80.3794 48.3236 80.85 48.0314 80.942 47.4662Z" fill="#10171F"/>
<path d="M80.2382 43.9542C80.1755 43.2604 79.7275 42.9688 79.0982 42.9713C78.6835 42.9724 78.3875 43.274 78.3848 43.686C78.3795 44.3005 78.6315 44.8057 79.3395 44.8245C79.8888 44.839 80.1768 44.4937 80.2382 43.9542Z" fill="#10171F"/>
<path d="M53.7503 24.3245C54.2436 24.3365 54.549 24.0937 54.585 23.6699C54.629 23.15 54.4103 22.6756 53.8423 22.5953C53.4236 22.5355 53.0836 22.8355 53.0396 23.2568C52.9876 23.7833 53.2303 24.1901 53.7503 24.3245Z" fill="#10171F"/>
<path d="M45.7929 60.9219C45.2516 61.05 45.0863 61.5485 45.0356 62.0459C44.9929 62.4781 45.1382 62.8047 45.8596 62.7417C46.0262 62.4297 46.3262 62.0448 46.4329 61.6125C46.5316 61.2115 46.2942 60.8032 45.7929 60.9219Z" fill="#10171F"/>
<path d="M32.706 16.6937C32.718 16.2688 32.5047 15.9751 32.114 15.8604C31.718 15.7448 31.3354 15.8579 31.2327 16.2901C31.106 16.8235 31.3807 17.2032 31.9193 17.286C32.3273 17.3459 32.6127 17.1167 32.706 16.6937Z" fill="#10171F"/>
<path d="M90.7664 47.9845C90.1717 47.9435 89.993 48.4544 89.8464 48.9023C89.7224 49.282 89.745 49.7476 90.2784 49.7023C90.8437 49.6544 90.909 49.0752 91.1024 48.5101C91.0197 48.3715 90.9064 47.9939 90.7664 47.9845Z" fill="#10171F"/>
<path d="M83.7518 48.138C83.5412 48.2032 83.3972 48.4876 83.1465 48.7526C83.4412 48.9433 83.6625 49.2005 83.8571 49.1792C84.0665 49.1578 84.3852 48.9005 84.4172 48.7057C84.4852 48.2688 84.1838 48.0089 83.7518 48.138Z" fill="#10171F"/>
<path d="M65.6597 33.9193C65.5157 33.1125 64.841 33.3578 64.2943 33.5661L64.213 33.6327C64.2557 33.5979 64.2943 33.5661 64.2943 33.5671C64.1557 33.2354 64.021 32.9031 63.885 32.5723C63.753 32.6578 63.6197 32.7417 63.4863 32.827C63.6863 33.1297 63.8863 33.4354 64.0863 33.7379C64.0477 34.0567 64.0117 34.3723 63.9743 34.6901C64.0983 34.8073 64.221 34.9297 64.337 35.0542C64.9957 34.9209 65.8223 34.8379 65.6597 33.9193Z" fill="#10171F"/>
<path d="M95.7812 35.4527C95.7119 35.2486 95.3652 34.9964 95.1585 35.01C94.7212 35.0355 94.4652 35.3964 94.5852 35.8262C94.6426 36.0339 94.9559 36.174 95.1066 36.3032C95.6452 36.1688 95.9279 35.8912 95.7812 35.4527Z" fill="#10171F"/>
<path d="M94.1717 37.3662C93.7437 37.2724 93.397 37.5604 93.341 37.9767C93.3157 38.1724 93.5863 38.4058 93.6877 38.5662C94.2543 38.5782 94.6037 38.3724 94.6397 37.9418C94.6544 37.7552 94.3704 37.4084 94.1717 37.3662Z" fill="#10171F"/>
<path d="M79.3705 40.062C79.4825 39.9021 79.7372 39.7005 79.7545 39.4792C79.7919 39.0568 79.5052 38.75 79.0759 38.8355C78.8692 38.874 78.5905 39.1792 78.5705 39.3876C78.5279 39.8057 78.8172 40.05 79.3705 40.062Z" fill="#10171F"/>
<path d="M76.9746 38.0594C76.9826 37.8792 76.6586 37.5152 76.4893 37.5152C75.6186 37.5193 75.456 38.2141 75.3066 38.886C75.3826 38.963 75.4586 39.0448 75.5306 39.1245C76.216 39.0422 76.9253 38.9485 76.9746 38.0594Z" fill="#10171F"/>
<path d="M62.7291 7.42596C62.4798 7.13796 62.3452 6.91529 62.1465 6.78996C62.0852 6.74996 61.7345 6.96596 61.7291 7.07396C61.7185 7.31129 61.8452 7.5553 61.9158 7.79663C62.1425 7.69263 62.3705 7.58996 62.7291 7.42596Z" fill="#10171F"/>
<path d="M72.017 11.4514C72.233 11.4034 72.4023 11.1354 72.6836 10.8887C72.397 10.6807 72.1943 10.4167 71.997 10.4234C71.7876 10.4287 71.4516 10.6554 71.405 10.8447C71.297 11.2754 71.5876 11.5434 72.017 11.4514Z" fill="#10171F"/>
<path d="M89.7931 22.6699C90.2104 22.7808 90.4624 22.4808 90.6304 21.9781C90.4637 21.8552 90.2544 21.5808 90.0757 21.5995C89.8544 21.6235 89.5544 21.8511 89.4824 22.0595C89.4264 22.2177 89.6357 22.6261 89.7931 22.6699Z" fill="#10171F"/>
<path d="M21.3928 32.4072C21.4741 32.2447 21.7141 31.9818 21.6581 31.8327C21.5808 31.6296 21.2821 31.4114 21.0661 31.3963C20.8888 31.3843 20.5381 31.6526 20.5301 31.8083C20.5101 32.2499 20.8594 32.402 21.3928 32.4072Z" fill="#10171F"/>
<path d="M67.5534 35.1338C67.5307 34.9928 67.3094 34.7808 67.1747 34.7767C66.484 34.7511 66.4694 35.2953 66.4014 35.7819C66.5107 35.9235 66.624 36.062 66.744 36.1953C67.1827 35.9661 67.6507 35.7417 67.5534 35.1338Z" fill="#10171F"/>
<path d="M81.6972 32.6965C81.9332 32.6366 82.2239 32.5339 82.3372 32.3486C82.4026 32.2449 82.1639 31.9543 81.9959 31.6101C81.7306 31.9126 81.5226 32.0751 81.4306 32.2913C81.3932 32.3793 81.6412 32.7126 81.6972 32.6965Z" fill="#10171F"/>
<path d="M17.2771 4.33675C17.2998 4.20342 17.1104 3.90209 17.0478 3.91009C16.8211 3.94209 16.4997 4.01809 16.4211 4.17943C16.3477 4.32876 16.5384 4.60741 16.8104 5.41675C17.0811 4.81808 17.2344 4.58742 17.2771 4.33675Z" fill="#10171F"/>
<path d="M76.5051 61.9845C76.3905 62.1246 76.2758 62.2689 76.1611 62.4101C76.3651 62.5673 76.5718 62.7235 76.7771 62.8809C76.8891 62.7339 77.0918 62.5877 77.0931 62.4407C77.0958 62.0938 76.8491 61.9486 76.5051 61.9845Z" fill="#10171F"/>
<path d="M57.4974 48.8833C57.4867 49.2354 57.768 49.3818 58.0494 49.2578C58.2614 49.1661 58.3974 48.9021 58.7014 48.5671C58.2747 48.5099 58.024 48.4209 57.8 48.4671C57.6707 48.4937 57.5014 48.7354 57.4974 48.8833Z" fill="#10171F"/>
<path d="M80.0715 50.7194C79.9648 51.0511 80.1461 51.3115 80.4954 51.3219C80.6461 51.3271 80.8048 51.1314 81.4648 50.6902C81.0501 50.5579 80.7781 50.421 80.4995 50.4033C80.3581 50.3954 80.1181 50.5751 80.0715 50.7194Z" fill="#10171F"/>
<path d="M29.281 55.4819C29.181 55.7913 29.3304 56.0486 29.6717 56.0486C29.8117 56.0486 29.9517 55.8511 30.541 55.3995C30.189 55.2938 29.9304 55.1699 29.669 55.1604C29.5384 55.1568 29.3264 55.3423 29.281 55.4819Z" fill="#10171F"/>
<path d="M42.4678 66.0152C42.4664 66.0647 42.8784 66.2032 42.9051 66.1661C43.0411 65.9688 43.1145 65.7297 43.2091 65.5047C43.0491 65.45 42.8891 65.3953 42.6318 65.3057C42.5678 65.5485 42.4784 65.7808 42.4678 66.0152Z" fill="#10171F"/>
<path d="M50.1569 24.3594C50.2529 23.9844 50.0929 23.751 49.7729 23.7141C49.6423 23.698 49.3516 23.9542 49.3663 23.9953C49.4556 24.227 49.6169 24.4297 49.7529 24.6433C49.8982 24.5422 50.0436 24.439 50.1569 24.3594Z" fill="#10171F"/>
<path d="M82.4607 39.9604C82.3821 39.9782 82.2821 40.0834 82.2661 40.162C82.1607 40.7032 82.6301 40.7604 82.9474 40.9434C83.0541 40.8314 83.1621 40.721 83.2714 40.6126C83.0847 40.2912 82.9927 39.8423 82.4607 39.9604Z" fill="#10171F"/>
<path d="M41.457 41.9913C41.689 42.2272 41.9197 42.4605 42.1504 42.6965C42.2491 42.5955 42.3464 42.4939 42.4464 42.3955C42.1664 42.1367 42.0597 41.458 41.457 41.9913Z" fill="#10171F"/>
<path d="M70.2796 49.6928C70.2743 49.6141 70.2689 49.5354 70.2622 49.4568C70.1436 49.5021 70.0249 49.5458 69.9062 49.5901C69.9542 49.6526 69.9916 49.7526 70.0516 49.7672C70.1183 49.7833 70.2023 49.7209 70.2796 49.6928Z" fill="#10171F"/>
<path d="M16.165 50.2792C16.2424 50.3141 16.3197 50.3485 16.397 50.386C16.4344 50.3057 16.4717 50.2287 16.5077 50.15C16.4304 50.1152 16.3344 50.0355 16.2797 50.0579C16.2211 50.0808 16.201 50.2005 16.165 50.2792Z" fill="#10171F"/>
<path d="M88.8154 52.0954C88.8981 52.1329 88.9954 52.2168 89.0567 52.1938C89.1167 52.1741 89.1408 52.046 89.1794 51.9648C89.0968 51.9262 88.9968 51.8408 88.9381 51.8621C88.8768 51.8861 88.8554 52.0126 88.8154 52.0954Z" fill="#10171F"/>
<path d="M34.7493 53.8901C34.6627 53.7723 34.58 53.6499 34.4787 53.5458C34.4693 53.5354 34.348 53.6327 34.2773 53.6791C34.3653 53.7963 34.4467 53.9193 34.548 54.0234C34.5587 54.0338 34.6787 53.9379 34.7493 53.8901Z" fill="#10171F"/>
<path d="M36.1011 53.7434C36.1771 53.7938 36.3011 53.9047 36.3224 53.8885C36.4437 53.7901 36.5398 53.662 36.6451 53.5434C36.5691 53.4928 36.4918 53.4433 36.4144 53.3928C36.3091 53.5089 36.2051 53.6262 36.1011 53.7434Z" fill="#10171F"/>
<path d="M32.2222 67.3938C32.2102 67.4928 32.4275 67.6194 32.5422 67.7339C32.6568 67.6006 32.7715 67.4672 32.8795 67.3434C32.7568 67.2178 32.6435 67.1006 32.5302 66.9834C32.4195 67.1194 32.2395 67.2459 32.2222 67.3938Z" fill="#10171F"/>
<path d="M67.0505 4.95536C67.1159 4.97003 67.2012 4.90604 67.2772 4.87804C67.2758 4.79804 67.2758 4.7207 67.2758 4.6407C67.1532 4.6847 67.0305 4.73003 66.9092 4.77403C66.9558 4.83803 66.9919 4.9407 67.0505 4.95536Z" fill="#10171F"/>
<path d="M93.7607 24.5569C93.8833 24.5553 94.0047 24.3689 94.134 24.2605C94.0513 24.1178 93.9927 23.8886 93.8913 23.8673C93.7567 23.8391 93.51 23.9355 93.4527 24.0486C93.3127 24.3219 93.4353 24.5595 93.7607 24.5569Z" fill="#10171F"/>
<path d="M72.4039 24.9417C72.4732 24.9151 72.5786 24.9072 72.6026 24.8594C72.6252 24.814 72.5626 24.726 72.5372 24.6567C72.4692 24.6818 72.3639 24.69 72.3399 24.7379C72.3172 24.7859 72.3786 24.8723 72.4039 24.9417Z" fill="#10171F"/>
<path d="M49.5182 27.6271C49.4955 27.5647 49.3835 27.5328 49.3102 27.4876C49.2742 27.6152 49.2395 27.7417 49.2021 27.8699C49.2848 27.8699 49.3662 27.8699 49.4488 27.8688C49.4742 27.7876 49.5408 27.6912 49.5182 27.6271Z" fill="#10171F"/>
<path d="M32.6446 55.5886C32.7153 55.5605 32.7846 55.5314 32.906 55.4834C32.7673 55.4392 32.6686 55.4085 32.5713 55.3782C32.5953 55.4486 32.6206 55.5178 32.6446 55.5886Z" fill="#10171F"/>
<path d="M22.0741 50.7031C22.3288 51.0646 22.6767 50.6417 22.8914 50.3551C22.8087 50.2646 22.7288 50.1723 22.6501 50.0807C22.3688 50.2261 21.7754 50.2807 22.0741 50.7031Z" fill="#10171F"/>
<path d="M70.0118 66.7046C69.8891 66.4875 69.7651 66.2687 69.6424 66.0499C69.5477 66.1447 69.4531 66.2406 69.3584 66.3354C69.5771 66.4578 69.7944 66.5818 70.0118 66.7046Z" fill="#10171F"/>
<path d="M48.8691 19.5448C48.8344 19.4928 48.7411 19.4792 48.6731 19.45C48.6264 19.5021 48.5797 19.5552 48.5317 19.6073C48.6411 19.6552 48.7477 19.7021 48.8544 19.7485C48.8624 19.6792 48.8997 19.5885 48.8691 19.5448Z" fill="#10171F"/>
<path d="M66.7436 36.1953C66.6236 36.0619 66.5102 35.9234 66.4022 35.7818C66.1502 35.8901 65.7196 35.9526 65.6809 36.1114C65.5529 36.6327 66.0596 36.6578 66.3969 36.7927C66.5049 36.6859 66.6156 36.5833 66.7302 36.4833C66.7289 36.4843 66.7449 36.1953 66.7436 36.1953Z" fill="#10171F"/>
<path d="M71.7627 36.5219L71.768 36.7058C71.768 36.7058 71.9454 36.5246 71.9454 36.5262L71.7627 36.5219Z" fill="#10171F"/>
<path d="M68.3316 42.9355C68.2822 42.9901 68.2329 43.0433 68.1836 43.098C68.2916 43.1485 68.3996 43.1995 68.5076 43.25C68.5183 43.1767 68.5609 43.0844 68.5302 43.0339C68.4996 42.9808 68.4009 42.9661 68.3316 42.9355Z" fill="#10171F"/>
</svg>
