<svg width="71" height="76" viewBox="0 0 71 76" fill="none" xmlns="http://www.w3.org/2000/svg">
<path d="M43.4249 38.8573C42.9875 37.1119 43.0058 35.7013 44.1411 34.1853C45.4536 32.4293 44.7588 30.916 42.7953 30.2813C40.2848 29.468 38.6328 27.8426 37.3572 25.6319C36.4353 24.0346 35.1697 23.5759 33.4005 24.5746C31.5416 25.6226 29.873 26.9586 27.7484 27.6359C26.1948 28.1333 26.8047 29.2533 27.9192 29.9746C26.5047 32.4946 25.3771 35.2519 22.2344 36.2359C21.3276 36.5199 20.8276 37.3466 20.7463 38.2759C20.4312 41.9026 21.0458 45.324 23.2005 48.3533C23.9692 49.4346 25.0635 49.9893 26.262 49.3039C28.2011 48.1959 30.2568 47.7466 32.4411 47.6439C33.0448 47.6146 33.638 47.4013 33.8526 46.7626C34.8911 43.6719 37.4094 43.2119 40.1844 43.0773C43.0744 42.9346 44.1249 41.6546 43.4249 38.8573Z" fill="#10171F"/>
<path d="M46.8839 15.2132C46.7801 15.4652 46.5739 15.6731 46.2339 16.1571C45.814 15.1638 45.8457 14.3518 46.5729 14.2052C47.2749 14.0652 47.0572 14.7945 46.8839 15.2132ZM57.0453 25.5438C57.1651 24.9612 56.7291 24.6052 56.2791 24.4318C53.6572 23.4252 54.7187 21.8465 55.8099 20.5465C57.2453 18.8385 58.0161 16.8545 58.7255 14.8198C60.2411 10.4758 55.6651 9.41715 54.2271 6.65848C53.4563 5.17981 51.9344 4.99184 50.3468 5.3465C47.2735 6.0345 46.0672 7.84115 47.0885 10.8958C46.0405 11.3118 44.3047 9.56784 44.3443 11.7518C44.3615 12.6998 45.5208 13.8985 43.9563 14.2492C42.9405 14.4785 41.6 13.9558 41.876 12.1945C41.988 11.4758 41.3276 11.2185 40.662 11.3158C39.6901 11.4585 39.7323 12.1652 39.8651 12.8838C40.076 14.0265 40.8828 15.0292 40.6681 16.2745C40.7957 16.4118 40.9291 16.5452 41.0677 16.6745C42.0208 19.4118 44.2443 21.5958 43.9093 24.9438C43.7109 26.9345 45.3635 28.8532 47.5703 27.8038C50.2995 26.5078 53.0531 26.3252 55.9041 26.1985C56.4301 26.1758 56.9235 26.1385 57.0453 25.5438Z" fill="#10171F"/>
<path d="M63.1511 58.6813C63.2463 56.6226 61.1053 54.1906 59.2495 54.1719C57.4745 54.1546 57.2714 55.4413 57.1235 56.6319C57.0506 59.1426 58.6198 61.0533 60.6646 61.0093C62.1515 60.9759 63.0797 60.2093 63.1511 58.6813Z" fill="#10171F"/>
<path d="M61.5595 42.5558C63.4412 42.5278 64.9767 41.7838 65.6147 39.8812C65.3507 38.5532 64.9459 37.4678 63.3907 37.5278C61.3668 37.6065 59.9814 38.7332 59.533 40.5852C59.2251 41.8572 60.3756 42.5732 61.5595 42.5558Z" fill="#10171F"/>
<path d="M22.0929 30.8893C22.047 30.1346 22.2596 28.2226 20.0997 28.6639C19.195 28.9572 17.283 28.1853 17.4732 30.2173C17.5793 31.3573 18.3418 32.9266 19.7012 32.9226C20.6236 32.9199 22.1689 32.1346 22.0929 30.8893Z" fill="#10171F"/>
<path d="M37.157 18.7358C37.245 18.8252 37.3336 18.9145 37.4226 19.0038C38.407 19.4065 38.1565 21.6012 40.1612 20.6598C41.871 19.8572 41.2513 18.7132 41.0861 17.5345C41.046 17.2532 41.0726 16.9625 41.068 16.6745C40.9293 16.5452 40.796 16.4118 40.6694 16.2745C38.8669 16.1918 36.7793 15.7052 37.157 18.7358Z" fill="#10171F"/>
<path d="M51.5385 51.496C50.0921 51.56 48.2338 51.8986 48.1937 53.6293C48.1568 55.248 49.3598 54.084 50.2729 53.78C51.1874 53.7813 52.662 57.412 53.4124 53.608C53.6432 52.44 52.7833 51.4413 51.5385 51.496Z" fill="#10171F"/>
<path d="M47.0054 67.6852C45.835 68.1892 44.7017 68.8945 44.5841 70.3319C44.5215 71.0972 45.0533 71.5692 45.9585 71.4999C47.3231 71.0639 47.7497 69.8825 47.9767 68.6092C48.0991 67.9252 47.7549 67.3612 47.0054 67.6852Z" fill="#10171F"/>
<path d="M32.5492 15.6226C32.4986 16.8186 33.2918 17.3079 34.5303 17.6025C35.1543 17.4999 35.87 17.2092 35.9945 16.2999C36.1778 14.9625 35.194 14.7252 34.1861 14.5599C33.3137 14.4172 32.594 14.5546 32.5492 15.6226Z" fill="#10171F"/>
<path d="M22.0349 12.1932C23.2927 10.6972 21.9635 9.51457 21.2089 8.15457C21.0547 9.56524 18.8542 10.5852 20.4787 12.2399C20.9255 12.6959 21.5791 12.7372 22.0349 12.1932Z" fill="#10171F"/>
<path d="M25.2979 13.4346C26.4255 13.2346 27.3667 12.7293 27.4823 11.4973C27.5755 10.5013 26.6667 10.5266 26.0479 10.5999C24.9875 10.7239 23.8563 11.0106 23.8673 12.3813C23.873 13.1426 24.513 13.4973 25.2979 13.4346Z" fill="#10171F"/>
<path d="M64.6795 6.01855C65.4785 5.94922 65.79 5.35319 65.8379 4.46253C65.7613 3.92519 65.3852 3.47453 64.7191 3.56119C63.9941 3.65586 63.4655 4.11321 63.5597 4.94387C63.6311 5.57854 63.9931 6.07855 64.6795 6.01855Z" fill="#10171F"/>
<path d="M63.2507 61.6692C63.2122 61.8025 63.6054 62.2425 63.7507 62.2199C65.1772 62.0052 65.6543 60.8998 66.3262 59.4065C64.7116 59.8425 63.6403 60.3118 63.2507 61.6692Z" fill="#10171F"/>
<path d="M53.2235 46.9945C52.3058 45.8399 51.4906 45.2905 49.9531 45.7439C50.8334 46.9679 51.7094 47.3612 53.2235 46.9945Z" fill="#10171F"/>
<path d="M69.0155 19.2719C68.5936 19.1999 68.2108 19.3906 68.2071 19.8639C68.2035 20.5239 68.6051 20.9506 69.2305 21.0906C69.6628 21.1879 69.9707 20.9732 70.0321 20.4946C69.9904 19.8399 69.6748 19.3839 69.0155 19.2719Z" fill="#10171F"/>
<path d="M15.7324 28.6239C15.1766 28.4906 14.7464 28.7252 14.6433 29.2972C14.5454 29.8386 14.8053 30.2359 15.3594 30.3999C15.9412 30.3866 16.273 30.0692 16.3318 29.5146C16.3782 29.0826 16.1682 28.7266 15.7324 28.6239Z" fill="#10171F"/>
<path d="M8.60643 41.5972C9.43763 40.5398 9.5007 39.7745 8.86003 38.4839C8.3491 39.5919 7.77097 40.2345 8.60643 41.5972Z" fill="#10171F"/>
<path d="M38.3991 7.73459L38.4002 7.73325C38.5475 7.77592 38.695 7.81991 38.8413 7.86391C38.7549 7.74925 38.6674 7.6346 38.5809 7.52127C38.5465 6.90127 38.8278 6.04791 37.9407 5.89725C37.1637 5.76658 37.1361 6.53726 37.1194 7.07593C37.0877 8.11326 37.6678 8.10259 38.3991 7.73459Z" fill="#10171F"/>
<path d="M32.0014 68.4294C31.4905 68.7014 31.4295 69.1774 31.5467 69.6707C31.6437 70.08 31.9827 70.4214 32.3702 70.148C32.6134 69.976 32.7177 69.484 32.7243 69.1334C32.7317 68.7467 32.5639 68.3494 32.0014 68.4294Z" fill="#10171F"/>
<path d="M24.4058 54.3572C23.9735 54.4586 23.7001 54.7453 23.7615 55.1719C23.8463 55.7519 24.2875 55.9786 24.8282 55.8479C25.2662 55.7413 25.4397 55.3679 25.2906 54.9413C25.1547 54.5466 24.8594 54.3066 24.4058 54.3572Z" fill="#10171F"/>
<path d="M17.96 35.068C17.3464 35.124 17.195 35.576 17.3136 36.1013C17.4168 36.5573 17.7944 36.6866 18.2032 36.5786C18.6152 36.4693 18.8095 36.152 18.7678 35.716C18.6554 35.3013 18.3778 35.0293 17.96 35.068Z" fill="#10171F"/>
<path d="M63.5761 21.836C64.0849 21.2733 64.5375 20.6507 63.8859 19.6507C62.9615 20.2307 62.7042 20.8906 62.8958 21.6933C62.9203 21.7986 63.4922 21.9293 63.5761 21.836Z" fill="#10171F"/>
<path d="M62.312 74.0439C62.2536 75.1492 62.6328 75.7332 63.4563 75.9505C63.6031 75.9892 64.0219 75.6558 64.0197 75.4985C64.0077 74.5772 63.3729 74.2359 62.312 74.0439Z" fill="#10171F"/>
<path d="M12.8391 25.2799C12.4531 25.2306 11.9984 25.3359 11.9453 25.7919C11.8833 26.3146 12.3229 26.3572 12.7287 26.3466C13.1197 26.2546 13.5401 26.1293 13.5025 25.6533C13.4905 25.5066 13.0833 25.3092 12.8391 25.2799Z" fill="#10171F"/>
<path d="M23.3202 7.37044C23.7301 7.43978 24.0453 7.14645 24.0385 6.73978C24.0311 6.34245 23.727 6.10245 23.3051 6.07178C22.8681 6.15711 22.6489 6.45446 22.7645 6.8558C22.8275 7.07046 23.1051 7.33444 23.3202 7.37044Z" fill="#10171F"/>
<path d="M34.5885 4.13055C34.8932 3.96122 35.0869 3.59189 35.2514 3.40122C35.2546 2.89322 35.0604 2.61189 34.7462 2.80656C34.4536 2.98789 34.2104 3.35454 34.0953 3.69054C33.9901 4.00121 34.279 4.30255 34.5885 4.13055Z" fill="#10171F"/>
<path d="M43.688 45.5105C43.5416 45.6345 43.2463 45.7612 43.1834 45.9625C43.0547 46.3705 43.2599 46.7372 43.7072 46.7572C43.9124 46.7679 44.2515 46.5479 44.3192 46.3572C44.4672 45.9399 44.2006 45.6639 43.688 45.5105Z" fill="#10171F"/>
<path d="M15.3914 53.5239C15.181 53.8226 14.9024 54.0479 14.9176 54.2493C14.9332 54.4586 15.216 54.7839 15.4165 54.8119C15.8655 54.8759 16.1343 54.5546 16.016 54.1159C15.9592 53.9079 15.6576 53.7639 15.3914 53.5239Z" fill="#10171F"/>
<path d="M63.8154 63.8013C63.768 63.9706 63.9774 64.3706 64.1378 64.4106C64.5758 64.5213 64.7993 64.2053 64.9061 63.6706C64.7561 63.5533 64.5373 63.2586 64.3733 63.288C64.154 63.324 63.8748 63.5826 63.8154 63.8013Z" fill="#10171F"/>
<path d="M19.8026 19.544C19.8703 19.744 20.1678 19.8626 20.3135 19.98C20.8345 19.8706 21.0818 19.5933 20.9501 19.188C20.8906 19.0067 20.5511 18.804 20.3402 18.8066C19.9141 18.8106 19.6573 19.1226 19.8026 19.544Z" fill="#10171F"/>
<path d="M14.0943 23.3239C14.0302 23.3065 13.7787 23.6799 13.8069 23.7146C13.9558 23.8946 14.1563 24.0466 14.3673 24.1506C14.4015 24.1679 14.5777 23.8999 14.7605 23.6732C14.5235 23.5386 14.3214 23.3812 14.0943 23.3239Z" fill="#10171F"/>
<path d="M60.9515 51.7667C60.8178 51.804 60.7323 52.02 60.625 52.1534C60.8193 52.2934 61.0031 52.46 61.2187 52.5507C61.263 52.5707 61.4271 52.3067 61.5146 52.1987C61.4797 51.8267 61.2537 51.684 60.9515 51.7667Z" fill="#10171F"/>
<path d="M56.4942 49.1826C56.3514 49.2573 56.2197 49.48 56.2082 49.6453C56.1843 49.9813 56.4191 50.2293 56.7338 50.1227C56.9385 50.052 57.0624 49.7426 57.1844 49.5866C57.0312 49.156 56.7901 49.024 56.4942 49.1826Z" fill="#10171F"/>
<path d="M54.4431 28.3292L54.4327 28.3399C54.4489 28.8639 54.1811 29.5145 54.9827 29.6972C55.1025 29.7252 55.3723 29.5652 55.3994 29.4492C55.5843 28.6692 54.9234 28.5692 54.4431 28.3292Z" fill="#10171F"/>
<path d="M40.2 71.3947C40.2844 71.632 40.4515 71.8387 40.5891 72.0574C40.7348 71.9507 41.014 71.8227 41.0015 71.74C40.9656 71.496 40.8129 71.2694 40.6963 71.0147C40.4656 71.1867 40.1823 71.3454 40.2 71.3947Z" fill="#10171F"/>
<path d="M29.4773 17.9985C29.4451 17.7331 29.2872 17.4812 29.1508 17.1518C28.7727 17.6718 28.5503 17.9212 28.5763 17.9505C28.7451 18.1398 28.9669 18.2811 29.1716 18.4385C29.2809 18.2918 29.494 18.1318 29.4773 17.9985Z" fill="#10171F"/>
<path d="M32.5135 10.0652C32.7198 9.92252 32.9271 9.78119 33.2791 9.53853C32.9121 9.31319 32.7058 9.13452 32.4678 9.07052C32.3807 9.04652 32.0922 9.34121 32.1173 9.42121C32.1881 9.65454 32.373 9.85319 32.5135 10.0652Z" fill="#10171F"/>
<path d="M67.1055 1.1067C66.9779 1.07337 66.717 1.18937 66.6591 1.30804C66.5143 1.60671 66.6675 1.84404 66.9977 1.84004C67.1279 1.8387 67.2561 1.63602 67.3842 1.52536C67.2899 1.37202 67.2247 1.1387 67.1055 1.1067Z" fill="#10171F"/>
<path d="M35.8262 47.9387C35.8226 48.0667 36.071 48.328 36.1235 48.308C36.3341 48.232 36.5126 48.068 36.7017 47.936C36.5991 47.8013 36.4954 47.6653 36.4126 47.5573C36.0549 47.4733 35.8366 47.624 35.8262 47.9387Z" fill="#10171F"/>
<path d="M26.1096 8.33994C26.1299 8.23594 25.9555 8.09327 25.8664 7.96794C25.7429 8.0626 25.5445 8.14126 25.5195 8.25726C25.4976 8.35859 25.6721 8.5026 25.7607 8.62793C25.8851 8.53326 26.0883 8.45327 26.1096 8.33994Z" fill="#10171F"/>
<path d="M51.6385 64.1706C51.5921 64.2986 51.7041 64.4826 51.7462 64.6426C51.9358 64.5292 52.1254 64.4159 52.315 64.3026C52.2249 64.1732 52.1353 64.0426 52.039 63.9026C51.8921 63.9932 51.6822 64.0519 51.6385 64.1706Z" fill="#10171F"/>
<path d="M27.6099 65.4253C27.6072 65.4613 27.8006 65.5626 27.8276 65.5399C27.9458 65.4426 28.0364 65.3119 28.1364 65.1933C27.9974 65.1119 27.8578 65.0293 27.7178 64.948C27.6776 65.1066 27.6224 65.2639 27.6099 65.4253Z" fill="#10171F"/>
<path d="M31.3583 14.3558C31.4203 14.3705 31.5026 14.3118 31.5755 14.2865C31.5708 14.2118 31.5662 14.1358 31.5624 14.0611C31.4479 14.1025 31.3334 14.1438 31.2192 14.1852C31.2646 14.2452 31.3011 14.3398 31.3583 14.3558Z" fill="#10171F"/>
<path d="M38.4507 14.2453C38.4309 14.3706 38.6101 14.5239 38.7038 14.6653C38.8418 14.5719 39.0814 14.4853 39.0913 14.3786C39.1038 14.2453 38.9273 14.0946 38.8325 13.9506C38.6965 14.048 38.4683 14.132 38.4507 14.2453Z" fill="#10171F"/>
<path d="M26.0317 65.568C26.1052 65.5787 26.1968 65.6187 26.2473 65.5867C26.3011 65.5547 26.3156 65.4574 26.3473 65.388C26.2916 65.34 26.2359 65.2907 26.1807 65.2427C26.1312 65.352 26.0812 65.46 26.0317 65.568Z" fill="#10171F"/>
<path d="M15.0418 33.4919C14.9616 33.4545 14.8808 33.4172 14.8007 33.3799C14.7616 33.4626 14.7236 33.5439 14.6846 33.6252C14.7658 33.6612 14.8647 33.7439 14.9231 33.7212C14.983 33.6972 15.0038 33.5732 15.0418 33.4919Z" fill="#10171F"/>
<path d="M43.7915 65.6519C43.8623 65.6479 43.9332 65.6425 44.0046 65.6385C44.029 65.5692 44.0868 65.4865 44.068 65.4318C44.0494 65.3785 43.951 65.3532 43.8879 65.3145C43.8551 65.4279 43.8234 65.5399 43.7915 65.6519Z" fill="#10171F"/>
<path d="M45.7751 63.0278C45.7002 63.1718 45.6241 63.3145 45.5439 63.4691C45.6861 63.5505 45.8283 63.6318 45.9699 63.7131C46.0429 63.5665 46.195 63.4011 46.1653 63.2798C46.1387 63.1705 45.9131 63.1104 45.7751 63.0278Z" fill="#10171F"/>
<path d="M19.8162 6.99451C19.7178 6.87318 19.6203 6.75318 19.5193 6.62918C19.3495 6.76518 19.1474 6.84651 19.1287 6.95985C19.1053 7.09718 19.237 7.25987 19.3011 7.41187C19.4735 7.2732 19.6443 7.13318 19.8162 6.99451Z" fill="#10171F"/>
<path d="M21.2158 69.6545C21.2757 69.7065 21.3345 69.7585 21.394 69.8105C21.4684 69.7745 21.5793 69.7545 21.6065 69.6959C21.633 69.6372 21.5741 69.5412 21.5538 69.4612C21.4408 69.5252 21.3284 69.5892 21.2158 69.6545Z" fill="#10171F"/>
<path d="M53.8174 27.8212C54.0226 27.9945 54.2272 28.1665 54.4324 28.3398L54.4428 28.3292C54.2532 28.1358 54.4532 27.4652 53.8174 27.8212Z" fill="#10171F"/>
<path d="M41.9125 56.5238C42.0015 56.6251 42.1116 56.7078 42.2141 56.7971C42.2605 56.7345 42.3069 56.6705 42.3526 56.6078C42.2501 56.5198 42.1463 56.4305 42.0427 56.3425C41.9974 56.4065 41.9015 56.5118 41.9125 56.5238Z" fill="#10171F"/>
<path d="M36.6387 19.4865C36.9944 19.8612 37.2236 19.2932 37.4226 19.0039C37.3335 18.9145 37.245 18.8252 37.1574 18.7372C36.8751 18.9292 36.2688 19.0972 36.6387 19.4865Z" fill="#10171F"/>
<path d="M19.7654 0.970622C19.7446 0.910622 19.6321 0.882624 19.5586 0.839958C19.5217 0.966624 19.4852 1.0933 19.4482 1.21997C19.5289 1.21597 19.6097 1.21062 19.6909 1.20662C19.7196 1.12662 19.7868 1.03329 19.7654 0.970622Z" fill="#10171F"/>
<path d="M51.7275 50.3225C51.7789 50.2518 51.8305 50.1825 51.8827 50.1105C51.7685 50.0145 51.6545 49.9172 51.5404 49.8225C51.4895 49.8945 51.3827 50.0145 51.3956 50.0278C51.4931 50.1385 51.6133 50.2278 51.7275 50.3225Z" fill="#10171F"/>
<path d="M53.4433 32.1025C53.3121 32.1838 53.2016 32.2998 53.084 32.4025C53.2059 32.4972 53.3277 32.5905 53.4501 32.6865C53.5157 32.5385 53.5939 32.3958 53.634 32.2438C53.6417 32.2132 53.4709 32.0852 53.4433 32.1025Z" fill="#10171F"/>
<path d="M21.4624 4.62003C21.3932 4.58803 21.3104 4.51601 21.2582 4.53334C21.2072 4.55067 21.1885 4.66134 21.1562 4.72934C21.2249 4.76134 21.3077 4.83202 21.3582 4.81469C21.4098 4.79602 21.4296 4.68936 21.4624 4.62003Z" fill="#10171F"/>
<path d="M0.528564 8.51188C0.541498 8.59454 0.5519 8.74655 0.568567 8.74655C0.7119 8.75321 0.856165 8.73188 0.999898 8.71722C0.987365 8.63455 0.9775 8.48255 0.963367 8.48255C0.818567 8.47722 0.673364 8.49854 0.528564 8.51188Z" fill="#10171F"/>
<path d="M16.6782 56.1226L16.8782 56.22L16.873 55.9853L16.6782 56.1226Z" fill="#10171F"/>
<path d="M56.3294 27.5106L56.1904 27.6839L56.4148 27.7146L56.3294 27.5106Z" fill="#10171F"/>
<path d="M32.1466 2.65063C32.1045 2.73597 32.0623 2.82263 32.0195 2.90796C32.0842 2.88796 32.1493 2.86663 32.2138 2.84663C32.1914 2.77996 32.1695 2.71597 32.1466 2.65063Z" fill="#10171F"/>
</svg>
