<svg width="85" height="55" viewBox="0 0 85 55" fill="none" xmlns="http://www.w3.org/2000/svg">
<path d="M43.9399 31.972C45.5453 29.7093 42.6666 26.6626 45.2799 24.4826C45.7546 24.0866 44.6826 23.712 44.2893 23.3373C43.0973 22.2 41.6519 21.2173 41.5746 19.3093C41.3773 14.4666 36.8213 13.9733 33.9093 12.0293C32.7413 11.2506 30.9626 11.2173 29.9919 9.81596C29.6466 9.31863 29.0786 8.63593 28.6079 8.88526C25.5466 10.5119 21.9933 9.12929 18.7066 11.04C16.6946 12.212 14.3453 12.5786 13.1359 14.94C12.9693 15.268 12.2799 15.3693 11.8106 15.4919C10.7679 15.7639 10.0933 16.4706 9.64261 17.3679C8.32394 19.9906 8.19194 23.1079 6.25594 25.4973C6.04527 25.7559 6.15461 26.5533 6.40661 26.8639C8.87194 29.9053 5.65061 34.5679 9.37861 37.2519C9.57728 37.3946 9.43328 38.0066 9.45861 38.3999C9.50128 39.0373 9.7946 39.6866 10.3533 39.8239C12.4373 40.3413 13.2866 41.9413 14.0666 43.6773C14.3559 44.32 14.8746 44.8466 15.6066 44.9519C19.8133 45.5573 23.5533 47.9773 27.8799 48.1013C27.9399 48.5693 27.9413 49.0559 28.0733 49.5026C28.2359 50.0546 28.5026 50.6133 29.2226 50.5506C29.7506 50.5039 30.0559 50.1053 30.1839 49.6306C30.3959 48.8506 30.0439 48.3026 29.2959 48.1146C28.8506 48.004 28.3546 48.0973 27.8813 48.0986C30.4746 46.5093 33.6253 46.4119 36.1173 44.0879C38.1306 42.2119 40.7413 40.7733 41.1613 38.0106C41.5306 35.588 46.3213 35.4173 43.9399 31.972Z" fill="#10171F"/>
<path d="M83.6123 48.7427C81.471 46.4987 78.6536 45.6214 75.7003 45.1401C72.6069 44.6374 69.475 44.4174 66.8856 42.2414C65.859 41.3774 64.3976 41.164 63.679 42.7934C63.0363 44.2507 64.0523 45.0934 65.271 45.4C69.0376 46.3467 71.751 49.0014 74.807 51.0947C76.911 52.536 79.3016 53 81.5816 53.3587C82.9029 53.368 83.9323 53.0201 84.4643 51.9427C85.0843 50.6907 84.4403 49.6107 83.6123 48.7427Z" fill="#10171F"/>
<path d="M47.6886 39.6441C45.3726 39.7988 44.6032 41.7161 44.3579 43.8401C44.6566 45.7508 45.5579 47.1788 47.6579 47.2935C49.3006 47.3828 51.1992 45.0041 50.9499 43.0975C50.7099 41.2481 49.7806 39.5055 47.6886 39.6441Z" fill="#10171F"/>
<path d="M67.2468 35.7773C69.2828 35.492 71.0241 34.8227 70.9961 32.6547C70.9668 30.4333 69.4748 29.4387 67.2494 29.5387C65.3188 29.6267 63.9308 30.496 63.9721 32.4853C64.0121 34.5053 65.4201 35.5373 67.2468 35.7773Z" fill="#10171F"/>
<path d="M79.7403 11.076C79.9043 12.8934 80.6176 14.4987 81.5763 16.0094C81.887 16.4974 82.2456 17.0707 82.9616 16.852C83.715 16.624 83.539 15.932 83.5763 15.3627C83.5536 15.1667 83.5643 14.96 83.5056 14.776C82.2976 10.94 79.7843 7.61467 79.1136 3.55734C79.0336 3.08134 78.487 2.67869 77.9763 3.00935C77.4096 3.37602 77.4923 4.04667 77.6683 4.62667C78.3229 6.78801 79.5336 8.77469 79.7403 11.076Z" fill="#10171F"/>
<path d="M59.7522 27.1799C58.4642 28.8906 56.2109 28.8146 54.9096 30.2813C54.3122 30.9546 54.7696 31.5799 55.5082 31.8626C56.4016 32.2053 57.3136 32.5293 58.2469 32.7279C59.3456 32.9613 63.2522 30.3586 62.8296 29.8053C62.0669 28.8053 60.8962 28.1159 59.7522 27.1799Z" fill="#10171F"/>
<path d="M66.6056 14.4946C67.5536 15.8399 69.2203 16.5706 69.8496 18.1759C70.0469 18.6786 69.2523 19.7853 70.5136 19.5706C71.4403 19.4133 72.2483 18.7226 72.6189 17.8119C72.6549 17.0573 72.0709 16.7519 71.7803 16.2706C70.8816 14.7746 69.1123 14.3346 68.0363 13.0866C67.4883 12.4506 67.1003 11.2359 66.0749 12.0453C64.9323 12.9453 66.0856 13.7533 66.6056 14.4946Z" fill="#10171F"/>
<path d="M61.5406 19.5081C59.8566 19.8508 58.27 20.4895 57.8113 22.3455C57.6366 23.0508 58.4206 23.2081 59.1753 23.1268C60.6526 22.7508 62.0553 22.0414 62.6166 20.4041C62.8899 19.6121 62.1553 19.3828 61.5406 19.5081Z" fill="#10171F"/>
<path d="M57.5895 7.54541C58.4708 5.63074 59.3615 3.7214 60.2228 1.7974C60.4321 1.33073 60.4335 0.770724 59.8681 0.592058C59.5975 0.506724 59.0428 0.71339 58.8895 0.95739C57.6508 2.94272 56.4468 4.95872 56.7961 7.39072C57.0601 7.44272 57.3255 7.49474 57.5895 7.54541Z" fill="#10171F"/>
<path d="M60.258 5.53212C60.6726 6.00945 61.1833 5.80412 61.5633 5.46545C63.1166 4.07878 64.9046 2.91478 66.046 1.13212C65.85 0.905449 65.6553 0.677435 65.4593 0.450768C63.8046 1.61877 62.1233 2.75346 60.51 3.97746C60.0566 4.32146 59.7606 4.95878 60.258 5.53212Z" fill="#10171F"/>
<path d="M56.2095 4.66805C56.4229 4.25338 56.3535 3.59205 55.7575 3.46405C54.8522 3.26805 53.9215 2.89603 53.5122 4.41737C53.2695 5.32537 53.8375 6.42803 52.8949 7.15203C52.7895 7.2587 52.6909 7.3707 52.5962 7.48804C52.7975 8.05737 53.2269 8.85206 53.7455 8.48273C55.0175 7.57606 55.5095 6.02005 56.2095 4.66805Z" fill="#10171F"/>
<path d="M44.0458 11.1535C45.0912 10.6921 45.6831 9.76679 45.7191 8.49213C45.7378 7.79213 45.5911 6.88681 44.6858 7.14414C43.3125 7.53614 42.8898 8.82279 42.7698 10.1188C42.7098 10.7708 43.1272 11.1988 44.0458 11.1535Z" fill="#10171F"/>
<path d="M46.5202 20.2054C47.5736 20.1334 47.8589 19.1987 48.0362 18.2934C48.0149 17.4627 47.9016 16.5907 46.8709 16.568C45.5589 16.5387 45.3522 17.6387 45.2349 18.6227C45.1296 19.516 45.5549 20.272 46.5202 20.2054Z" fill="#10171F"/>
<path d="M45.4364 26.0667C45.0524 26.448 45.5417 27.1667 46.1177 27.448C46.919 27.8387 47.499 27.412 47.7244 26.72C48.155 25.3973 48.443 24.0267 48.9004 22.2453C46.9417 23.2373 46.539 24.972 45.4364 26.0667Z" fill="#10171F"/>
<path d="M48.2359 14.6386C49.1239 14.584 49.5506 13.8906 49.6973 12.9173C49.5293 12.2093 49.2346 11.436 48.2506 11.5093C47.3693 11.5746 46.8386 12.192 46.8493 13.1013C46.8599 13.98 47.2773 14.696 48.2359 14.6386Z" fill="#10171F"/>
<path d="M15.8306 54.656C17.7799 53.416 18.9386 52.3134 19.0132 50.3774C17.7866 51.444 16.2652 52.2893 15.8306 54.656Z" fill="#10171F"/>
<path d="M52.8923 6.0027C52.867 5.34003 52.9856 4.59737 52.387 4.14003C52.071 3.8987 51.6603 4.08137 51.4056 4.4387C50.935 5.10137 50.763 5.82271 51.007 6.61204C51.2536 7.40937 51.859 7.57335 52.5963 7.48802C52.691 7.37068 52.7897 7.25868 52.895 7.15335C52.8937 6.77068 52.9056 6.3867 52.8923 6.0027Z" fill="#10171F"/>
<path d="M0.913574 21.3426C2.59491 21.4519 3.5669 20.8653 4.83623 19.5706C3.00023 19.6146 1.83491 19.7759 0.913574 21.3426Z" fill="#10171F"/>
<path d="M63.1722 8.47752C63.2696 8.02819 62.9322 7.81885 62.4509 7.80819C61.7149 8.05352 61.1256 8.51886 60.9776 9.34819C60.8776 9.90819 61.1429 10.3322 61.7736 10.1455C62.5722 9.90952 63.0056 9.25352 63.1722 8.47752Z" fill="#10171F"/>
<path d="M45.3286 36.8921C46.3393 36.8268 47.1766 36.6334 47.5993 35.5454C46.0259 35.5388 46.0259 35.5388 45.3286 36.8921Z" fill="#10171F"/>
<path d="M46.9507 29.6054C46.492 29.6507 46.2453 29.9307 46.2333 30.3627C46.2213 30.8014 46.4587 31.1201 46.9254 31.1081C47.476 31.0921 47.868 30.8001 47.8 30.2107C47.7493 29.7774 47.3707 29.6161 46.9507 29.6054Z" fill="#10171F"/>
<path d="M2.99463 26.6053C3.03196 27.8026 3.56929 28.3213 5.13595 28.564C4.53329 27.348 4.2453 26.528 2.99463 26.6053Z" fill="#10171F"/>
<path d="M72.9685 9.4108C73.7285 9.40014 74.1179 8.86946 74.3952 8.23746C74.4045 7.78146 74.1779 7.50012 73.7325 7.58945C73.1525 7.70545 72.6992 8.07346 72.4885 8.63479C72.3392 9.03479 72.4685 9.41747 72.9685 9.4108Z" fill="#10171F"/>
<path d="M68.7468 4.86414C67.5482 4.55214 66.9868 5.12283 66.2295 6.24816C67.7948 6.60016 68.3215 5.95614 68.7468 4.86414Z" fill="#10171F"/>
<path d="M43.8393 37.124C43.4073 37.028 43.1619 37.2814 43.0659 37.692C43.0646 38.1134 43.2673 38.4307 43.6859 38.4107C43.8979 38.4001 44.1886 38.1574 44.2819 37.9481C44.4553 37.5561 44.2646 37.2174 43.8393 37.124Z" fill="#10171F"/>
<path d="M48.9641 6.63477C49.2161 6.19743 49.5148 5.89209 49.5588 5.55475C49.6281 5.03209 49.2121 4.84542 48.8268 5.11875C48.5575 5.30942 48.3988 5.72143 48.3095 6.06543C48.2828 6.16676 48.6521 6.37343 48.9641 6.63477Z" fill="#10171F"/>
<path d="M71.3123 11.8813C71.7936 11.7307 72.0776 11.476 71.9576 11.068C71.9069 10.8933 71.5603 10.692 71.3576 10.7C70.9483 10.7187 70.6723 11.0173 70.8069 11.4413C70.8696 11.636 71.1629 11.7587 71.3123 11.8813Z" fill="#10171F"/>
<path d="M39.4547 2.94132C39.4614 2.75732 39.1334 2.42666 38.9321 2.41066C38.7441 2.39332 38.5281 2.70533 38.2334 2.94799C38.5334 3.19999 38.7574 3.52398 38.9374 3.50131C39.1441 3.47731 39.4481 3.14799 39.4547 2.94132Z" fill="#10171F"/>
<path d="M7.86274 45.1415C7.45874 45.0521 7.11339 45.2761 7.13473 45.7148C7.14406 45.9161 7.39473 46.2295 7.5894 46.2761C7.99073 46.3721 8.27607 46.1334 8.3614 45.5894C8.22807 45.4614 8.06941 45.1895 7.86274 45.1415Z" fill="#10171F"/>
<path d="M34.1055 7.77482C34.3642 7.76149 34.6148 7.63215 34.9335 7.53081C34.3988 7.08815 34.2655 6.97748 34.1322 6.86681C33.9922 7.06281 33.8202 7.24815 33.7335 7.46548C33.7135 7.51748 33.9802 7.78016 34.1055 7.77482Z" fill="#10171F"/>
<path d="M51.2833 18.4681C51.1033 18.6254 50.9033 18.7708 50.758 18.9561C50.7353 18.9868 50.9553 19.2054 51.1353 19.4268C51.31 19.2201 51.5006 19.0534 51.594 18.8454C51.6246 18.7788 51.3953 18.5974 51.2833 18.4681Z" fill="#10171F"/>
<path d="M25.271 2.088C25.5057 2.04134 25.847 1.93601 25.907 1.76668C25.9683 1.59468 25.7443 1.32134 25.575 0.92801C25.3043 1.25468 25.0897 1.428 25.0057 1.65067C24.967 1.756 25.207 2.10134 25.271 2.088Z" fill="#10171F"/>
<path d="M31.3307 50.2334C31.3147 50.3841 31.4774 50.6934 31.5454 50.6894C31.7707 50.6774 32.1387 50.5974 32.1774 50.4641C32.2334 50.2721 32.048 50.0094 31.74 49.1348C31.4987 49.7561 31.3587 49.9894 31.3307 50.2334Z" fill="#10171F"/>
<path d="M50.8926 16.5681C50.8433 16.7108 50.9126 16.9895 51.0259 17.0748C51.3139 17.2895 51.5566 17.1321 51.7206 16.8455C51.6753 16.6721 51.6846 16.4215 51.5713 16.3415C51.2926 16.1428 51.0019 16.2495 50.8926 16.5681Z" fill="#10171F"/>
<path d="M54.6386 12.5879C54.464 12.8759 54.5613 13.164 54.9213 13.2066C55.0533 13.2226 55.212 13.0186 55.3573 12.916C55.28 12.744 55.2453 12.4946 55.1253 12.444C55 12.3893 54.708 12.4733 54.6386 12.5879Z" fill="#10171F"/>
<path d="M62.8313 16.1879C62.8633 16.2959 63.0886 16.3466 63.2286 16.4226C63.3046 16.2799 63.4646 16.1133 63.4313 16.0026C63.3993 15.8906 63.1753 15.8359 63.0339 15.7559C62.9539 15.9093 62.7979 16.0773 62.8313 16.1879Z" fill="#10171F"/>
<path d="M78.739 16.9414C78.9457 16.8281 79.1537 16.7161 79.3603 16.6041C79.255 16.4761 79.1497 16.3494 79.0377 16.2134C78.8843 16.2934 78.655 16.3414 78.599 16.4667C78.5483 16.5814 78.6843 16.7787 78.739 16.9414Z" fill="#10171F"/>
<path d="M54.9297 25.9015C54.8363 25.8281 54.611 25.9241 54.4443 25.9441C54.5083 26.1695 54.5737 26.3948 54.6377 26.6201C54.7857 26.5441 54.9337 26.4681 55.091 26.3868C55.0417 26.2188 55.0417 25.9881 54.9297 25.9015Z" fill="#10171F"/>
<path d="M48.3579 8.40951C48.4632 8.45884 48.5672 8.50682 48.6726 8.55615C48.6806 8.48415 48.7192 8.39618 48.6899 8.34818C48.6579 8.29618 48.5632 8.28018 48.4979 8.24951C48.4499 8.30285 48.4046 8.35617 48.3579 8.40951Z" fill="#10171F"/>
<path d="M38.3228 12.7762C38.4734 12.8482 38.6228 12.9188 38.7721 12.9895C38.8308 12.8348 38.9641 12.6575 38.9268 12.5335C38.8948 12.4308 38.6601 12.3908 38.5147 12.3228C38.4507 12.4735 38.3868 12.6242 38.3228 12.7762Z" fill="#10171F"/>
<path d="M43.3349 16.9068C43.3895 16.8881 43.4096 16.7708 43.4442 16.6961C43.3696 16.6614 43.2816 16.5854 43.2269 16.6054C43.1722 16.6241 43.1509 16.7401 43.1162 16.8134C43.1895 16.8494 43.2789 16.9254 43.3349 16.9068Z" fill="#10171F"/>
<path d="M64.0739 18.38C64.0206 18.356 63.9312 18.408 63.8579 18.4266C63.9179 18.5306 63.9779 18.636 64.0366 18.74C64.0846 18.6853 64.1326 18.6307 64.1806 18.5747C64.1459 18.5067 64.1286 18.4053 64.0739 18.38Z" fill="#10171F"/>
<path d="M6.92419 19.1307C6.77085 19.1094 6.61884 19.0828 6.46551 19.0788C6.45351 19.0774 6.43618 19.2374 6.42285 19.3227C6.57485 19.3441 6.72686 19.3667 6.87886 19.3894C6.89486 19.3027 6.90952 19.2174 6.92419 19.1307Z" fill="#10171F"/>
<path d="M52.4564 20.192C52.5364 20.3267 52.6551 20.4374 52.7604 20.5574C52.8618 20.4267 52.9631 20.2947 53.0631 20.1627C52.9111 20.1 52.7618 20.0227 52.6031 19.988C52.5671 19.98 52.4378 20.16 52.4564 20.192Z" fill="#10171F"/>
<path d="M55.8576 21.1068C55.7443 21.1508 55.7016 21.3775 55.6216 21.5308C55.7496 21.6362 55.8896 21.8322 55.9909 21.8148C56.1203 21.7922 56.2976 21.6055 56.3149 21.4722C56.3522 21.1682 56.1576 20.9895 55.8576 21.1068Z" fill="#10171F"/>
<path d="M57.3765 27.0413C57.4365 27.056 57.5139 26.9987 57.5832 26.972C57.5805 26.9 57.5806 26.8293 57.5806 26.7573C57.4699 26.7973 57.3592 26.8373 57.2485 26.8773C57.2899 26.9347 57.3232 27.028 57.3765 27.0413Z" fill="#10171F"/>
<path d="M75.2576 4.00017C75.3216 3.9615 75.339 3.84817 75.375 3.76817C75.3123 3.71083 75.251 3.65483 75.1883 3.59883C75.1283 3.72416 75.0683 3.84951 75.0083 3.97484C75.0936 3.98684 75.2003 4.0335 75.2576 4.00017Z" fill="#10171F"/>
<path d="M55.9614 46.3067C56.0721 46.4014 56.1841 46.4974 56.2961 46.592C56.3441 46.524 56.4467 46.408 56.4334 46.3934C56.3374 46.284 56.2201 46.1947 56.1081 46.1014C56.0601 46.1694 56.0108 46.2374 55.9614 46.3067Z" fill="#10171F"/>
<path d="M9.45752 41.9868L9.64285 41.8935L9.46152 41.7935L9.45752 41.9868Z" fill="#10171F"/>
<path d="M67.999 28.2719L68.179 28.3853L68.195 28.1879L67.999 28.2719Z" fill="#10171F"/>
</svg>
