<svg width="20" height="20" viewBox="0 0 20 20" fill="none" xmlns="http://www.w3.org/2000/svg">
<g clip-path="url(#clip0_444_881)">
<path d="M10.5704 1.32814C9.1287 1.32576 7.71267 1.70967 6.46958 2.43994C5.22649 3.1702 4.20173 4.22016 3.50187 5.48062C2.80109 6.74116 2.45014 8.16616 2.48538 9.60797C2.52061 11.0498 2.94076 12.4559 3.70229 13.6807L1.32812 18.6719L6.31388 16.2946C7.91776 17.2932 9.82083 17.6983 11.6924 17.4395C13.5639 17.1807 15.2856 16.2743 16.5583 14.8778C17.6156 13.7177 18.3129 12.2752 18.5653 10.726C18.8177 9.17669 18.6143 7.58746 17.9798 6.15172C17.3453 4.71597 16.3072 3.49563 14.9917 2.63923C13.6762 1.78284 12.1401 1.32732 10.5704 1.32814Z" stroke="#27272A" stroke-width="1.5" stroke-linecap="round" stroke-linejoin="round"/>
<path d="M12.3125 12.8906H11.7344C11.4277 12.8906 11.1336 12.7688 10.9168 12.552C10.6999 12.3351 10.5781 12.041 10.5781 11.7344V8.84375C10.5781 8.69042 10.5172 8.54337 10.4088 8.43495C10.3004 8.32653 10.1533 8.26562 10 8.26562H9.42188" stroke="#27272A" stroke-width="1.5" stroke-linecap="round" stroke-linejoin="round"/>
<path d="M10.2891 5.95312C10.2124 5.95312 10.1389 5.92267 10.0847 5.86846C10.0305 5.81425 10 5.74073 10 5.66406C10 5.5874 10.0305 5.51387 10.0847 5.45966C10.1389 5.40545 10.2124 5.375 10.2891 5.375" stroke="#27272A" stroke-width="1.5"/>
<path d="M10.2891 5.95312C10.3657 5.95312 10.4393 5.92267 10.4935 5.86846C10.5477 5.81425 10.5781 5.74073 10.5781 5.66406C10.5781 5.5874 10.5477 5.51387 10.4935 5.45966C10.4393 5.40545 10.3657 5.375 10.2891 5.375" stroke="#27272A" stroke-width="1.5"/>
</g>
<defs>
<clipPath id="clip0_444_881">
<rect width="20" height="20" fill="white"/>
</clipPath>
</defs>
</svg>
