<svg width="20" height="20" viewBox="0 0 20 20" fill="none" xmlns="http://www.w3.org/2000/svg">
<path d="M10.5239 2.03541C9.19975 2.03323 7.89922 2.38583 6.75751 3.05653C5.61581 3.72724 4.67463 4.69155 4.03186 5.84921C3.38823 7.00694 3.0659 8.31572 3.09826 9.63994C3.13063 10.9642 3.51651 12.2556 4.21593 13.3805L2.0354 17.9646L6.61451 15.7812C8.08758 16.6984 9.83543 17.0704 11.5543 16.8327C13.2732 16.595 14.8545 15.7625 16.0233 14.48C16.9945 13.4145 17.6349 12.0896 17.8667 10.6667C18.0985 9.24383 17.9117 7.78422 17.329 6.46558C16.7462 5.14693 15.7927 4.02612 14.5845 3.23957C13.3763 2.45303 11.9656 2.03466 10.5239 2.03541Z" stroke="#27272A" stroke-width="1.5" stroke-linecap="round" stroke-linejoin="round"/>
<path d="M12.3125 12.8906H11.7344C11.4277 12.8906 11.1336 12.7688 10.9168 12.552C10.6999 12.3351 10.5781 12.041 10.5781 11.7344V8.84375C10.5781 8.69042 10.5172 8.54337 10.4088 8.43495C10.3004 8.32653 10.1533 8.26562 10 8.26562H9.42188" stroke="#27272A" stroke-width="1.5" stroke-linecap="round" stroke-linejoin="round"/>
<path d="M10.2891 5.95312C10.2124 5.95312 10.1389 5.92267 10.0847 5.86846C10.0305 5.81425 10 5.74073 10 5.66406C10 5.5874 10.0305 5.51387 10.0847 5.45966C10.1389 5.40545 10.2124 5.375 10.2891 5.375" stroke="#27272A" stroke-width="1.5"/>
<path d="M10.2891 5.95312C10.3657 5.95312 10.4393 5.92267 10.4935 5.86846C10.5477 5.81425 10.5781 5.74073 10.5781 5.66406C10.5781 5.5874 10.5477 5.51387 10.4935 5.45966C10.4393 5.40545 10.3657 5.375 10.2891 5.375" stroke="#27272A" stroke-width="1.5"/>
</svg>
