<svg width="32" height="33" viewBox="0 0 32 33" fill="none" xmlns="http://www.w3.org/2000/svg">
<g clip-path="url(#clip0_11_1244)">
<path d="M23.7938 13.9654L7.80881 13.9653C7.19107 13.9651 6.59244 14.2865 6.11516 14.8748C5.63787 15.463 5.31155 16.2816 5.19191 17.1907L4.2729 26.8711C4.1966 27.4509 4.20689 28.0488 4.30302 28.6219C4.39916 29.195 4.57875 29.729 4.82889 30.1855C5.07903 30.642 5.3935 31.0098 5.74969 31.2623C6.10588 31.5148 6.49494 31.6458 6.8889 31.6458L10.4297 31.6199L25.1112 30.1876C25.5051 30.1876 25.8942 30.0566 26.2504 29.8041C26.6066 29.5516 26.921 29.1838 27.1712 28.7273C27.4213 28.2708 27.6009 27.7368 27.697 27.1637C27.7932 26.5906 27.2475 25.4031 27.1712 24.8234" stroke="black" stroke-width="1.5" stroke-linecap="round" stroke-linejoin="round"/>
<path d="M7.06116 13.9652C7.06116 13.9652 7.49135 9.29766 7.95005 6.66052C8.61468 2.83935 12.735 1.88124 15.6424 1.96526C16.3166 1.98474 17.1218 2.04521 17.9552 2.18408M20.0823 13.9652C20.0823 13.9652 19.638 10.2966 19.2599 7.85412C18.8774 5.38316 17.9983 3.12882 15.6424 2.5714M10.9602 13.9652C10.9602 13.9652 11.3271 9.37756 11.8491 6.66052C12.2815 4.4092 13.7379 3.01796 15.6424 2.5714M23.4656 13.9652C23.4656 13.9652 23.1542 10.2966 22.6432 7.85412C22.0548 5.0419 20.5711 2.61992 17.9552 2.18408M17.9552 2.18408C17.1133 2.27944 16.3412 2.40753 15.6424 2.5714" stroke="black" stroke-width="1.5" stroke-linecap="round" stroke-linejoin="round"/>
<path d="M22.3798 13.9652C22.4832 13.9652 22.5831 13.9652 22.6796 13.9652C24.3441 13.9652 25.8338 14.996 26.4215 16.5533L28.1324 21.0874C28.8477 22.9829 27.5172 25.0278 25.4944 25.1418L17.6942 25.5813C15.8217 25.6868 14.1273 24.4771 13.6189 22.6718L11.8525 16.3988C11.5086 15.1773 9.93585 13.9652 8.66687 13.9652V13.9652" stroke="black" stroke-width="1.5" stroke-linecap="round" stroke-linejoin="round"/>
<path d="M11.0168 22.1989L12.1684 26.7918C12.7066 28.9382 11.3929 31.112 9.24239 31.6335V31.6335" stroke="black" stroke-width="1.5" stroke-linecap="round" stroke-linejoin="round"/>
</g>
<defs>
<clipPath id="clip0_11_1244">
<rect width="32" height="32" fill="white" transform="translate(0 0.6875)"/>
</clipPath>
</defs>
</svg>
