<svg width="36" height="37" viewBox="0 0 36 37" fill="none" xmlns="http://www.w3.org/2000/svg">
<g clip-path="url(#clip0_11_1244)">
<path d="M26.7681 15.625L8.78494 15.625C8.08999 15.6247 7.41653 15.9864 6.87958 16.6481C6.34264 17.3099 5.97552 18.2308 5.84093 19.2535L4.80704 30.144C4.72121 30.7962 4.73278 31.4689 4.84093 32.1136C4.94908 32.7583 5.15113 33.3591 5.43253 33.8727C5.71394 34.3863 6.06771 34.8 6.46843 35.0841C6.86914 35.3681 7.30684 35.5155 7.75005 35.5155L11.7335 35.4864L28.2501 33.875C28.6933 33.875 29.131 33.7277 29.5317 33.4436C29.9324 33.1595 30.2862 32.7458 30.5676 32.2322C30.849 31.7186 31.051 31.1178 31.1592 30.4731C31.2673 29.8284 30.6534 28.4925 30.5676 27.8403" stroke="black" stroke-width="1.5" stroke-linecap="round" stroke-linejoin="round"/>
<path d="M7.94385 15.625V7.75003C7.94385 2.93814 14.3269 2.03054 17.5977 2.12506C18.3563 2.14698 19.2621 2.21501 20.1997 2.37123M22.5926 15.625C22.5926 15.625 22.5926 9.28439 22.5926 7.75003C22.5926 4.71351 20.2482 3.43407 17.5977 2.80697M12.3303 15.625V7.75003C12.3303 5.16101 14.19 3.606 17.5977 2.80697M26.3988 15.625V7.75003C26.3988 4.22069 23.1425 2.86156 20.1997 2.37123M20.1997 2.37123C19.2525 2.47851 18.3839 2.62262 17.5977 2.80697" stroke="black" stroke-width="1.5" stroke-linecap="round" stroke-linejoin="round"/>
<path d="M25.1773 15.625C25.4222 15.625 25.6498 15.625 25.8612 15.625C27.5258 15.625 29.0145 16.6558 29.6021 18.2131L31.8294 24.1155C32.5447 26.011 31.2141 28.0559 29.1913 28.1699L19.5054 28.7156C17.6328 28.8211 15.9384 27.6115 15.4301 25.8062L13.3341 18.3628C12.9471 16.9886 11.1778 15.625 9.75024 15.625V15.625" stroke="black" stroke-width="1.5" stroke-linecap="round" stroke-linejoin="round"/>
<path d="M12.3939 24.8878L13.6895 30.0547C14.295 32.4694 12.8171 34.915 10.3978 35.5017V35.5017" stroke="black" stroke-width="1.5" stroke-linecap="round" stroke-linejoin="round"/>
</g>
<defs>
<clipPath id="clip0_11_1244">
<rect width="36" height="36" fill="white" transform="translate(0 0.6875)"/>
</clipPath>
</defs>
</svg>
