<svg width="36" height="37" viewBox="0 0 36 37" fill="none" xmlns="http://www.w3.org/2000/svg">
<path d="M2.625 8.5625H28.875C29.2728 8.5625 29.6544 8.72054 29.9357 9.00184C30.217 9.28314 30.375 9.66468 30.375 10.0625V25.8125C30.375 26.6081 30.0589 27.3712 29.4963 27.9338C28.9337 28.4964 28.1706 28.8125 27.375 28.8125H4.125C3.32935 28.8125 2.56629 28.4964 2.00368 27.9338C1.44107 27.3712 1.125 26.6081 1.125 25.8125V10.0625C1.125 9.66468 1.28304 9.28314 1.56434 9.00184C1.84564 8.72054 2.22718 8.5625 2.625 8.5625Z" stroke="black" stroke-width="1.5" stroke-linecap="round" stroke-linejoin="round"/>
<path d="M34.875 24.3125L30.375 13.0625" stroke="black" stroke-width="1.5" stroke-linecap="round" stroke-linejoin="round"/>
<path d="M19.125 14.1875V8.5625H12.375V14.1875C11.4305 14.8959 10.7329 15.8834 10.3809 17.0103C10.0288 18.1372 10.0403 19.3463 10.4137 20.4663C10.787 21.5863 11.5033 22.5604 12.461 23.2507C13.4187 23.941 14.5694 24.3125 15.75 24.3125C16.9306 24.3125 18.0813 23.941 19.039 23.2507C19.9967 22.5604 20.713 21.5863 21.0863 20.4663C21.4597 19.3463 21.4712 18.1372 21.1191 17.0103C20.7671 15.8834 20.0695 14.8959 19.125 14.1875Z" stroke="black" stroke-width="1.5" stroke-linecap="round" stroke-linejoin="round"/>
<path d="M15.75 19.25C15.6008 19.25 15.4577 19.1907 15.3523 19.0852C15.2468 18.9798 15.1875 18.8367 15.1875 18.6875C15.1875 18.5383 15.2468 18.3952 15.3523 18.2898C15.4577 18.1843 15.6008 18.125 15.75 18.125" stroke="black" stroke-width="1.5"/>
<path d="M15.75 19.25C15.8992 19.25 16.0423 19.1907 16.1477 19.0852C16.2532 18.9798 16.3125 18.8367 16.3125 18.6875C16.3125 18.5383 16.2532 18.3952 16.1477 18.2898C16.0423 18.1843 15.8992 18.125 15.75 18.125" stroke="black" stroke-width="1.5"/>
<path d="M1.125 19.8125H10.2375" stroke="black" stroke-width="1.5" stroke-linecap="round" stroke-linejoin="round"/>
<path d="M30.375 19.8125H21.2625" stroke="black" stroke-width="1.5" stroke-linecap="round" stroke-linejoin="round"/>
</svg>
