<svg width="20" height="20" viewBox="0 0 20 20" fill="none" xmlns="http://www.w3.org/2000/svg">
<path d="M12.0571 13.4156L10.5417 11.9129C9.84529 11.2223 9.49703 10.8769 9.09609 10.7474C8.74341 10.6334 8.36382 10.6334 8.01108 10.7474C7.61016 10.8769 7.26191 11.2223 6.56543 11.9129L3.037 15.4666M12.0571 13.4156L12.3582 13.1169C13.0694 12.4117 13.4249 12.0591 13.8329 11.9304C14.1917 11.8172 14.5772 11.8216 14.9333 11.9431C15.3381 12.0811 15.6855 12.4418 16.3802 13.1631L17.1176 13.9119M12.0571 13.4156L15.5471 16.9672M3.037 15.4666C3.06409 15.6964 3.11103 15.8769 3.19234 16.0365C3.36153 16.3685 3.6315 16.6385 3.96355 16.8076C4.34104 17 4.8352 17 5.82353 17H14.2941C14.8423 17 15.2385 17 15.5471 16.9672M3.037 15.4666C3 15.1529 3 14.747 3 14.1765V5.70588C3 4.71756 3 4.22339 3.19234 3.8459C3.36153 3.51384 3.6315 3.24388 3.96355 3.0747C4.34104 2.88235 4.8352 2.88235 5.82353 2.88235H9.17647M15.5471 16.9672C15.7947 16.9408 15.986 16.8933 16.1541 16.8076C16.4861 16.6385 16.7561 16.3685 16.9253 16.0365C17.1176 15.659 17.1176 15.1648 17.1176 14.1765V10.8235M15.3529 7.29412V4.64706M15.3529 4.64706V2M15.3529 4.64706H18M15.3529 4.64706H12.7059" stroke="#27272A" stroke-width="1.5" stroke-linecap="round" stroke-linejoin="round"/>
</svg>
