<svg width="36" height="37" viewBox="0 0 36 37" fill="none" xmlns="http://www.w3.org/2000/svg">
<path d="M12.8128 24.5192L12.9599 30.342" stroke="black" stroke-width="1.5" stroke-linecap="round" stroke-linejoin="round"/>
<path d="M20.2839 21.4762L23.5334 29.5163" stroke="black" stroke-width="1.5" stroke-linecap="round" stroke-linejoin="round"/>
<path d="M4.56555 32.8358H3.81555C3.81555 33.1312 3.98898 33.3991 4.25852 33.5201L4.56555 32.8358ZM17.89 28.9108L17.913 28.1612C17.8977 28.1607 17.8824 28.1607 17.8672 28.1612L17.89 28.9108ZM30.751 28.9108L31.0579 29.5951C31.0658 29.5916 31.0737 29.5879 31.0814 29.5841L30.751 28.9108ZM31.186 26.9094L30.5531 27.3119C30.559 27.3212 30.5651 27.3303 30.5714 27.3394L31.186 26.9094ZM25.6048 7.66837L24.859 7.74738L24.859 7.74738L25.6048 7.66837ZM10.8868 3.57076L10.1371 3.59339L10.8868 3.57076ZM10.6785 3.37077L10.6785 2.62077L10.6785 3.37077ZM19.315 3.37241L18.5653 3.35154L19.315 3.37241ZM4.43551 4.32304C4.26377 11.3922 3.81555 26.6464 3.81555 32.8358H5.31555C5.31555 26.6707 5.76273 11.4534 5.93506 4.35947L4.43551 4.32304ZM4.25852 33.5201C7.0957 34.7931 9.40811 33.6551 11.4799 32.406C13.6237 31.1135 15.5137 29.7335 17.9128 29.6605L17.8672 28.1612C14.9737 28.2493 12.6677 29.9384 10.7055 31.1214C8.6713 32.3478 6.96775 33.0916 4.87259 32.1515L4.25852 33.5201ZM17.867 29.6605C20.4752 29.7406 22.2863 30.271 24.3571 30.5449C26.3977 30.8148 28.4365 30.771 31.0579 29.5951L30.444 28.2265C28.1335 29.2629 26.3877 29.3004 24.5538 29.0578C22.7501 28.8193 20.5966 28.2436 17.913 28.1612L17.867 29.6605ZM31.0814 29.5841C31.3555 29.4496 31.5884 29.2491 31.7678 29.0072L30.563 28.1136C30.5169 28.1758 30.4662 28.2152 30.4206 28.2375L31.0814 29.5841ZM31.7678 29.0072C31.947 28.7655 32.0702 28.4865 32.1338 28.1938L30.668 27.8752C30.6474 27.9702 30.6093 28.0512 30.563 28.1136L31.7678 29.0072ZM32.1338 28.1938C32.1974 27.901 32.2012 27.5965 32.145 27.3022L30.6716 27.5837C30.69 27.6798 30.6887 27.7802 30.668 27.8752L32.1338 28.1938ZM32.145 27.3022C32.0888 27.008 31.9729 26.7259 31.8006 26.4795L30.5714 27.3394C30.6169 27.4044 30.6532 27.4875 30.6716 27.5837L32.145 27.3022ZM31.8189 26.507C30.3536 24.203 29.137 20.9395 28.2082 17.4888C27.2824 14.049 26.6565 10.4765 26.3507 7.58935L24.859 7.74738C25.1728 10.7089 25.8125 14.3591 26.7598 17.8787C27.7042 21.3874 28.9684 24.8201 30.5531 27.3119L31.8189 26.507ZM14.9918 6.58019C13.5904 6.58019 12.8057 6.17677 12.3537 5.67827C11.8861 5.16261 11.6628 4.4232 11.6364 3.54814L10.1371 3.59339C10.1696 4.66927 10.4478 5.80957 11.2425 6.68589C12.0527 7.57937 13.2911 8.08019 14.9918 8.08019V6.58019ZM10.6785 2.62077C6.97926 2.62077 6.57063 2.62077 6.18547 2.62078L6.18554 4.12078C6.57065 4.12077 6.97922 4.12077 10.6785 4.12077L10.6785 2.62077ZM18.5653 3.35154C18.5377 4.34018 18.2816 5.12342 17.777 5.65767C17.2833 6.18049 16.4419 6.58019 14.9918 6.58019V8.08019C16.7198 8.08019 18.0095 7.59612 18.8676 6.68761C19.7148 5.79053 20.0312 4.59488 20.0647 3.39328L18.5653 3.35154ZM19.5112 3.92355C21.8067 3.95198 23.0544 4.48546 23.7579 5.14266C24.4595 5.79807 24.7475 6.69476 24.859 7.74738L26.3507 7.58935C26.2224 6.37897 25.8645 5.05796 24.7819 4.04657C23.7012 3.03698 22.0267 2.45459 19.5298 2.42367L19.5112 3.92355ZM11.6364 3.54814C11.6206 3.02278 11.1846 2.62077 10.6785 2.62077L10.6785 4.12077C10.3934 4.12077 10.1463 3.89794 10.1371 3.59339L11.6364 3.54814ZM20.0647 3.39328C20.0565 3.68555 19.8172 3.92734 19.5112 3.92355L19.5298 2.42367C19.0028 2.41714 18.5795 2.83844 18.5653 3.35154L20.0647 3.39328ZM5.93506 4.35947C5.93823 4.22904 6.04355 4.12079 6.18554 4.12078L6.18547 2.62078C5.24082 2.62083 4.45873 3.36715 4.43551 4.32304L5.93506 4.35947Z" fill="black"/>
</svg>
