<svg width="32" height="33" viewBox="0 0 32 33" fill="none" xmlns="http://www.w3.org/2000/svg">
<path d="M11.3891 21.8712L11.5199 27.0471" stroke="black" stroke-width="1.5" stroke-linecap="round" stroke-linejoin="round"/>
<path d="M18.0302 19.1664L20.9186 26.3132" stroke="black" stroke-width="1.5" stroke-linecap="round" stroke-linejoin="round"/>
<path d="M4.05823 29.2637H3.30823C3.30823 29.5592 3.48166 29.8271 3.75119 29.948L4.05823 29.2637ZM15.9022 25.7749L15.9252 25.0252C15.9099 25.0247 15.8946 25.0247 15.8793 25.0252L15.9022 25.7749ZM27.3342 25.7749L27.6411 26.4592C27.649 26.4556 27.6568 26.452 27.6646 26.4482L27.3342 25.7749ZM27.7208 23.9959L27.088 24.3984C27.0939 24.4076 27.1 24.4168 27.1063 24.4258L27.7208 23.9959ZM22.7598 6.89269L22.014 6.9717L22.014 6.9717L22.7598 6.89269ZM17.1682 3.09628L16.4185 3.0727L17.1682 3.09628ZM17.3737 2.89764L17.3633 3.64757L17.3737 2.89764ZM3.85667 4.02607C3.70214 10.3548 3.30823 23.7921 3.30823 29.2637H4.80823C4.80823 23.8165 5.2011 10.4156 5.35622 4.06269L3.85667 4.02607ZM3.75119 29.948C6.31436 31.0981 8.40366 30.0646 10.2474 28.9531C12.163 27.7981 13.82 26.5886 15.925 26.5245L15.8793 25.0252C13.2799 25.1044 11.207 26.623 9.47291 27.6685C7.66685 28.7573 6.1864 29.3966 4.36526 28.5795L3.75119 29.948ZM15.8791 26.5245C18.1934 26.5956 19.7842 27.0646 21.6398 27.31C23.4652 27.5514 25.2937 27.5121 27.6411 26.4592L27.0272 25.0906C24.9907 26.004 23.4552 26.037 21.8365 25.8229C20.248 25.6129 18.3148 25.0986 15.9252 25.0252L15.8791 26.5245ZM27.6646 26.4482C27.9209 26.3224 28.1381 26.1352 28.305 25.9102L27.1001 25.0166C27.0665 25.0619 27.0316 25.0879 27.0038 25.1016L27.6646 26.4482ZM28.305 25.9102C28.4716 25.6854 28.5858 25.4264 28.6448 25.1552L27.179 24.8366C27.163 24.9101 27.1339 24.9711 27.1001 25.0166L28.305 25.9102ZM28.6448 25.1552C28.7037 24.884 28.7072 24.6019 28.6551 24.3294L27.1818 24.6108C27.196 24.6852 27.195 24.7631 27.179 24.8366L28.6448 25.1552ZM28.6551 24.3294C28.603 24.0568 28.4956 23.795 28.3354 23.566L27.1063 24.4258C27.1397 24.4735 27.1675 24.5364 27.1818 24.6108L28.6551 24.3294ZM28.3537 23.5934C27.0579 21.5559 25.9791 18.6644 25.1544 15.6003C24.3326 12.5471 23.7771 9.37588 23.5056 6.81367L22.014 6.9717C22.2933 9.60828 22.8627 12.8572 23.706 15.9902C24.5463 19.1123 25.6727 22.173 27.088 24.3984L28.3537 23.5934ZM13.326 5.84209C12.102 5.84209 11.4304 5.49177 11.0479 5.07341C10.6504 4.63859 10.4533 4.00876 10.4274 3.24706L8.92824 3.29818C8.96111 4.26213 9.21537 5.29203 9.94082 6.08554C10.6813 6.8955 11.8044 7.34209 13.326 7.34209V5.84209ZM9.4696 2.3226C6.53529 2.3226 5.94385 2.3226 5.60636 2.32261L5.60641 3.82261C5.94386 3.8226 6.53527 3.8226 9.4696 3.8226L9.4696 2.3226ZM16.4185 3.0727C16.3914 3.93381 16.1657 4.60201 15.7362 5.05345C15.317 5.49404 14.5948 5.84209 13.326 5.84209V7.34209C14.8714 7.34209 16.0398 6.91053 16.823 6.08736C17.5958 5.27504 17.884 4.19534 17.9178 3.11985L16.4185 3.0727ZM17.3633 3.64757C19.3826 3.67575 20.4627 4.14751 21.0644 4.71153C21.6645 5.27402 21.9159 6.04639 22.014 6.9717L23.5056 6.81367C23.3909 5.73093 23.0698 4.53538 22.0903 3.61716C21.1124 2.70047 19.6059 2.17872 17.3842 2.14771L17.3633 3.64757ZM10.4274 3.24706C10.4096 2.72689 9.97854 2.3226 9.4696 2.3226L9.4696 3.8226C9.18157 3.8226 8.93845 3.59757 8.92824 3.29818L10.4274 3.24706ZM17.9178 3.11985C17.9087 3.40766 17.6725 3.65188 17.3633 3.64757L17.3842 2.14771C16.8541 2.14031 16.4345 2.56409 16.4185 3.0727L17.9178 3.11985ZM5.35622 4.06269C5.35945 3.93054 5.46609 3.82261 5.60641 3.82261L5.60636 2.32261C4.66004 2.32264 3.87996 3.0719 3.85667 4.02607L5.35622 4.06269Z" fill="black"/>
</svg>
