<svg width="32" height="33" viewBox="0 0 32 33" fill="none" xmlns="http://www.w3.org/2000/svg">
<path d="M9.77778 13.9679C7.71478 13.8317 6.08215 13.6611 5.0705 13.5412C4.46393 13.4693 3.92188 13.9416 3.92188 14.5524V19.1612C3.92188 19.6351 4.25418 20.0418 4.72141 20.1211C5.61234 20.2724 7.21137 20.5129 9.33333 20.7052M18.6667 14.1645C21.3005 14.1023 24.1117 13.9215 26.9448 13.5527C27.5504 13.4738 28.0931 13.9416 28.0931 14.5523C28.0931 16.2522 28.0931 17.4451 28.0931 19.1373C28.0931 19.6217 27.7461 20.0379 27.2682 20.1167C24.2521 20.6145 21.3449 20.8664 18.6667 20.9615" stroke="black" stroke-width="1.5"/>
<rect x="8.66956" y="11.7279" width="10.6782" height="11.6898" rx="5.33911" stroke="black" stroke-width="1.5"/>
<path d="M15.2146 17.5728H12.8028" stroke="black" stroke-width="1.5" stroke-linecap="round"/>
</svg>
