<svg width="36" height="36" viewBox="0 0 36 36" fill="none" xmlns="http://www.w3.org/2000/svg">
<path d="M5.3324 20.0578L9.30485 19.4078C10.9153 19.1443 12.4066 18.3946 13.5788 17.2593L18.2244 12.7598L22.4447 17.1293C23.6208 18.347 25.1529 19.1602 26.8206 19.4519L30.2846 20.0578" stroke="black" stroke-width="1.5" stroke-linecap="round"/>
<path d="M18.0546 28.6957V20.6434" stroke="black" stroke-width="1.5" stroke-linecap="round"/>
<path d="M5.38301 27.7588L4.76441 27.3347C4.67882 27.4596 4.63301 27.6074 4.63301 27.7588L5.38301 27.7588ZM5.79002 28.5543L5.3181 29.1372L5.79002 28.5543ZM30.21 28.5543L29.7381 27.9714L30.21 28.5543ZM30.617 27.7588H31.367C31.367 27.6074 31.3212 27.4596 31.2356 27.3347L30.617 27.7588ZM30.617 12.2831C30.2028 12.2831 29.867 12.6189 29.867 13.0331C29.867 13.4473 30.2028 13.7831 30.617 13.7831V12.2831ZM5.24384 21.2374L5.96687 21.0381L5.24384 21.2374ZM30.617 21.2374L31.3416 21.4307L30.617 21.2374ZM18 32.6649L18 31.9149L18 32.6649ZM25.0666 6.14376L24.6356 5.52997L24.6276 5.53559L24.6197 5.54142L25.0666 6.14376ZM10.4555 6.14376L10.9024 5.54141L10.8987 5.53872L10.4555 6.14376ZM26.0139 5.47854L26.4449 6.09233L26.0139 5.47854ZM27.5758 6.45654L28.3162 6.57625L27.5758 6.45654ZM27.045 9.73922L26.3046 9.61951L27.045 9.73922ZM4.63301 27.7588C4.63301 28.3134 4.90623 28.8038 5.3181 29.1372L6.26193 27.9714C6.15259 27.8829 6.13301 27.801 6.13301 27.7588L4.63301 27.7588ZM30.6819 29.1372C31.0938 28.8038 31.367 28.3134 31.367 27.7588H29.867C29.867 27.801 29.8474 27.8829 29.7381 27.9714L30.6819 29.1372ZM5.64802 12.3315C5.36867 12.2259 5.13007 12.3118 5.01839 12.3693C4.90613 12.4272 4.83066 12.5 4.79233 12.5402C4.71179 12.6246 4.65335 12.7175 4.61514 12.7841C4.53247 12.9282 4.45239 13.1133 4.37836 13.3225C4.22769 13.7483 4.07422 14.3533 3.97539 15.1123C3.77717 16.6347 3.79511 18.8044 4.52082 21.4367L5.96687 21.0381C5.2962 18.6053 5.28949 16.6373 5.46284 15.306C5.54979 14.6381 5.68115 14.1373 5.79243 13.8229C5.84936 13.662 5.89454 13.5684 5.91615 13.5307C5.93008 13.5064 5.91854 13.5327 5.87776 13.5755C5.85931 13.5948 5.80193 13.653 5.70574 13.7026C5.61012 13.7519 5.38556 13.8358 5.11799 13.7347L5.64802 12.3315ZM4.52082 21.4367C4.87642 22.7266 5.25709 23.8778 5.54868 24.7063C5.69461 25.121 5.81854 25.4557 5.90633 25.6875C5.95024 25.8035 5.98512 25.8938 6.00922 25.9556C6.02128 25.9865 6.03063 26.0103 6.03708 26.0266C6.0403 26.0348 6.04279 26.041 6.04453 26.0454C6.0454 26.0476 6.04608 26.0493 6.04657 26.0505C6.04681 26.0511 6.04701 26.0516 6.04715 26.052C6.04723 26.0522 6.04729 26.0523 6.04734 26.0524C6.04736 26.0525 6.04739 26.0526 6.0474 26.0526C6.04743 26.0527 6.04745 26.0527 6.74372 25.774C7.43999 25.4952 7.44 25.4952 7.44002 25.4953C7.44002 25.4953 7.44002 25.4953 7.44003 25.4953C7.44003 25.4953 7.44001 25.4953 7.43999 25.4952C7.43994 25.4951 7.43985 25.4948 7.4397 25.4945C7.43942 25.4938 7.43894 25.4926 7.43827 25.4909C7.43694 25.4875 7.43485 25.4823 7.43204 25.4752C7.42642 25.461 7.4179 25.4393 7.40671 25.4106C7.38431 25.3532 7.35122 25.2675 7.30916 25.1565C7.22505 24.9343 7.1052 24.6107 6.96361 24.2084C6.68017 23.403 6.3109 22.286 5.96687 21.0381L4.52082 21.4367ZM6.12512 25.3499L4.76441 27.3347L6.0016 28.1829L7.36231 26.198L6.12512 25.3499ZM31.2356 27.3347L29.8749 25.3499L28.6377 26.198L29.9984 28.1829L31.2356 27.3347ZM29.2563 25.774C29.9661 26.0163 29.9661 26.0163 29.9661 26.0163C29.9661 26.0162 29.9661 26.0162 29.9661 26.0161C29.9662 26.016 29.9662 26.0159 29.9663 26.0157C29.9664 26.0154 29.9665 26.015 29.9667 26.0144C29.9671 26.0133 29.9677 26.0116 29.9684 26.0095C29.9698 26.0053 29.9719 25.9992 29.9746 25.9912C29.98 25.9751 29.988 25.9516 29.9983 25.9209C30.0189 25.8595 30.0489 25.7694 30.0869 25.6537C30.1629 25.4223 30.2711 25.0881 30.4004 24.6748C30.6587 23.8485 31.0021 22.7038 31.3416 21.4307L29.8923 21.0441C29.5596 22.2916 29.2226 23.4152 28.9687 24.2271C28.8419 24.6328 28.7359 24.9601 28.6619 25.1855C28.6248 25.2981 28.5958 25.3853 28.5761 25.444C28.5663 25.4733 28.5588 25.4955 28.5538 25.5102C28.5513 25.5176 28.5494 25.5231 28.5482 25.5267C28.5476 25.5285 28.5472 25.5298 28.5469 25.5306C28.5468 25.531 28.5467 25.5313 28.5466 25.5315C28.5466 25.5315 28.5466 25.5316 28.5465 25.5316C28.5465 25.5316 28.5465 25.5316 28.5465 25.5316C28.5465 25.5316 28.5466 25.5316 29.2563 25.774ZM31.3416 21.4307C32.0385 18.8177 32.1499 16.6801 32.0241 15.1715C31.9615 14.4207 31.8388 13.8086 31.6902 13.3642C31.6173 13.1463 31.5283 12.9383 31.4181 12.7688C31.3637 12.6851 31.2863 12.5829 31.1799 12.494C31.079 12.4097 30.8858 12.2831 30.617 12.2831V13.7831C30.3992 13.7831 30.2611 13.681 30.2181 13.645C30.1695 13.6045 30.1529 13.5746 30.1606 13.5865C30.1747 13.6082 30.2157 13.6847 30.2676 13.8398C30.3684 14.1414 30.4738 14.6297 30.5293 15.2961C30.6398 16.622 30.5477 18.5866 29.8923 21.0441L31.3416 21.4307ZM29.2563 25.774C28.9746 25.0789 28.9746 25.0789 28.9746 25.0789C28.9746 25.0789 28.9746 25.0789 28.9745 25.0789C28.9743 25.079 28.9741 25.0791 28.9737 25.0792C28.973 25.0795 28.9718 25.08 28.9702 25.0807C28.967 25.082 28.962 25.084 28.9553 25.0867C28.9418 25.0921 28.9215 25.1002 28.8947 25.1109C28.841 25.1323 28.7611 25.1639 28.6578 25.2043C28.4511 25.2851 28.1505 25.4009 27.7775 25.54C27.031 25.8184 25.9966 26.1894 24.8441 26.56C22.5062 27.3118 19.7955 28.024 18 28.024V29.524C20.0593 29.524 22.9768 28.7361 25.3033 27.988C26.4831 27.6086 27.5399 27.2295 28.3017 26.9454C28.6828 26.8033 28.9906 26.6847 29.2037 26.6014C29.3103 26.5598 29.3932 26.5269 29.4498 26.5044C29.4781 26.4931 29.4999 26.4844 29.5147 26.4785C29.5221 26.4755 29.5278 26.4732 29.5317 26.4716C29.5336 26.4708 29.5351 26.4702 29.5362 26.4698C29.5367 26.4696 29.5372 26.4694 29.5375 26.4693C29.5376 26.4692 29.5378 26.4692 29.5378 26.4691C29.538 26.4691 29.538 26.469 29.2563 25.774ZM18 28.024C16.2045 28.024 13.4938 27.3118 11.1559 26.56C10.0035 26.1894 8.969 25.8184 8.22251 25.54C7.8495 25.4009 7.54897 25.2851 7.34226 25.2043C7.23892 25.1639 7.15907 25.1323 7.10537 25.1109C7.07852 25.1002 7.05821 25.0921 7.04478 25.0867C7.03806 25.084 7.03307 25.082 7.02983 25.0807C7.02821 25.08 7.02704 25.0795 7.0263 25.0792C7.02594 25.0791 7.02568 25.079 7.02554 25.0789C7.02547 25.0789 7.02545 25.0789 7.02541 25.0789C7.02542 25.0789 7.02545 25.0789 6.74372 25.774C6.46199 26.469 6.46208 26.4691 6.46219 26.4691C6.46227 26.4692 6.46242 26.4692 6.46257 26.4693C6.46288 26.4694 6.4633 26.4696 6.46383 26.4698C6.4649 26.4702 6.46641 26.4708 6.46836 26.4716C6.47227 26.4732 6.47795 26.4755 6.48536 26.4785C6.50017 26.4844 6.52189 26.4931 6.55019 26.5044C6.60679 26.5269 6.68972 26.5598 6.79629 26.6014C7.00941 26.6847 7.31724 26.8033 7.69835 26.9454C8.46009 27.2295 9.51691 27.6086 10.6967 27.988C13.0232 28.7361 15.9407 29.524 18 29.524V28.024ZM24.6197 5.54142C22.3946 7.19223 20.0634 7.99331 17.761 7.99331C15.4587 7.99331 13.1275 7.19223 10.9024 5.54142L10.0086 6.7461C12.4554 8.56135 15.0938 9.49331 17.761 9.49331C20.4283 9.49331 23.0667 8.56135 25.5135 6.7461L24.6197 5.54142ZM10.8987 5.53872L10.1311 4.97642L9.24467 6.1865L10.0123 6.7488L10.8987 5.53872ZM7.37275 6.68762L7.96645 10.1062L9.44433 9.84954L8.85063 6.43096L7.37275 6.68762ZM25.4976 6.75755L26.4449 6.09233L25.5829 4.86475L24.6356 5.52997L25.4976 6.75755ZM26.8354 6.33683L26.3046 9.61951L27.7854 9.85893L28.3162 6.57625L26.8354 6.33683ZM5.3181 29.1372C6.75194 30.298 9.10067 31.3598 11.4464 32.1282C13.797 32.8982 16.272 33.4149 18 33.4149L18 31.9149C16.4998 31.9149 14.1971 31.4508 11.9134 30.7027C9.62481 29.9531 7.48265 28.9596 6.26193 27.9714L5.3181 29.1372ZM18 33.4149C19.728 33.4149 22.2031 32.8982 24.5536 32.1282C26.8994 31.3598 29.2481 30.298 30.6819 29.1372L29.7381 27.9714C28.5174 28.9596 26.3752 29.9531 24.0867 30.7027C21.8029 31.4508 19.5002 31.9149 18 31.9149L18 33.4149ZM26.4449 6.09233C26.6259 5.96523 26.8707 6.11849 26.8354 6.33683L28.3162 6.57625C28.5633 5.04788 26.85 3.97503 25.5829 4.86475L26.4449 6.09233ZM10.1311 4.97642C8.86051 4.04572 7.10326 5.13588 7.37275 6.68762L8.85063 6.43096C8.81213 6.20928 9.06316 6.05355 9.24467 6.1865L10.1311 4.97642ZM30.617 12.2831C29.7249 12.2831 28.9318 12.0093 28.4166 11.576C27.9266 11.1638 27.666 10.5973 27.7854 9.85893L26.3046 9.61951C26.0947 10.9179 26.5886 11.9984 27.451 12.7239C28.2884 13.4283 29.4459 13.7831 30.617 13.7831V12.2831ZM5.11799 13.7347C6.34618 14.1986 7.55622 13.8055 8.37231 13.033C9.18148 12.2671 9.65866 11.0837 9.44433 9.84954L7.96645 10.1062C8.08714 10.8012 7.81899 11.4914 7.34114 11.9437C6.87021 12.3895 6.25155 12.5594 5.64802 12.3315L5.11799 13.7347Z" fill="black"/>
</svg>
