<svg width="32" height="32" viewBox="0 0 32 32" fill="none" xmlns="http://www.w3.org/2000/svg">
<path d="M4.73987 17.8291L7.9961 17.2963C9.60653 17.0328 11.0979 16.2831 12.27 15.1477L16.1994 11.3419L19.7497 15.0178C20.9258 16.2355 22.4579 17.0487 24.1256 17.3404L26.9196 17.8291" stroke="black" stroke-width="1.5" stroke-linecap="round"/>
<path d="M16.0485 25.5073V18.3497" stroke="black" stroke-width="1.5" stroke-linecap="round"/>
<path d="M4.78488 24.6746L4.16629 24.2505C4.08069 24.3753 4.03488 24.5232 4.03488 24.6746L4.78488 24.6746ZM5.14667 25.3817L4.67475 25.9646L5.14667 25.3817ZM26.8533 25.3817L26.3814 24.7988L26.8533 25.3817ZM27.2151 24.6746H27.9651C27.9651 24.5232 27.9193 24.3753 27.8337 24.2505L27.2151 24.6746ZM27.2151 10.835C26.8009 10.835 26.4651 11.1708 26.4651 11.585C26.4651 11.9992 26.8009 12.335 27.2151 12.335V10.835ZM4.66118 18.8778L5.38421 18.6784L4.66118 18.8778ZM27.2151 18.8778L27.9397 19.071L27.2151 18.8778ZM22.2814 5.46119L21.8504 4.8474L21.8424 4.85302L21.8345 4.85885L22.2814 5.46119ZM9.29377 5.46119L9.74065 4.85884L9.73697 4.85615L9.29377 5.46119ZM22.9079 5.02126L22.4769 4.40747L22.9079 5.02126ZM24.4697 5.99926L23.7294 5.87955L24.4697 5.99926ZM7.25752 6.10202L6.51858 6.23035L7.25752 6.10202ZM24.04 8.65715L24.7804 8.77686L24.04 8.65715ZM7.73811 8.86929L6.99917 8.99762L7.73811 8.86929ZM4.03488 24.6746C4.03488 25.196 4.29184 25.6546 4.67475 25.9646L5.61858 24.7988C5.5382 24.7337 5.53488 24.6836 5.53488 24.6746L4.03488 24.6746ZM27.3252 25.9646C27.7082 25.6546 27.9651 25.196 27.9651 24.6746H26.4651C26.4651 24.6836 26.4618 24.7337 26.3814 24.7988L27.3252 25.9646ZM5.04989 10.8834C4.7712 10.7781 4.53338 10.8639 4.42259 10.921C4.31122 10.9784 4.23676 11.0504 4.19953 11.0894C4.12121 11.1715 4.06537 11.2607 4.03006 11.3223C3.95317 11.4562 3.88006 11.6258 3.8133 11.8145C3.67718 12.1991 3.53954 12.7427 3.45103 13.4225C3.27346 14.7863 3.29003 16.7261 3.93815 19.0771L5.38421 18.6784C4.79111 16.5271 4.78577 14.7889 4.93848 13.6161C5.01511 13.0276 5.13065 12.5882 5.22737 12.3149C5.27703 12.1746 5.31525 12.0964 5.33106 12.0688C5.3421 12.0496 5.32795 12.0796 5.28497 12.1247C5.26541 12.1452 5.20702 12.2042 5.10994 12.2542C5.01343 12.304 4.78809 12.388 4.51987 12.2866L5.04989 10.8834ZM3.93815 19.0771C4.25489 20.226 4.59389 21.2512 4.85354 21.9889C4.98349 22.3582 5.09389 22.6563 5.17213 22.8629C5.21125 22.9663 5.24236 23.0468 5.26388 23.102C5.27464 23.1296 5.28301 23.1509 5.28878 23.1655C5.29167 23.1728 5.29391 23.1784 5.29547 23.1823C5.29626 23.1843 5.29687 23.1859 5.29732 23.187C5.29754 23.1875 5.29772 23.188 5.29785 23.1883C5.29792 23.1885 5.29798 23.1886 5.29803 23.1887C5.29805 23.1888 5.29808 23.1889 5.29809 23.1889C5.29811 23.189 5.29813 23.189 5.9944 22.9103C6.69067 22.6315 6.69069 22.6315 6.6907 22.6316C6.6907 22.6316 6.69071 22.6316 6.69071 22.6316C6.69072 22.6316 6.69071 22.6316 6.69069 22.6315C6.69065 22.6314 6.69057 22.6312 6.69045 22.6309C6.69021 22.6303 6.68979 22.6293 6.68921 22.6278C6.68805 22.6249 6.68622 22.6203 6.68374 22.614C6.67879 22.6015 6.67127 22.5824 6.66136 22.557C6.64155 22.5062 6.61223 22.4303 6.57496 22.3319C6.50039 22.1349 6.39408 21.8479 6.26847 21.4909C6.01698 20.7764 5.68937 19.7853 5.38421 18.6784L3.93815 19.0771ZM5.37581 22.4862L4.16629 24.2505L5.40347 25.0986L6.613 23.3343L5.37581 22.4862ZM27.8337 24.2505L26.6242 22.4862L25.387 23.3343L26.5965 25.0986L27.8337 24.2505ZM26.0056 22.9103C26.7154 23.1526 26.7154 23.1526 26.7154 23.1526C26.7154 23.1525 26.7154 23.1525 26.7154 23.1524C26.7155 23.1523 26.7155 23.1522 26.7155 23.1521C26.7156 23.1518 26.7158 23.1514 26.716 23.1509C26.7163 23.1498 26.7168 23.1484 26.7174 23.1465C26.7187 23.1427 26.7206 23.1372 26.723 23.1301C26.7279 23.1157 26.735 23.0947 26.7441 23.0673C26.7625 23.0126 26.7892 22.9324 26.8231 22.8294C26.8908 22.6234 26.987 22.3259 27.1021 21.9581C27.332 21.2228 27.6375 20.2042 27.9397 19.071L26.4904 18.6845C26.1951 19.7919 25.8959 20.7895 25.6704 21.5104C25.5578 21.8706 25.4637 22.1611 25.398 22.3611C25.3652 22.4611 25.3394 22.5384 25.322 22.5904C25.3133 22.6164 25.3066 22.6361 25.3022 22.6491C25.3 22.6556 25.2984 22.6605 25.2973 22.6636C25.2968 22.6652 25.2964 22.6663 25.2961 22.667C25.296 22.6674 25.2959 22.6676 25.2959 22.6678C25.2958 22.6679 25.2958 22.6679 25.2958 22.6679C25.2958 22.6679 25.2958 22.6679 25.2958 22.6679C25.2958 22.6679 25.2958 22.6679 26.0056 22.9103ZM27.9397 19.071C28.5615 16.7397 28.6615 14.8301 28.5489 13.4789C28.4929 12.8068 28.3828 12.2559 28.2481 11.8529C28.1821 11.6557 28.1004 11.4635 27.9971 11.3047C27.9461 11.2263 27.8721 11.1281 27.7689 11.0419C27.6712 10.9603 27.4811 10.835 27.2151 10.835V12.335C26.9944 12.335 26.8533 12.2316 26.807 12.1929C26.7553 12.1497 26.7353 12.1158 26.7395 12.1224C26.7467 12.1334 26.7805 12.1941 26.8255 12.3285C26.9125 12.5887 27.0051 13.0158 27.0541 13.6035C27.1515 14.772 27.0707 16.5087 26.4904 18.6845L27.9397 19.071ZM26.0056 22.9103C25.7239 22.2152 25.7239 22.2152 25.7239 22.2152C25.7239 22.2152 25.7239 22.2152 25.7238 22.2152C25.7237 22.2152 25.7235 22.2153 25.7232 22.2155C25.7225 22.2157 25.7215 22.2161 25.7201 22.2167C25.7172 22.2179 25.7128 22.2196 25.7069 22.222C25.695 22.2268 25.6771 22.234 25.6533 22.2435C25.6057 22.2624 25.5349 22.2905 25.4432 22.3263C25.2598 22.3979 24.9931 22.5007 24.662 22.6242C23.9993 22.8714 23.081 23.2007 22.0581 23.5296C19.9793 24.1981 17.5814 24.8269 16 24.8269V26.3269C17.8452 26.3269 20.45 25.6224 22.5174 24.9576C23.5676 24.6198 24.5082 24.2825 25.1862 24.0296C25.5254 23.9031 25.7994 23.7976 25.9892 23.7234C26.0841 23.6863 26.158 23.6571 26.2085 23.6369C26.2337 23.6269 26.2531 23.6191 26.2663 23.6138C26.273 23.6111 26.278 23.6091 26.2816 23.6077C26.2833 23.607 26.2847 23.6064 26.2856 23.606C26.2861 23.6058 26.2865 23.6057 26.2868 23.6055C26.2869 23.6055 26.2871 23.6054 26.2871 23.6054C26.2872 23.6054 26.2873 23.6053 26.0056 22.9103ZM16 24.8269C14.4186 24.8269 12.0207 24.1981 9.94186 23.5296C8.91899 23.2007 8.00071 22.8714 7.338 22.6242C7.00689 22.5007 6.74016 22.3979 6.55678 22.3263C6.4651 22.2905 6.39428 22.2624 6.34671 22.2435C6.32293 22.234 6.30495 22.2268 6.29309 22.222C6.28716 22.2196 6.28276 22.2179 6.27992 22.2167C6.2785 22.2161 6.27747 22.2157 6.27684 22.2155C6.27652 22.2153 6.2763 22.2152 6.27619 22.2152C6.27613 22.2152 6.27611 22.2152 6.27609 22.2152C6.2761 22.2152 6.27613 22.2152 5.9944 22.9103C5.71267 23.6053 5.71276 23.6054 5.71287 23.6054C5.71294 23.6054 5.71308 23.6055 5.71322 23.6055C5.7135 23.6057 5.71388 23.6058 5.71437 23.606C5.71533 23.6064 5.71669 23.607 5.71845 23.6077C5.72196 23.6091 5.72705 23.6111 5.73367 23.6138C5.74691 23.6191 5.7663 23.6269 5.79154 23.6369C5.84201 23.6571 5.91589 23.6863 6.0108 23.7234C6.20059 23.7976 6.47463 23.9031 6.81384 24.0296C7.49179 24.2825 8.43243 24.6198 9.48265 24.9576C11.55 25.6224 14.1548 26.3269 16 26.3269V24.8269ZM21.8345 4.85885C19.8689 6.3171 17.8138 7.0219 15.7876 7.0219C13.7614 7.0219 11.7062 6.3171 9.74064 4.85885L8.8469 6.06352C11.0341 7.68622 13.3964 8.5219 15.7876 8.5219C18.1787 8.5219 20.541 7.68622 22.7283 6.06352L21.8345 4.85885ZM9.73697 4.85615L9.2769 4.51914L8.39051 5.72923L8.85057 6.06623L9.73697 4.85615ZM6.51858 6.23035L6.99917 8.99762L8.47705 8.74096L7.99646 5.97368L6.51858 6.23035ZM22.7124 6.07498L23.3389 5.63505L22.4769 4.40747L21.8504 4.8474L22.7124 6.07498ZM23.7294 5.87955L23.2996 8.53744L24.7804 8.77686L25.2101 6.11897L23.7294 5.87955ZM4.67475 25.9646C5.96111 27.006 8.06035 27.9536 10.1486 28.6377C12.2417 29.3233 14.4514 29.7855 16 29.7855L16 28.2855C14.6791 28.2855 12.6419 27.876 10.6156 27.2122C8.58449 26.5469 6.69183 25.6676 5.61858 24.7988L4.67475 25.9646ZM16 29.7855C17.5487 29.7855 19.7583 29.3233 21.8514 28.6377C23.9397 27.9536 26.0389 27.006 27.3252 25.9646L26.3814 24.7988C25.3082 25.6676 23.4155 26.5469 21.3844 27.2122C19.3581 27.876 17.3209 28.2855 16 28.2855L16 29.7855ZM23.3389 5.63505C23.5199 5.50795 23.7647 5.66121 23.7294 5.87955L25.2101 6.11897C25.4572 4.5906 23.7439 3.51776 22.4769 4.40747L23.3389 5.63505ZM9.2769 4.51914C8.00634 3.58845 6.24909 4.67861 6.51858 6.23035L7.99646 5.97368C7.95796 5.75201 8.209 5.59627 8.39051 5.72923L9.2769 4.51914ZM27.2151 10.835C26.4376 10.835 25.7529 10.5962 25.3128 10.2261C24.8979 9.87705 24.6793 9.40206 24.7804 8.77686L23.2996 8.53744C23.108 9.7227 23.5599 10.7116 24.3473 11.374C25.1095 12.0151 26.1586 12.335 27.2151 12.335V10.835ZM4.51987 12.2866C5.64629 12.7121 6.75474 12.3503 7.49933 11.6455C8.237 10.9472 8.67277 9.86795 8.47705 8.74096L6.99917 8.99762C7.10125 9.58543 6.8745 10.1715 6.46816 10.5562C6.06873 10.9342 5.55166 11.0729 5.04989 10.8834L4.51987 12.2866Z" fill="black"/>
</svg>
