<svg width="28" height="28" viewBox="0 0 28 28" fill="none" xmlns="http://www.w3.org/2000/svg">
<path d="M19.6656 14C19.6656 15.1205 19.3333 16.2159 18.7108 17.1476C18.0882 18.0793 17.2034 18.8055 16.1681 19.2343C15.1329 19.6631 13.9937 19.7753 12.8947 19.5567C11.7956 19.3381 10.7861 18.7985 9.99378 18.0062C9.20142 17.2138 8.66183 16.2043 8.44322 15.1053C8.22461 14.0063 8.33681 12.8671 8.76562 11.8318C9.19444 10.7966 9.92062 9.91173 10.8523 9.28918C11.784 8.66663 12.8794 8.33435 14 8.33435C15.5026 8.33435 16.9437 8.93126 18.0062 9.99377C19.0687 11.0563 19.6656 12.4974 19.6656 14Z" stroke="#27272A" stroke-width="1.5" stroke-linecap="round" stroke-linejoin="round"/>
<path d="M19.6657 14V16.4281C19.6657 17.2867 20.0068 18.1102 20.6139 18.7174C21.2211 19.3245 22.0445 19.6656 22.9032 19.6656C23.7618 19.6656 24.5853 19.3245 25.1924 18.7174C25.7996 18.1102 26.1407 17.2867 26.1407 16.4281V14C26.1406 11.2654 25.2171 8.61087 23.52 6.4666C21.8229 4.32233 19.4514 2.81388 16.79 2.18566C14.1285 1.55743 11.3328 1.84622 8.85599 3.00524C6.37913 4.16427 4.36615 6.12563 3.14319 8.57155C1.92023 11.0175 1.55893 13.8047 2.11783 16.4816C2.67672 19.1585 4.12307 21.5683 6.22254 23.3205C8.32202 25.0728 10.9516 26.0648 13.6853 26.136C16.419 26.2071 19.0967 25.3532 21.2844 23.7125" stroke="#27272A" stroke-width="1.5" stroke-linecap="round" stroke-linejoin="round"/>
</svg>
