<svg width="36" height="37" viewBox="0 0 36 37" fill="none" xmlns="http://www.w3.org/2000/svg">
<path d="M11.8912 25.2813C12.9443 23.2739 14.182 23.0926 16.0368 22.4744C18.4237 21.6787 19.4532 20.5299 20.3287 19.6544C21.2042 18.7789 21.696 17.5914 21.696 16.3533V8.57251C21.696 8.15979 21.86 7.76398 22.1518 7.47214C22.4437 7.18031 22.8395 7.01636 23.2522 7.01636H31.033C31.4457 7.01636 31.8415 7.18031 32.1333 7.47214C32.4252 7.76398 32.5891 8.15979 32.5891 8.57251V28.8025C32.5891 29.2152 32.4252 29.611 32.1333 29.9029C29.7006 32.3356 21.5604 33.0891 14.7436 32.342C11.3301 31.968 10.6437 27.6592 11.8912 25.2813Z" stroke="black" stroke-width="1.5" stroke-linecap="round" stroke-linejoin="round"/>
<path d="M24.8083 2.92749H17.0276C16.6149 2.92749 16.2191 3.09144 15.9272 3.38328C15.6354 3.67511 15.4714 4.07093 15.4714 4.48364V12.2644C15.4714 13.5026 14.9796 14.69 14.1041 15.5655C13.2286 16.441 11.894 17.1981 10.5496 17.5718C7.33726 18.4647 5.2579 18.5151 3.94659 20.9368C2.14804 24.2583 3.7942 26.7494 7.59064 27.6621" stroke="black" stroke-width="1.5" stroke-linecap="round" stroke-linejoin="round"/>
<path d="M11.3119 27.3587C11.3119 27.3587 14.5195 28.7757 17.8765 28.8351C28.349 29.0207 32.2535 25.831 32.2535 25.831" stroke="black" stroke-width="1.5" stroke-linecap="round" stroke-linejoin="round"/>
<path d="M21.696 11.6848H24.8083" stroke="black" stroke-width="1.5" stroke-linecap="round" stroke-linejoin="round"/>
<path d="M21.696 16.3533H24.8083" stroke="black" stroke-width="1.5" stroke-linecap="round" stroke-linejoin="round"/>
<path d="M20.3287 19.6545L22.5291 21.8549" stroke="black" stroke-width="1.5" stroke-linecap="round" stroke-linejoin="round"/>
</svg>
