<svg width="32" height="33" viewBox="0 0 32 33" fill="none" xmlns="http://www.w3.org/2000/svg">
<path d="M10.57 22.5486C11.5061 20.7643 12.6062 20.6031 14.2549 20.0536C16.3766 19.3463 17.2918 18.3251 18.07 17.5469C18.8482 16.7687 19.2854 15.7132 19.2854 14.6126V7.69636C19.2854 7.3295 19.4311 6.97766 19.6906 6.71825C19.95 6.45884 20.3018 6.31311 20.6687 6.31311H27.5849C27.9518 6.31311 28.3036 6.45884 28.563 6.71825C28.8224 6.97766 28.9681 7.3295 28.9681 7.69636V25.6786C28.9681 26.0454 28.8224 26.3973 28.563 26.6567C26.4005 28.8191 19.1648 29.4889 13.1055 28.8248C10.0712 28.4923 9.46113 24.6623 10.57 22.5486Z" stroke="black" stroke-width="1.5" stroke-linecap="round" stroke-linejoin="round"/>
<path d="M22.0519 2.67859H15.1356C14.7688 2.67859 14.417 2.82432 14.1575 3.08373C13.8981 3.34314 13.7524 3.69498 13.7524 4.06184V10.9781C13.7524 12.0786 13.3152 13.1341 12.537 13.9124C11.7587 14.6906 10.5725 15.3636 9.37743 15.6958C6.52202 16.4895 4.67371 16.5342 3.50809 18.6869C1.90938 21.6393 3.37264 23.8536 6.74725 24.6649" stroke="black" stroke-width="1.5" stroke-linecap="round" stroke-linejoin="round"/>
<path d="M10.0551 24.3952C10.0551 24.3952 12.9063 25.6548 15.8903 25.7076C25.1991 25.8726 28.6698 23.0373 28.6698 23.0373" stroke="black" stroke-width="1.5" stroke-linecap="round" stroke-linejoin="round"/>
<path d="M19.2854 10.4629H22.0519" stroke="black" stroke-width="1.5" stroke-linecap="round" stroke-linejoin="round"/>
<path d="M19.2854 14.6127H22.0519" stroke="black" stroke-width="1.5" stroke-linecap="round" stroke-linejoin="round"/>
<path d="M18.07 17.547L20.0259 19.5029" stroke="black" stroke-width="1.5" stroke-linecap="round" stroke-linejoin="round"/>
</svg>
