<svg width="28" height="28" viewBox="0 0 28 28" fill="none" xmlns="http://www.w3.org/2000/svg">
<path d="M16.6225 25.1454C16.6225 25.4979 16.961 25.7517 17.2994 25.653C26.0984 23.1132 28.8482 12.0005 22.2491 5.65029C15.65 -0.699956 4.65124 2.47495 2.45136 11.365C0.915812 17.5704 4.55876 23.8801 10.7005 25.653C11.0389 25.7517 11.3774 25.4979 11.3774 25.1454V22.6603C9.87149 23.1152 8.27195 22.3178 7.72892 20.8414C7.43333 19.9414 6.9422 19.118 6.29071 18.4303C9.30461 19.1599 9.35749 21.1164 11.4091 20.1963C11.471 19.51 11.6998 18.8494 12.0753 18.2717C9.74879 18.0073 7.29541 17.6371 7.29541 13.6186C7.27523 12.5803 7.65359 11.5736 8.35289 10.8057C8.03443 9.90232 8.0722 8.91153 8.45865 8.03503C8.8451 7.15854 9.33633 7.74949 11.3456 9.09251C13.0758 8.61466 14.903 8.61466 16.6331 9.09251C18.6318 7.73891 19.5095 8.03503 19.5095 8.03503C19.896 8.91153 19.9338 9.90232 19.6153 10.8057C20.3155 11.573 20.694 12.5801 20.6728 13.6186C20.6728 17.6477 18.2194 18.0073 15.8822 18.2611C16.3828 18.9827 16.6352 19.8475 16.6014 20.7251L16.6225 25.1454Z" stroke="#27272A" stroke-width="1.5" stroke-linecap="round" stroke-linejoin="round"/>
</svg>
