<svg width="36" height="37" viewBox="0 0 36 37" fill="none" xmlns="http://www.w3.org/2000/svg">
<path d="M24.4843 31.1873L31.347 23.5749C31.691 23.188 31.8978 22.6983 31.9351 22.1819C31.9725 21.6655 31.8385 21.1512 31.5538 20.7187C31.2188 20.2231 30.7076 19.8737 30.1242 19.7417C29.5408 19.6096 28.9289 19.7048 28.4132 20.0079L24.7298 22.2308L26.6555 8.67335C26.7271 8.10242 26.5881 7.52498 26.2646 7.04917C25.941 6.57336 25.4551 6.23182 24.8978 6.08851C24.5895 6.01018 24.2686 5.99484 23.9543 6.0434C23.6399 6.09197 23.3386 6.20344 23.0683 6.37115C22.7981 6.53887 22.5644 6.75937 22.3813 7.01948C22.1982 7.27959 22.0695 7.57396 22.0028 7.88497L20.2451 16.6346V6.56671C20.247 6.26706 20.1884 5.97011 20.0726 5.69371C19.9569 5.41732 19.7864 5.16718 19.5715 4.95833C19.3566 4.74948 19.1017 4.58623 18.8222 4.47839C18.5426 4.37056 18.2441 4.32036 17.9446 4.33082C17.3516 4.33082 16.7829 4.56639 16.3636 4.9857C15.9443 5.40501 15.7087 5.97371 15.7087 6.56671V16.6346L14.0674 7.82035C14.0067 7.51442 13.8844 7.22402 13.708 6.96681C13.5317 6.70959 13.3048 6.49093 13.0413 6.32411C12.7777 6.15729 12.4831 6.0458 12.1751 5.99641C11.8671 5.94702 11.5524 5.96077 11.2499 6.03681C10.6754 6.1813 10.1783 6.54064 9.86089 7.04077C9.5435 7.54091 9.43004 8.14374 9.5439 8.72505L11.3533 17.772L7.92837 10.9351C7.79939 10.6706 7.6151 10.4369 7.38798 10.2498C7.16086 10.0627 6.89621 9.92655 6.61192 9.85058C6.32764 9.77461 6.03035 9.76057 5.74017 9.80943C5.44999 9.85829 5.17369 9.9689 4.92996 10.1338C4.52964 10.3934 4.23289 10.7851 4.09124 11.2408C3.94958 11.6964 3.97197 12.1873 4.15451 12.6281L7.5148 21.0547C7.83439 21.8473 7.99681 22.6945 7.99299 23.5491V26.7284C7.994 27.7698 8.23744 28.7966 8.70403 29.7275C9.17062 30.6585 9.84756 31.468 10.6812 32.092C11.8492 32.9494 13.2647 33.4031 14.7136 33.3844H19.4955C20.4348 33.3894 21.3645 33.1963 22.2241 32.8177C23.0837 32.4391 23.8538 31.8836 24.4843 31.1873Z" stroke="black" stroke-width="1.5" stroke-linecap="round" stroke-linejoin="round"/>
</svg>
