<svg width="32" height="33" viewBox="0 0 32 33" fill="none" xmlns="http://www.w3.org/2000/svg">
<path d="M21.7637 27.819L27.864 21.0525C28.1698 20.7086 28.3535 20.2733 28.3868 19.8143C28.42 19.3552 28.3008 18.8981 28.0478 18.5136C27.75 18.0731 27.2956 17.7625 26.777 17.6452C26.2584 17.5278 25.7146 17.6124 25.2561 17.8818L21.982 19.8577L23.6938 7.80666C23.7574 7.29917 23.6338 6.78589 23.3462 6.36295C23.0586 5.94001 22.6267 5.63641 22.1314 5.50903C21.8573 5.4394 21.5721 5.42576 21.2926 5.46893C21.0132 5.5121 20.7454 5.61119 20.5051 5.76027C20.2649 5.90934 20.0572 6.10535 19.8945 6.33656C19.7317 6.56777 19.6173 6.82943 19.558 7.10588L17.9956 14.8834V5.93409C17.9973 5.66774 17.9452 5.40378 17.8423 5.1581C17.7394 4.91241 17.5879 4.69007 17.3969 4.50442C17.2059 4.31878 16.9793 4.17367 16.7308 4.07781C16.4823 3.98196 16.2169 3.93734 15.9507 3.94664C15.4236 3.94664 14.9181 4.15603 14.5454 4.52875C14.1727 4.90147 13.9633 5.40699 13.9633 5.93409V14.8834L12.5043 7.04844C12.4503 6.77651 12.3417 6.51837 12.1849 6.28974C12.0281 6.0611 11.8264 5.86673 11.5922 5.71845C11.358 5.57017 11.096 5.47106 10.8223 5.42716C10.5485 5.38326 10.2687 5.39548 9.99986 5.46308C9.48923 5.59151 9.04732 5.91092 8.76519 6.35548C8.48307 6.80005 8.38221 7.3359 8.48342 7.85261L10.0918 15.8943L7.0474 9.81709C6.93275 9.58199 6.76894 9.37426 6.56705 9.20795C6.36517 9.04164 6.12992 8.92062 5.87722 8.85309C5.62452 8.78556 5.36027 8.77308 5.10233 8.81652C4.8444 8.85995 4.5988 8.95827 4.38215 9.10482C4.0263 9.33564 3.76253 9.68378 3.63661 10.0888C3.5107 10.4938 3.5306 10.9302 3.69286 11.322L6.67978 18.8123C6.96387 19.5169 7.10823 20.2699 7.10484 21.0295V23.8556C7.10573 24.7813 7.32212 25.694 7.73687 26.5215C8.15162 27.349 8.75334 28.0686 9.49438 28.6232C10.5326 29.3854 11.7908 29.7886 13.0787 29.772H17.3293C18.1642 29.7765 18.9907 29.6048 19.7547 29.2683C20.5188 28.9318 21.2034 28.438 21.7637 27.819Z" stroke="black" stroke-width="1.5" stroke-linecap="round" stroke-linejoin="round"/>
</svg>
