<svg width="32" height="33" viewBox="0 0 32 33" fill="none" xmlns="http://www.w3.org/2000/svg">
<path d="M6.99988 16.6122C6.99987 19.0295 7.00001 24.8728 7.00001 24.8728L11.4783 29.0033C11.4783 29.0033 13.4317 24.4734 13.343 21.8509C9.35797 21.8509 10.5742 16.6122 10.5742 16.6122C14.2005 17.3689 17.81 17.3667 21.4258 16.6122C21.4258 16.6122 22.6121 21.8509 18.6571 21.8509C18.5684 24.4734 20.5218 29.0033 20.5218 29.0033L25 24.8728C25 24.8728 25 20.6296 25 16.6122" stroke="black" stroke-width="1.5" stroke-linecap="round" stroke-linejoin="round"/>
<path d="M6.99988 16.6122C6.99989 12.5741 6.99988 6.72778 16 6.72778C25.0001 6.72778 25 12.5947 25 16.6122" stroke="black" stroke-width="1.5" stroke-linecap="round" stroke-linejoin="round"/>
</svg>
