<svg width="36" height="37" viewBox="0 0 36 37" fill="none" xmlns="http://www.w3.org/2000/svg">
<path d="M7.87488 18.5796C7.87487 21.2991 7.87503 27.8728 7.87503 27.8728L12.9131 32.5196C12.9131 32.5196 15.1106 27.4234 15.0108 24.4732C10.5277 24.4732 11.896 18.5796 11.896 18.5796C15.9755 19.4309 20.0363 19.4284 24.104 18.5796C24.104 18.5796 25.4386 24.4732 20.9892 24.4732C20.8894 27.4234 23.087 32.5196 23.087 32.5196L28.125 27.8728C28.125 27.8728 28.125 23.0992 28.125 18.5796" stroke="black" stroke-width="1.5" stroke-linecap="round" stroke-linejoin="round"/>
<path d="M7.87488 18.5796C7.87489 14.0368 12.1269 7.45953 18 7.45959C23.8731 7.45966 28.125 14.0599 28.125 18.5796" stroke="black" stroke-width="1.5" stroke-linecap="round" stroke-linejoin="round"/>
</svg>
