<svg width="36" height="37" viewBox="0 0 36 37" fill="none" xmlns="http://www.w3.org/2000/svg">
<path d="M29.288 12.4285C29.288 18.6677 18.0001 26.4529 18.0001 26.4529C18.0001 26.4529 6.71216 18.6677 6.71216 12.4285C6.71216 6.63965 13.7365 5.8197 18.0001 5.8197C22.2636 5.8197 29.288 6.63965 29.288 12.4285Z" stroke="black" stroke-width="1.5" stroke-linecap="round" stroke-linejoin="round"/>
<path d="M15.9478 29.8735C15.9478 30.4178 16.164 30.9399 16.5489 31.3247C16.9338 31.7096 17.4558 31.9259 18.0001 31.9259C18.5444 31.9259 19.0664 31.7096 19.4513 31.3247C19.8362 30.9399 20.0524 30.4178 20.0524 29.8735C20.0524 29.3292 19.8362 28.8072 19.4513 28.4223C19.0664 28.0374 18.5444 27.8212 18.0001 27.8212C17.4558 27.8212 16.9338 28.0374 16.5489 28.4223C16.164 28.8072 15.9478 29.3292 15.9478 29.8735Z" stroke="black" stroke-width="1.5" stroke-linecap="round" stroke-linejoin="round"/>
<path d="M25.1832 26.4529C25.1832 26.9972 25.3995 27.5192 25.7843 27.9041C26.1692 28.289 26.6913 28.5052 27.2356 28.5052C27.7799 28.5052 28.3019 28.289 28.6868 27.9041C29.0717 27.5192 29.2879 26.9972 29.2879 26.4529C29.2879 25.9085 29.0717 25.3865 28.6868 25.0016C28.3019 24.6167 27.7799 24.4005 27.2356 24.4005C26.6913 24.4005 26.1692 24.6167 25.7843 25.0016C25.3995 25.3865 25.1832 25.9085 25.1832 26.4529Z" stroke="black" stroke-width="1.5" stroke-linecap="round" stroke-linejoin="round"/>
<path d="M27.2356 24.4005V17.6688" stroke="black" stroke-width="1.5" stroke-linecap="round" stroke-linejoin="round"/>
<path d="M6.71216 26.4529C6.71216 26.9972 6.92839 27.5192 7.31328 27.9041C7.69817 28.289 8.22019 28.5052 8.7645 28.5052C9.30882 28.5052 9.83084 28.289 10.2157 27.9041C10.6006 27.5192 10.8169 26.9972 10.8169 26.4529C10.8169 25.9085 10.6006 25.3865 10.2157 25.0016C9.83084 24.6167 9.30882 24.4005 8.7645 24.4005C8.22019 24.4005 7.69817 24.6167 7.31328 25.0016C6.92839 25.3865 6.71216 25.9085 6.71216 26.4529Z" stroke="black" stroke-width="1.5" stroke-linecap="round" stroke-linejoin="round"/>
<path d="M8.76453 24.4005V17.6688" stroke="black" stroke-width="1.5" stroke-linecap="round" stroke-linejoin="round"/>
</svg>
