<svg width="32" height="33" viewBox="0 0 32 33" fill="none" xmlns="http://www.w3.org/2000/svg">
<path d="M26.0337 11.1447C26.0337 16.6906 16 23.6108 16 23.6108C16 23.6108 5.96631 16.6906 5.96631 11.1447C5.96631 5.99898 12.2102 5.27014 16 5.27014C19.7898 5.27014 26.0337 5.99898 26.0337 11.1447Z" stroke="black" stroke-width="1.5" stroke-linecap="round" stroke-linejoin="round"/>
<path d="M14.1757 26.6512C14.1757 27.135 14.3679 27.5991 14.71 27.9412C15.0521 28.2833 15.5161 28.4755 16 28.4755C16.4838 28.4755 16.9478 28.2833 17.2899 27.9412C17.6321 27.5991 17.8243 27.135 17.8243 26.6512C17.8243 26.1674 17.6321 25.7034 17.2899 25.3612C16.9478 25.0191 16.4838 24.8269 16 24.8269C15.5161 24.8269 15.0521 25.0191 14.71 25.3612C14.3679 25.7034 14.1757 26.1674 14.1757 26.6512Z" stroke="black" stroke-width="1.5" stroke-linecap="round" stroke-linejoin="round"/>
<path d="M22.3851 23.6107C22.3851 24.0945 22.5773 24.5585 22.9195 24.9007C23.2616 25.2428 23.7256 25.435 24.2094 25.435C24.6933 25.435 25.1573 25.2428 25.4994 24.9007C25.8415 24.5585 26.0337 24.0945 26.0337 23.6107C26.0337 23.1268 25.8415 22.6628 25.4994 22.3207C25.1573 21.9786 24.6933 21.7864 24.2094 21.7864C23.7256 21.7864 23.2616 21.9786 22.9195 22.3207C22.5773 22.6628 22.3851 23.1268 22.3851 23.6107Z" stroke="black" stroke-width="1.5" stroke-linecap="round" stroke-linejoin="round"/>
<path d="M24.2094 21.7863V15.8026" stroke="black" stroke-width="1.5" stroke-linecap="round" stroke-linejoin="round"/>
<path d="M5.96631 23.6107C5.96631 24.0945 6.15851 24.5585 6.50064 24.9007C6.84276 25.2428 7.30678 25.435 7.79062 25.435C8.27445 25.435 8.73847 25.2428 9.0806 24.9007C9.42272 24.5585 9.61492 24.0945 9.61492 23.6107C9.61492 23.1268 9.42272 22.6628 9.0806 22.3207C8.73847 21.9786 8.27445 21.7864 7.79062 21.7864C7.30678 21.7864 6.84276 21.9786 6.50064 22.3207C6.15851 22.6628 5.96631 23.1268 5.96631 23.6107Z" stroke="black" stroke-width="1.5" stroke-linecap="round" stroke-linejoin="round"/>
<path d="M7.79065 21.7863V15.8026" stroke="black" stroke-width="1.5" stroke-linecap="round" stroke-linejoin="round"/>
</svg>
