<svg width="36" height="37" viewBox="0 0 36 37" fill="none" xmlns="http://www.w3.org/2000/svg">
<path d="M5.20356 10.8125C5.20356 10.8125 12.9955 11.5058 18 11.5C22.8997 11.4944 30.5276 10.8125 30.5276 10.8125" stroke="black" stroke-width="1.5" stroke-linecap="round"/>
<path d="M14.117 18.5017V18.5017C15.349 20.8012 18.152 21.7528 20.5293 20.6786L21.6163 20.1875" stroke="black" stroke-width="1.5" stroke-linecap="round"/>
<path d="M5.56038 6.75184C5.78894 6.47054 6.09893 6.3125 6.42215 6.3125C6.42215 6.3125 13.4548 7 18 7C22.5452 7 29.578 6.3125 29.578 6.3125C29.9012 6.3125 30.2112 6.47054 30.4397 6.75184C30.6683 7.03314 30.7967 7.41468 30.7967 7.8125V13.8131C30.7967 13.8131 32.1841 21.3211 32.1841 28.8125C32.1841 29.4092 31.9915 29.9815 31.6486 30.4035C30.0993 32.3104 22.6194 32.0432 21.1757 30.5215C20.8443 30.1721 20.6253 29.6883 20.5583 29.1575C20.3155 27.2186 20.1791 21.3211 18 21.3211C15.8209 21.3211 15.5233 27.2185 15.2788 29.1575C15.212 29.687 14.9939 30.1698 14.6637 30.519C13.3021 31.9591 5.85115 32.2494 4.35135 30.4035C4.00852 29.9815 3.81592 29.4092 3.81592 28.8125C3.81592 21.3211 5.20343 13.8125 5.20343 13.8125V7.8125C5.20343 7.41468 5.33183 7.03314 5.56038 6.75184Z" stroke="black" stroke-width="1.5" stroke-linecap="round" stroke-linejoin="round"/>
</svg>
