<svg width="32" height="33" viewBox="0 0 32 33" fill="none" xmlns="http://www.w3.org/2000/svg">
<path d="M4.62538 9.6875C4.62538 9.6875 11.5515 10.3037 16 10.2986C20.3553 10.2936 27.1356 9.6875 27.1356 9.6875" stroke="black" stroke-width="1.5" stroke-linecap="round"/>
<path d="M12.5486 16.5223V16.5223C13.6437 18.5663 16.1352 19.4122 18.2484 18.4574L19.2146 18.0208" stroke="black" stroke-width="1.5" stroke-linecap="round"/>
<path d="M4.94252 6.07802C5.14568 5.82798 5.42123 5.6875 5.70854 5.6875C5.70854 5.6875 11.9598 6.29861 16 6.29861C20.0401 6.29862 26.2915 5.6875 26.2915 5.6875C26.5788 5.6875 26.8543 5.82798 27.0575 6.07802C27.2607 6.32807 27.3748 6.66721 27.3748 7.02083V12.3547C27.3748 12.3547 28.608 19.0285 28.608 25.6875C28.608 26.2179 28.4368 26.7266 28.1321 27.1017C26.7549 28.7968 20.1061 28.5592 18.8228 27.2066C18.5282 26.896 18.3335 26.466 18.274 25.9942C18.0582 24.2707 17.9369 19.0285 16 19.0285C14.063 19.0285 13.7984 24.2706 13.5811 25.9942C13.5218 26.4648 13.3279 26.894 13.0344 27.2044C11.824 28.4845 5.20098 28.7425 3.86783 27.1017C3.56309 26.7266 3.39189 26.2179 3.39189 25.6875C3.39189 19.0285 4.62523 12.3542 4.62523 12.3542V7.02083C4.62523 6.66721 4.73936 6.32807 4.94252 6.07802Z" stroke="black" stroke-width="1.5" stroke-linecap="round" stroke-linejoin="round"/>
</svg>
