<svg width="28" height="28" viewBox="0 0 28 28" fill="none" xmlns="http://www.w3.org/2000/svg">
<path d="M7.16883 25.4716H1.92408V10.4388H7.16883V25.4716ZM18.0576 15.3382C17.4451 15.3382 16.8577 15.5815 16.4246 16.0146C15.9915 16.4477 15.7482 17.0351 15.7482 17.6476V25.4716H10.2337V10.4388H15.7482V12.1547C17.0407 11.0605 18.6737 10.45 20.367 10.428C23.788 10.428 26.1622 12.9641 26.1622 17.7771V25.4716H20.367V17.6476C20.3685 17.3435 20.3098 17.042 20.1943 16.7605C20.0789 16.4791 19.909 16.2232 19.6944 16.0077C19.4799 15.7921 19.2248 15.621 18.9439 15.5043C18.663 15.3875 18.3618 15.3274 18.0576 15.3274V15.3382ZM7.26595 5.23722C7.26595 5.77082 7.10772 6.29244 6.81127 6.73611C6.51482 7.17978 6.09346 7.52557 5.60048 7.72977C5.1075 7.93397 4.56504 7.9874 4.0417 7.8833C3.51835 7.7792 3.03763 7.52225 2.66032 7.14494C2.28301 6.76763 2.02606 6.28691 1.92196 5.76356C1.81786 5.24022 1.87129 4.69776 2.07549 4.20478C2.27968 3.7118 2.62548 3.29044 3.06915 2.99399C3.51282 2.69754 4.03444 2.53931 4.56803 2.53931C5.27982 2.545 5.96051 2.83176 6.46181 3.3371C6.96311 3.84244 7.24439 4.52542 7.24437 5.23722H7.26595Z" stroke="#27272A" stroke-width="1.5" stroke-linecap="round" stroke-linejoin="round"/>
</svg>
