<svg width="366" height="72" viewBox="0 0 366 72" fill="none" xmlns="http://www.w3.org/2000/svg">
<path d="M38.9225 11.4795C39.701 9.61537 42.3324 9.58867 43.1487 11.4366L50.4526 27.9726C50.6741 28.4739 51.0672 28.8797 51.5613 29.1168L61.5818 33.9264C63.3215 34.7614 63.3215 37.2384 61.5818 38.0734L51.5613 42.883C51.0672 43.1201 50.6741 43.5259 50.4526 44.0272L43.1487 60.5632C42.3324 62.4111 39.701 62.3844 38.9225 60.5203L32.054 44.0749C31.8325 43.5446 31.4204 43.1164 30.899 42.8746L20.5706 38.0866C18.7937 37.2629 18.7937 34.7369 20.5706 33.9132L30.899 29.1252C31.4204 28.8834 31.8325 28.4552 32.054 27.9249L38.9225 11.4795Z" fill="#F9C23C"/>
<path d="M17.8027 11.8184C18.1024 11.0625 19.3251 11.053 19.6401 11.8042L21.4937 16.2237C21.5779 16.4245 21.7458 16.5902 21.9641 16.6879L25.0248 18.0577C25.731 18.3737 25.731 19.2536 25.0248 19.5696L21.9641 20.9394C21.7458 21.0371 21.5779 21.2029 21.4937 21.4037L19.6401 25.8231C19.3251 26.5743 18.1024 26.5649 17.8027 25.809L16.0623 21.4197C15.9788 21.2092 15.8039 21.0357 15.5752 20.9365L12.4362 19.5744C11.7156 19.2617 11.7156 18.3656 12.4362 18.0529L15.5752 16.6908C15.8039 16.5916 15.9788 16.4181 16.0623 16.2076L17.8027 11.8184Z" fill="#F9C23C"/>
<path d="M13.6174 38.2541C13.999 37.1816 15.5555 37.1682 15.9565 38.234L18.3161 44.5046C18.4233 44.7895 18.6371 45.0247 18.9149 45.1632L22.8112 47.1068C23.7102 47.5552 23.7103 48.8035 22.8112 49.252L18.9149 51.1955C18.6371 51.3341 18.4233 51.5693 18.3161 51.8542L15.9565 58.1248C15.5555 59.1905 13.999 59.1771 13.6174 58.1046L11.4019 51.8769C11.2957 51.5783 11.0731 51.3322 10.7819 51.1914L6.78595 49.2588C5.86855 48.8151 5.86855 47.5437 6.78595 47.1L10.7819 45.1674C11.0731 45.0266 11.2957 44.7804 11.4019 44.4818L13.6174 38.2541Z" fill="#F9C23C"/>
<path d="M80 54.35C82.16 51.83 82.22 48.11 82.22 47.57V19.31C82.22 18.77 82.16 15.05 80 12.53H91.82C89.6 16.01 89.6 19.37 89.6 19.37V50.33H98.6C99.5 50.27 100.34 49.97 101.06 49.43L104.72 46.55L107.78 54.35H80Z" fill="white"/>
<path d="M122.208 23.81C131.688 23.81 136.488 30.89 136.488 39.89C136.488 51.29 130.008 55.43 122.208 55.43C114.348 55.43 107.927 51.23 107.927 39.59C107.927 27.95 114.348 23.81 122.208 23.81ZM129.647 48.11C129.647 43.01 129.768 38.09 127.428 33.47C125.328 29.33 121.248 28.19 116.748 28.19C114.948 28.19 114.228 29.21 114.228 31.13C114.228 36.17 114.888 40.97 117.048 45.59C118.968 49.91 122.688 51.65 127.188 51.65C128.688 51.65 129.647 50.51 129.647 48.11Z" fill="white"/>
<path d="M157.258 23.45C161.158 23.45 162.418 25.67 162.418 25.67L156.538 32.99C156.538 32.99 155.098 29.81 151.378 29.81C150.358 29.81 149.098 30.11 147.658 30.71L147.718 47.39C147.718 47.69 147.778 50.93 149.998 54.47H138.478C140.578 51.89 140.698 48.35 140.698 47.57V32.87C140.698 32.87 140.578 29.27 138.478 27.53L147.658 23.33V28.73C148.918 27.29 152.578 23.45 157.258 23.45Z" fill="white"/>
<path d="M178.82 50.93C180.68 50.93 182.6 50.63 184.4 50.27C183.86 50.93 181.1 55.31 174.38 55.31C166.76 55.31 161.78 50.27 161.78 39.11C161.78 30.23 165.62 23.81 174.44 23.81C181.22 23.81 183.86 28.19 183.86 28.19L170.42 44.81C170.42 44.81 170.36 45.17 170.66 45.77C172.94 50.63 175.52 50.93 178.82 50.93ZM167.12 31.49C167.12 35.75 169.7 42.47 169.7 42.53C169.7 42.53 174.02 36.05 175.04 34.49C178.1 29.81 174.92 28.37 169.88 28.07C167.78 27.95 167.24 29.15 167.12 31.49Z" fill="white"/>
<path d="M220.561 54.53C222.661 49.25 222.721 47.63 222.721 47.45V35.63C222.721 34.37 222.661 29.81 217.381 29.81C215.581 29.81 213.841 30.11 212.101 30.83V46.81L208.6 45.4701L205.741 46.15V34.37C205.741 34.37 205.741 29.63 200.041 29.63C198.781 29.63 197.101 29.99 195.181 30.77L195.301 47.45C195.301 47.75 195.361 50.99 197.581 54.53H186.061C188.221 51.89 188.281 48.41 188.281 47.57C188.281 42.77 188.281 37.91 188.281 33.05C188.281 33.05 188.281 29.75 186.061 27.71C186.061 27.65 195.121 23.51 195.121 23.51V29.09C196.261 27.89 200.881 23.51 205.321 23.51C210.481 23.51 211.801 26.51 212.041 29.27C212.761 28.49 217.621 23.51 222.241 23.51C228.961 23.51 229.141 28.37 229.141 31.31L229.201 47.57C229.201 48.29 229.321 50.57 231.361 54.53H220.561Z" fill="white"/>
<path d="M258.215 46.61C258.215 47.15 258.275 50.09 260.375 51.77L253.835 54.53C253.835 54.53 251.195 53.93 251.195 50.51V49.49C249.995 50.69 245.795 54.89 242.495 54.89C238.835 54.89 233.075 48.77 233.075 44.51C233.075 43.25 233.615 42.05 234.935 41.33C240.155 38.69 246.875 35.33 250.835 33.41C250.955 32.09 250.535 27.23 248.675 27.23C245.075 27.23 241.595 30.17 239.915 33.65L236.975 26.33C240.395 22.97 245.375 22.49 249.815 24.23C258.095 27.47 258.215 31.91 258.215 33.05C258.215 37.85 258.215 41.81 258.215 46.61ZM245.975 48.35C247.955 48.35 250.055 48.05 251.195 47.57L250.895 35.57C249.995 36.11 248.015 37.31 243.155 40.31C241.535 41.33 240.875 42.77 240.875 44.15C240.875 46.01 242.015 47.81 243.455 48.11C244.235 48.29 245.075 48.35 245.975 48.35Z" fill="white"/>
<path d="M291.694 54.47H280.834C282.934 49.19 283.054 47.57 283.054 47.33C283.054 42.95 283.054 38.57 283.054 34.25C283.054 34.25 283.054 29.51 276.454 29.51C275.074 29.51 273.454 29.87 271.474 30.71L271.594 47.39C271.594 47.69 271.654 50.93 273.874 54.47H262.354C264.454 51.89 264.574 48.35 264.574 47.57C264.574 42.71 264.574 37.85 264.574 32.99C264.574 32.99 264.574 29.69 262.354 27.65C262.354 27.53 271.414 23.45 271.414 23.45V29.09C272.674 28.01 278.314 23.45 282.394 23.45C286.534 23.45 289.414 25.79 289.414 31.25C289.414 36.65 289.474 42.11 289.474 47.57C289.474 48.23 289.654 50.51 291.694 54.47Z" fill="white"/>
<path d="M311.44 50.93C313.3 50.93 314.86 50.69 316.54 50.27C313.66 54.11 309.22 55.37 306.1 55.37C298.18 55.37 293.8 49.61 293.8 39.47C293.8 29.39 298.18 23.81 306.22 23.81C313.18 23.81 316 28.13 316 28.13L310.12 35.51C310.12 35.51 308.8 28.49 301.6 28.49C299.98 28.49 299.32 29.57 299.32 31.43C299.32 33.95 300.52 38.03 301.78 42.77C303.16 47.93 305.38 50.93 311.44 50.93Z" fill="white"/>
<path d="M334.602 50.93C336.462 50.93 338.382 50.63 340.182 50.27C339.642 50.93 336.882 55.31 330.162 55.31C322.542 55.31 317.562 50.27 317.562 39.11C317.562 30.23 321.402 23.81 330.222 23.81C337.002 23.81 339.642 28.19 339.642 28.19L326.202 44.81C326.202 44.81 326.142 45.17 326.442 45.77C328.722 50.63 331.302 50.93 334.602 50.93ZM322.902 31.49C322.902 35.75 325.482 42.47 325.482 42.53C325.482 42.53 329.802 36.05 330.822 34.49C333.882 29.81 330.702 28.37 325.662 28.07C323.562 27.95 323.022 29.15 322.902 31.49Z" fill="white"/>
<path d="M360.562 23.45C364.462 23.45 365.722 25.67 365.722 25.67L359.842 32.99C359.842 32.99 358.402 29.81 354.682 29.81C353.662 29.81 352.402 30.11 350.962 30.71L351.022 47.39C351.022 47.69 351.082 50.93 353.302 54.47H341.782C343.882 51.89 344.002 48.35 344.002 47.57V32.87C344.002 32.87 343.882 29.27 341.782 27.53L350.962 23.33V28.73C352.222 27.29 355.882 23.45 360.562 23.45Z" fill="white"/>
<path d="M126.881 38.5448C124 36.53 123.5 36.53 121.777 34.2922C121.777 34.2922 120.5 37.03 118 39.03C121 41.53 121 42.53 123 44.53C124.372 41.7678 124.5 41.03 126.881 38.5448Z" fill="white"/>
<path d="M204.5 54.5302C206.9 56.3427 207.5 57.5302 209.203 59.4702C211 57.0302 213.427 55.2176 213.427 55.2176C211 53.0302 210 50.5302 208.353 48.4702C207 49.5302 207 52.0302 204.5 54.5302Z" fill="white"/>
</svg>
