<svg width="191" height="72" viewBox="0 0 191 72" fill="none" xmlns="http://www.w3.org/2000/svg">
<path d="M38.9225 11.4795C39.701 9.61537 42.3324 9.58867 43.1487 11.4366L50.4526 27.9726C50.6741 28.4739 51.0672 28.8797 51.5613 29.1168L61.5818 33.9264C63.3215 34.7614 63.3215 37.2384 61.5818 38.0734L51.5613 42.883C51.0672 43.1201 50.6741 43.5259 50.4526 44.0272L43.1487 60.5632C42.3324 62.4111 39.701 62.3844 38.9225 60.5203L32.054 44.0749C31.8325 43.5446 31.4204 43.1164 30.899 42.8746L20.5706 38.0866C18.7937 37.2629 18.7937 34.7369 20.5706 33.9132L30.899 29.1252C31.4204 28.8834 31.8325 28.4552 32.054 27.9249L38.9225 11.4795Z" fill="#F9C23C"/>
<path d="M17.8027 11.8184C18.1024 11.0625 19.3251 11.053 19.6401 11.8042L21.4937 16.2237C21.5779 16.4245 21.7458 16.5902 21.9641 16.6879L25.0248 18.0577C25.731 18.3737 25.731 19.2536 25.0248 19.5696L21.9641 20.9394C21.7458 21.0371 21.5779 21.2029 21.4937 21.4037L19.6401 25.8231C19.3251 26.5743 18.1024 26.5649 17.8027 25.809L16.0623 21.4197C15.9788 21.2092 15.8039 21.0357 15.5752 20.9365L12.4362 19.5744C11.7156 19.2617 11.7156 18.3656 12.4362 18.0529L15.5752 16.6908C15.8039 16.5916 15.9788 16.4181 16.0623 16.2076L17.8027 11.8184Z" fill="#F9C23C"/>
<path d="M13.6174 38.2541C13.999 37.1816 15.5555 37.1682 15.9565 38.234L18.3161 44.5046C18.4233 44.7895 18.6371 45.0247 18.9149 45.1632L22.8112 47.1068C23.7102 47.5552 23.7103 48.8035 22.8112 49.252L18.9149 51.1955C18.6371 51.3341 18.4233 51.5693 18.3161 51.8542L15.9565 58.1248C15.5555 59.1905 13.999 59.1771 13.6174 58.1046L11.4019 51.8769C11.2957 51.5783 11.0731 51.3322 10.7819 51.1914L6.78595 49.2588C5.86855 48.8151 5.86855 47.5437 6.78595 47.1L10.7819 45.1674C11.0731 45.0266 11.2957 44.7804 11.4019 44.4818L13.6174 38.2541Z" fill="#F9C23C"/>
<path d="M157.015 55.3731C157.706 57.7599 158.371 59.5899 159.008 60.8628C159.646 62.0828 160.577 63.064 161.799 63.8066C161.055 64.2839 160.151 64.6022 159.088 64.7613C158.078 64.9204 157.281 65 156.696 65C154.782 64.8939 153.108 64.337 151.672 63.3292C150.29 62.2684 149.333 60.6241 148.801 58.3964L143.937 34.6872C142.342 34.5812 140.987 34.0773 139.87 33.1756V54.5775C139.87 56.4339 139.95 57.9986 140.11 59.2716C140.269 60.4915 140.482 61.4728 140.747 62.2154C140.96 63.1171 141.252 63.8066 141.625 64.2839H129.663C129.982 63.8066 130.275 63.1171 130.54 62.2154C130.753 61.4728 130.939 60.4915 131.099 59.2716C131.311 57.9986 131.418 56.4339 131.418 54.5775V17.5021C131.418 15.6456 131.311 14.1075 131.099 12.8875C130.939 11.6145 130.753 10.6068 130.54 9.8642C130.275 8.96251 129.982 8.27298 129.663 7.79561H143.778C145.904 7.79561 147.818 8.03429 149.519 8.51166C151.273 8.98903 152.762 9.75812 153.985 10.8189C155.261 11.8267 156.244 13.1527 156.935 14.797C157.626 16.4412 157.972 18.4568 157.972 20.8436C157.972 24.6095 157.042 27.6859 155.181 30.0727C153.32 32.4595 150.689 33.9447 147.286 34.5281C147.871 34.7933 148.509 35.1646 149.2 35.642C149.891 36.1193 150.556 36.7293 151.194 37.4719C151.885 38.2144 152.496 39.1161 153.028 40.177C153.613 41.1847 154.064 42.3781 154.383 43.7572L157.015 55.3731ZM140.747 30.9479C140.907 31.3722 141.306 31.7965 141.944 32.2208C142.635 32.5921 143.406 32.7778 144.256 32.7778C145.319 32.7778 146.197 32.4595 146.888 31.823C147.579 31.1866 148.11 30.3379 148.482 29.2771C148.908 28.2163 149.174 26.9698 149.28 25.5377C149.439 24.0526 149.519 22.5144 149.519 20.9232C149.519 18.8546 149.28 17.1308 148.801 15.7517C148.376 14.3196 147.791 13.1792 147.047 12.3306C146.303 11.4289 145.452 10.7924 144.495 10.4211C143.592 9.9968 142.688 9.78463 141.784 9.78463H139.87V23.9465C140.242 23.5752 140.721 23.2835 141.306 23.0713C141.89 22.8592 142.475 22.7796 143.06 22.8326C143.645 22.8857 144.176 23.0713 144.655 23.3896C145.133 23.6548 145.505 24.1056 145.771 24.7421C144.921 24.583 144.097 24.6626 143.299 24.9808C142.555 25.299 141.944 25.7764 141.465 26.4129C140.987 26.9963 140.668 27.6859 140.508 28.4815C140.349 29.2771 140.428 30.0992 140.747 30.9479Z" fill="white"/>
<path d="M191 51.7133H164.047C164.366 51.2359 164.658 50.5464 164.924 49.6447C165.137 48.9021 165.323 47.9209 165.482 46.701C165.695 45.428 165.801 43.8633 165.801 42.0069V17.5021C165.801 15.6456 165.695 14.1075 165.482 12.8875C165.323 11.6145 165.137 10.6068 164.924 9.8642C164.658 8.96251 164.366 8.27298 164.047 7.79561H190.203L189.485 15.6722H187.651C187.385 14.6113 187.119 13.7096 186.853 12.9671C186.588 12.2245 186.189 11.6145 185.657 11.1372C185.126 10.6598 184.355 10.315 183.345 10.1029C182.335 9.89072 180.926 9.78463 179.118 9.78463H174.254V24.5034C175.849 24.6095 177.311 24.6095 178.64 24.5034C179.969 24.3973 181.112 24.2913 182.069 24.1852C183.185 24.0261 184.169 23.8404 185.019 23.6283C185.072 23.9465 185.099 24.2913 185.099 24.6625C185.099 25.246 184.966 25.9886 184.7 26.8903C184.435 27.6859 183.85 28.2163 182.946 28.4815C182.042 28.6936 181.139 28.6671 180.235 28.4019L174.254 26.7311V46.3827C174.254 46.6479 174.307 46.9927 174.414 47.417C174.573 47.7883 174.812 48.1596 175.131 48.5309C175.503 48.9021 176.008 49.2204 176.646 49.4856C177.284 49.6978 178.108 49.8038 179.118 49.8038H181.909C183.132 49.8038 184.116 49.5917 184.86 49.1674C185.604 48.69 186.189 48.08 186.614 47.3374C187.093 46.5418 187.438 45.6932 187.651 44.7915C187.917 43.8368 188.182 42.882 188.448 41.9273H190.282L191 51.7133ZM169.709 62.0562C168.592 62.1093 167.503 62.2949 166.439 62.6132C165.429 62.8784 164.552 63.2231 163.808 63.6475C164.127 62.4275 164.685 61.4198 165.482 60.6241C166.333 59.7755 167.237 59.1125 168.194 58.6351C169.204 58.1047 170.187 57.7334 171.144 57.5213C172.101 57.2561 172.898 57.1235 173.536 57.1235C174.706 57.0704 175.743 57.15 176.646 57.3621C177.603 57.5743 178.534 57.8395 179.437 58.1577C180.341 58.423 181.271 58.6616 182.228 58.8738C183.238 59.086 184.381 59.1655 185.657 59.1125C186.72 59.0594 187.651 58.8738 188.448 58.5556C189.246 58.2373 190.017 57.866 190.761 57.4417C190.389 58.7677 189.777 59.855 188.927 60.7037C188.129 61.5524 187.252 62.2154 186.295 62.6927C185.338 63.1701 184.408 63.5149 183.504 63.727C182.6 63.9392 181.856 64.0453 181.271 64.0453C180.102 64.0983 179.092 64.0187 178.241 63.8066C177.391 63.5944 176.54 63.3557 175.689 63.0905C174.839 62.7723 173.935 62.5071 172.978 62.2949C172.074 62.0828 170.985 62.0032 169.709 62.0562Z" fill="white"/>
<path d="M80 64.2839C80.319 63.8066 80.6114 63.1171 80.8772 62.2154C81.0898 61.4728 81.2759 60.4915 81.4354 59.2716C81.648 57.9986 81.7543 56.4339 81.7543 54.5775V17.5021C81.7543 15.6456 81.648 14.1075 81.4354 12.8875C81.2759 11.6145 81.0898 10.6068 80.8772 9.8642C80.6114 8.96251 80.319 8.27298 80 7.79561H91.9614C91.5893 8.27298 91.2969 8.96251 91.0842 9.8642C90.8184 10.6068 90.6058 11.6145 90.4463 12.8875C90.2868 14.1075 90.207 15.6456 90.207 17.5021V58.8738C90.207 59.139 90.2602 59.4838 90.3665 59.9081C90.526 60.2794 90.7652 60.6507 91.0842 61.0219C91.4563 61.3932 91.9614 61.7115 92.5993 61.9767C93.2373 62.1888 94.0613 62.2949 95.0713 62.2949C96.0814 62.2949 98.173 61.4728 99.0236 60.6241C99.8742 59.7755 100.577 59.2562 101.735 58.6351C103.315 57.7871 105.499 56.9909 107.321 56.9909C109.113 56.9096 111.35 57.4152 112.979 58.1577C113.957 58.6036 115.295 59.6429 115.295 59.6429C115.295 59.6429 116.549 61.134 117.878 61.3667C118.389 61.4562 118.698 61.4704 119.207 61.3667C121.325 60.9349 121.276 54.9172 121.276 54.9172H123.101L124.302 64.2839C124.302 64.2839 119.207 64.2839 116.825 64.2839C114.443 64.2839 114 63 112 62.5C110.679 62.1697 109.5 62.5 109 63C108.099 63.9011 107.184 64.2839 105 64.2839C94.1208 64.2839 80 64.2839 80 64.2839Z" fill="white"/>
<path fill-rule="evenodd" clip-rule="evenodd" d="M110.985 7C112.792 7 114.52 7.29172 116.168 7.87517C117.816 8.45862 119.225 9.30727 120.395 10.4211C121.617 11.4819 122.574 12.7549 123.265 14.2401C124.01 15.6722 124.382 17.2634 124.382 19.0137V41.0521C124.382 42.9085 123.983 44.5793 123.186 46.0645C122.441 47.5496 121.431 48.8226 120.155 49.8834C118.879 50.8912 117.418 51.6868 115.77 52.2702C114.175 52.8006 112.553 53.0658 110.905 53.0658C109.151 53.0658 107.45 52.7741 105.802 52.1907C104.154 51.5542 102.692 50.7055 101.416 49.6447C100.14 48.5839 99.1033 47.3374 98.3059 45.9053C97.5616 44.4202 97.1895 42.8025 97.1895 41.0521V19.0137C97.1895 17.2103 97.5882 15.5661 98.3856 14.0809C99.2362 12.5958 100.326 11.3493 101.655 10.3416C102.984 9.28075 104.473 8.45862 106.121 7.87517C107.769 7.29172 109.39 7 110.985 7ZM113.218 19.7298C114.121 19.7298 115.025 19.4115 115.929 18.775V44.8711C115.929 45.6136 115.823 46.3562 115.61 47.0988C115.451 47.8413 115.158 48.5309 114.733 49.1674C114.361 49.7508 113.856 50.2547 113.218 50.679C112.58 51.0503 111.809 51.2359 110.905 51.2359C109.257 51.2359 107.955 50.5994 106.998 49.3265C106.094 48.0005 105.642 46.5153 105.642 44.8711V15.3539C105.642 14.6113 105.749 13.8688 105.961 13.1262C106.174 12.3836 106.493 11.7206 106.918 11.1372C107.397 10.5007 107.955 9.9968 108.593 9.62551C109.284 9.20119 110.081 8.98902 110.985 8.98902C111.889 8.98902 112.713 9.25423 113.457 9.78463C114.201 10.315 114.733 10.9515 115.052 11.6941C115.424 12.4367 115.53 13.2588 115.371 14.1605C115.211 15.0091 114.706 15.7517 113.856 16.3882C113.324 16.8125 112.58 17.1043 111.623 17.2634C110.879 17.3164 110.028 17.1838 109.071 16.8656C109.177 17.8203 109.629 18.5098 110.427 18.9342C111.224 19.3585 112.155 19.6237 113.218 19.7298Z" fill="white"/>
</svg>
