<svg width="58" height="58" viewBox="0 0 58 58" fill="none" xmlns="http://www.w3.org/2000/svg">
<path d="M54.9431 22.9965L43.6756 29.5244L47.9157 36.7054C48.4733 37.6497 47.5874 38.7891 46.5349 38.4816L40.741 36.7888L34.6111 48.2273C33.681 50.0678 32.5798 49.0149 32.2743 47.5446C30.8053 40.4748 29.5262 34.8659 29.5262 34.8659L13.3821 39.1849C13.1341 39.2512 12.8667 39.2882 12.6325 39.1827C11.7692 38.7937 11.7003 37.5168 12.5295 37.0428C12.7349 36.9254 12.9611 36.843 13.1565 36.7096L28.7038 26.0978L23.8141 7.76054C23.4831 6.51935 25.0595 5.68607 25.8987 6.65863L37.6976 20.3329L41.1072 14.1895C41.6948 13.1307 43.3012 13.4966 43.3724 14.7055L43.8088 22.1183L54.1785 20.7505C55.49 20.5775 56.0877 22.3333 54.9431 22.9965Z" fill="#F1D253"/>
<path d="M7.28858 21.5534L7.852 17.5393L3.73782 15.0498C2.62069 14.3739 2.75995 12.9774 3.86061 13.1512C3.93984 13.1637 4.01975 13.1752 4.09996 13.1752L9.77613 13.1752L13.0869 10.5185C13.1453 10.4716 13.1964 10.4159 13.2516 10.3653C13.8995 9.77231 15.3697 10.728 15.23 11.7233L14.6813 15.6325L17.1947 19.0118C17.9717 20.0565 17.0265 20.9341 15.9705 20.2178C15.9194 20.1831 15.8665 20.1497 15.811 20.1225L12.9787 18.7293L9.32893 22.8467C8.71098 23.569 7.14499 22.5764 7.28858 21.5534Z" fill="#F1D253"/>
</svg>
