<svg width="282" height="72" viewBox="0 0 282 72" fill="none" xmlns="http://www.w3.org/2000/svg">
<path d="M38.9225 11.4795C39.701 9.61537 42.3324 9.58867 43.1487 11.4366L50.4526 27.9726C50.6741 28.4739 51.0672 28.8797 51.5613 29.1168L61.5818 33.9264C63.3215 34.7614 63.3215 37.2384 61.5818 38.0734L51.5613 42.883C51.0672 43.1201 50.6741 43.5259 50.4526 44.0272L43.1487 60.5632C42.3324 62.4111 39.701 62.3844 38.9225 60.5203L32.054 44.0749C31.8325 43.5446 31.4204 43.1164 30.899 42.8746L20.5706 38.0866C18.7937 37.2629 18.7937 34.7369 20.5706 33.9132L30.899 29.1252C31.4204 28.8834 31.8325 28.4552 32.054 27.9249L38.9225 11.4795Z" fill="#F9C23C"/>
<path d="M17.8027 11.8184C18.1024 11.0625 19.3251 11.053 19.6401 11.8042L21.4937 16.2237C21.5779 16.4245 21.7458 16.5902 21.9641 16.6879L25.0248 18.0577C25.731 18.3737 25.731 19.2536 25.0248 19.5696L21.9641 20.9394C21.7458 21.0371 21.5779 21.2029 21.4937 21.4037L19.6401 25.8231C19.3251 26.5743 18.1024 26.5649 17.8027 25.809L16.0623 21.4197C15.9788 21.2092 15.8039 21.0357 15.5752 20.9365L12.4362 19.5744C11.7156 19.2617 11.7156 18.3656 12.4362 18.0529L15.5752 16.6908C15.8039 16.5916 15.9788 16.4181 16.0623 16.2076L17.8027 11.8184Z" fill="#F9C23C"/>
<path d="M13.6174 38.2541C13.999 37.1816 15.5555 37.1682 15.9565 38.234L18.3161 44.5046C18.4233 44.7895 18.6371 45.0247 18.9149 45.1632L22.8112 47.1068C23.7102 47.5552 23.7103 48.8035 22.8112 49.252L18.9149 51.1955C18.6371 51.3341 18.4233 51.5693 18.3161 51.8542L15.9565 58.1248C15.5555 59.1905 13.999 59.1771 13.6174 58.1046L11.4019 51.8769C11.2957 51.5783 11.0731 51.3322 10.7819 51.1914L6.78595 49.2588C5.86855 48.8151 5.86855 47.5437 6.78595 47.1L10.7819 45.1674C11.0731 45.0266 11.2957 44.7804 11.4019 44.4818L13.6174 38.2541Z" fill="#F9C23C"/>
<path d="M93.2 55.72C91.12 55.72 89.28 55.52 87.68 55.12C86.12 54.76 84.9 54.4 84.02 54.04C83.14 53.64 82.7 53.44 82.7 53.44L82.22 52.6C82.22 52.6 82.26 52.32 82.34 51.76C82.46 51.16 82.56 50.38 82.64 49.42C82.76 48.42 82.88 47.32 83 46.12C83.12 44.88 83.18 43.64 83.18 42.4L88.1 42.04C88.1 44.24 88.3 45.96 88.7 47.2C89.1 48.44 89.78 49.3 90.74 49.78C91.74 50.26 93.08 50.5 94.76 50.5C96.68 50.5 98.22 50.08 99.38 49.24C100.54 48.4 101.12 47.24 101.12 45.76C101.12 44.64 100.68 43.68 99.8 42.88C98.96 42.08 97.86 41.34 96.5 40.66C95.18 39.94 93.76 39.22 92.24 38.5C90.68 37.74 89.16 36.88 87.68 35.92C86.24 34.96 85.04 33.82 84.08 32.5C83.16 31.18 82.7 29.58 82.7 27.7C82.7 25.38 83.38 23.32 84.74 21.52C86.14 19.72 88.02 18.32 90.38 17.32C92.78 16.28 95.54 15.76 98.66 15.76C100.62 15.76 102.36 15.9 103.88 16.18C105.44 16.42 106.66 16.68 107.54 16.96C108.42 17.24 108.86 17.38 108.86 17.38L109.28 18.16C109.28 18.16 109.18 18.64 108.98 19.6C108.78 20.52 108.56 21.78 108.32 23.38C108.12 24.94 107.96 26.62 107.84 28.42L103.4 28.78L102.86 28.42C102.86 28.42 102.88 28.2 102.92 27.76C102.96 27.32 102.98 26.82 102.98 26.26C102.98 24.46 102.52 23.18 101.6 22.42C100.72 21.66 99.22 21.28 97.1 21.28C95.38 21.28 93.96 21.7 92.84 22.54C91.76 23.38 91.22 24.42 91.22 25.66C91.22 26.7 91.58 27.62 92.3 28.42C93.06 29.18 94.04 29.88 95.24 30.52C96.44 31.16 97.72 31.82 99.08 32.5C100.8 33.3 102.48 34.18 104.12 35.14C105.76 36.1 107.12 37.26 108.2 38.62C109.28 39.94 109.82 41.62 109.82 43.66C109.82 46.06 109.12 48.18 107.72 50.02C106.36 51.82 104.44 53.22 101.96 54.22C99.48 55.22 96.56 55.72 93.2 55.72ZM115.644 69.16L116.124 65.5C117.244 65.38 117.964 65.08 118.284 64.6C118.644 64.12 118.844 63.16 118.884 61.72C118.924 60.96 118.964 60.02 119.004 58.9C119.044 57.82 119.084 56.7 119.124 55.54C119.164 54.42 119.184 53.42 119.184 52.54V35.56C119.184 34.2 118.964 33.26 118.524 32.74C118.124 32.22 117.364 31.96 116.244 31.96H115.464L115.224 31.66L115.524 28.54C117.324 28.26 119.064 27.98 120.744 27.7C122.424 27.38 123.784 27.12 124.824 26.92C125.904 26.68 126.444 26.56 126.444 26.56L126.984 27.16C126.984 27.16 126.884 27.58 126.684 28.42C126.524 29.22 126.404 30.06 126.324 30.94L126.564 31.24C128.124 29.8 129.424 28.72 130.464 28C131.504 27.24 132.224 26.86 132.624 26.86C134.984 26.86 137.044 27.4 138.804 28.48C140.604 29.56 142.004 31.1 143.004 33.1C144.004 35.06 144.504 37.36 144.504 40C144.504 42.36 144.104 44.5 143.304 46.42C142.544 48.3 141.444 49.94 140.004 51.34C138.604 52.7 136.924 53.76 134.964 54.52C133.044 55.24 130.924 55.6 128.604 55.6C128.324 55.6 127.964 55.58 127.524 55.54C127.124 55.5 126.764 55.46 126.444 55.42C126.124 55.42 125.964 55.42 125.964 55.42C125.964 56.3 125.964 57.2 125.964 58.12C126.004 59.08 126.024 60.04 126.024 61C126.024 62.56 126.144 63.64 126.384 64.24C126.624 64.84 127.224 65.14 128.184 65.14C128.624 65.14 129.084 65.12 129.564 65.08C130.084 65.04 130.444 65.02 130.644 65.02L130.764 65.26L130.104 68.92C129.864 68.92 129.444 68.9 128.844 68.86C128.284 68.86 127.644 68.84 126.924 68.8C126.244 68.8 125.544 68.8 124.824 68.8C124.104 68.8 123.464 68.8 122.904 68.8C121.784 68.8 120.664 68.82 119.544 68.86C118.424 68.94 117.484 69 116.724 69.04C116.004 69.12 115.644 69.16 115.644 69.16ZM130.704 50.74C132.664 50.74 134.184 50.02 135.264 48.58C136.344 47.1 136.884 45 136.884 42.28C136.884 40.32 136.624 38.62 136.104 37.18C135.624 35.74 134.924 34.64 134.004 33.88C133.124 33.08 132.084 32.68 130.884 32.68C130.324 32.68 129.644 32.86 128.844 33.22C128.044 33.54 127.284 33.98 126.564 34.54C126.484 36.1 126.404 37.78 126.324 39.58C126.284 41.38 126.244 43.18 126.204 44.98C126.204 46.74 126.204 48.36 126.204 49.84C126.644 50 127.284 50.2 128.124 50.44C128.964 50.64 129.824 50.74 130.704 50.74ZM170.49 55.72C168.73 55.72 167.33 55.32 166.29 54.52C165.29 53.72 164.69 52.58 164.49 51.1L164.01 50.92C163.25 51.72 162.45 52.48 161.61 53.2C160.77 53.88 159.99 54.44 159.27 54.88C158.55 55.28 157.93 55.48 157.41 55.48C155.85 55.48 154.45 55.1 153.21 54.34C151.97 53.58 150.99 52.54 150.27 51.22C149.55 49.9 149.19 48.42 149.19 46.78C149.19 45.54 149.51 44.48 150.15 43.6C150.83 42.68 151.67 42.08 152.67 41.8L164.25 39.1L164.31 37.66C164.31 35.94 163.85 34.6 162.93 33.64C162.05 32.68 160.79 32.2 159.15 32.2C158.03 32.2 156.83 32.48 155.55 33.04C154.27 33.56 153.13 34.22 152.13 35.02L151.59 34.78L150.57 31.18C151.73 30.5 153.03 29.82 154.47 29.14C155.91 28.42 157.27 27.82 158.55 27.34C159.87 26.86 160.87 26.62 161.55 26.62C163.87 26.62 165.77 26.98 167.25 27.7C168.73 28.42 169.81 29.4 170.49 30.64C171.17 31.84 171.51 33.22 171.51 34.78C171.51 35.3 171.45 36.1 171.33 37.18C171.21 38.26 171.07 39.44 170.91 40.72C170.75 42 170.61 43.22 170.49 44.38C170.37 45.54 170.31 46.46 170.31 47.14C170.31 47.9 170.49 48.5 170.85 48.94C171.25 49.38 171.79 49.6 172.47 49.6C172.99 49.6 173.51 49.48 174.03 49.24C174.59 49 175.03 48.78 175.35 48.58L176.25 49.84C175.85 50.52 175.33 51.3 174.69 52.18C174.05 53.02 173.37 53.78 172.65 54.46C171.93 55.1 171.21 55.52 170.49 55.72ZM159.63 49.78C160.23 49.78 160.93 49.62 161.73 49.3C162.57 48.94 163.31 48.52 163.95 48.04L164.13 42.34L157.71 44.14C156.75 44.42 156.27 45.08 156.27 46.12C156.27 47.16 156.57 48.04 157.17 48.76C157.81 49.44 158.63 49.78 159.63 49.78ZM180.714 51.58C181.914 51.5 182.714 51.18 183.114 50.62C183.554 50.06 183.774 49 183.774 47.44V35.5C183.774 34.14 183.594 33.22 183.234 32.74C182.874 32.22 182.194 31.96 181.194 31.96C180.954 31.96 180.694 31.98 180.414 32.02C180.174 32.02 180.054 32.02 180.054 32.02L179.754 31.6L180.114 28.6C181.834 28.32 183.514 28.02 185.154 27.7C186.794 27.38 188.154 27.12 189.234 26.92C190.354 26.68 190.914 26.56 190.914 26.56L191.454 27.1C191.454 27.1 191.394 27.4 191.274 28C191.194 28.56 191.114 29.28 191.034 30.16C190.954 31 190.894 31.86 190.854 32.74L191.214 32.98C192.494 31.1 193.874 29.64 195.354 28.6C196.834 27.56 198.254 27.04 199.614 27.04C200.254 27.04 200.754 27.08 201.114 27.16C201.514 27.2 201.714 27.22 201.714 27.22L201.954 27.7C201.954 27.7 201.894 28.04 201.774 28.72C201.694 29.36 201.574 30.22 201.414 31.3C201.294 32.38 201.154 33.56 200.994 34.84C200.874 36.12 200.794 37.36 200.754 38.56L196.914 38.8C196.914 36.88 196.794 35.62 196.554 35.02C196.354 34.38 195.914 34.06 195.234 34.06C194.594 34.06 193.914 34.3 193.194 34.78C192.474 35.26 191.794 35.92 191.154 36.76C191.154 36.76 191.134 37.12 191.094 37.84C191.054 38.52 190.994 39.4 190.914 40.48C190.874 41.56 190.834 42.66 190.794 43.78C190.754 44.9 190.714 45.88 190.674 46.72C190.634 47.56 190.614 48.1 190.614 48.34C190.614 49.38 190.774 50.1 191.094 50.5C191.454 50.9 192.074 51.1 192.954 51.1C193.514 51.1 194.154 51.08 194.874 51.04C195.594 50.96 195.954 50.92 195.954 50.92L196.134 51.28L195.474 55.24C195.474 55.24 195.214 55.22 194.694 55.18C194.174 55.14 193.494 55.1 192.654 55.06C191.854 55.06 191.014 55.04 190.134 55C189.254 55 188.454 55 187.734 55C186.534 55 185.354 55.02 184.194 55.06C183.034 55.1 182.074 55.14 181.314 55.18C180.594 55.22 180.234 55.24 180.234 55.24L180.714 51.58ZM205.215 51.64C206.095 51.52 206.735 51.3 207.135 50.98C207.575 50.66 207.835 50.18 207.915 49.54C208.035 48.86 208.095 48 208.095 46.96V19.12C208.095 17.12 207.535 16.04 206.415 15.88C206.055 15.8 205.635 15.78 205.155 15.82C204.715 15.82 204.355 15.82 204.075 15.82C204.075 15.7 204.055 15.58 204.015 15.46C204.015 15.3 204.015 15.16 204.015 15.04L204.315 12.4C205.675 12.24 207.055 12.06 208.455 11.86C209.895 11.62 211.215 11.4 212.415 11.2C213.615 10.96 214.575 10.78 215.295 10.66C216.055 10.54 216.435 10.48 216.435 10.48L216.855 11.62C216.655 11.9 216.455 12.72 216.255 14.08C216.055 15.4 215.875 17.2 215.715 19.48C215.595 21.72 215.475 24.36 215.355 27.4C215.235 30.4 215.135 33.7 215.055 37.3C215.015 40.9 214.995 44.7 214.995 48.7C214.995 49.7 215.135 50.4 215.415 50.8C215.695 51.2 216.155 51.4 216.795 51.4C217.035 51.4 217.355 51.38 217.755 51.34C218.155 51.3 218.355 51.28 218.355 51.28L218.535 51.64L217.875 55.24C217.875 55.24 217.655 55.22 217.215 55.18C216.775 55.18 216.215 55.16 215.535 55.12C214.855 55.08 214.135 55.04 213.375 55C212.655 55 211.995 55 211.395 55C210.435 55 209.435 55.02 208.395 55.06C207.355 55.14 206.475 55.2 205.755 55.24C205.075 55.32 204.735 55.36 204.735 55.36L205.215 51.64ZM215.955 40.96L216.075 39.58L221.895 33.7C222.375 33.22 222.695 32.84 222.855 32.56C223.055 32.24 223.155 31.94 223.155 31.66C223.155 31.22 222.895 30.92 222.375 30.76C221.895 30.56 221.095 30.46 219.975 30.46L219.795 30.16L220.335 27.22C220.335 27.22 220.735 27.24 221.535 27.28C222.335 27.28 223.295 27.3 224.415 27.34C225.535 27.34 226.595 27.34 227.595 27.34C228.515 27.34 229.455 27.32 230.415 27.28C231.415 27.2 232.255 27.14 232.935 27.1C233.615 27.06 233.955 27.04 233.955 27.04L234.135 27.34L233.655 30.7C232.375 31.14 231.115 31.86 229.875 32.86C228.635 33.82 227.435 34.88 226.275 36.04C225.115 37.16 223.995 38.26 222.915 39.34L228.015 47.14C229.055 48.62 230.055 49.72 231.015 50.44C231.975 51.16 233.035 51.56 234.195 51.64L234.435 52.12L234.015 55.06C234.015 55.06 233.735 55.1 233.175 55.18C232.655 55.3 232.055 55.42 231.375 55.54C230.695 55.66 230.115 55.74 229.635 55.78C229.115 55.82 228.615 55.82 228.135 55.78C227.695 55.74 227.315 55.66 226.995 55.54C225.995 55.34 225.115 54.9 224.355 54.22C223.635 53.5 222.855 52.4 222.015 50.92L215.955 40.96ZM237.171 55.54L237.591 51.88C238.551 51.64 239.231 51.34 239.631 50.98C240.071 50.62 240.331 50.12 240.411 49.48C240.531 48.8 240.591 47.96 240.591 46.96V19.12C240.591 18.08 240.491 17.32 240.291 16.84C240.131 16.36 239.771 16.06 239.211 15.94C238.651 15.78 237.811 15.74 236.691 15.82L236.451 15.58L236.811 12.4C238.811 12.16 240.811 11.88 242.811 11.56C244.851 11.24 246.891 10.88 248.931 10.48L249.351 11.62C249.151 12.18 248.951 13.2 248.751 14.68C248.551 16.12 248.371 17.98 248.211 20.26C248.051 22.54 247.911 25.16 247.791 28.12C247.671 31.04 247.591 34.24 247.551 37.72C247.511 41.2 247.491 44.86 247.491 48.7C247.491 49.66 247.611 50.36 247.851 50.8C248.131 51.2 248.611 51.4 249.291 51.4L251.271 51.28L251.451 51.64L250.791 55.18C249.751 55.14 248.591 55.1 247.311 55.06C246.031 55.02 244.931 55 244.011 55C243.171 55 242.131 55.04 240.891 55.12C239.651 55.24 238.411 55.38 237.171 55.54ZM268.593 55.72C265.793 55.72 263.373 55.16 261.333 54.04C259.333 52.92 257.773 51.32 256.653 49.24C255.573 47.16 255.033 44.72 255.033 41.92C255.033 39.72 255.393 37.7 256.113 35.86C256.833 34.02 257.833 32.42 259.113 31.06C260.393 29.66 261.893 28.58 263.613 27.82C265.333 27.02 267.193 26.62 269.193 26.62C275.913 26.62 279.273 30.02 279.273 36.82C279.273 37.42 279.213 38.04 279.093 38.68C279.013 39.32 278.933 39.82 278.853 40.18L278.133 40.9H262.593C262.673 43.66 263.313 45.82 264.513 47.38C265.753 48.9 267.473 49.74 269.673 49.9C271.873 50.06 274.453 49.46 277.413 48.1L277.833 48.34L278.793 51.28C277.993 51.88 276.993 52.54 275.793 53.26C274.593 53.94 273.353 54.52 272.073 55C270.793 55.48 269.633 55.72 268.593 55.72ZM262.593 37.6L270.813 37.12C271.293 37.08 271.593 36.98 271.713 36.82C271.873 36.62 271.953 36.26 271.953 35.74C271.953 34.3 271.633 33.2 270.993 32.44C270.353 31.68 269.413 31.3 268.173 31.3C266.613 31.3 265.333 31.84 264.333 32.92C263.373 33.96 262.793 35.52 262.593 37.6Z" fill="white"/>
</svg>
