<svg width="72" height="72" viewBox="0 0 72 72" fill="none" xmlns="http://www.w3.org/2000/svg">
<path d="M38.9225 11.4795C39.701 9.61537 42.3324 9.58867 43.1487 11.4366L50.4526 27.9726C50.6741 28.4739 51.0672 28.8797 51.5613 29.1168L61.5818 33.9264C63.3215 34.7614 63.3215 37.2384 61.5818 38.0734L51.5613 42.883C51.0672 43.1201 50.6741 43.5259 50.4526 44.0272L43.1487 60.5632C42.3324 62.4111 39.701 62.3844 38.9225 60.5203L32.054 44.0749C31.8325 43.5446 31.4204 43.1164 30.899 42.8746L20.5706 38.0866C18.7937 37.2629 18.7937 34.7369 20.5706 33.9132L30.899 29.1252C31.4204 28.8834 31.8325 28.4552 32.054 27.9249L38.9225 11.4795Z" fill="#F9C23C"/>
<path d="M17.8027 11.8184C18.1024 11.0625 19.3251 11.053 19.6401 11.8042L21.4937 16.2237C21.5779 16.4245 21.7458 16.5902 21.9641 16.6879L25.0248 18.0577C25.731 18.3737 25.731 19.2536 25.0248 19.5696L21.9641 20.9394C21.7458 21.0371 21.5779 21.2029 21.4937 21.4037L19.6401 25.8231C19.3251 26.5743 18.1024 26.5649 17.8027 25.809L16.0623 21.4197C15.9788 21.2092 15.8039 21.0357 15.5752 20.9365L12.4362 19.5744C11.7156 19.2617 11.7156 18.3656 12.4362 18.0529L15.5752 16.6908C15.8039 16.5916 15.9788 16.4181 16.0623 16.2076L17.8027 11.8184Z" fill="#F9C23C"/>
<path d="M13.6174 38.2541C13.999 37.1816 15.5555 37.1682 15.9565 38.234L18.3161 44.5046C18.4233 44.7895 18.6371 45.0247 18.9149 45.1632L22.8112 47.1068C23.7102 47.5552 23.7103 48.8035 22.8112 49.252L18.9149 51.1955C18.6371 51.3341 18.4233 51.5693 18.3161 51.8542L15.9565 58.1248C15.5555 59.1905 13.999 59.1771 13.6174 58.1046L11.4019 51.8769C11.2957 51.5783 11.0731 51.3322 10.7819 51.1914L6.78595 49.2588C5.86855 48.8151 5.86855 47.5437 6.78595 47.1L10.7819 45.1674C11.0731 45.0266 11.2957 44.7804 11.4019 44.4818L13.6174 38.2541Z" fill="#F9C23C"/>
</svg>
