<svg width="338" height="72" viewBox="0 0 338 72" fill="none" xmlns="http://www.w3.org/2000/svg">
<path d="M38.9225 11.4795C39.701 9.61537 42.3324 9.58867 43.1487 11.4366L50.4526 27.9726C50.6741 28.4739 51.0672 28.8797 51.5613 29.1168L61.5818 33.9264C63.3215 34.7614 63.3215 37.2384 61.5818 38.0734L51.5613 42.883C51.0672 43.1201 50.6741 43.5259 50.4526 44.0272L43.1487 60.5632C42.3324 62.4111 39.701 62.3844 38.9225 60.5203L32.054 44.0749C31.8325 43.5446 31.4204 43.1164 30.899 42.8746L20.5706 38.0866C18.7937 37.2629 18.7937 34.7369 20.5706 33.9132L30.899 29.1252C31.4204 28.8834 31.8325 28.4552 32.054 27.9249L38.9225 11.4795Z" fill="#F9C23C"/>
<path d="M17.8027 11.8184C18.1024 11.0625 19.3251 11.053 19.6401 11.8042L21.4937 16.2237C21.5779 16.4245 21.7458 16.5902 21.9641 16.6879L25.0248 18.0577C25.731 18.3737 25.731 19.2536 25.0248 19.5696L21.9641 20.9394C21.7458 21.0371 21.5779 21.2029 21.4937 21.4037L19.6401 25.8231C19.3251 26.5743 18.1024 26.5649 17.8027 25.809L16.0623 21.4197C15.9788 21.2092 15.8039 21.0357 15.5752 20.9365L12.4362 19.5744C11.7156 19.2617 11.7156 18.3656 12.4362 18.0529L15.5752 16.6908C15.8039 16.5916 15.9788 16.4181 16.0623 16.2076L17.8027 11.8184Z" fill="#F9C23C"/>
<path d="M13.6174 38.2541C13.999 37.1816 15.5555 37.1682 15.9565 38.234L18.3161 44.5046C18.4233 44.7895 18.6371 45.0247 18.9149 45.1632L22.8112 47.1068C23.7102 47.5552 23.7103 48.8035 22.8112 49.252L18.9149 51.1955C18.6371 51.3341 18.4233 51.5693 18.3161 51.8542L15.9565 58.1248C15.5555 59.1905 13.999 59.1771 13.6174 58.1046L11.4019 51.8769C11.2957 51.5783 11.0731 51.3322 10.7819 51.1914L6.78595 49.2588C5.86855 48.8151 5.86855 47.5437 6.78595 47.1L10.7819 45.1674C11.0731 45.0266 11.2957 44.7804 11.4019 44.4818L13.6174 38.2541Z" fill="#F9C23C"/>
<path d="M99.8 58.1C94.56 58.1 90.22 56.98 86.78 54.74C83.34 52.5 81.62 49.98 81.62 47.18C81.62 44.34 83.06 42.92 85.94 42.92C87.1 42.92 88.12 43.32 89 44.12C89.88 44.88 90.62 45.82 91.22 46.94C91.82 48.02 92.46 49.12 93.14 50.24C93.82 51.32 94.76 52.24 95.96 53C97.16 53.76 98.58 54.14 100.22 54.14C101.98 54.14 103.36 53.7 104.36 52.82C105.4 51.94 105.92 50.72 105.92 49.16C105.92 47.6 105.48 46.3 104.6 45.26C103.76 44.18 102.64 43.36 101.24 42.8C99.88 42.2 98.36 41.68 96.68 41.24C95 40.76 93.32 40.22 91.64 39.62C89.96 38.98 88.42 38.22 87.02 37.34C85.66 36.42 84.54 35.12 83.66 33.44C82.78 31.72 82.34 29.68 82.34 27.32C82.34 23.48 83.82 20.36 86.78 17.96C89.74 15.56 93.68 14.36 98.6 14.36C103.44 14.36 107.52 15.46 110.84 17.66C114.2 19.82 115.86 22.3 115.82 25.1C115.82 26.46 115.42 27.54 114.62 28.34C113.86 29.1 112.74 29.48 111.26 29.48C109.94 29.48 108.82 29.1 107.9 28.34C106.98 27.54 106.24 26.6 105.68 25.52C105.16 24.44 104.62 23.36 104.06 22.28C103.54 21.16 102.8 20.22 101.84 19.46C100.92 18.66 99.78 18.26 98.42 18.26C96.62 18.26 95.24 18.76 94.28 19.76C93.32 20.72 92.84 21.98 92.84 23.54C92.84 25.26 93.26 26.72 94.1 27.92C94.98 29.08 96.1 29.98 97.46 30.62C98.86 31.26 100.4 31.84 102.08 32.36C103.76 32.84 105.42 33.38 107.06 33.98C108.74 34.58 110.26 35.32 111.62 36.2C113.02 37.04 114.14 38.26 114.98 39.86C115.86 41.46 116.3 43.4 116.3 45.68C116.3 49.48 114.7 52.5 111.5 54.74C108.34 56.98 104.44 58.1 99.8 58.1ZM139.277 28.1C142.997 28.1 146.277 29.38 149.117 31.94C151.997 34.46 153.437 38.02 153.437 42.62C153.437 47.22 152.037 50.96 149.237 53.84C146.477 56.68 143.157 58.1 139.277 58.1C136.837 58.1 134.797 57.52 133.157 56.36V63.62C133.157 64.62 133.597 65.6 134.477 66.56C135.397 67.56 135.857 68.3 135.857 68.78V69.02C135.857 69.78 135.377 70.16 134.417 70.16H121.697C120.737 70.16 120.257 69.78 120.257 69.02V68.78C120.257 68.3 120.657 67.56 121.457 66.56C122.257 65.6 122.657 64.62 122.657 63.62V39.02C122.657 38.1 122.177 37.24 121.217 36.44C120.257 35.6 119.777 34.92 119.777 34.4V34.1C119.777 33.46 120.237 32.88 121.157 32.36L129.077 28.46C129.957 28.1 130.597 28.04 130.997 28.28C131.397 28.52 131.597 28.98 131.597 29.66V31.4C133.157 29.2 135.717 28.1 139.277 28.1ZM138.317 55.16C141.357 55.16 142.877 52.64 142.877 47.6C142.877 45.2 142.677 42.8 142.277 40.4C141.917 38 141.237 35.84 140.237 33.92C139.277 32 138.117 31.04 136.757 31.04C135.677 31.04 134.797 31.48 134.117 32.36C133.477 33.24 133.157 34.38 133.157 35.78V46.64C133.157 49.12 133.677 51.16 134.717 52.76C135.757 54.36 136.957 55.16 138.317 55.16ZM186.301 50.96C186.421 51.92 186.641 52.7 186.961 53.3C187.321 53.86 187.661 54.22 187.981 54.38C188.341 54.54 188.661 54.74 188.941 54.98C189.221 55.22 189.361 55.52 189.361 55.88C189.361 57.2 187.101 57.86 182.581 57.86C180.741 57.86 179.361 57.64 178.441 57.2C177.561 56.76 177.001 56.02 176.761 54.98C175.241 57.06 172.701 58.1 169.141 58.1C165.781 58.1 163.041 57.32 160.921 55.76C158.841 54.2 157.801 51.94 157.801 48.98C157.801 46.1 158.841 43.86 160.921 42.26C163.001 40.62 165.561 39.8 168.601 39.8C170.961 39.8 172.981 40.3 174.661 41.3V41.12C174.261 37.16 173.801 34.48 173.281 33.08C172.801 31.68 171.841 30.98 170.401 30.98C169.481 30.98 168.741 31.4 168.181 32.24C167.621 33.08 167.201 34 166.921 35C166.681 36 166.201 36.92 165.481 37.76C164.761 38.6 163.801 39.02 162.601 39.02C161.361 39.02 160.341 38.66 159.541 37.94C158.781 37.22 158.401 36.28 158.401 35.12C158.401 32.8 159.561 31.06 161.881 29.9C164.201 28.7 167.041 28.1 170.401 28.1C174.401 28.1 177.701 29.2 180.301 31.4C182.941 33.56 184.501 36.5 184.981 40.22L186.301 50.96ZM172.441 55.04C173.361 55.04 174.101 54.6 174.661 53.72C175.261 52.84 175.561 51.84 175.561 50.72L175.321 47.96C174.921 44.64 173.681 42.98 171.601 42.98C170.681 42.98 169.941 43.36 169.381 44.12C168.821 44.84 168.541 45.82 168.541 47.06C168.541 49.3 168.881 51.2 169.561 52.76C170.281 54.28 171.241 55.04 172.441 55.04ZM212.448 28.1C214.168 28.1 215.528 28.66 216.528 29.78C217.568 30.9 218.088 32.32 218.088 34.04C218.088 37.8 216.548 39.68 213.468 39.68C212.228 39.68 211.288 39.4 210.648 38.84C210.008 38.24 209.628 37.58 209.508 36.86C209.428 36.14 209.228 35.5 208.908 34.94C208.588 34.34 208.108 34.04 207.468 34.04C205.988 34.04 205.248 35.96 205.248 39.8V50.96C205.248 51.96 205.768 52.96 206.808 53.96C207.888 54.92 208.428 55.64 208.428 56.12V56.36C208.428 57.12 207.948 57.5 206.988 57.5H194.088C193.128 57.5 192.648 57.12 192.648 56.36V56.12C192.648 55.64 193.048 54.92 193.848 53.96C194.648 52.96 195.048 51.96 195.048 50.96V39.02C195.048 38.22 194.808 37.54 194.328 36.98C193.848 36.42 193.368 35.94 192.888 35.54C192.408 35.14 192.168 34.7 192.168 34.22V34.04C192.168 33.36 192.628 32.78 193.548 32.3L202.008 28.34C202.808 28.06 203.368 28.04 203.688 28.28C204.008 28.52 204.168 28.98 204.168 29.66V34.04C205.528 30.08 208.288 28.1 212.448 28.1ZM252.954 52.46C253.154 52.74 253.754 53.26 254.754 54.02C255.794 54.78 256.314 55.48 256.314 56.12V56.36C256.314 57.12 255.854 57.5 254.934 57.5H242.334C241.414 57.5 240.954 57.1 240.954 56.3V56.12C240.954 55.64 241.254 55.06 241.854 54.38C242.454 53.66 242.574 53.02 242.214 52.46L236.934 44.6L233.934 47.36V50.96C233.934 51.96 234.374 52.96 235.254 53.96C236.174 54.92 236.634 55.64 236.634 56.12V56.36C236.634 57.12 236.154 57.5 235.194 57.5H222.234C221.274 57.5 220.794 57.12 220.794 56.36V56.12C220.794 55.64 221.194 54.92 221.994 53.96C222.794 52.96 223.194 51.96 223.194 50.96V23.54C223.194 22.5 222.714 21.5 221.754 20.54C220.794 19.54 220.314 18.84 220.314 18.44V18.2C220.314 17.76 220.754 17.3 221.634 16.82L231.234 12.38C232.074 12.06 232.734 12.04 233.214 12.32C233.694 12.6 233.934 13.04 233.934 13.64V42.14L242.034 35.18C242.514 34.86 242.694 34.46 242.574 33.98C242.494 33.5 242.294 33.08 241.974 32.72C241.694 32.32 241.374 31.88 241.014 31.4C240.694 30.92 240.534 30.5 240.534 30.14V29.9C240.534 29.1 240.994 28.7 241.914 28.7H251.394C252.314 28.7 252.774 29.08 252.774 29.84V30.08C252.774 30.56 252.494 31.06 251.934 31.58C251.374 32.06 250.574 32.64 249.534 33.32C248.534 33.96 247.734 34.56 247.134 35.12L243.294 38.66L252.954 52.46ZM260.062 57.5C259.142 57.5 258.682 57.12 258.682 56.36V56.12C258.682 55.64 259.062 54.92 259.822 53.96C260.622 52.96 261.022 51.96 261.022 50.96V23.54C261.022 22.5 260.622 21.5 259.822 20.54C259.062 19.54 258.682 18.84 258.682 18.44V18.2C258.682 17.76 259.122 17.3 260.002 16.82L269.062 12.38C269.902 12.02 270.562 12 271.042 12.32C271.562 12.6 271.822 13.04 271.822 13.64V50.96C271.822 51.96 272.262 52.96 273.142 53.96C274.022 54.92 274.462 55.64 274.462 56.12V56.36C274.462 57.12 273.982 57.5 273.022 57.5H260.062ZM303.186 48.02C303.626 47.58 304.106 47.46 304.626 47.66C305.186 47.82 305.446 48.22 305.406 48.86C305.326 50.86 304.166 52.9 301.926 54.98C299.686 57.06 296.786 58.1 293.226 58.1C288.866 58.1 285.306 56.7 282.546 53.9C279.786 51.1 278.406 47.44 278.406 42.92C278.406 38.6 279.846 35.06 282.726 32.3C285.646 29.5 289.126 28.1 293.166 28.1C296.806 28.1 299.626 28.94 301.626 30.62C303.626 32.3 304.626 34.2 304.626 36.32C304.626 38 303.846 39.24 302.286 40.04L290.346 46.76C291.986 49.36 294.266 50.66 297.186 50.66C298.426 50.66 299.586 50.42 300.666 49.94C301.786 49.42 302.626 48.78 303.186 48.02ZM292.086 31.04C290.886 31.04 289.906 31.64 289.146 32.84C288.426 34.04 288.066 35.54 288.066 37.34C288.066 39.74 288.366 41.84 288.966 43.64L294.546 40.28C295.586 39.56 296.106 38.54 296.106 37.22C296.106 35.9 295.766 34.54 295.086 33.14C294.446 31.74 293.446 31.04 292.086 31.04ZM322.521 58.04C318.681 58.04 315.521 57.4 313.041 56.12C310.561 54.8 309.321 53.1 309.321 51.02C309.321 49.74 309.701 48.78 310.461 48.14C311.261 47.5 312.301 47.18 313.581 47.18C314.941 47.18 316.021 47.62 316.821 48.5C317.621 49.34 318.161 50.28 318.441 51.32C318.721 52.32 319.201 53.26 319.881 54.14C320.561 54.98 321.441 55.4 322.521 55.4C324.681 55.4 325.761 54.3 325.761 52.1C325.761 50.66 325.201 49.52 324.081 48.68C323.001 47.84 321.681 47.2 320.121 46.76C318.561 46.32 317.001 45.82 315.441 45.26C313.921 44.7 312.601 43.76 311.481 42.44C310.401 41.12 309.861 39.38 309.861 37.22C309.861 34.54 311.041 32.36 313.401 30.68C315.761 28.96 318.801 28.1 322.521 28.1C326.241 28.1 329.261 28.8 331.581 30.2C333.941 31.6 335.121 33.3 335.121 35.3C335.121 36.34 334.721 37.22 333.921 37.94C333.161 38.62 332.221 38.96 331.101 38.96C329.781 38.96 328.741 38.54 327.981 37.7C327.221 36.86 326.701 35.94 326.421 34.94C326.181 33.9 325.781 32.96 325.221 32.12C324.701 31.28 323.981 30.86 323.061 30.86C322.181 30.86 321.481 31.2 320.961 31.88C320.481 32.56 320.241 33.36 320.241 34.28C320.241 35.76 320.761 36.96 321.801 37.88C322.881 38.8 324.161 39.5 325.641 39.98C327.161 40.46 328.661 40.98 330.141 41.54C331.661 42.1 332.941 43.02 333.981 44.3C335.061 45.54 335.601 47.18 335.601 49.22C335.601 51.78 334.421 53.9 332.061 55.58C329.741 57.22 326.561 58.04 322.521 58.04Z" fill="white"/>
</svg>
