<svg width="338" height="80" viewBox="0 0 338 80" fill="none" xmlns="http://www.w3.org/2000/svg">
<path d="M38.9225 15.4796C39.701 13.6154 42.3324 13.5887 43.1487 15.4367L50.4526 31.9726C50.6741 32.474 51.0672 32.8797 51.5613 33.1169L61.5818 37.9264C63.3215 38.7614 63.3215 41.2385 61.5818 42.0735L51.5613 46.8831C51.0672 47.1202 50.6741 47.526 50.4526 48.0273L43.1487 64.5632C42.3324 66.4112 39.701 66.3845 38.9225 64.5203L32.054 48.075C31.8325 47.5446 31.4204 47.1164 30.899 46.8747L20.5706 42.0866C18.7937 41.2629 18.7937 38.737 20.5706 37.9133L30.899 33.1252C31.4204 32.8835 31.8325 32.4553 32.054 31.9249L38.9225 15.4796Z" fill="#F9C23C"/>
<path d="M17.8027 15.8184C18.1024 15.0625 19.3251 15.0531 19.6401 15.8042L21.4937 20.2237C21.5779 20.4245 21.7458 20.5903 21.9641 20.688L25.0248 22.0577C25.731 22.3738 25.731 23.2536 25.0248 23.5697L21.9641 24.9395C21.7458 25.0372 21.5779 25.2029 21.4937 25.4037L19.6401 29.8232C19.3251 30.5743 18.1024 30.5649 17.8027 29.809L16.0623 25.4197C15.9788 25.2093 15.8039 25.0358 15.5752 24.9366L12.4362 23.5745C11.7156 23.2618 11.7156 22.3657 12.4362 22.053L15.5752 20.6909C15.8039 20.5916 15.9788 20.4181 16.0623 20.2077L17.8027 15.8184Z" fill="#F9C23C"/>
<path d="M13.6174 42.2542C13.999 41.1817 15.5555 41.1683 15.9565 42.2341L18.3161 48.5047C18.4233 48.7896 18.6371 49.0248 18.9149 49.1633L22.8112 51.1069C23.7102 51.5553 23.7103 52.8037 22.8112 53.2521L18.9149 55.1956C18.6371 55.3342 18.4233 55.5694 18.3161 55.8543L15.9565 62.1249C15.5555 63.1906 13.999 63.1773 13.6174 62.1048L11.4019 55.877C11.2957 55.5784 11.0731 55.3323 10.7819 55.1915L6.78595 53.2589C5.86855 52.8152 5.86855 51.5438 6.78595 51.1001L10.7819 49.1675C11.0731 49.0267 11.2957 48.7805 11.4019 48.4819L13.6174 42.2542Z" fill="#F9C23C"/>
<path d="M108.72 70H81.68C82 69.52 82.2933 68.8267 82.56 67.92C82.7733 67.1733 82.96 66.1867 83.12 64.96C83.3333 63.68 83.44 62.1067 83.44 60.24V22.96C83.44 21.0933 83.3333 19.5467 83.12 18.32C82.96 17.04 82.7733 16.0267 82.56 15.28C82.2933 14.3733 82 13.68 81.68 13.2H93.68C93.3067 13.68 93.0133 14.3733 92.8 15.28C92.5333 16.0267 92.32 17.04 92.16 18.32C92 19.5467 91.92 21.0933 91.92 22.96V64.56C91.92 64.8267 91.9733 65.1733 92.08 65.6C92.24 65.9733 92.48 66.3467 92.8 66.72C93.1733 67.0933 93.68 67.4133 94.32 67.68C94.96 67.8933 95.7867 68 96.8 68H99.6C100.827 68 101.813 67.7867 102.56 67.36C103.307 66.88 103.893 66.2667 104.32 65.52C104.8 64.7733 105.173 63.9467 105.44 63.04C105.707 62.08 105.973 61.12 106.24 60.16H108.08L108.72 70ZM102.96 33.84C102.907 32.72 102.72 31.6533 102.4 30.64C102.133 29.5733 101.787 28.6667 101.36 27.92C102.587 28.24 103.6 28.8267 104.4 29.68C105.253 30.48 105.92 31.3867 106.4 32.4C106.933 33.36 107.307 34.32 107.52 35.28C107.787 36.24 107.92 37.04 107.92 37.68C107.973 38.8533 107.893 39.92 107.68 40.88C107.467 41.7867 107.2 42.6933 106.88 43.6C106.613 44.5067 106.373 45.4667 106.16 46.48C105.947 47.44 105.867 48.56 105.92 49.84C105.973 50.9067 106.16 51.84 106.48 52.64C106.8 53.44 107.173 54.2133 107.6 54.96C106.267 54.5867 105.173 54 104.32 53.2C103.467 52.3467 102.8 51.44 102.32 50.48C101.84 49.52 101.493 48.5867 101.28 47.68C101.067 46.7733 100.96 46.0267 100.96 45.44C100.907 44.2667 100.987 43.2533 101.2 42.4C101.413 41.5467 101.653 40.6933 101.92 39.84C102.24 38.9867 102.507 38.1067 102.72 37.2C102.933 36.24 103.013 35.12 102.96 33.84ZM125.379 67.76C126.659 67.7067 127.753 67.7867 128.659 68C129.619 68.2133 130.526 68.48 131.379 68.8C132.233 69.0667 133.086 69.3067 133.939 69.52C134.793 69.7333 135.806 69.8133 136.979 69.76C137.566 69.76 138.313 69.6533 139.219 69.44C140.126 69.2267 141.059 68.88 142.019 68.4C142.979 67.92 143.859 67.2533 144.659 66.4C145.513 65.5467 146.126 64.4533 146.499 63.12C145.753 63.5467 144.979 63.92 144.179 64.24C143.379 64.56 142.446 64.7467 141.379 64.8C140.099 64.8533 138.953 64.7733 137.939 64.56C136.979 64.3467 136.046 64.1067 135.139 63.84C134.233 63.52 133.299 63.2533 132.339 63.04C131.433 62.8267 130.393 62.7467 129.219 62.8C128.579 62.8 127.779 62.9333 126.819 63.2C125.859 63.4133 124.873 63.7867 123.859 64.32C122.899 64.8 121.993 65.4667 121.139 66.32C120.339 67.12 119.779 68.1333 119.459 69.36C120.206 68.9333 121.086 68.5867 122.099 68.32C123.166 68 124.259 67.8133 125.379 67.76ZM133.139 12.4C134.953 12.4 136.686 12.6933 138.339 13.28C139.993 13.8667 141.406 14.72 142.579 15.84C143.806 16.9067 144.766 18.1867 145.459 19.68C146.206 21.12 146.579 22.72 146.579 24.48V46.64C146.579 48.5067 146.179 50.1867 145.379 51.68C144.633 53.1733 143.619 54.4533 142.339 55.52C141.059 56.5333 139.593 57.3333 137.939 57.92C136.339 58.4533 134.713 58.72 133.059 58.72C131.299 58.72 129.593 58.4267 127.939 57.84C126.286 57.2 124.819 56.3467 123.539 55.28C122.259 54.2133 121.219 52.96 120.419 51.52C119.673 50.0267 119.299 48.4 119.299 46.64V24.48C119.299 22.6667 119.699 21.0133 120.499 19.52C121.353 18.0267 122.446 16.7733 123.779 15.76C125.113 14.6933 126.606 13.8667 128.259 13.28C129.913 12.6933 131.539 12.4 133.139 12.4ZM138.099 24.24C137.193 24.88 136.286 25.2 135.379 25.2C134.313 25.0933 133.379 24.8267 132.579 24.4C131.779 23.9733 131.326 23.28 131.219 22.32C132.179 22.64 133.033 22.7733 133.779 22.72C134.739 22.56 135.486 22.2667 136.019 21.84C136.873 21.2 137.379 20.4533 137.539 19.6C137.699 18.6933 137.593 17.8667 137.219 17.12C136.899 16.3733 136.366 15.7333 135.619 15.2C134.873 14.6667 134.046 14.4 133.139 14.4C132.233 14.4 131.433 14.6133 130.739 15.04C130.099 15.4133 129.539 15.92 129.059 16.56C128.633 17.1467 128.313 17.8133 128.099 18.56C127.886 19.3067 127.779 20.0533 127.779 20.8V50.48C127.779 52.1333 128.233 53.6267 129.139 54.96C130.099 56.24 131.406 56.88 133.059 56.88C133.966 56.88 134.739 56.6933 135.379 56.32C136.019 55.8933 136.526 55.3867 136.899 54.8C137.326 54.16 137.619 53.4667 137.779 52.72C137.993 51.9733 138.099 51.2267 138.099 50.48V24.24ZM183.011 61.04C183.705 63.44 184.371 65.28 185.011 66.56C185.651 67.7867 186.585 68.7733 187.811 69.52C187.065 70 186.265 70.32 185.411 70.48C184.611 70.64 183.918 70.72 183.331 70.72C181.411 70.6133 179.731 70.0533 178.291 69.04C176.905 67.9733 175.945 66.32 175.411 64.08L170.531 40.24C168.931 40.1333 167.571 39.6267 166.451 38.72V60.24C166.451 62.1067 166.531 63.68 166.691 64.96C166.851 66.1867 167.065 67.1733 167.331 67.92C167.545 68.8267 167.838 69.52 168.211 70H156.211C156.531 69.52 156.825 68.8267 157.091 67.92C157.305 67.1733 157.491 66.1867 157.651 64.96C157.865 63.68 157.971 62.1067 157.971 60.24V22.96C157.971 21.0933 157.865 19.5467 157.651 18.32C157.491 17.04 157.305 16.0267 157.091 15.28C156.825 14.3733 156.531 13.68 156.211 13.2H170.371C172.505 13.2 174.425 13.44 176.131 13.92C177.891 14.4 179.385 15.1733 180.611 16.24C181.891 17.2533 182.878 18.5867 183.571 20.24C184.265 21.8933 184.611 23.92 184.611 26.32C184.611 30.1067 183.678 33.2 181.811 35.6C179.945 38 177.305 39.4933 173.891 40.08C175.118 40.6133 176.345 41.6 177.571 43.04C178.798 44.4267 179.731 46.5333 180.371 49.36L183.011 61.04ZM167.331 36.48C167.491 36.9067 167.891 37.3333 168.531 37.76C169.225 38.1333 169.998 38.32 170.851 38.32C171.918 38.32 172.798 38 173.491 37.36C174.185 36.72 174.718 35.8667 175.091 34.8C175.518 33.7333 175.785 32.48 175.891 31.04C176.051 29.5467 176.131 28 176.131 26.4C176.131 24.32 175.891 22.5867 175.411 21.2C174.985 19.76 174.398 18.6133 173.651 17.76C172.905 16.8533 172.051 16.2133 171.091 15.84C170.185 15.4133 169.278 15.2 168.371 15.2H166.451V29.44C166.825 29.0667 167.305 28.7733 167.891 28.56C168.478 28.3467 169.065 28.2667 169.651 28.32C170.238 28.3733 170.771 28.56 171.251 28.88C171.731 29.1467 172.105 29.6 172.371 30.24C171.518 30.08 170.691 30.16 169.891 30.48C169.145 30.8 168.531 31.28 168.051 31.92C167.571 32.5067 167.251 33.2 167.091 34C166.931 34.8 167.011 35.6267 167.331 36.48ZM222.079 57.36H195.039C195.359 56.88 195.653 56.1867 195.919 55.28C196.133 54.5333 196.319 53.5467 196.479 52.32C196.693 51.04 196.799 49.4667 196.799 47.6V22.96C196.799 21.0933 196.693 19.5467 196.479 18.32C196.319 17.04 196.133 16.0267 195.919 15.28C195.653 14.3733 195.359 13.68 195.039 13.2H221.279L220.559 21.12H218.719C218.453 20.0533 218.186 19.1467 217.919 18.4C217.653 17.6533 217.253 17.04 216.719 16.56C216.186 16.08 215.413 15.7333 214.399 15.52C213.386 15.3067 211.973 15.2 210.159 15.2H205.279V30C206.879 30.1067 208.346 30.1067 209.679 30C211.013 29.8933 212.159 29.7867 213.119 29.68C214.239 29.52 215.226 29.3333 216.079 29.12C216.133 29.44 216.159 29.7867 216.159 30.16C216.159 30.7467 216.026 31.4933 215.759 32.4C215.493 33.2 214.906 33.7333 213.999 34C213.093 34.2133 212.186 34.1867 211.279 33.92L205.279 32.24V52C205.279 52.2667 205.333 52.6133 205.439 53.04C205.599 53.4133 205.839 53.7867 206.159 54.16C206.533 54.5333 207.039 54.8533 207.679 55.12C208.319 55.3333 209.146 55.44 210.159 55.44H212.959C214.186 55.44 215.173 55.2267 215.919 54.8C216.666 54.32 217.253 53.7067 217.679 52.96C218.159 52.16 218.506 51.3067 218.719 50.4C218.986 49.44 219.253 48.48 219.519 47.52H221.359L222.079 57.36ZM200.719 67.76C199.599 67.8133 198.506 68 197.439 68.32C196.426 68.5867 195.546 68.9333 194.799 69.36C195.119 68.1333 195.679 67.12 196.479 66.32C197.333 65.4667 198.239 64.8 199.199 64.32C200.213 63.7867 201.199 63.4133 202.159 63.2C203.119 62.9333 203.919 62.8 204.559 62.8C205.733 62.7467 206.773 62.8267 207.679 63.04C208.639 63.2533 209.573 63.52 210.479 63.84C211.386 64.1067 212.319 64.3467 213.279 64.56C214.293 64.7733 215.439 64.8533 216.719 64.8C217.786 64.7467 218.719 64.56 219.519 64.24C220.319 63.92 221.093 63.5467 221.839 63.12C221.466 64.4533 220.853 65.5467 219.999 66.4C219.199 67.2533 218.319 67.92 217.359 68.4C216.399 68.88 215.466 69.2267 214.559 69.44C213.653 69.6533 212.906 69.76 212.319 69.76C211.146 69.8133 210.133 69.7333 209.279 69.52C208.426 69.3067 207.573 69.0667 206.719 68.8C205.866 68.48 204.959 68.2133 203.999 68C203.093 67.7867 201.999 67.7067 200.719 67.76Z" fill="white"/>
</svg>
