<svg width="360" height="72" viewBox="0 0 360 72" fill="none" xmlns="http://www.w3.org/2000/svg">
<path d="M62.5215 29.2718L49.6998 36.5876L54.5248 44.6353C55.1592 45.6935 54.1512 46.9705 52.9535 46.6258L46.3604 44.7288L39.385 57.5478C38.3266 59.6104 37.0736 58.4305 36.7259 56.7827C35.0543 48.8597 33.5988 42.5738 33.5988 42.5738L15.1742 47.4282C14.9274 47.4932 14.6639 47.527 14.4275 47.4336C13.3809 47.0204 13.295 45.5118 14.2994 44.9909C14.5098 44.8818 14.7357 44.7983 14.9324 44.6661L32.6629 32.7474L27.0988 12.1971C26.7221 10.8061 28.516 9.87227 29.471 10.9622L42.8973 26.2868L46.7771 19.402C47.4458 18.2154 49.2738 18.6254 49.3548 19.9802L49.8514 28.2877L61.6514 26.7548C63.1438 26.561 63.8239 28.5287 62.5215 29.2718Z" fill="#F1D253"/>
<path d="M8.29383 27.6547L8.93497 23.156L4.25331 20.3662C2.9768 19.6055 3.14192 18.0305 4.40879 18.2409C4.4884 18.2541 4.56882 18.2653 4.64958 18.2653L11.1245 18.2653L14.9032 15.2791C14.9622 15.2325 15.0139 15.1774 15.0687 15.1261C15.8005 14.4414 17.4903 15.5173 17.3306 16.6381L16.7062 21.0191L19.5664 24.8064C20.453 25.9804 19.3689 26.9661 18.1632 26.1511C18.112 26.1164 18.0586 26.0834 18.0028 26.0564L14.7688 24.4897L10.6156 29.104C9.91243 29.9135 8.13044 28.8011 8.29383 27.6547Z" fill="#F1D253"/>
<path d="M74 54.35C76.16 51.83 76.22 48.11 76.22 47.57V19.31C76.22 18.77 76.16 15.05 74 12.53H85.82C83.6 16.01 83.6 19.37 83.6 19.37V50.33H92.6C93.5 50.27 94.34 49.97 95.06 49.43L98.72 46.55L101.78 54.35H74Z" fill="white"/>
<path d="M116.208 23.81C125.688 23.81 130.488 30.89 130.488 39.89C130.488 51.29 124.008 55.43 116.208 55.43C108.347 55.43 101.927 51.23 101.927 39.59C101.927 27.95 108.347 23.81 116.208 23.81ZM123.647 48.11C123.647 43.01 123.768 38.09 121.428 33.47C119.328 29.33 115.248 28.19 110.748 28.19C108.948 28.19 108.228 29.21 108.228 31.13C108.228 36.17 108.888 40.97 111.048 45.59C112.968 49.91 116.688 51.65 121.188 51.65C122.688 51.65 123.647 50.51 123.647 48.11Z" fill="white"/>
<path d="M151.258 23.45C155.158 23.45 156.418 25.67 156.418 25.67L150.538 32.99C150.538 32.99 149.098 29.81 145.378 29.81C144.358 29.81 143.098 30.11 141.658 30.71L141.718 47.39C141.718 47.69 141.778 50.93 143.998 54.47H132.478C134.578 51.89 134.698 48.35 134.698 47.57V32.87C134.698 32.87 134.578 29.27 132.478 27.53L141.658 23.33V28.73C142.918 27.29 146.578 23.45 151.258 23.45Z" fill="white"/>
<path d="M172.82 50.93C174.68 50.93 176.6 50.63 178.4 50.27C177.86 50.93 175.1 55.31 168.38 55.31C160.76 55.31 155.78 50.27 155.78 39.11C155.78 30.23 159.62 23.81 168.44 23.81C175.22 23.81 177.86 28.19 177.86 28.19L164.42 44.81C164.42 44.81 164.36 45.17 164.66 45.77C166.94 50.63 169.52 50.93 172.82 50.93ZM161.12 31.49C161.12 35.75 163.7 42.47 163.7 42.53C163.7 42.53 168.02 36.05 169.04 34.49C172.1 29.81 168.92 28.37 163.88 28.07C161.78 27.95 161.24 29.15 161.12 31.49Z" fill="white"/>
<path d="M214.561 54.53C216.661 49.25 216.721 47.63 216.721 47.45V35.63C216.721 34.37 216.661 29.81 211.381 29.81C209.581 29.81 207.841 30.11 206.101 30.83V46.81L202.6 45.4701L199.741 46.15V34.37C199.741 34.37 199.741 29.63 194.041 29.63C192.781 29.63 191.101 29.99 189.181 30.77L189.301 47.45C189.301 47.75 189.361 50.99 191.581 54.53H180.061C182.221 51.89 182.281 48.41 182.281 47.57C182.281 42.77 182.281 37.91 182.281 33.05C182.281 33.05 182.281 29.75 180.061 27.71C180.061 27.65 189.121 23.51 189.121 23.51V29.09C190.261 27.89 194.881 23.51 199.321 23.51C204.481 23.51 205.801 26.51 206.041 29.27C206.761 28.49 211.621 23.51 216.241 23.51C222.961 23.51 223.141 28.37 223.141 31.31L223.201 47.57C223.201 48.29 223.321 50.57 225.361 54.53H214.561Z" fill="white"/>
<path d="M252.215 46.61C252.215 47.15 252.275 50.09 254.375 51.77L247.835 54.53C247.835 54.53 245.195 53.93 245.195 50.51V49.49C243.995 50.69 239.795 54.89 236.495 54.89C232.835 54.89 227.075 48.77 227.075 44.51C227.075 43.25 227.615 42.05 228.935 41.33C234.155 38.69 240.875 35.33 244.835 33.41C244.955 32.09 244.535 27.23 242.675 27.23C239.075 27.23 235.595 30.17 233.915 33.65L230.975 26.33C234.395 22.97 239.375 22.49 243.815 24.23C252.095 27.47 252.215 31.91 252.215 33.05C252.215 37.85 252.215 41.81 252.215 46.61ZM239.975 48.35C241.955 48.35 244.055 48.05 245.195 47.57L244.895 35.57C243.995 36.11 242.015 37.31 237.155 40.31C235.535 41.33 234.875 42.77 234.875 44.15C234.875 46.01 236.015 47.81 237.455 48.11C238.235 48.29 239.075 48.35 239.975 48.35Z" fill="white"/>
<path d="M285.694 54.47H274.834C276.934 49.19 277.054 47.57 277.054 47.33C277.054 42.95 277.054 38.57 277.054 34.25C277.054 34.25 277.054 29.51 270.454 29.51C269.074 29.51 267.454 29.87 265.474 30.71L265.594 47.39C265.594 47.69 265.654 50.93 267.874 54.47H256.354C258.454 51.89 258.574 48.35 258.574 47.57C258.574 42.71 258.574 37.85 258.574 32.99C258.574 32.99 258.574 29.69 256.354 27.65C256.354 27.53 265.414 23.45 265.414 23.45V29.09C266.674 28.01 272.314 23.45 276.394 23.45C280.534 23.45 283.414 25.79 283.414 31.25C283.414 36.65 283.474 42.11 283.474 47.57C283.474 48.23 283.654 50.51 285.694 54.47Z" fill="white"/>
<path d="M305.44 50.93C307.3 50.93 308.86 50.69 310.54 50.27C307.66 54.11 303.22 55.37 300.1 55.37C292.18 55.37 287.8 49.61 287.8 39.47C287.8 29.39 292.18 23.81 300.22 23.81C307.18 23.81 310 28.13 310 28.13L304.12 35.51C304.12 35.51 302.8 28.49 295.6 28.49C293.98 28.49 293.32 29.57 293.32 31.43C293.32 33.95 294.52 38.03 295.78 42.77C297.16 47.93 299.38 50.93 305.44 50.93Z" fill="white"/>
<path d="M328.602 50.93C330.462 50.93 332.382 50.63 334.182 50.27C333.642 50.93 330.882 55.31 324.162 55.31C316.542 55.31 311.562 50.27 311.562 39.11C311.562 30.23 315.402 23.81 324.222 23.81C331.002 23.81 333.642 28.19 333.642 28.19L320.202 44.81C320.202 44.81 320.142 45.17 320.442 45.77C322.722 50.63 325.302 50.93 328.602 50.93ZM316.902 31.49C316.902 35.75 319.482 42.47 319.482 42.53C319.482 42.53 323.802 36.05 324.822 34.49C327.882 29.81 324.702 28.37 319.662 28.07C317.562 27.95 317.022 29.15 316.902 31.49Z" fill="white"/>
<path d="M354.562 23.45C358.462 23.45 359.722 25.67 359.722 25.67L353.842 32.99C353.842 32.99 352.402 29.81 348.682 29.81C347.662 29.81 346.402 30.11 344.962 30.71L345.022 47.39C345.022 47.69 345.082 50.93 347.302 54.47H335.782C337.882 51.89 338.002 48.35 338.002 47.57V32.87C338.002 32.87 337.882 29.27 335.782 27.53L344.962 23.33V28.73C346.222 27.29 349.882 23.45 354.562 23.45Z" fill="white"/>
<path d="M120.881 38.5448C118 36.53 117.5 36.53 115.777 34.2922C115.777 34.2922 114.5 37.03 112 39.03C115 41.53 115 42.53 117 44.53C118.372 41.7678 118.5 41.03 120.881 38.5448Z" fill="#F1D253"/>
<path d="M198.5 54.5302C200.9 56.3427 201.5 57.5302 203.203 59.4702C205 57.0302 207.427 55.2176 207.427 55.2176C205 53.0302 204 50.5302 202.353 48.4702C201 49.5302 201 52.0302 198.5 54.5302Z" fill="#F1D253"/>
</svg>
