<svg width="24" height="24" viewBox="0 0 24 24" fill="none" xmlns="http://www.w3.org/2000/svg">
<path d="M12.4394 16.32L1.02344 23.0678M21.3779 10.5338L17.1253 10.7377L14.8673 7.6278C14.8187 7.55351 14.7494 7.49511 14.668 7.4598C14.5865 7.4245 14.4965 7.41385 14.409 7.42918C14.3216 7.4445 14.2406 7.48512 14.176 7.54602C14.1114 7.60692 14.0661 7.68541 14.0456 7.7718L13.0811 12.0029L8.99873 13.059C8.91196 13.0865 8.83487 13.1383 8.77656 13.2082C8.71826 13.2781 8.68117 13.3632 8.66969 13.4535C8.65821 13.5438 8.6728 13.6355 8.71175 13.7178C8.75071 13.8001 8.81239 13.8695 8.88951 13.9178L12.4391 16.321L12.833 20.5894C12.838 20.6803 12.8689 20.7678 12.9221 20.8416C12.9753 20.9155 13.0485 20.9725 13.1332 21.006C13.2178 21.0395 13.3102 21.048 13.3995 21.0306C13.4889 21.0131 13.5713 20.9704 13.6371 20.9076L16.5316 17.8405L20.7035 19.0355C20.789 19.0593 20.8796 19.0574 20.9641 19.0302C21.0486 19.003 21.1233 18.9516 21.1789 18.8823C21.2345 18.8131 21.2685 18.7291 21.2769 18.6407C21.2852 18.5524 21.2675 18.4635 21.2258 18.3851L19.5893 14.9062L21.8183 11.2789C21.8613 11.2025 21.8834 11.1161 21.8825 11.0284C21.8815 10.9407 21.8575 10.8549 21.8129 10.7794C21.7683 10.7039 21.7046 10.6415 21.6283 10.5984C21.5519 10.5553 21.4656 10.533 21.3779 10.5338Z" stroke="white" stroke-width="1.5" stroke-linecap="round" stroke-linejoin="round"/>
</svg>
