<svg width="24" height="25" viewBox="0 0 24 25" fill="none" xmlns="http://www.w3.org/2000/svg">
<g clip-path="url(#clip0_64_17337)">
<path d="M10.127 14.374L6.09101 12.93C6.00427 12.9024 5.92726 12.8505 5.86905 12.7805C5.81085 12.7105 5.77388 12.6253 5.76253 12.535C5.75117 12.4447 5.7659 12.353 5.80497 12.2708C5.84403 12.1886 5.90581 12.1192 5.98301 12.071L9.67401 10.032L9.55501 5.694C9.55331 5.60524 9.57767 5.51793 9.62507 5.44288C9.67247 5.36782 9.74084 5.30831 9.82172 5.2717C9.90259 5.23509 9.99242 5.223 10.0801 5.23692C10.1678 5.25083 10.2494 5.29015 10.315 5.35L13.276 7.8L17.344 6.544C17.4287 6.5214 17.5179 6.52147 17.6026 6.5442C17.6873 6.56694 17.7645 6.61155 17.8265 6.67354C17.8885 6.73554 17.9331 6.81276 17.9558 6.89744C17.9785 6.98211 17.9786 7.07128 17.956 7.156L16.7 11.224L19.151 14.186C19.2109 14.2516 19.2502 14.3332 19.2641 14.4209C19.278 14.5086 19.2659 14.5984 19.2293 14.6793C19.1927 14.7602 19.1332 14.8285 19.0581 14.8759C18.9831 14.9233 18.8958 14.9477 18.807 14.946L14.469 14.827L12.429 18.518C12.3809 18.5953 12.3117 18.6571 12.2295 18.6963C12.1474 18.7354 12.0557 18.7502 11.9654 18.7388C11.8751 18.7274 11.79 18.6904 11.7201 18.6321C11.6502 18.5739 11.5984 18.4968 11.571 18.41L10.127 14.374ZM10.127 14.374L0.75 23.75M5.99997 2.75H2.99997M4.49997 1.25V4.25M21.75 20.75H18.75M20.25 19.25V22.25M15 3.5V1.25M23.25 10.25H21" stroke="white" stroke-width="1.5" stroke-linecap="round" stroke-linejoin="round"/>
</g>
<defs>
<clipPath id="clip0_64_17337">
<rect width="24" height="24" fill="white" transform="translate(0 0.5)"/>
</clipPath>
</defs>
</svg>
