<svg width="20" height="20" viewBox="0 0 20 20" fill="none" xmlns="http://www.w3.org/2000/svg">
<path d="M8.29061 7.58238C7.95823 7.03717 7.64053 6.36718 7.15673 6.05399C6.67293 5.7408 6.25708 5.7674 5.48704 5.76748H2.71765M17.2826 5.76741H13.6926C11.1284 5.76741 10.4726 7.71511 9.58982 9.99841C7.95396 14.2294 8.05128 14.2294 5.48703 14.2294H2.71765M17.2826 5.76741L15.0324 3.34973M17.2826 5.76741L15.0324 8.18515M10.8891 12.4178C11.1969 12.9748 11.4983 13.6646 11.9821 13.9773C12.4659 14.2899 13.6926 14.2295 13.6926 14.2295H17.2826M17.2826 14.2295L15.0324 11.8117M17.2826 14.2295L15.0324 16.6471" stroke="black" stroke-width="1.5" stroke-linecap="round" stroke-linejoin="round"/>
</svg>
