<svg width="20" height="20" viewBox="0 0 20 20" fill="none" xmlns="http://www.w3.org/2000/svg">
<path d="M5.0836 4.76084C6.59749 5.47119 8.38186 4.61188 8.77038 2.98539C9.04868 1.8203 10.7063 1.8203 10.9846 2.98539C11.3731 4.61188 13.1575 5.47119 14.6714 4.76084C15.7558 4.25201 16.7893 5.54801 16.052 6.49201C15.0225 7.80987 15.4633 9.74072 16.9625 10.4814C18.0365 11.012 17.6676 12.6281 16.4698 12.6402C14.7976 12.657 13.5628 14.2054 13.9185 15.8394C14.1732 17.0099 12.6798 17.7291 11.9235 16.8001C10.8678 15.5033 8.88725 15.5033 7.83149 16.8001C7.07524 17.7291 5.58176 17.0099 5.83653 15.8394C6.1922 14.2054 4.95737 12.657 3.2852 12.6402C2.0874 12.6281 1.71854 11.012 2.79249 10.4814C4.29175 9.74072 4.73246 7.80987 3.70305 6.49201C2.96566 5.54801 3.99919 4.25201 5.0836 4.76084Z" stroke="#27272A" stroke-width="1.5"/>
<path d="M6.87756 10C6.87756 10.7956 7.19363 11.5587 7.75624 12.1213C8.31885 12.6839 9.08191 13 9.87756 13C10.6732 13 11.4363 12.6839 11.9989 12.1213C12.5615 11.5587 12.8776 10.7956 12.8776 10C12.8776 9.20435 12.5615 8.44129 11.9989 7.87868C11.4363 7.31607 10.6732 7 9.87756 7C9.08191 7 8.31885 7.31607 7.75624 7.87868C7.19363 8.44129 6.87756 9.20435 6.87756 10Z" stroke="#27272A" stroke-width="1.5" stroke-linecap="round" stroke-linejoin="round"/>
</svg>
