<svg width="20" height="20" viewBox="0 0 20 20" fill="none" xmlns="http://www.w3.org/2000/svg">
<path d="M9.03012 3.62707C9.15246 3.76287 9.30197 3.87144 9.46895 3.94577C9.63594 4.02009 9.81668 4.05849 9.99946 4.05849C10.1822 4.05849 10.363 4.02009 10.53 3.94577C10.6969 3.87144 10.8465 3.76287 10.9688 3.62707L11.5995 2.93507C11.7802 2.73503 12.0184 2.59583 12.2814 2.53657C12.5445 2.47732 12.8194 2.50091 13.0684 2.60412C13.3175 2.70732 13.5285 2.88508 13.6725 3.113C13.8166 3.34091 13.8865 3.60781 13.8728 3.87707L13.8255 4.8104C13.8163 4.99247 13.8454 5.17444 13.9108 5.34459C13.9763 5.51473 14.0766 5.66929 14.2055 5.79829C14.3343 5.92729 14.4887 6.02788 14.6587 6.09357C14.8288 6.15927 15.0107 6.18862 15.1928 6.17973L16.1261 6.1324C16.3952 6.11913 16.6618 6.18941 16.8894 6.33359C17.117 6.47777 17.2944 6.68881 17.3973 6.93778C17.5003 7.18674 17.5237 7.46145 17.4644 7.72425C17.4051 7.98706 17.266 8.22509 17.0661 8.40573L16.3715 9.0324C16.2358 9.15491 16.1274 9.30451 16.0532 9.47153C15.979 9.63856 15.9406 9.8193 15.9406 10.0021C15.9406 10.1848 15.979 10.3656 16.0532 10.5326C16.1274 10.6996 16.2358 10.8492 16.3715 10.9717L17.0661 11.5984C17.2662 11.7791 17.4054 12.0174 17.4646 12.2804C17.5239 12.5434 17.5003 12.8183 17.3971 13.0674C17.2939 13.3164 17.1161 13.5275 16.8882 13.6715C16.6603 13.8155 16.3934 13.8854 16.1241 13.8717L15.1908 13.8244C15.0083 13.815 14.8259 13.844 14.6554 13.9096C14.4848 13.9752 14.3299 14.0758 14.2007 14.205C14.0715 14.3342 13.9709 14.4891 13.9053 14.6596C13.8398 14.8302 13.8107 15.0126 13.8201 15.1951L13.8675 16.1284C13.8794 16.3963 13.8086 16.6614 13.6646 16.8876C13.5206 17.1139 13.3105 17.2903 13.0628 17.393C12.8151 17.4957 12.5417 17.5196 12.2799 17.4615C12.0181 17.4035 11.7805 17.2662 11.5995 17.0684L10.9721 16.3744C10.8497 16.2388 10.7001 16.1304 10.5332 16.0562C10.3662 15.982 10.1855 15.9436 10.0028 15.9436C9.82008 15.9436 9.63939 15.982 9.47242 16.0562C9.30545 16.1304 9.15591 16.2388 9.03346 16.3744L8.40346 17.0684C8.22267 17.2671 7.98499 17.4053 7.72282 17.464C7.46066 17.5227 7.18677 17.4991 6.93849 17.3965C6.69021 17.2938 6.47962 17.1171 6.33544 16.8904C6.19125 16.6637 6.12049 16.3981 6.13279 16.1297L6.18079 15.1964C6.19018 15.0139 6.16115 14.8315 6.09559 14.661C6.03003 14.4904 5.92939 14.3355 5.80019 14.2063C5.67099 14.0771 5.51611 13.9765 5.34556 13.9109C5.17501 13.8454 4.9926 13.8163 4.81012 13.8257L3.87679 13.8731C3.60765 13.8871 3.34075 13.8175 3.11275 13.6738C2.88475 13.5301 2.70681 13.3193 2.60338 13.0705C2.49994 12.8216 2.47608 12.5468 2.53506 12.2838C2.59404 12.0209 2.73298 11.7826 2.93279 11.6017L3.62679 10.9751C3.76242 10.8526 3.87084 10.703 3.94505 10.5359C4.01926 10.3689 4.0576 10.1882 4.0576 10.0054C4.0576 9.82263 4.01926 9.64189 3.94505 9.47487C3.87084 9.30784 3.76242 9.15824 3.62679 9.03573L2.93279 8.40573C2.73362 8.22507 2.59511 7.9873 2.53619 7.72493C2.47727 7.46257 2.50081 7.18841 2.60361 6.93993C2.7064 6.69145 2.88342 6.48078 3.11047 6.33672C3.33753 6.19265 3.60353 6.12223 3.87212 6.13507L4.80546 6.1824C4.98828 6.19201 5.17107 6.16306 5.34198 6.09743C5.51288 6.03179 5.66806 5.93094 5.79745 5.80143C5.92684 5.67191 6.02754 5.51663 6.093 5.34567C6.15847 5.1747 6.18725 4.99188 6.17746 4.80907L6.13279 3.87507C6.12019 3.60658 6.19075 3.34074 6.33482 3.11383C6.47889 2.88692 6.68947 2.70998 6.93782 2.60717C7.18616 2.50436 7.46018 2.48069 7.72248 2.53937C7.98479 2.59805 8.22259 2.73623 8.40346 2.93507L9.03012 3.62707Z" stroke="black" stroke-width="1.5" stroke-linecap="round" stroke-linejoin="round"/>
<path d="M6.99951 10.0022C6.99951 10.7978 7.31558 11.5609 7.87819 12.1235C8.4408 12.6861 9.20386 13.0022 9.99951 13.0022C10.7952 13.0022 11.5582 12.6861 12.1208 12.1235C12.6834 11.5609 12.9995 10.7978 12.9995 10.0022C12.9995 9.20655 12.6834 8.44349 12.1208 7.88088C11.5582 7.31827 10.7952 7.0022 9.99951 7.0022C9.20386 7.0022 8.4408 7.31827 7.87819 7.88088C7.31558 8.44349 6.99951 9.20655 6.99951 10.0022Z" stroke="black" stroke-width="1.5" stroke-linecap="round" stroke-linejoin="round"/>
</svg>
