<svg width="20" height="20" viewBox="0 0 20 20" fill="none" xmlns="http://www.w3.org/2000/svg">
<path d="M8.10062 7.31372C7.73132 6.70793 7.37832 5.96349 6.84076 5.61551C6.3032 5.26752 5.84115 5.29707 4.98554 5.29717H1.90845" stroke="black" stroke-width="1.5" stroke-linecap="round" stroke-linejoin="round"/>
<path d="M18.0917 5.29712H14.1029C11.2537 5.29712 10.5251 7.46123 9.5442 9.99822C7.72657 14.6993 7.8347 14.6993 4.98554 14.6993H1.90845" stroke="black" stroke-width="1.5" stroke-linecap="round" stroke-linejoin="round"/>
<path d="M10.9878 12.6865C11.3299 13.3054 11.6647 14.0719 12.2023 14.4192C12.7399 14.7666 14.1029 14.6995 14.1029 14.6995H18.0917" stroke="black" stroke-width="1.5" stroke-linecap="round" stroke-linejoin="round"/>
<path d="M15.5916 2.61084L18.0916 5.29719L15.5916 7.98353" stroke="black" stroke-width="1.5" stroke-linecap="round" stroke-linejoin="round"/>
<path d="M15.5916 12.0129L18.0916 14.6993L15.5916 17.3856" stroke="black" stroke-width="1.5" stroke-linecap="round" stroke-linejoin="round"/>
</svg>
