<svg width="20" height="20" viewBox="0 0 20 20" fill="none" xmlns="http://www.w3.org/2000/svg">
<path d="M7 9.25V6.25C7 5.45435 7.31607 4.69129 7.87868 4.12868C8.44129 3.56607 9.20435 3.25 10 3.25C10.7956 3.25 11.5587 3.56607 12.1213 4.12868C12.6839 4.69129 13 5.45435 13 6.25M10 12.25V13.75M5.5 16.75H14.5C14.8978 16.75 15.2794 16.592 15.5607 16.3107C15.842 16.0294 16 15.6478 16 15.25V10.75C16 10.3522 15.842 9.97064 15.5607 9.68934C15.2794 9.40804 14.8978 9.25 14.5 9.25H5.5C5.10217 9.25 4.72064 9.40804 4.43934 9.68934C4.15804 9.97064 4 10.3522 4 10.75V15.25C4 15.6478 4.15804 16.0294 4.43934 16.3107C4.72064 16.592 5.10217 16.75 5.5 16.75Z" stroke="black" stroke-width="1.5" stroke-linecap="round" stroke-linejoin="round"/>
</svg>
