<svg width="24" height="24" viewBox="0 0 24 24" fill="none" xmlns="http://www.w3.org/2000/svg">
<path d="M10.127 13.874L6.09101 12.43C6.00427 12.4024 5.92725 12.3505 5.86905 12.2805C5.81084 12.2105 5.77388 12.1253 5.76253 12.035C5.75117 11.9447 5.7659 11.853 5.80496 11.7708C5.84403 11.6886 5.90581 11.6193 5.98301 11.571L9.67401 9.53202L9.55501 5.19402C9.55331 5.10526 9.57767 5.01795 9.62507 4.9429C9.67247 4.86784 9.74084 4.80833 9.82171 4.77172C9.90259 4.73511 9.99242 4.72302 10.0801 4.73694C10.1678 4.75085 10.2494 4.79017 10.315 4.85002L13.276 7.30002L17.344 6.04402C17.4287 6.02142 17.5179 6.02149 17.6026 6.04422C17.6873 6.06696 17.7645 6.11157 17.8265 6.17356C17.8885 6.23556 17.9331 6.31278 17.9558 6.39745C17.9785 6.48213 17.9786 6.5713 17.956 6.65602L16.7 10.724L19.151 13.686C19.2109 13.7516 19.2502 13.8333 19.2641 13.9209C19.278 14.0086 19.2659 14.0984 19.2293 14.1793C19.1927 14.2602 19.1332 14.3286 19.0581 14.376C18.9831 14.4234 18.8958 14.4477 18.807 14.446L14.469 14.327L12.429 18.018C12.3809 18.0953 12.3117 18.1572 12.2295 18.1963C12.1474 18.2354 12.0557 18.2502 11.9654 18.2388C11.8751 18.2274 11.79 18.1904 11.7201 18.1322C11.6502 18.0739 11.5984 17.9968 11.571 17.91L10.127 13.874ZM10.127 13.874L0.75 23.25" stroke="#27272A" stroke-width="1.5" stroke-linecap="round" stroke-linejoin="round"/>
</svg>
