<svg width="24" height="24" viewBox="0 0 24 24" fill="none" xmlns="http://www.w3.org/2000/svg">
<g clip-path="url(#clip0_370_1511)">
<path fill-rule="evenodd" clip-rule="evenodd" d="M4.49997 0C4.91419 0 5.24997 0.335786 5.24997 0.75V1.5H5.99997C6.41419 1.5 6.74997 1.83579 6.74997 2.25C6.74997 2.66421 6.41419 3 5.99997 3H5.24997V3.75C5.24997 4.16421 4.91419 4.5 4.49997 4.5C4.08576 4.5 3.74997 4.16421 3.74997 3.75V3H2.99997C2.58576 3 2.24997 2.66421 2.24997 2.25C2.24997 1.83579 2.58576 1.5 2.99997 1.5H3.74997V0.75C3.74997 0.335786 4.08576 0 4.49997 0ZM15 0C15.4142 0 15.75 0.335786 15.75 0.75V3C15.75 3.41421 15.4142 3.75 15 3.75C14.5858 3.75 14.25 3.41421 14.25 3V0.75C14.25 0.335786 14.5858 0 15 0ZM9.51245 4.08843C9.72692 3.99136 9.96516 3.95928 10.1977 3.99619C10.4227 4.03192 10.6329 4.13075 10.8038 4.281L13.4419 6.46384L17.1228 5.32738C17.132 5.32452 17.1413 5.32185 17.1507 5.31935C17.3624 5.26284 17.5854 5.26302 17.7971 5.31986C18.0088 5.37671 18.2018 5.48822 18.3568 5.64321C18.5118 5.79821 18.6233 5.99124 18.6801 6.20294C18.737 6.41464 18.7372 6.63756 18.6807 6.84935C18.6782 6.8587 18.6755 6.86801 18.6726 6.87726L17.5362 10.5581L19.72 13.1972C19.8703 13.3681 19.9691 13.5783 20.0048 13.8033C20.0417 14.0359 20.0097 14.2741 19.9126 14.4886C19.8155 14.703 19.6577 14.8843 19.4586 15.0101C19.2596 15.1358 19.028 15.2004 18.7926 15.1959L18.7864 15.1957L14.9047 15.0892L13.0854 18.3808C13.0792 18.3921 13.0726 18.4033 13.0658 18.4142C12.9419 18.6133 12.7637 18.7726 12.552 18.8734C12.3404 18.9742 12.1043 19.0122 11.8718 18.9829C11.6392 18.9536 11.4199 18.8583 11.2398 18.7082C11.0642 18.5618 10.9331 18.3693 10.8612 18.1525L9.81981 15.2418L1.2803 23.7804C0.987393 24.0732 0.512519 24.0732 0.219641 23.7803C-0.073236 23.4874 -0.0732105 23.0125 0.219698 22.7196L8.75911 14.1811L5.8479 13.1396C5.63109 13.0673 5.43866 12.9359 5.2924 12.7601C5.14267 12.58 5.0476 12.3609 5.01839 12.1286C4.98918 11.8962 5.02705 11.6604 5.12755 11.4489C5.22805 11.2374 5.38696 11.0591 5.58554 10.935C5.59696 10.9278 5.60856 10.921 5.62035 10.9145L8.91177 9.09625L8.80512 5.20836C8.80061 4.97298 8.86524 4.74144 8.99095 4.54239C9.11666 4.34334 9.29797 4.18551 9.51245 4.08843ZM10.3227 5.82984L10.4237 9.51143C10.4314 9.79173 10.2821 10.0529 10.0367 10.1885L6.89822 11.9222L10.3797 13.1678C10.5911 13.2435 10.7575 13.4099 10.8332 13.6213L12.0784 17.1019L13.8126 13.9642C13.9482 13.7188 14.2093 13.5696 14.4896 13.5773L18.1711 13.6783L16.1222 11.2021C15.961 11.0073 15.9088 10.7444 15.9834 10.5027L17.0938 6.90618L13.4973 8.01662C13.2557 8.09122 12.9927 8.03904 12.7979 7.87784L10.3227 5.82984ZM20.25 9.75C20.25 9.33579 20.5858 9 21 9H23.25C23.6642 9 24 9.33579 24 9.75C24 10.1642 23.6642 10.5 23.25 10.5H21C20.5858 10.5 20.25 10.1642 20.25 9.75ZM20.25 18C20.6642 18 21 18.3358 21 18.75V19.5H21.75C22.1642 19.5 22.5 19.8358 22.5 20.25C22.5 20.6642 22.1642 21 21.75 21H21V21.75C21 22.1642 20.6642 22.5 20.25 22.5C19.8358 22.5 19.5 22.1642 19.5 21.75V21H18.75C18.3358 21 18 20.6642 18 20.25C18 19.8358 18.3358 19.5 18.75 19.5H19.5V18.75C19.5 18.3358 19.8358 18 20.25 18Z" fill="#27272A"/>
</g>
<defs>
<clipPath id="clip0_370_1511">
<rect width="24" height="24" fill="white"/>
</clipPath>
</defs>
</svg>
