<svg width="24" height="24" viewBox="0 0 24 24" fill="none" xmlns="http://www.w3.org/2000/svg">
<g clip-path="url(#clip0_372_1079)">
<path d="M11.6579 15.0481L8.0637 12.7122C7.98568 12.6653 7.9227 12.5971 7.8822 12.5156C7.84171 12.434 7.82539 12.3426 7.83517 12.2521C7.84495 12.1616 7.88042 12.0758 7.9374 12.0048C7.99437 11.9338 8.07047 11.8806 8.15671 11.8515L12.2185 10.7187L13.1031 6.47014C13.1219 6.38339 13.1657 6.30405 13.2292 6.24195C13.2926 6.17984 13.3729 6.1377 13.46 6.12073C13.5471 6.10377 13.6373 6.11272 13.7194 6.14648C13.8015 6.18024 13.8719 6.23733 13.9219 6.31069L16.2381 9.37751L20.4861 9.09353C20.5737 9.09107 20.6605 9.1117 20.7377 9.15336C20.8148 9.19501 20.8796 9.25622 20.9257 9.33084C20.9717 9.40547 20.9973 9.49089 20.9999 9.57853C21.0025 9.66617 20.982 9.75295 20.9405 9.83017L18.7802 13.4989L20.482 16.9463C20.5251 17.0239 20.5445 17.1124 20.5379 17.2009C20.5312 17.2894 20.4987 17.3741 20.4444 17.4443C20.3902 17.5146 20.3165 17.5674 20.2325 17.5962C20.1485 17.625 20.058 17.6286 19.972 17.6064L15.7784 16.4902L12.9421 19.6113C12.8775 19.6754 12.7959 19.7196 12.7069 19.7387C12.618 19.7578 12.5254 19.7511 12.4401 19.7192C12.3549 19.6873 12.2806 19.6316 12.226 19.5588C12.1714 19.486 12.1389 19.3991 12.1322 19.3083L11.6579 15.0481ZM11.6579 15.0481L2 20.5" stroke="#27272A" stroke-width="1.5" stroke-linecap="round" stroke-linejoin="round"/>
<path d="M8 3.25H5M6.5 1.75V4.75M17 4.75V2.5M23.25 13.5H22" stroke="#27272A" stroke-width="1.5" stroke-linecap="round" stroke-linejoin="round"/>
<path d="M18 21.75H15M16.5 20.25V23.25" stroke="#27272A" stroke-width="1.5" stroke-linecap="round" stroke-linejoin="round"/>
</g>
<defs>
<clipPath id="clip0_372_1079">
<rect width="24" height="24" fill="white"/>
</clipPath>
</defs>
</svg>
