<svg width="36" height="37" viewBox="0 0 36 37" fill="none" xmlns="http://www.w3.org/2000/svg">
<g clip-path="url(#clip0_11_1234)">
<path d="M9.51147 21.0869L15.9135 27.2699L32.9715 12.8099L34.353 1.7699L23.3685 3.5354L9.51147 21.0869Z" stroke="black" stroke-width="1.5" stroke-linecap="round" stroke-linejoin="round"/>
<path d="M14.4239 32.0174C14.8484 32.4274 15.4183 32.6519 16.0083 32.6416C16.5984 32.6314 17.1602 32.3871 17.5701 31.9626C17.9801 31.5382 18.2046 30.9682 18.1944 30.3782C18.1841 29.7881 17.9399 29.2264 17.5154 28.8164L7.91538 19.5419C7.4909 19.1313 6.92072 18.9062 6.33026 18.9161C5.7398 18.9259 5.17744 19.1699 4.76688 19.5944C4.35633 20.0189 4.13121 20.5891 4.14106 21.1795C4.1509 21.77 4.3949 22.3323 4.81938 22.7429" stroke="black" stroke-width="1.5" stroke-linecap="round" stroke-linejoin="round"/>
<path d="M27.3975 8.97284L12.7125 24.1783" stroke="black" stroke-width="1.5" stroke-linecap="round" stroke-linejoin="round"/>
<path d="M14.313 25.725L8.31152 31.9395" stroke="black" stroke-width="1.5" stroke-linecap="round" stroke-linejoin="round"/>
<path d="M11.112 22.6334L5.11047 28.8479" stroke="black" stroke-width="1.5" stroke-linecap="round" stroke-linejoin="round"/>
<path d="M4.9846 35.5199C5.86976 35.5199 6.71866 35.1683 7.34457 34.5424C7.97047 33.9165 8.3221 33.0676 8.3221 32.1824C8.3221 31.2972 7.97047 30.4483 7.34456 29.8224C6.71866 29.1965 5.86976 28.8449 4.9846 28.8449C4.09943 28.8449 3.25053 29.1965 2.62463 29.8224C1.99872 30.4483 1.64709 31.2972 1.64709 32.1824C1.64709 33.0676 1.99872 33.9165 2.62463 34.5424C3.25053 35.1683 4.09944 35.5199 4.9846 35.5199Z" stroke="black" stroke-width="1.5" stroke-linecap="round" stroke-linejoin="round"/>
</g>
<defs>
<clipPath id="clip0_11_1234">
<rect width="36" height="36" fill="white" transform="translate(0 0.872803)"/>
</clipPath>
</defs>
</svg>
