<svg width="32" height="33" viewBox="0 0 32 33" fill="none" xmlns="http://www.w3.org/2000/svg">
<g clip-path="url(#clip0_11_1234)">
<path d="M8.45459 18.8408L14.1453 24.3368L29.3079 11.4835L30.5359 1.67012L20.7719 3.23946L8.45459 18.8408Z" stroke="black" stroke-width="1.5" stroke-linecap="round" stroke-linejoin="round"/>
<path d="M12.8212 28.5569C13.1985 28.9213 13.7052 29.1209 14.2296 29.1118C14.7541 29.1026 15.2535 28.8855 15.6179 28.5082C15.9823 28.1309 16.1819 27.6243 16.1728 27.0998C16.1636 26.5753 15.9465 26.076 15.5692 25.7116L7.0359 17.4676C6.65858 17.1026 6.15175 16.9025 5.6269 16.9113C5.10205 16.92 4.60217 17.1369 4.23723 17.5142C3.87229 17.8915 3.67219 18.3984 3.68094 18.9232C3.68969 19.4481 3.90658 19.9479 4.2839 20.3129" stroke="black" stroke-width="1.5" stroke-linecap="round" stroke-linejoin="round"/>
<path d="M24.3533 8.07274L11.2999 21.5887" stroke="black" stroke-width="1.5" stroke-linecap="round" stroke-linejoin="round"/>
<path d="M12.7227 22.9635L7.38806 28.4875" stroke="black" stroke-width="1.5" stroke-linecap="round" stroke-linejoin="round"/>
<path d="M9.87727 20.2155L4.5426 25.7395" stroke="black" stroke-width="1.5" stroke-linecap="round" stroke-linejoin="round"/>
<path d="M4.43066 31.6702C5.21747 31.6702 5.97205 31.3576 6.52841 30.8012C7.08477 30.2449 7.39732 29.4903 7.39732 28.7035C7.39732 27.9167 7.08477 27.1621 6.52841 26.6057C5.97205 26.0494 5.21747 25.7368 4.43066 25.7368C3.64385 25.7368 2.88926 26.0494 2.33291 26.6057C1.77655 27.1621 1.46399 27.9167 1.46399 28.7035C1.46399 29.4903 1.77655 30.2449 2.33291 30.8012C2.88926 31.3576 3.64385 31.6702 4.43066 31.6702Z" stroke="black" stroke-width="1.5" stroke-linecap="round" stroke-linejoin="round"/>
</g>
<defs>
<clipPath id="clip0_11_1234">
<rect width="32" height="32" fill="white" transform="translate(0 0.872803)"/>
</clipPath>
</defs>
</svg>
