<svg width="866" height="415" viewBox="0 0 866 415" fill="none" xmlns="http://www.w3.org/2000/svg">
<path d="M464.607 5.5H458.607L455.607 6.5L447.607 7.5C443.607 7.5 440.607 4.5 439.607 6.5C437.607 8.5 428.607 10.5 414.607 10.5C409.607 10.5 408.607 0.5 400.607 9.5C397.607 13.5 396.607 9.5 397.607 13.5C397.607 19.5 393.607 13.5 387.607 13.5L381.607 14.5L377.607 16.5L374.607 17.5H364.607C360.607 20.5 341.607 5.5 339.607 6.5C338.607 7.5 334.607 18.5 331.607 18.5C327.607 18.5 326.607 18.5 323.607 15.5L319.607 10.5L313.607 7.5C306.607 11.5 313.607 9.5 304.607 4.5C302.607 2.5 300.607 2.5 295.607 4.5L288.607 5.5V6.5C288.607 8.5 287.607 6.5 284.607 6.5L278.607 4.5C276.607 2.5 275.607 6.5 275.607 9.5C274.607 12.5 274.607 12.5 270.607 10.5C268.607 9.5 268.607 9.5 269.607 11.5C270.607 14.5 269.607 14.5 266.607 11.5C262.607 8.5 246.607 4.5 244.607 5.5L239.607 6.5L229.607 7.5L222.607 8.5L220.607 9.5C217.607 13.5 194.607 15.5 190.607 11.5C187.607 8.5 176.607 6.5 169.607 8.5L161.607 7.5C159.607 6.5 158.607 6.5 157.607 8.5L147.607 9.5L126.607 10.5L124.607 11.5L118.607 14.5L113.607 15.5L108.607 12.5L100.607 10.5H99.607C100.607 12.5 98.607 12.5 96.607 10.5C95.607 8.5 95.607 8.5 95.607 10.5C95.607 13.5 94.607 14.5 91.607 14.5L88.607 13.5H86.607C85.607 16.5 81.607 16.5 80.607 14.5C80.607 12.5 78.607 12.5 75.607 13.5L70.607 12.5L68.607 10.5C66.607 10.5 65.607 10.5 66.607 9.5C67.607 7.5 66.607 7.5 65.607 9.5C63.607 10.5 62.607 10.5 58.607 8.5C55.607 6.5 54.607 6.5 55.607 8.5C56.607 10.5 56.607 10.5 53.607 10.5H50.607L46.607 11.5L36.607 10.5L26.4294 15.5C22.4294 13.5 20.4047 16.5 18.4047 17.5L16.8704 18.5C16.8704 25.5 14.8116 21.9763 10.8116 27.9763C7.42944 31.0057 4.60699 42.5 4.60699 48.5C4.60699 58.5 1.60699 103.5 2.60699 106.5L3.60699 122.5C3.60699 133.5 4.60699 139.5 6.60699 143.5C8.60699 147.5 10.607 150.5 9.60699 156.5C7.60699 174.5 1.60699 209.5 2.60699 221.5C3.85416 232.891 5.52196 244.232 7.60699 255.5L5.60699 264.5L3.60699 272.5L1.60699 286.5C1.60699 293.5 7.60699 306.5 7.60699 315.5C6.60699 330.5 7.60699 332.5 9.60699 335.5C12.607 339.5 12.607 340.5 10.607 343.5L7.60699 348.5C5.60699 348.5 4.60699 351.913 3.60699 367.913C3.60699 379.913 4.60699 391.041 7.60699 390.041C8.60699 389.041 11.607 397.5 14.607 399.5L20.607 401.5L33.607 404.5C46.607 408.5 52.607 408.5 56.607 404.5C57.607 402.5 58.607 402.5 59.607 404.5C60.607 406.5 64.607 406.5 66.607 404.5H94.607C98.607 403.5 102.607 400.5 105.607 401.5H111.607C116.607 400.5 116.607 403.5 129.607 403.5H139.607C140.607 402.5 151.607 403.5 157.607 405.5L161.607 406.5L168.607 408.5C173.607 408.5 174.607 408.5 177.607 406.5C180.607 403.5 188.607 402.5 188.607 405.5L189.607 404.5C191.607 402.5 191.607 402.5 194.607 404.5L199.607 406.5L204.607 408.5L210.607 409.5C212.607 408.5 218.607 409.5 224.607 410.5C230.607 411.5 235.607 401.5 237.607 400.5C240.607 399.5 242.607 399.5 245.607 401.5C248.607 403.5 250.607 403.5 253.607 402.5H262.607L274.607 403.5C279.607 403.5 282.607 407.5 282.607 408.5C283.607 410.5 288.607 405.5 300.607 405.5L318.607 406.5C322.607 409.5 330.607 409.5 334.607 407.5L340.607 406.5H345.607C346.607 404.5 362.607 411.5 368.607 409.5L379.607 406.5L381.607 407.5H382.607L387.607 404.5L392.607 401.5C393.607 401.5 395.607 402.5 397.607 400.5C401.607 395.5 403.607 394.5 402.607 398.5V401.5L404.607 399.5C404.607 396.5 405.607 401.5 413.607 402.5C420.607 403.5 423.607 403.5 429.607 401.5L438.607 399.5L437.607 400.5C434.607 401.5 436.607 404.5 439.607 404.5L446.607 407.5C450.607 411.5 450.607 408.5 449.607 403.5C449.607 398.5 452.607 397.5 453.607 402.5C454.607 405.5 457.607 405.5 461.607 401.5C465.607 397.5 472.607 396.5 473.607 400.5C474.607 403.5 475.607 403.5 477.607 402.5L481.607 400.5C483.607 398.5 487.607 397.5 490.607 397.5L497.607 398.5C506.607 397.5 510.607 398.5 510.607 399.5C511.607 401.5 518.607 402.5 519.607 400.5L526.607 402.5C531.607 405.5 538.607 406.5 540.607 404.5H544.607L548.607 405.5C551.607 403.5 566.607 406.5 568.607 408.5C570.607 410.5 571.607 410.5 576.607 409.5L583.607 406.5L589.607 405.5H593.607L596.607 404.5C597.607 405.5 599.607 404.5 600.607 402.5C601.607 400.5 603.607 406.5 609.607 405.5L620.607 403.5C633.607 396.5 646.607 407.5 671.607 407.5C683.607 407.5 688.607 407.5 691.607 405.5L696.607 402.5L699.607 399.5L704.607 402.5C710.607 398.5 721.607 396.5 733.607 397.5L746.607 396.5C747.607 395.5 749.607 396.5 753.607 399.5C761.607 405.5 783.607 404.5 792.607 400.5L808.607 397.5C811.607 397.5 815.607 401.5 815.607 400.5C828.893 399.107 844.372 395.703 850.295 390.188C856.219 384.674 859.607 376.5 860.607 338.5C860.607 332.5 858.607 319.5 859.607 308.5C860.607 298.5 851.607 273.5 853.607 262.5C854.607 252.5 858.607 248.5 859.607 243.5C860.607 238.5 853.607 223.5 855.607 208.5C857.607 194.5 857.607 172.5 858.607 159.5C860.607 146.5 858.607 131.5 858.607 126.5C858.607 121.5 853.607 113.5 854.607 108.5C857.848 74.6016 861.516 68.0279 860.94 33.9799L856.3 18.7031C853.014 16.8925 851.624 15.0451 849.624 13.0451L841.929 7.72649L836.607 6.5C834.607 6.5 831.607 6.5 829.607 4.5C826.607 2.5 823.607 11.5 822.607 11.5C817.607 13.5 816.607 6.5 813.607 6.5C808.607 6.5 803.607 7.5 802.607 9.5C802.607 10.5 800.607 14.5 798.607 13.5L790.607 11.5L780.607 9.5L764.607 8.5L750.607 7.5L736.607 5.5L719.607 4.5C715.607 3.5 713.607 4.5 712.607 5.5C711.607 7.5 709.607 7.5 705.607 6.5L700.607 7.5L701.607 9.5C704.607 9.5 699.607 13.5 696.607 13.5L692.607 15.5C692.607 17.5 683.607 16.5 680.607 14.5H670.607C666.607 17.5 651.607 23.5 643.607 15.5L637.607 10.5C632.607 9.5 616.607 8.5 613.607 9.5C610.607 10.5 605.607 11.5 604.607 9.5H602.607L595.607 7.5L588.607 5.5H584.607C580.607 3.5 572.607 4.5 559.607 8.5L554.607 9.5L548.607 11.5L532.607 12.5C520.607 12.5 518.607 11.5 513.607 8.5C510.607 6.5 507.607 8.5 506.607 8.5L500.607 5.5C496.607 3.5 493.607 4.5 481.607 4.5L464.607 5.5Z" fill="white"/>
</svg>
