<svg width="867" height="415" viewBox="0 0 867 415" fill="none" xmlns="http://www.w3.org/2000/svg">
<path d="M398.5 5.5H404.5L407.5 6.5L415.5 7.5C419.5 7.5 422.5 4.5 423.5 6.5C425.5 8.5 434.5 10.5 448.5 10.5C453.5 10.5 454.5 0.5 462.5 9.5C465.5 13.5 466.5 9.5 465.5 13.5C465.5 19.5 469.5 13.5 475.5 13.5L481.5 14.5L485.5 16.5L488.5 17.5H498.5C502.5 20.5 521.5 5.5 523.5 6.5C524.5 7.5 528.5 18.5 531.5 18.5C535.5 18.5 536.5 18.5 539.5 15.5L543.5 10.5L549.5 7.5C556.5 11.5 549.5 9.5 558.5 4.5C560.5 2.5 562.5 2.5 567.5 4.5L574.5 5.5V6.5C574.5 8.5 575.5 6.5 578.5 6.5L584.5 4.5C586.5 2.5 587.5 6.5 587.5 9.5C588.5 12.5 588.5 12.5 592.5 10.5C594.5 9.5 594.5 9.5 593.5 11.5C592.5 14.5 593.5 14.5 596.5 11.5C600.5 8.5 616.5 4.5 618.5 5.5L623.5 6.5L633.5 7.5L640.5 8.5L642.5 9.5C645.5 13.5 668.5 15.5 672.5 11.5C675.5 8.5 686.5 6.5 693.5 8.5L701.5 7.5C703.5 6.5 704.5 6.5 705.5 8.5L715.5 9.5L736.5 10.5L738.5 11.5L744.5 14.5L749.5 15.5L754.5 12.5L762.5 10.5H763.5C762.5 12.5 764.5 12.5 766.5 10.5C767.5 8.5 767.5 8.5 767.5 10.5C767.5 13.5 768.5 14.5 771.5 14.5L774.5 13.5H776.5C777.5 16.5 781.5 16.5 782.5 14.5C782.5 12.5 784.5 12.5 787.5 13.5L792.5 12.5L794.5 10.5C796.5 10.5 797.5 10.5 796.5 9.5C795.5 7.5 796.5 7.5 797.5 9.5C799.5 10.5 800.5 10.5 804.5 8.5C807.5 6.5 808.5 6.5 807.5 8.5C806.5 10.5 806.5 10.5 809.5 10.5H812.5L816.5 11.5L826.5 10.5L836.678 15.5C840.678 13.5 842.702 16.5 844.702 17.5L846.237 18.5C846.237 25.5 848.295 21.9763 852.295 27.9763C855.678 31.0057 858.5 42.5 858.5 48.5C858.5 58.5 861.5 103.5 860.5 106.5L859.5 122.5C859.5 133.5 858.5 139.5 856.5 143.5C854.5 147.5 852.5 150.5 853.5 156.5C855.5 174.5 861.5 209.5 860.5 221.5C859.253 232.891 857.585 244.232 855.5 255.5L857.5 264.5L859.5 272.5L861.5 286.5C861.5 293.5 855.5 306.5 855.5 315.5C856.5 330.5 855.5 332.5 853.5 335.5C850.5 339.5 850.5 340.5 852.5 343.5L855.5 348.5C857.5 348.5 858.5 351.913 859.5 367.913C859.5 379.913 858.5 391.041 855.5 390.041C854.5 389.041 851.5 397.5 848.5 399.5L842.5 401.5L829.5 404.5C816.5 408.5 810.5 408.5 806.5 404.5C805.5 402.5 804.5 402.5 803.5 404.5C802.5 406.5 798.5 406.5 796.5 404.5H768.5C764.5 403.5 760.5 400.5 757.5 401.5H751.5C746.5 400.5 746.5 403.5 733.5 403.5H723.5C722.5 402.5 711.5 403.5 705.5 405.5L701.5 406.5L694.5 408.5C689.5 408.5 688.5 408.5 685.5 406.5C682.5 403.5 674.5 402.5 674.5 405.5L673.5 404.5C671.5 402.5 671.5 402.5 668.5 404.5L663.5 406.5L658.5 408.5L652.5 409.5C650.5 408.5 644.5 409.5 638.5 410.5C632.5 411.5 627.5 401.5 625.5 400.5C622.5 399.5 620.5 399.5 617.5 401.5C614.5 403.5 612.5 403.5 609.5 402.5H600.5L588.5 403.5C583.5 403.5 580.5 407.5 580.5 408.5C579.5 410.5 574.5 405.5 562.5 405.5L544.5 406.5C540.5 409.5 532.5 409.5 528.5 407.5L522.5 406.5H517.5C516.5 404.5 500.5 411.5 494.5 409.5L483.5 406.5L481.5 407.5H480.5L475.5 404.5L470.5 401.5C469.5 401.5 467.5 402.5 465.5 400.5C461.5 395.5 459.5 394.5 460.5 398.5V401.5L458.5 399.5C458.5 396.5 457.5 401.5 449.5 402.5C442.5 403.5 439.5 403.5 433.5 401.5L424.5 399.5L425.5 400.5C428.5 401.5 426.5 404.5 423.5 404.5L416.5 407.5C412.5 411.5 412.5 408.5 413.5 403.5C413.5 398.5 410.5 397.5 409.5 402.5C408.5 405.5 405.5 405.5 401.5 401.5C397.5 397.5 390.5 396.5 389.5 400.5C388.5 403.5 387.5 403.5 385.5 402.5L381.5 400.5C379.5 398.5 375.5 397.5 372.5 397.5L365.5 398.5C356.5 397.5 352.5 398.5 352.5 399.5C351.5 401.5 344.5 402.5 343.5 400.5L336.5 402.5C331.5 405.5 324.5 406.5 322.5 404.5H318.5L314.5 405.5C311.5 403.5 296.5 406.5 294.5 408.5C292.5 410.5 291.5 410.5 286.5 409.5L279.5 406.5L273.5 405.5H269.5L266.5 404.5C265.5 405.5 263.5 404.5 262.5 402.5C261.5 400.5 259.5 406.5 253.5 405.5L242.5 403.5C229.5 396.5 216.5 407.5 191.5 407.5C179.5 407.5 174.5 407.5 171.5 405.5L166.5 402.5L163.5 399.5L158.5 402.5C152.5 398.5 141.5 396.5 129.5 397.5L116.5 396.5C115.5 395.5 113.5 396.5 109.5 399.5C101.5 405.5 79.5 404.5 70.5 400.5L54.5 397.5C51.5 397.5 47.5 401.5 47.5 400.5C34.2142 399.107 18.7347 395.703 12.8115 390.188C6.88832 384.674 3.49999 376.5 2.49999 338.5C2.49999 332.5 4.49999 319.5 3.49999 308.5C2.49999 298.5 11.5 273.5 9.49999 262.5C8.49999 252.5 4.49999 248.5 3.49999 243.5C2.49999 238.5 9.49999 223.5 7.49999 208.5C5.49999 194.5 5.49999 172.5 4.49999 159.5C2.49999 146.5 4.49999 131.5 4.49999 126.5C4.49999 121.5 9.49999 113.5 8.49999 108.5C5.25925 74.6016 1.59098 68.0279 2.16716 33.9799L6.80676 18.7031C10.0926 16.8925 11.4833 15.0451 13.4833 13.0451L21.1783 7.72649L26.5 6.5C28.5 6.5 31.5 6.5 33.5 4.5C36.5 2.5 39.5 11.5 40.5 11.5C45.5 13.5 46.5 6.5 49.5 6.5C54.5 6.5 59.5 7.5 60.5 9.5C60.5 10.5 62.5 14.5 64.5 13.5L72.5 11.5L82.5 9.5L98.5 8.5L112.5 7.5L126.5 5.5L143.5 4.5C147.5 3.5 149.5 4.5 150.5 5.5C151.5 7.5 153.5 7.5 157.5 6.5L162.5 7.5L161.5 9.5C158.5 9.5 163.5 13.5 166.5 13.5L170.5 15.5C170.5 17.5 179.5 16.5 182.5 14.5H192.5C196.5 17.5 211.5 23.5 219.5 15.5L225.5 10.5C230.5 9.5 246.5 8.5 249.5 9.5C252.5 10.5 257.5 11.5 258.5 9.5H260.5L267.5 7.5L274.5 5.5H278.5C282.5 3.5 290.5 4.5 303.5 8.5L308.5 9.5L314.5 11.5L330.5 12.5C342.5 12.5 344.5 11.5 349.5 8.5C352.5 6.5 355.5 8.5 356.5 8.5L362.5 5.5C366.5 3.5 369.5 4.5 381.5 4.5L398.5 5.5Z" fill="white"/>
</svg>
